<svg width="30" height="20" viewBox="0 0 30 20" fill="none" xmlns="http://www.w3.org/2000/svg">
<path d="M27.5 0H2.5C1.11929 0 0 1.11929 0 2.5V17.5C0 18.8807 1.11929 20 2.5 20H27.5C28.8807 20 30 18.8807 30 17.5V2.5C30 1.11929 28.8807 0 27.5 0Z" fill="#016FD0"/>
<path fill-rule="evenodd" clip-rule="evenodd" d="M17.2031 16.742V9.61523L29.8875 9.62662V11.5952L28.4215 13.162L29.8875 14.7431V16.7535H27.5468L26.3028 15.3808L25.0677 16.7587L17.2031 16.742Z" fill="#FFFFFE"/>
<path fill-rule="evenodd" clip-rule="evenodd" d="M18.0547 15.9605V10.3994H22.77V11.6805H19.5814V12.5501H22.694V13.8099H19.5814V14.6641H22.77V15.9605H18.0547Z" fill="#016FD0"/>
<path fill-rule="evenodd" clip-rule="evenodd" d="M22.7423 15.9614L25.3515 13.1776L22.7422 10.4004H24.7617L26.3561 12.1629L27.955 10.4004H29.8877V10.4441L27.3341 13.1776L29.8877 15.8825V15.9614H27.9356L26.3129 14.1812L24.7069 15.9614H22.7423Z" fill="#016FD0"/>
<path fill-rule="evenodd" clip-rule="evenodd" d="M17.7966 3.29004H20.8541L21.9281 5.7286V3.29004H25.7029L26.3538 5.117L27.007 3.29004H29.8894V10.4168H14.6562L17.7966 3.29004Z" fill="#FFFFFE"/>
<path fill-rule="evenodd" clip-rule="evenodd" d="M18.3738 4.06445L15.9062 9.62092H17.5986L18.0642 8.50821H20.5866L21.0518 9.62092H22.7863L20.329 4.06445H18.3738ZM18.5858 7.26125L19.3258 5.49241L20.0653 7.26125H18.5858Z" fill="#016FD0"/>
<path fill-rule="evenodd" clip-rule="evenodd" d="M22.7656 9.61983V4.06348L25.1445 4.07165L26.3686 7.48757L27.6007 4.06348H29.8902V9.61983L28.4169 9.63287V5.81618L27.0262 9.61983H25.6814L24.2619 5.80315V9.61983H22.7656Z" fill="#016FD0"/>
</svg>
