<svg width="220" height="66" viewBox="0 0 220 66" fill="none" xmlns="http://www.w3.org/2000/svg">
<rect x="0.102783" y="0.312012" width="219" height="65" rx="20" fill="#4030EA"/>
<path d="M39.1028 48.9788C29.8978 48.9788 22.4362 41.5172 22.4362 32.3122C22.4362 23.1072 29.8978 15.6455 39.1028 15.6455C48.3078 15.6455 55.7695 23.1072 55.7695 32.3122C55.7595 41.5122 48.3028 48.9688 39.1028 48.9788ZM31.9812 36.9572C31.7662 36.9572 31.5528 36.9838 31.3428 37.0338L31.0928 37.1022L30.1028 38.7972C29.922 39.0988 29.8639 39.4584 29.9406 39.8016C30.0173 40.1448 30.2229 40.4455 30.5149 40.6414C30.807 40.8374 31.1631 40.9137 31.5098 40.8546C31.8565 40.7955 32.1672 40.6055 32.3778 40.3238L32.4812 40.1688L33.7978 37.8838C33.5844 37.5984 33.3079 37.3663 32.9898 37.2055C32.6718 37.0447 32.3209 36.9598 31.9645 36.9572H31.9812ZM41.1212 26.7455C40.6026 27.2326 40.2588 27.8769 40.1428 28.5788C39.957 29.5467 40.1351 30.5491 40.6428 31.3938L45.7095 40.1705C45.8858 40.4672 46.167 40.6869 46.4975 40.7863C46.828 40.8857 47.1838 40.8574 47.4945 40.7072C47.8043 40.5544 48.045 40.2903 48.1686 39.9678C48.2922 39.6452 48.2895 39.2879 48.1612 38.9672L48.0795 38.8005L46.7462 36.4822H48.7295C49.0768 36.4793 49.4101 36.3447 49.6621 36.1056C49.9141 35.8666 50.066 35.5408 50.0871 35.1941C50.1083 34.8474 49.9971 34.5056 49.7761 34.2376C49.555 33.9697 49.2406 33.7956 48.8962 33.7505L48.7295 33.7405H45.1628L41.5062 27.4072L41.1245 26.7405L41.1212 26.7455ZM29.5362 33.7288C29.3571 33.7293 29.1798 33.765 29.0146 33.8341C28.8493 33.9031 28.6993 34.0041 28.5731 34.1312C28.4469 34.2583 28.3471 34.4091 28.2792 34.5748C28.2114 34.7406 28.1769 34.9181 28.1778 35.0972C28.1778 35.7872 28.6912 36.3705 29.3762 36.4588L29.5428 36.4672H42.0095C42.1475 36.1901 42.2169 35.884 42.212 35.5746C42.207 35.2651 42.1279 34.9613 41.9812 34.6888C41.8564 34.4335 41.6704 34.2131 41.4398 34.047C41.2092 33.881 40.9412 33.7745 40.6595 33.7372L40.4578 33.7272H36.2062L42.0862 23.5455C42.2673 23.2299 42.3164 22.8555 42.2228 22.5038C42.1563 22.2571 42.0221 22.0338 41.8356 21.859C41.649 21.6843 41.4174 21.5652 41.1667 21.5149C40.9161 21.4647 40.6565 21.4854 40.417 21.5747C40.1775 21.6641 39.9677 21.8184 39.8112 22.0205L39.7078 22.1738L39.1028 23.2305L38.5045 22.1738C38.3281 21.8767 38.0466 21.6567 37.7157 21.5573C37.3849 21.4579 37.0287 21.4864 36.7178 21.6372C36.4082 21.7906 36.1676 22.055 36.0441 22.3777C35.9206 22.7005 35.9231 23.0579 36.0512 23.3788L36.1328 23.5455L37.5162 25.9788L33.0412 33.7288H29.5362Z" fill="white"/>
<path d="M80.3028 32.32H82.9188L90.2388 49.312H86.7828L85.1988 45.424H77.8308L76.2948 49.312H72.9108L80.3028 32.32ZM84.1428 42.832L81.5268 35.92L78.8628 42.832H84.1428ZM94.5361 37.792V39.4H94.6081C94.7521 39.176 94.9361 38.952 95.1601 38.728C95.4001 38.488 95.6881 38.28 96.0241 38.104C96.3601 37.912 96.7361 37.76 97.1521 37.648C97.5841 37.52 98.0641 37.456 98.5921 37.456C99.4081 37.456 100.16 37.616 100.848 37.936C101.536 38.24 102.128 38.664 102.624 39.208C103.12 39.752 103.504 40.392 103.776 41.128C104.048 41.864 104.184 42.656 104.184 43.504C104.184 44.352 104.048 45.152 103.776 45.904C103.52 46.64 103.144 47.288 102.648 47.848C102.168 48.392 101.576 48.832 100.872 49.168C100.184 49.488 99.4001 49.648 98.5201 49.648C97.7041 49.648 96.9521 49.48 96.2641 49.144C95.5921 48.808 95.0721 48.352 94.7041 47.776H94.6561V55.072H91.7761V37.792H94.5361ZM101.256 43.504C101.256 43.056 101.184 42.616 101.04 42.184C100.912 41.736 100.712 41.336 100.44 40.984C100.168 40.632 99.8241 40.352 99.4081 40.144C98.9921 39.92 98.5041 39.808 97.9441 39.808C97.4161 39.808 96.9441 39.92 96.5281 40.144C96.1121 40.368 95.7521 40.656 95.4481 41.008C95.1601 41.36 94.9361 41.76 94.7761 42.208C94.6321 42.656 94.5601 43.104 94.5601 43.552C94.5601 44 94.6321 44.448 94.7761 44.896C94.9361 45.328 95.1601 45.72 95.4481 46.072C95.7521 46.424 96.1121 46.712 96.5281 46.936C96.9441 47.144 97.4161 47.248 97.9441 47.248C98.5041 47.248 98.9921 47.136 99.4081 46.912C99.8241 46.688 100.168 46.4 100.44 46.048C100.712 45.696 100.912 45.296 101.04 44.848C101.184 44.4 101.256 43.952 101.256 43.504ZM109.724 37.792V39.4H109.796C109.94 39.176 110.124 38.952 110.348 38.728C110.588 38.488 110.876 38.28 111.212 38.104C111.548 37.912 111.924 37.76 112.34 37.648C112.772 37.52 113.252 37.456 113.78 37.456C114.596 37.456 115.348 37.616 116.036 37.936C116.724 38.24 117.316 38.664 117.812 39.208C118.308 39.752 118.692 40.392 118.964 41.128C119.236 41.864 119.372 42.656 119.372 43.504C119.372 44.352 119.236 45.152 118.964 45.904C118.708 46.64 118.332 47.288 117.836 47.848C117.356 48.392 116.764 48.832 116.06 49.168C115.372 49.488 114.588 49.648 113.708 49.648C112.892 49.648 112.14 49.48 111.452 49.144C110.78 48.808 110.26 48.352 109.892 47.776H109.844V55.072H106.964V37.792H109.724ZM116.444 43.504C116.444 43.056 116.372 42.616 116.228 42.184C116.1 41.736 115.9 41.336 115.628 40.984C115.356 40.632 115.012 40.352 114.596 40.144C114.18 39.92 113.692 39.808 113.132 39.808C112.604 39.808 112.132 39.92 111.716 40.144C111.3 40.368 110.94 40.656 110.636 41.008C110.348 41.36 110.124 41.76 109.964 42.208C109.82 42.656 109.748 43.104 109.748 43.552C109.748 44 109.82 44.448 109.964 44.896C110.124 45.328 110.348 45.72 110.636 46.072C110.94 46.424 111.3 46.712 111.716 46.936C112.132 47.144 112.604 47.248 113.132 47.248C113.692 47.248 114.18 47.136 114.596 46.912C115.012 46.688 115.356 46.4 115.628 46.048C115.9 45.696 116.1 45.296 116.228 44.848C116.372 44.4 116.444 43.952 116.444 43.504ZM136.959 35.872C136.639 35.456 136.183 35.112 135.591 34.84C135.015 34.552 134.431 34.408 133.839 34.408C133.487 34.408 133.135 34.456 132.783 34.552C132.431 34.632 132.111 34.768 131.823 34.96C131.535 35.136 131.295 35.376 131.103 35.68C130.927 35.968 130.839 36.32 130.839 36.736C130.839 37.12 130.919 37.448 131.079 37.72C131.239 37.992 131.455 38.224 131.727 38.416C132.015 38.608 132.359 38.776 132.759 38.92C133.159 39.064 133.599 39.208 134.079 39.352C134.623 39.528 135.183 39.728 135.759 39.952C136.351 40.176 136.887 40.472 137.367 40.84C137.863 41.208 138.263 41.672 138.567 42.232C138.887 42.792 139.047 43.488 139.047 44.32C139.047 45.232 138.879 46.032 138.543 46.72C138.207 47.392 137.759 47.952 137.199 48.4C136.639 48.848 135.983 49.184 135.231 49.408C134.479 49.632 133.687 49.744 132.855 49.744C131.751 49.744 130.671 49.544 129.615 49.144C128.559 48.728 127.695 48.12 127.023 47.32L129.183 45.304C129.599 45.88 130.151 46.336 130.839 46.672C131.543 47.008 132.231 47.176 132.903 47.176C133.255 47.176 133.615 47.136 133.983 47.056C134.351 46.96 134.679 46.808 134.967 46.6C135.271 46.392 135.511 46.136 135.687 45.832C135.879 45.512 135.975 45.12 135.975 44.656C135.975 44.208 135.871 43.84 135.663 43.552C135.455 43.248 135.175 42.992 134.823 42.784C134.471 42.56 134.055 42.368 133.575 42.208C133.095 42.048 132.591 41.88 132.063 41.704C131.551 41.544 131.039 41.352 130.527 41.128C130.015 40.904 129.551 40.608 129.135 40.24C128.735 39.872 128.407 39.424 128.151 38.896C127.895 38.352 127.767 37.68 127.767 36.88C127.767 36.016 127.943 35.272 128.295 34.648C128.663 34.024 129.135 33.512 129.711 33.112C130.303 32.696 130.967 32.392 131.703 32.2C132.455 31.992 133.215 31.888 133.983 31.888C134.847 31.888 135.719 32.04 136.599 32.344C137.495 32.648 138.271 33.104 138.927 33.712L136.959 35.872ZM140.136 40.096V37.792H142.152V34.456H144.984V37.792H147.864V40.096H144.984V45.448C144.984 45.96 145.072 46.384 145.248 46.72C145.44 47.056 145.856 47.224 146.496 47.224C146.688 47.224 146.896 47.208 147.12 47.176C147.344 47.128 147.544 47.064 147.72 46.984L147.816 49.24C147.56 49.336 147.256 49.408 146.904 49.456C146.552 49.52 146.216 49.552 145.896 49.552C145.128 49.552 144.504 49.448 144.024 49.24C143.544 49.016 143.16 48.72 142.872 48.352C142.6 47.968 142.408 47.536 142.296 47.056C142.2 46.56 142.152 46.032 142.152 45.472V40.096H140.136ZM149.276 43.504C149.276 42.592 149.436 41.768 149.756 41.032C150.092 40.28 150.54 39.64 151.1 39.112C151.66 38.584 152.324 38.176 153.092 37.888C153.86 37.6 154.676 37.456 155.54 37.456C156.404 37.456 157.22 37.6 157.988 37.888C158.756 38.176 159.42 38.584 159.98 39.112C160.54 39.64 160.98 40.28 161.3 41.032C161.636 41.768 161.804 42.592 161.804 43.504C161.804 44.416 161.636 45.248 161.3 46C160.98 46.752 160.54 47.4 159.98 47.944C159.42 48.472 158.756 48.888 157.988 49.192C157.22 49.496 156.404 49.648 155.54 49.648C154.676 49.648 153.86 49.496 153.092 49.192C152.324 48.888 151.66 48.472 151.1 47.944C150.54 47.4 150.092 46.752 149.756 46C149.436 45.248 149.276 44.416 149.276 43.504ZM152.204 43.504C152.204 43.952 152.268 44.4 152.396 44.848C152.54 45.296 152.748 45.696 153.02 46.048C153.292 46.4 153.636 46.688 154.052 46.912C154.468 47.136 154.964 47.248 155.54 47.248C156.116 47.248 156.612 47.136 157.028 46.912C157.444 46.688 157.788 46.4 158.06 46.048C158.332 45.696 158.532 45.296 158.66 44.848C158.804 44.4 158.876 43.952 158.876 43.504C158.876 43.056 158.804 42.616 158.66 42.184C158.532 41.736 158.332 41.336 158.06 40.984C157.788 40.632 157.444 40.352 157.028 40.144C156.612 39.92 156.116 39.808 155.54 39.808C154.964 39.808 154.468 39.92 154.052 40.144C153.636 40.352 153.292 40.632 153.02 40.984C152.748 41.336 152.54 41.736 152.396 42.184C152.268 42.616 152.204 43.056 152.204 43.504ZM164.596 37.792H167.356V39.712H167.404C167.724 39.04 168.172 38.496 168.748 38.08C169.324 37.664 169.996 37.456 170.764 37.456C170.876 37.456 170.996 37.464 171.124 37.48C171.252 37.48 171.364 37.496 171.46 37.528V40.168C171.268 40.12 171.1 40.088 170.956 40.072C170.828 40.056 170.7 40.048 170.572 40.048C169.916 40.048 169.388 40.168 168.988 40.408C168.588 40.648 168.276 40.936 168.052 41.272C167.828 41.608 167.676 41.952 167.596 42.304C167.516 42.656 167.476 42.936 167.476 43.144V49.312H164.596V37.792ZM181.029 42.4C181.029 42.032 180.973 41.68 180.861 41.344C180.765 41.008 180.605 40.712 180.381 40.456C180.157 40.2 179.869 40 179.517 39.856C179.181 39.696 178.781 39.616 178.317 39.616C177.453 39.616 176.717 39.88 176.109 40.408C175.517 40.92 175.189 41.584 175.125 42.4H181.029ZM183.909 43.696C183.909 43.824 183.909 43.952 183.909 44.08C183.909 44.208 183.901 44.336 183.885 44.464H175.125C175.157 44.88 175.261 45.264 175.437 45.616C175.629 45.952 175.877 46.248 176.181 46.504C176.485 46.744 176.829 46.936 177.213 47.08C177.597 47.224 177.997 47.296 178.413 47.296C179.133 47.296 179.741 47.168 180.237 46.912C180.733 46.64 181.141 46.272 181.461 45.808L183.381 47.344C182.245 48.88 180.597 49.648 178.437 49.648C177.541 49.648 176.717 49.512 175.965 49.24C175.213 48.952 174.557 48.552 173.997 48.04C173.453 47.528 173.021 46.904 172.701 46.168C172.397 45.416 172.245 44.568 172.245 43.624C172.245 42.696 172.397 41.856 172.701 41.104C173.021 40.336 173.453 39.688 173.997 39.16C174.541 38.616 175.181 38.2 175.917 37.912C176.669 37.608 177.477 37.456 178.341 37.456C179.141 37.456 179.877 37.592 180.549 37.864C181.237 38.12 181.829 38.512 182.325 39.04C182.821 39.552 183.205 40.2 183.477 40.984C183.765 41.752 183.909 42.656 183.909 43.696Z" fill="white"/>
<path d="M83.9368 15.178C83.5915 14.814 83.1808 14.534 82.7048 14.338C82.2288 14.1327 81.6828 14.03 81.0668 14.03C80.4321 14.03 79.8581 14.1467 79.3448 14.38C78.8408 14.6133 78.4115 14.9307 78.0568 15.332C77.7021 15.724 77.4268 16.1813 77.2308 16.704C77.0441 17.2267 76.9508 17.7773 76.9508 18.356C76.9508 18.9347 77.0441 19.4853 77.2308 20.008C77.4268 20.5307 77.7021 20.988 78.0568 21.38C78.4115 21.772 78.8408 22.0847 79.3448 22.318C79.8581 22.5513 80.4321 22.668 81.0668 22.668C81.6268 22.668 82.1401 22.6073 82.6068 22.486C83.0735 22.3647 83.4515 22.2107 83.7408 22.024V19.014H81.4308V18.132H84.7488V22.598C84.2075 22.9247 83.6241 23.1673 82.9988 23.326C82.3735 23.4847 81.7248 23.564 81.0528 23.564C80.3061 23.564 79.6155 23.4333 78.9808 23.172C78.3461 22.9107 77.8001 22.5513 77.3428 22.094C76.8855 21.6273 76.5261 21.0767 76.2648 20.442C76.0128 19.8073 75.8868 19.112 75.8868 18.356C75.8868 17.6 76.0174 16.9047 76.2788 16.27C76.5401 15.6353 76.8994 15.0893 77.3568 14.632C77.8235 14.1653 78.3695 13.8013 78.9948 13.54C79.6295 13.2787 80.3155 13.148 81.0528 13.148C81.8461 13.148 82.5368 13.2647 83.1248 13.498C83.7128 13.7313 84.2168 14.058 84.6368 14.478L83.9368 15.178ZM92.2709 19.532C92.2429 18.916 92.0423 18.4073 91.6689 18.006C91.3049 17.5953 90.7823 17.39 90.1009 17.39C89.7836 17.39 89.4896 17.4507 89.2189 17.572C88.9483 17.684 88.7103 17.8427 88.5049 18.048C88.2996 18.244 88.1363 18.4727 88.0149 18.734C87.8936 18.986 87.8236 19.252 87.8049 19.532H92.2709ZM93.2369 19.84C93.2369 19.9053 93.2369 19.9753 93.2369 20.05C93.2369 20.1247 93.2323 20.204 93.2229 20.288H87.7909C87.8003 20.6147 87.8656 20.9227 87.9869 21.212C88.1083 21.5013 88.2763 21.7533 88.4909 21.968C88.7056 22.1827 88.9576 22.3553 89.2469 22.486C89.5363 22.6073 89.8489 22.668 90.1849 22.668C90.6796 22.668 91.1043 22.556 91.4589 22.332C91.8229 22.0987 92.0983 21.8327 92.2849 21.534L92.9989 22.094C92.6069 22.5887 92.1729 22.9433 91.6969 23.158C91.2303 23.3727 90.7263 23.48 90.1849 23.48C89.6996 23.48 89.2469 23.396 88.8269 23.228C88.4163 23.0507 88.0616 22.808 87.7629 22.5C87.4643 22.192 87.2263 21.828 87.0489 21.408C86.8809 20.988 86.7969 20.5307 86.7969 20.036C86.7969 19.5413 86.8809 19.084 87.0489 18.664C87.2169 18.244 87.4503 17.88 87.7489 17.572C88.0476 17.264 88.3976 17.026 88.7989 16.858C89.2003 16.6807 89.6343 16.592 90.1009 16.592C90.6143 16.592 91.0669 16.6807 91.4589 16.858C91.8509 17.026 92.1776 17.2593 92.4389 17.558C92.7003 17.8473 92.8963 18.188 93.0269 18.58C93.1669 18.972 93.2369 19.392 93.2369 19.84ZM98.2387 17.558H96.3907V21.38C96.3907 21.6227 96.414 21.8233 96.4607 21.982C96.5073 22.1407 96.5727 22.2667 96.6567 22.36C96.75 22.444 96.8573 22.5047 96.9787 22.542C97.1 22.57 97.2307 22.584 97.3707 22.584C97.5013 22.584 97.6367 22.5653 97.7767 22.528C97.926 22.4907 98.066 22.4393 98.1967 22.374L98.2387 23.2C98.0707 23.2653 97.8933 23.312 97.7067 23.34C97.5293 23.3773 97.3333 23.396 97.1187 23.396C96.9413 23.396 96.7547 23.3727 96.5587 23.326C96.3627 23.2793 96.1807 23.1907 96.0127 23.06C95.8447 22.9293 95.7047 22.752 95.5927 22.528C95.49 22.304 95.4387 22.01 95.4387 21.646V17.558H94.0807V16.76H95.4387V14.912H96.3907V16.76H98.2387V17.558ZM104.194 23.312H103.242V16.76H104.194V23.312ZM104.39 14.24C104.39 14.436 104.32 14.5993 104.18 14.73C104.04 14.8513 103.886 14.912 103.718 14.912C103.55 14.912 103.396 14.8513 103.256 14.73C103.116 14.5993 103.046 14.436 103.046 14.24C103.046 14.044 103.116 13.8853 103.256 13.764C103.396 13.6333 103.55 13.568 103.718 13.568C103.886 13.568 104.04 13.6333 104.18 13.764C104.32 13.8853 104.39 14.044 104.39 14.24ZM109.682 17.558H107.834V21.38C107.834 21.6227 107.857 21.8233 107.904 21.982C107.951 22.1407 108.016 22.2667 108.1 22.36C108.193 22.444 108.301 22.5047 108.422 22.542C108.543 22.57 108.674 22.584 108.814 22.584C108.945 22.584 109.08 22.5653 109.22 22.528C109.369 22.4907 109.509 22.4393 109.64 22.374L109.682 23.2C109.514 23.2653 109.337 23.312 109.15 23.34C108.973 23.3773 108.777 23.396 108.562 23.396C108.385 23.396 108.198 23.3727 108.002 23.326C107.806 23.2793 107.624 23.1907 107.456 23.06C107.288 22.9293 107.148 22.752 107.036 22.528C106.933 22.304 106.882 22.01 106.882 21.646V17.558H105.524V16.76H106.882V14.912H107.834V16.76H109.682V17.558ZM121.181 20.036C121.181 20.5307 121.093 20.988 120.915 21.408C120.747 21.828 120.509 22.192 120.201 22.5C119.893 22.808 119.525 23.0507 119.095 23.228C118.666 23.396 118.195 23.48 117.681 23.48C117.177 23.48 116.711 23.396 116.281 23.228C115.852 23.0507 115.483 22.808 115.175 22.5C114.867 22.192 114.625 21.828 114.447 21.408C114.279 20.988 114.195 20.5307 114.195 20.036C114.195 19.5413 114.279 19.084 114.447 18.664C114.625 18.244 114.867 17.88 115.175 17.572C115.483 17.264 115.852 17.026 116.281 16.858C116.711 16.6807 117.177 16.592 117.681 16.592C118.195 16.592 118.666 16.6807 119.095 16.858C119.525 17.026 119.893 17.264 120.201 17.572C120.509 17.88 120.747 18.244 120.915 18.664C121.093 19.084 121.181 19.5413 121.181 20.036ZM120.173 20.036C120.173 19.672 120.113 19.3313 119.991 19.014C119.879 18.6873 119.716 18.4073 119.501 18.174C119.287 17.9313 119.025 17.74 118.717 17.6C118.409 17.46 118.064 17.39 117.681 17.39C117.299 17.39 116.953 17.46 116.645 17.6C116.347 17.74 116.09 17.9313 115.875 18.174C115.661 18.4073 115.493 18.6873 115.371 19.014C115.259 19.3313 115.203 19.672 115.203 20.036C115.203 20.4 115.259 20.7453 115.371 21.072C115.493 21.3893 115.661 21.6693 115.875 21.912C116.09 22.1453 116.347 22.332 116.645 22.472C116.953 22.6027 117.299 22.668 117.681 22.668C118.064 22.668 118.409 22.6027 118.717 22.472C119.025 22.332 119.287 22.1453 119.501 21.912C119.716 21.6693 119.879 21.3893 119.991 21.072C120.113 20.7453 120.173 20.4 120.173 20.036ZM124.084 16.76C124.103 16.9373 124.117 17.1333 124.126 17.348C124.135 17.5627 124.14 17.74 124.14 17.88H124.168C124.355 17.4973 124.658 17.1893 125.078 16.956C125.498 16.7133 125.941 16.592 126.408 16.592C127.239 16.592 127.859 16.8393 128.27 17.334C128.69 17.8287 128.9 18.482 128.9 19.294V23.312H127.948V19.686C127.948 19.3407 127.92 19.028 127.864 18.748C127.808 18.468 127.71 18.23 127.57 18.034C127.439 17.8287 127.257 17.67 127.024 17.558C126.8 17.446 126.515 17.39 126.17 17.39C125.918 17.39 125.671 17.4413 125.428 17.544C125.195 17.6467 124.985 17.8053 124.798 18.02C124.611 18.2253 124.462 18.4913 124.35 18.818C124.238 19.1353 124.182 19.5133 124.182 19.952V23.312H123.23V18.202C123.23 18.0247 123.225 17.796 123.216 17.516C123.207 17.236 123.193 16.984 123.174 16.76H124.084Z" fill="white"/>
</svg>
