<svg width="241" height="66" viewBox="0 0 241 66" fill="none" xmlns="http://www.w3.org/2000/svg">
<rect x="0.102783" y="0.312012" width="240" height="65" rx="20" fill="#4030EA"/>
<g clip-path="url(#clip0_2_780)">
<path d="M47.9752 30.7865L32.4569 15.2266L52.2007 26.561L47.9752 30.7865ZM28.4081 14.312C27.4934 14.7901 26.8826 15.662 26.8826 16.7938V47.8224C26.8826 48.9541 27.4946 49.826 28.4081 50.3041L46.4508 32.3041L28.4081 14.312ZM58.3038 30.1745L54.1627 27.7771L49.5434 32.312L54.1627 36.8469L58.3882 34.4495C59.6538 33.4449 59.6538 31.1803 58.3038 30.1745ZM32.4581 49.3985L52.2018 38.0641L47.9763 33.8386L32.4581 49.3985Z" fill="white"/>
</g>
<path d="M96.8548 48.424C95.9908 48.84 95.0388 49.16 93.9988 49.384C92.9748 49.624 91.7908 49.744 90.4468 49.744C89.0708 49.744 87.8148 49.528 86.6788 49.096C85.5428 48.648 84.5668 48.032 83.7508 47.248C82.9348 46.448 82.2948 45.504 81.8308 44.416C81.3828 43.312 81.1588 42.096 81.1588 40.768C81.1588 39.408 81.3908 38.184 81.8548 37.096C82.3348 35.992 82.9828 35.056 83.7988 34.288C84.6308 33.52 85.6068 32.928 86.7268 32.512C87.8468 32.096 89.0628 31.888 90.3748 31.888C91.7348 31.888 92.9748 32.088 94.0948 32.488C95.2308 32.872 96.1428 33.384 96.8308 34.024L94.7428 36.28C94.3108 35.8 93.7028 35.392 92.9188 35.056C92.1508 34.72 91.3108 34.552 90.3988 34.552C89.5028 34.552 88.6868 34.712 87.9508 35.032C87.2308 35.352 86.6148 35.792 86.1028 36.352C85.5908 36.912 85.1908 37.568 84.9028 38.32C84.6308 39.072 84.4948 39.888 84.4948 40.768C84.4948 41.68 84.6308 42.52 84.9028 43.288C85.1908 44.04 85.5908 44.696 86.1028 45.256C86.6308 45.816 87.2628 46.256 87.9988 46.576C88.7508 46.88 89.5988 47.032 90.5428 47.032C91.8388 47.032 92.9668 46.832 93.9268 46.432V42.112H90.3508V39.616H96.8548V48.424ZM99.7213 43.504C99.7213 42.592 99.8813 41.768 100.201 41.032C100.537 40.28 100.985 39.64 101.545 39.112C102.105 38.584 102.769 38.176 103.537 37.888C104.305 37.6 105.121 37.456 105.985 37.456C106.849 37.456 107.665 37.6 108.433 37.888C109.201 38.176 109.865 38.584 110.425 39.112C110.985 39.64 111.425 40.28 111.745 41.032C112.081 41.768 112.249 42.592 112.249 43.504C112.249 44.416 112.081 45.248 111.745 46C111.425 46.752 110.985 47.4 110.425 47.944C109.865 48.472 109.201 48.888 108.433 49.192C107.665 49.496 106.849 49.648 105.985 49.648C105.121 49.648 104.305 49.496 103.537 49.192C102.769 48.888 102.105 48.472 101.545 47.944C100.985 47.4 100.537 46.752 100.201 46C99.8813 45.248 99.7213 44.416 99.7213 43.504ZM102.649 43.504C102.649 43.952 102.713 44.4 102.841 44.848C102.985 45.296 103.193 45.696 103.465 46.048C103.737 46.4 104.081 46.688 104.497 46.912C104.913 47.136 105.409 47.248 105.985 47.248C106.561 47.248 107.057 47.136 107.473 46.912C107.889 46.688 108.233 46.4 108.505 46.048C108.777 45.696 108.977 45.296 109.105 44.848C109.249 44.4 109.321 43.952 109.321 43.504C109.321 43.056 109.249 42.616 109.105 42.184C108.977 41.736 108.777 41.336 108.505 40.984C108.233 40.632 107.889 40.352 107.473 40.144C107.057 39.92 106.561 39.808 105.985 39.808C105.409 39.808 104.913 39.92 104.497 40.144C104.081 40.352 103.737 40.632 103.465 40.984C103.193 41.336 102.985 41.736 102.841 42.184C102.713 42.616 102.649 43.056 102.649 43.504ZM114.37 43.504C114.37 42.592 114.53 41.768 114.85 41.032C115.186 40.28 115.634 39.64 116.194 39.112C116.754 38.584 117.418 38.176 118.186 37.888C118.954 37.6 119.77 37.456 120.634 37.456C121.498 37.456 122.314 37.6 123.082 37.888C123.85 38.176 124.514 38.584 125.074 39.112C125.634 39.64 126.074 40.28 126.394 41.032C126.73 41.768 126.898 42.592 126.898 43.504C126.898 44.416 126.73 45.248 126.394 46C126.074 46.752 125.634 47.4 125.074 47.944C124.514 48.472 123.85 48.888 123.082 49.192C122.314 49.496 121.498 49.648 120.634 49.648C119.77 49.648 118.954 49.496 118.186 49.192C117.418 48.888 116.754 48.472 116.194 47.944C115.634 47.4 115.186 46.752 114.85 46C114.53 45.248 114.37 44.416 114.37 43.504ZM117.298 43.504C117.298 43.952 117.362 44.4 117.49 44.848C117.634 45.296 117.842 45.696 118.114 46.048C118.386 46.4 118.73 46.688 119.146 46.912C119.562 47.136 120.058 47.248 120.634 47.248C121.21 47.248 121.706 47.136 122.122 46.912C122.538 46.688 122.882 46.4 123.154 46.048C123.426 45.696 123.626 45.296 123.754 44.848C123.898 44.4 123.97 43.952 123.97 43.504C123.97 43.056 123.898 42.616 123.754 42.184C123.626 41.736 123.426 41.336 123.154 40.984C122.882 40.632 122.538 40.352 122.122 40.144C121.706 39.92 121.21 39.808 120.634 39.808C120.058 39.808 119.562 39.92 119.146 40.144C118.73 40.352 118.386 40.632 118.114 40.984C117.842 41.336 117.634 41.736 117.49 42.184C117.362 42.616 117.298 43.056 117.298 43.504ZM141.402 37.792V48.28C141.402 49.32 141.274 50.256 141.018 51.088C140.762 51.936 140.362 52.648 139.818 53.224C139.29 53.816 138.618 54.272 137.802 54.592C136.986 54.912 136.018 55.072 134.898 55.072C134.434 55.072 133.938 55.032 133.41 54.952C132.898 54.872 132.386 54.752 131.874 54.592C131.378 54.432 130.898 54.232 130.434 53.992C129.97 53.752 129.554 53.48 129.186 53.176L130.842 50.944C131.402 51.472 132.034 51.872 132.738 52.144C133.442 52.432 134.154 52.576 134.874 52.576C135.562 52.576 136.138 52.472 136.602 52.264C137.082 52.072 137.458 51.8 137.73 51.448C138.018 51.096 138.218 50.68 138.33 50.2C138.458 49.72 138.522 49.192 138.522 48.616V47.776H138.474C138.058 48.336 137.522 48.768 136.866 49.072C136.226 49.36 135.506 49.504 134.706 49.504C133.842 49.504 133.058 49.344 132.354 49.024C131.65 48.704 131.05 48.272 130.554 47.728C130.074 47.184 129.698 46.552 129.426 45.832C129.154 45.096 129.018 44.32 129.018 43.504C129.018 42.672 129.146 41.888 129.402 41.152C129.674 40.416 130.05 39.776 130.53 39.232C131.026 38.688 131.618 38.256 132.306 37.936C133.01 37.616 133.794 37.456 134.658 37.456C135.474 37.456 136.234 37.624 136.938 37.96C137.642 38.296 138.202 38.816 138.618 39.52H138.666V37.792H141.402ZM135.258 39.808C134.73 39.808 134.258 39.904 133.842 40.096C133.442 40.288 133.098 40.552 132.81 40.888C132.538 41.208 132.322 41.592 132.162 42.04C132.018 42.488 131.946 42.968 131.946 43.48C131.946 43.944 132.018 44.392 132.162 44.824C132.322 45.256 132.538 45.648 132.81 46C133.098 46.336 133.442 46.608 133.842 46.816C134.258 47.024 134.722 47.128 135.234 47.128C135.762 47.128 136.234 47.032 136.65 46.84C137.082 46.632 137.442 46.36 137.73 46.024C138.034 45.688 138.266 45.304 138.426 44.872C138.586 44.424 138.666 43.96 138.666 43.48C138.666 42.984 138.586 42.512 138.426 42.064C138.266 41.616 138.034 41.224 137.73 40.888C137.442 40.552 137.09 40.288 136.674 40.096C136.258 39.904 135.786 39.808 135.258 39.808ZM144.902 31.168H147.782V49.312H144.902V31.168ZM159.388 42.4C159.388 42.032 159.332 41.68 159.22 41.344C159.124 41.008 158.964 40.712 158.74 40.456C158.516 40.2 158.228 40 157.876 39.856C157.54 39.696 157.14 39.616 156.676 39.616C155.812 39.616 155.076 39.88 154.468 40.408C153.876 40.92 153.548 41.584 153.484 42.4H159.388ZM162.268 43.696C162.268 43.824 162.268 43.952 162.268 44.08C162.268 44.208 162.26 44.336 162.244 44.464H153.484C153.516 44.88 153.62 45.264 153.796 45.616C153.988 45.952 154.236 46.248 154.54 46.504C154.844 46.744 155.188 46.936 155.572 47.08C155.956 47.224 156.356 47.296 156.772 47.296C157.492 47.296 158.1 47.168 158.596 46.912C159.092 46.64 159.5 46.272 159.82 45.808L161.74 47.344C160.604 48.88 158.956 49.648 156.796 49.648C155.9 49.648 155.076 49.512 154.324 49.24C153.572 48.952 152.916 48.552 152.356 48.04C151.812 47.528 151.38 46.904 151.06 46.168C150.756 45.416 150.604 44.568 150.604 43.624C150.604 42.696 150.756 41.856 151.06 41.104C151.38 40.336 151.812 39.688 152.356 39.16C152.9 38.616 153.54 38.2 154.276 37.912C155.028 37.608 155.836 37.456 156.7 37.456C157.5 37.456 158.236 37.592 158.908 37.864C159.596 38.12 160.188 38.512 160.684 39.04C161.18 39.552 161.564 40.2 161.836 40.984C162.124 41.752 162.268 42.656 162.268 43.696ZM171.201 32.32H176.745C177.721 32.32 178.601 32.408 179.385 32.584C180.169 32.76 180.841 33.048 181.401 33.448C181.961 33.848 182.393 34.36 182.697 34.984C183.001 35.608 183.153 36.36 183.153 37.24C183.153 38.184 182.977 38.976 182.625 39.616C182.273 40.256 181.793 40.776 181.185 41.176C180.593 41.56 179.897 41.84 179.097 42.016C178.297 42.192 177.449 42.28 176.553 42.28H174.225V49.312H171.201V32.32ZM176.337 39.736C176.833 39.736 177.305 39.704 177.753 39.64C178.201 39.56 178.601 39.432 178.953 39.256C179.305 39.064 179.585 38.808 179.793 38.488C180.001 38.168 180.105 37.752 180.105 37.24C180.105 36.744 180.001 36.344 179.793 36.04C179.585 35.72 179.305 35.472 178.953 35.296C178.617 35.12 178.225 35.008 177.777 34.96C177.345 34.896 176.897 34.864 176.433 34.864H174.225V39.736H176.337ZM185.754 31.168H188.634V49.312H185.754V31.168ZM199.28 47.848H199.208C198.92 48.36 198.456 48.784 197.816 49.12C197.176 49.44 196.448 49.6 195.632 49.6C195.168 49.6 194.68 49.536 194.168 49.408C193.672 49.296 193.208 49.104 192.776 48.832C192.36 48.544 192.008 48.176 191.72 47.728C191.448 47.264 191.312 46.696 191.312 46.024C191.312 45.16 191.552 44.472 192.032 43.96C192.528 43.448 193.16 43.056 193.928 42.784C194.696 42.512 195.544 42.336 196.472 42.256C197.416 42.16 198.336 42.112 199.232 42.112V41.824C199.232 41.104 198.968 40.576 198.44 40.24C197.928 39.888 197.312 39.712 196.592 39.712C195.984 39.712 195.4 39.84 194.84 40.096C194.28 40.352 193.816 40.664 193.448 41.032L191.96 39.28C192.616 38.672 193.368 38.216 194.216 37.912C195.08 37.608 195.952 37.456 196.832 37.456C197.856 37.456 198.696 37.6 199.352 37.888C200.024 38.176 200.552 38.552 200.936 39.016C201.32 39.48 201.584 40 201.728 40.576C201.888 41.152 201.968 41.728 201.968 42.304V49.312H199.28V47.848ZM199.232 44.056H198.584C198.12 44.056 197.632 44.08 197.12 44.128C196.608 44.16 196.136 44.248 195.704 44.392C195.272 44.52 194.912 44.712 194.624 44.968C194.336 45.208 194.192 45.544 194.192 45.976C194.192 46.248 194.248 46.48 194.36 46.672C194.488 46.848 194.648 46.992 194.84 47.104C195.032 47.216 195.248 47.296 195.488 47.344C195.728 47.392 195.968 47.416 196.208 47.416C197.2 47.416 197.952 47.152 198.464 46.624C198.976 46.096 199.232 45.376 199.232 44.464V44.056ZM203.595 37.792H206.787L210.003 46.168H210.051L212.907 37.792H215.907L210.459 51.784C210.251 52.312 210.027 52.776 209.787 53.176C209.547 53.592 209.259 53.936 208.923 54.208C208.587 54.496 208.187 54.712 207.723 54.856C207.275 55 206.731 55.072 206.091 55.072C205.851 55.072 205.603 55.056 205.347 55.024C205.107 55.008 204.859 54.968 204.603 54.904L204.843 52.408C205.035 52.472 205.219 52.512 205.395 52.528C205.587 52.56 205.763 52.576 205.923 52.576C206.227 52.576 206.483 52.536 206.691 52.456C206.899 52.392 207.075 52.28 207.219 52.12C207.363 51.976 207.491 51.792 207.603 51.568C207.715 51.344 207.835 51.08 207.963 50.776L208.539 49.312L203.595 37.792Z" fill="white"/>
<path d="M88.9368 15.178C88.5915 14.814 88.1808 14.534 87.7048 14.338C87.2288 14.1327 86.6828 14.03 86.0668 14.03C85.4321 14.03 84.8581 14.1467 84.3448 14.38C83.8408 14.6133 83.4115 14.9307 83.0568 15.332C82.7021 15.724 82.4268 16.1813 82.2308 16.704C82.0441 17.2267 81.9508 17.7773 81.9508 18.356C81.9508 18.9347 82.0441 19.4853 82.2308 20.008C82.4268 20.5307 82.7021 20.988 83.0568 21.38C83.4115 21.772 83.8408 22.0847 84.3448 22.318C84.8581 22.5513 85.4321 22.668 86.0668 22.668C86.6268 22.668 87.1401 22.6073 87.6068 22.486C88.0735 22.3647 88.4515 22.2107 88.7408 22.024V19.014H86.4308V18.132H89.7488V22.598C89.2075 22.9247 88.6241 23.1673 87.9988 23.326C87.3735 23.4847 86.7248 23.564 86.0528 23.564C85.3061 23.564 84.6155 23.4333 83.9808 23.172C83.3461 22.9107 82.8001 22.5513 82.3428 22.094C81.8855 21.6273 81.5261 21.0767 81.2648 20.442C81.0128 19.8073 80.8868 19.112 80.8868 18.356C80.8868 17.6 81.0174 16.9047 81.2788 16.27C81.5401 15.6353 81.8994 15.0893 82.3568 14.632C82.8235 14.1653 83.3695 13.8013 83.9948 13.54C84.6295 13.2787 85.3155 13.148 86.0528 13.148C86.8461 13.148 87.5368 13.2647 88.1248 13.498C88.7128 13.7313 89.2168 14.058 89.6368 14.478L88.9368 15.178ZM97.2709 19.532C97.2429 18.916 97.0423 18.4073 96.6689 18.006C96.3049 17.5953 95.7823 17.39 95.1009 17.39C94.7836 17.39 94.4896 17.4507 94.2189 17.572C93.9483 17.684 93.7103 17.8427 93.5049 18.048C93.2996 18.244 93.1363 18.4727 93.0149 18.734C92.8936 18.986 92.8236 19.252 92.8049 19.532H97.2709ZM98.2369 19.84C98.2369 19.9053 98.2369 19.9753 98.2369 20.05C98.2369 20.1247 98.2323 20.204 98.2229 20.288H92.7909C92.8003 20.6147 92.8656 20.9227 92.9869 21.212C93.1083 21.5013 93.2763 21.7533 93.4909 21.968C93.7056 22.1827 93.9576 22.3553 94.2469 22.486C94.5363 22.6073 94.8489 22.668 95.1849 22.668C95.6796 22.668 96.1043 22.556 96.4589 22.332C96.8229 22.0987 97.0983 21.8327 97.2849 21.534L97.9989 22.094C97.6069 22.5887 97.1729 22.9433 96.6969 23.158C96.2303 23.3727 95.7263 23.48 95.1849 23.48C94.6996 23.48 94.2469 23.396 93.8269 23.228C93.4163 23.0507 93.0616 22.808 92.7629 22.5C92.4643 22.192 92.2263 21.828 92.0489 21.408C91.8809 20.988 91.7969 20.5307 91.7969 20.036C91.7969 19.5413 91.8809 19.084 92.0489 18.664C92.2169 18.244 92.4503 17.88 92.7489 17.572C93.0476 17.264 93.3976 17.026 93.7989 16.858C94.2003 16.6807 94.6343 16.592 95.1009 16.592C95.6143 16.592 96.0669 16.6807 96.4589 16.858C96.8509 17.026 97.1776 17.2593 97.4389 17.558C97.7003 17.8473 97.8963 18.188 98.0269 18.58C98.1669 18.972 98.2369 19.392 98.2369 19.84ZM103.239 17.558H101.391V21.38C101.391 21.6227 101.414 21.8233 101.461 21.982C101.507 22.1407 101.573 22.2667 101.657 22.36C101.75 22.444 101.857 22.5047 101.979 22.542C102.1 22.57 102.231 22.584 102.371 22.584C102.501 22.584 102.637 22.5653 102.777 22.528C102.926 22.4907 103.066 22.4393 103.197 22.374L103.239 23.2C103.071 23.2653 102.893 23.312 102.707 23.34C102.529 23.3773 102.333 23.396 102.119 23.396C101.941 23.396 101.755 23.3727 101.559 23.326C101.363 23.2793 101.181 23.1907 101.013 23.06C100.845 22.9293 100.705 22.752 100.593 22.528C100.49 22.304 100.439 22.01 100.439 21.646V17.558H99.0807V16.76H100.439V14.912H101.391V16.76H103.239V17.558ZM109.194 23.312H108.242V16.76H109.194V23.312ZM109.39 14.24C109.39 14.436 109.32 14.5993 109.18 14.73C109.04 14.8513 108.886 14.912 108.718 14.912C108.55 14.912 108.396 14.8513 108.256 14.73C108.116 14.5993 108.046 14.436 108.046 14.24C108.046 14.044 108.116 13.8853 108.256 13.764C108.396 13.6333 108.55 13.568 108.718 13.568C108.886 13.568 109.04 13.6333 109.18 13.764C109.32 13.8853 109.39 14.044 109.39 14.24ZM114.682 17.558H112.834V21.38C112.834 21.6227 112.857 21.8233 112.904 21.982C112.951 22.1407 113.016 22.2667 113.1 22.36C113.193 22.444 113.301 22.5047 113.422 22.542C113.543 22.57 113.674 22.584 113.814 22.584C113.945 22.584 114.08 22.5653 114.22 22.528C114.369 22.4907 114.509 22.4393 114.64 22.374L114.682 23.2C114.514 23.2653 114.337 23.312 114.15 23.34C113.973 23.3773 113.777 23.396 113.562 23.396C113.385 23.396 113.198 23.3727 113.002 23.326C112.806 23.2793 112.624 23.1907 112.456 23.06C112.288 22.9293 112.148 22.752 112.036 22.528C111.933 22.304 111.882 22.01 111.882 21.646V17.558H110.524V16.76H111.882V14.912H112.834V16.76H114.682V17.558ZM126.181 20.036C126.181 20.5307 126.093 20.988 125.915 21.408C125.747 21.828 125.509 22.192 125.201 22.5C124.893 22.808 124.525 23.0507 124.095 23.228C123.666 23.396 123.195 23.48 122.681 23.48C122.177 23.48 121.711 23.396 121.281 23.228C120.852 23.0507 120.483 22.808 120.175 22.5C119.867 22.192 119.625 21.828 119.447 21.408C119.279 20.988 119.195 20.5307 119.195 20.036C119.195 19.5413 119.279 19.084 119.447 18.664C119.625 18.244 119.867 17.88 120.175 17.572C120.483 17.264 120.852 17.026 121.281 16.858C121.711 16.6807 122.177 16.592 122.681 16.592C123.195 16.592 123.666 16.6807 124.095 16.858C124.525 17.026 124.893 17.264 125.201 17.572C125.509 17.88 125.747 18.244 125.915 18.664C126.093 19.084 126.181 19.5413 126.181 20.036ZM125.173 20.036C125.173 19.672 125.113 19.3313 124.991 19.014C124.879 18.6873 124.716 18.4073 124.501 18.174C124.287 17.9313 124.025 17.74 123.717 17.6C123.409 17.46 123.064 17.39 122.681 17.39C122.299 17.39 121.953 17.46 121.645 17.6C121.347 17.74 121.09 17.9313 120.875 18.174C120.661 18.4073 120.493 18.6873 120.371 19.014C120.259 19.3313 120.203 19.672 120.203 20.036C120.203 20.4 120.259 20.7453 120.371 21.072C120.493 21.3893 120.661 21.6693 120.875 21.912C121.09 22.1453 121.347 22.332 121.645 22.472C121.953 22.6027 122.299 22.668 122.681 22.668C123.064 22.668 123.409 22.6027 123.717 22.472C124.025 22.332 124.287 22.1453 124.501 21.912C124.716 21.6693 124.879 21.3893 124.991 21.072C125.113 20.7453 125.173 20.4 125.173 20.036ZM129.084 16.76C129.103 16.9373 129.117 17.1333 129.126 17.348C129.135 17.5627 129.14 17.74 129.14 17.88H129.168C129.355 17.4973 129.658 17.1893 130.078 16.956C130.498 16.7133 130.941 16.592 131.408 16.592C132.239 16.592 132.859 16.8393 133.27 17.334C133.69 17.8287 133.9 18.482 133.9 19.294V23.312H132.948V19.686C132.948 19.3407 132.92 19.028 132.864 18.748C132.808 18.468 132.71 18.23 132.57 18.034C132.439 17.8287 132.257 17.67 132.024 17.558C131.8 17.446 131.515 17.39 131.17 17.39C130.918 17.39 130.671 17.4413 130.428 17.544C130.195 17.6467 129.985 17.8053 129.798 18.02C129.611 18.2253 129.462 18.4913 129.35 18.818C129.238 19.1353 129.182 19.5133 129.182 19.952V23.312H128.23V18.202C128.23 18.0247 128.225 17.796 128.216 17.516C128.207 17.236 128.193 16.984 128.174 16.76H129.084Z" fill="white"/>
<defs>
<clipPath id="clip0_2_780">
<rect width="36" height="36" fill="white" transform="translate(25.1028 14.312)"/>
</clipPath>
</defs>
</svg>
