<svg width="25" height="24" viewBox="0 0 25 24" fill="none" xmlns="http://www.w3.org/2000/svg">
<mask id="mask0_1179_79575" style="mask-type:alpha" maskUnits="userSpaceOnUse" x="0" y="0" width="25" height="24">
<rect x="0.5" width="24" height="24" fill="white"/>
</mask>
<g mask="url(#mask0_1179_79575)">
<path d="M22.7783 10.0859H12.7188V13.9826H18.6235C18.5045 14.9509 17.8616 16.4093 16.433 17.3892L16.413 17.5197L19.5936 19.9344L19.814 19.9559C21.8377 18.1242 23.0045 15.4292 23.0045 12.2326C23.0045 11.3693 22.933 10.7393 22.7783 10.0859Z" fill="#4285F4"/>
<path d="M19.8072 19.9562L16.4263 17.3895C15.5215 18.0078 14.3072 18.4395 12.712 18.4395C9.87874 18.4395 7.47401 16.6079 6.61678 14.0762L6.49113 14.0866L3.18388 16.595L3.14062 16.7128C4.9025 20.1428 8.52155 22.4996 12.712 22.4996C15.6048 22.4996 18.0334 21.5662 19.8072 19.9562Z" fill="#34A853"/>
<path d="M6.26191 12.0008C6.26191 11.2774 6.39281 10.5774 6.6071 9.9241L6.60111 9.78496L3.25239 7.23633L3.14283 7.2874C2.41667 8.71075 2 10.3091 2 12.0008C2 13.6924 2.41667 15.2907 3.14283 16.7141L6.619 14.0775C6.39281 13.4241 6.26191 12.7241 6.26191 12.0008Z" fill="#FBBC05"/>
<path d="M16.8549 7.12335L19.8787 4.23C18.0216 2.53834 15.6049 1.5 12.7121 1.5C8.52157 1.5 4.90251 3.85665 3.14062 7.28662L6.6049 9.92332C7.47403 7.39166 9.87877 5.55997 12.7121 5.55997C14.724 5.55997 16.0811 6.41163 16.8549 7.12335Z" fill="#EB4335"/>
</g>
</svg>
