<svg width="141" height="20" viewBox="0 0 141 20" fill="none" xmlns="http://www.w3.org/2000/svg">
<path fill-rule="evenodd" clip-rule="evenodd" d="M31.1179 5.37201C29.1204 5.37201 27.3873 6.09101 25.9919 7.49967C24.5966 8.90833 23.877 10.6251 23.877 12.6061C23.877 14.587 24.582 16.2891 25.9919 17.7124C27.4019 19.1211 29.1204 19.8401 31.1179 19.8401C31.8375 19.8401 32.4838 19.7521 33.1007 19.576C33.7175 19.3999 34.3197 19.1211 34.8925 18.7689C35.1128 18.6369 35.3185 18.4901 35.5241 18.3287V18.4314C35.5241 18.813 35.6416 19.1504 35.8913 19.4292C35.906 19.4439 35.9207 19.4586 35.9353 19.4733C36.2144 19.7227 36.5669 19.8401 36.9488 19.8401C37.3307 19.8401 37.6685 19.6934 37.9475 19.4146C38.1678 19.1945 38.3 18.9303 38.3441 18.6222C38.3735 18.5635 38.3881 18.5048 38.3881 18.4461V12.5914C38.3881 10.6251 37.6832 8.90833 36.2732 7.485C34.8778 6.09101 33.1447 5.37201 31.1179 5.37201ZM34.2461 15.7169C33.3942 16.5826 32.3661 17.0081 31.1177 17.0081C29.8839 17.0081 28.8705 16.5826 28.0039 15.7169C27.1374 14.8365 26.7114 13.8093 26.7114 12.6061C26.7114 11.4029 27.152 10.3464 28.0039 9.48064C28.8558 8.62957 29.8692 8.20404 31.1177 8.20404C32.3514 8.20404 33.3942 8.62957 34.2461 9.48064C35.1126 10.3757 35.5386 11.4029 35.5386 12.6208C35.5386 13.824 35.1273 14.8511 34.2461 15.7169Z" fill="white"/>
<path fill-rule="evenodd" clip-rule="evenodd" d="M52.8988 0C52.5316 0 52.1938 0.132062 51.9147 0.396185C51.9 0.410858 51.9 0.410858 51.8853 0.425532C51.6063 0.733676 51.4741 1.07117 51.4741 1.42333V6.89655C51.2538 6.73514 51.0481 6.58841 50.8278 6.45635C49.6822 5.76669 48.4044 5.41453 47.0238 5.41453C45.041 5.41453 43.3225 6.13353 41.8832 7.57153C40.4585 8.99486 39.7241 10.7263 39.7241 12.7219C39.7241 14.7029 40.4438 16.4343 41.8832 17.8723C43.2932 19.281 45.0263 20 47.0238 20C49.036 20 50.7691 19.281 52.1791 17.8723C53.6038 16.449 54.3381 14.7175 54.3381 12.7073V1.45268C54.3381 1.05649 54.1913 0.704329 53.9269 0.440205C53.6331 0.132062 53.2953 0 52.8988 0ZM50.1675 15.8189C49.3156 16.67 48.3168 17.0955 47.1272 17.1248C47.0978 17.1102 47.0537 17.1102 47.0244 17.1102C45.8053 17.1102 44.7625 16.6846 43.8812 15.8042C43 14.9238 42.5741 13.8967 42.5741 12.6641C42.5741 11.4315 43 10.4044 43.8812 9.52395C44.7625 8.64354 45.7906 8.21801 47.0244 8.21801C48.2728 8.21801 49.3009 8.64354 50.1675 9.52395C51.034 10.419 51.46 11.4462 51.46 12.6788C51.46 13.926 51.0487 14.9531 50.1675 15.8189Z" fill="white"/>
<path fill-rule="evenodd" clip-rule="evenodd" d="M72.2128 5.38649C72.1687 5.37182 72.11 5.35715 72.0659 5.35715C70.8615 5.35715 69.7159 5.70931 68.6731 6.39897C68.35 6.61907 68.0856 6.8245 67.8359 7.07395C67.7184 7.19134 67.6009 7.3234 67.4834 7.47013C67.3806 7.35275 67.2631 7.22068 67.1309 7.1033C66.8812 6.86852 66.6022 6.63374 66.2791 6.41364C65.2656 5.72399 64.12 5.35715 62.8716 5.35715C61.256 5.35715 59.8313 5.92941 58.6563 7.07395C57.4666 8.23316 56.8644 9.62714 56.8644 11.2412V18.4019C56.8644 18.7541 56.9819 19.0769 57.2316 19.3557C57.4813 19.6491 57.8338 19.7959 58.2744 19.7959C58.6563 19.7959 58.9941 19.6638 59.2438 19.3997C59.5228 19.1502 59.655 18.7981 59.655 18.4019V11.3146C59.655 10.4635 59.9635 9.72985 60.595 9.08422C61.2413 8.43858 61.9756 8.13044 62.8422 8.13044C63.7234 8.13044 64.4578 8.43858 65.0894 9.08422C65.7209 9.71518 66.0147 10.4342 66.0147 11.3146V18.4019C66.0147 18.8421 66.1616 19.1796 66.47 19.4437C66.7197 19.6785 67.0428 19.7959 67.3953 19.7959C67.8066 19.7959 68.1444 19.6638 68.3941 19.385C68.6584 19.1062 68.7906 18.7687 68.7906 18.4019V11.3146C68.7906 10.4489 69.0991 9.71518 69.7306 9.08422C70.3769 8.43858 71.1112 8.13044 71.9925 8.13044C72.8884 8.13044 73.6228 8.43858 74.2543 9.08422C74.8712 9.70051 75.165 10.4342 75.165 11.3146V18.4019C75.165 18.8128 75.3118 19.1356 75.6056 19.4144C75.8993 19.6785 76.2225 19.7959 76.5603 19.7959C76.9128 19.7959 77.2359 19.6638 77.5003 19.429C77.8087 19.1943 77.9703 18.8274 77.9703 18.4019V11.3146C77.9703 9.70051 77.3828 8.27718 76.2078 7.08862C75.1797 6.01746 73.8137 5.41584 72.2128 5.38649Z" fill="white"/>
<path fill-rule="evenodd" clip-rule="evenodd" d="M15.6445 5.38649C15.5995 5.37182 15.5397 5.35715 15.4948 5.35715C14.2671 5.35715 13.0994 5.70931 12.0365 6.39897C11.7071 6.61907 11.4377 6.8245 11.1832 7.07395C11.0634 7.19134 10.9436 7.3234 10.8239 7.47013C10.7191 7.35275 10.5993 7.22068 10.4646 7.1033C10.2101 6.86852 9.92562 6.63374 9.59627 6.41364C8.56328 5.72399 7.39556 5.35715 6.12305 5.35715C4.47626 5.35715 3.0241 5.92941 1.82643 7.07395C0.613802 8.23316 0 9.62714 0 11.2412V18.4019C0 18.7541 0.119766 19.0769 0.374269 19.3557C0.628773 19.6491 0.988071 19.7959 1.43719 19.7959C1.82643 19.7959 2.17076 19.6638 2.42527 19.3997C2.70971 19.1502 2.84445 18.7981 2.84445 18.4019V11.3146C2.84445 10.4635 3.15883 9.72985 3.80258 9.08422C4.46129 8.43858 5.20983 8.13044 6.09311 8.13044C6.99135 8.13044 7.73989 8.43858 8.38363 9.08422C9.02738 9.71518 9.32679 10.4342 9.32679 11.3146V18.4019C9.32679 18.8421 9.4765 19.1796 9.79089 19.4437C10.0454 19.6785 10.3747 19.7959 10.734 19.7959C11.1532 19.7959 11.4976 19.6638 11.7521 19.385C12.0215 19.1062 12.1563 18.7687 12.1563 18.4019V11.3146C12.1563 10.4489 12.4707 9.71518 13.1144 9.08422C13.7731 8.43858 14.5217 8.13044 15.4199 8.13044C16.3331 8.13044 17.0817 8.43858 17.7254 9.08422C18.3542 9.70051 18.6536 10.4342 18.6536 11.3146V18.4019C18.6536 18.8128 18.8033 19.1356 19.1027 19.4144C19.4021 19.6785 19.7315 19.7959 20.0758 19.7959C20.4351 19.7959 20.7645 19.6638 21.0339 19.429C21.3483 19.1943 21.513 18.8274 21.513 18.4019V11.3146C21.513 9.70051 20.9142 8.27718 19.7165 7.08862C18.6686 6.01746 17.2763 5.41584 15.6445 5.38649Z" fill="white"/>
<path fill-rule="evenodd" clip-rule="evenodd" d="M87.1799 5.29388C85.1971 5.29388 83.4786 6.01289 82.0686 7.42154C80.6586 8.8302 79.939 10.547 79.939 12.5279C79.939 14.5235 80.6586 16.2403 82.0686 17.6343C83.4786 19.043 85.1971 19.762 87.1799 19.762C89.148 19.762 90.8664 19.043 92.2764 17.6343C93.7011 16.211 94.4208 14.4942 94.4208 12.5279C94.4208 10.5764 93.7011 8.85955 92.2764 7.42154C90.8664 6.01289 89.148 5.29388 87.1799 5.29388ZM90.2938 15.6429C89.4272 16.5086 88.4138 16.9195 87.18 16.9195C87.1506 16.9195 87.1066 16.9195 87.0772 16.9342C85.8875 16.9195 84.8888 16.494 84.0663 15.6576C83.1997 14.7772 82.7738 13.75 82.7738 12.5468C82.7738 11.3436 83.1997 10.3164 84.0663 9.43599C84.9328 8.57026 85.9463 8.1594 87.18 8.1594C88.4138 8.1594 89.4419 8.57026 90.2938 9.43599C91.1603 10.3017 91.5716 11.3289 91.5716 12.5468C91.5716 13.7647 91.1603 14.7918 90.2938 15.6429Z" fill="white"/>
<path fill-rule="evenodd" clip-rule="evenodd" d="M103.424 5.29388C101.441 5.29388 99.7228 6.01289 98.3128 7.42154C96.9029 8.8302 96.1832 10.547 96.1832 12.5279C96.1832 14.5235 96.9029 16.2403 98.3128 17.6343C99.7228 19.043 101.441 19.762 103.424 19.762C105.392 19.762 107.111 19.043 108.521 17.6343C109.945 16.211 110.665 14.4942 110.665 12.5279C110.665 10.5764 109.945 8.85955 108.521 7.42154C107.096 6.01289 105.392 5.29388 103.424 5.29388ZM106.538 15.6429C105.671 16.5086 104.658 16.9195 103.424 16.9195C103.395 16.9195 103.35 16.9195 103.321 16.9342C102.131 16.9195 101.133 16.494 100.31 15.6576C99.4436 14.7772 99.0177 13.75 99.0177 12.5468C99.0177 11.3436 99.4436 10.3164 100.31 9.43599C101.177 8.57026 102.19 8.1594 103.424 8.1594C104.658 8.1594 105.686 8.57026 106.538 9.43599C107.404 10.3017 107.815 11.3289 107.815 12.5468C107.815 13.7647 107.39 14.7918 106.538 15.6429Z" fill="white"/>
<path fill-rule="evenodd" clip-rule="evenodd" d="M118.302 5.38504C118.288 5.38504 118.288 5.38504 118.273 5.38504H118.244C118.244 5.38504 118.244 5.38504 118.229 5.38504C118.229 5.38504 118.229 5.38504 118.214 5.38504C116.613 5.39971 115.218 5.98665 114.087 7.11652C112.897 8.2904 112.31 9.68438 112.31 11.2691V18.4151C112.31 18.9287 112.516 19.2222 112.706 19.3982C112.839 19.5597 113 19.677 113.176 19.7357C113.323 19.7944 113.485 19.8091 113.691 19.8091C114.102 19.8091 114.44 19.677 114.704 19.3982C114.895 19.2222 115.115 18.914 115.115 18.4151V11.3425C115.115 10.4474 115.409 9.71373 116.026 9.09744C116.657 8.48115 117.392 8.17301 118.258 8.17301C119.125 8.17301 119.859 8.48115 120.491 9.09744C121.108 9.71373 121.416 10.4474 121.416 11.3425V18.4151C121.416 18.7526 121.548 19.0754 121.783 19.3542C122.048 19.6477 122.4 19.8091 122.826 19.8091C123.252 19.8091 123.59 19.6624 123.854 19.3982C124.001 19.2662 124.104 19.1195 124.163 18.958C124.221 18.8113 124.236 18.6352 124.236 18.4151V11.3425C124.236 9.71373 123.649 8.2904 122.488 7.13119C121.328 5.98665 119.918 5.39971 118.302 5.38504Z" fill="white"/>
<path fill-rule="evenodd" clip-rule="evenodd" d="M140.025 9.66722C139.643 8.80148 139.114 8.02378 138.439 7.37815C137.058 6.02819 135.354 5.33853 133.372 5.33853C131.403 5.33853 129.7 6.02819 128.319 7.37815C126.865 8.78681 126.116 10.4743 126.116 12.3965V12.6019C126.116 14.5828 126.821 16.2996 128.231 17.723C129.626 19.1316 131.359 19.8506 133.372 19.8506C134.532 19.8506 135.663 19.5718 136.735 19.0142C137.249 18.7355 137.734 18.4126 138.16 18.0311C138.6 17.6496 138.982 17.2241 139.305 16.7545C139.482 16.5051 139.57 16.2263 139.57 15.9475V15.8448C139.57 15.7567 139.555 15.698 139.526 15.6393C139.437 15.2578 139.232 14.9497 138.894 14.7443C138.659 14.5975 138.395 14.5242 138.13 14.5242H137.983C137.954 14.5242 137.925 14.5242 137.895 14.5388C137.484 14.6269 137.176 14.8176 136.955 15.1111C136.75 15.4046 136.515 15.6687 136.236 15.9035C135.971 16.1236 135.677 16.329 135.369 16.4904C135.354 16.5051 135.34 16.5051 135.325 16.5198C135.017 16.6665 134.708 16.7839 134.385 16.8572C134.047 16.9453 133.695 16.9893 133.328 16.9893C132.153 16.9893 131.154 16.5784 130.287 15.7567C129.861 15.3312 129.597 14.9937 129.421 14.6415C129.288 14.3774 129.186 14.1133 129.098 13.8492H139.158C139.849 13.8492 140.333 13.4823 140.51 12.822C140.51 12.8074 140.524 12.778 140.524 12.7633C140.539 12.7046 140.554 12.6606 140.554 12.6166C140.568 12.5726 140.583 12.5139 140.583 12.4552C140.612 11.4721 140.422 10.533 140.025 9.66722ZM129.215 11.08C129.45 10.4637 129.803 9.92077 130.302 9.43655C130.317 9.42188 130.346 9.4072 130.361 9.39253C131.257 8.60016 132.226 8.21865 133.343 8.21865C133.901 8.21865 134.444 8.32136 134.958 8.51212C135.516 8.73222 135.972 8.99634 136.339 9.34851C136.618 9.59796 136.868 9.93545 137.147 10.3757C137.279 10.5958 137.396 10.8305 137.499 11.08H129.215Z" fill="white"/>
</svg>
