<svg width="240" height="35" viewBox="0 0 240 35" fill="none" xmlns="http://www.w3.org/2000/svg">
<path fill-rule="evenodd" clip-rule="evenodd" d="M52.9011 9.13379C49.5053 9.13379 46.5589 10.3561 44.1869 12.7509C41.8148 15.1457 40.5913 18.0643 40.5913 21.4319C40.5913 24.7996 41.7898 27.6933 44.1869 30.113C46.5839 32.5077 49.5053 33.7301 52.9011 33.7301C54.1246 33.7301 55.2233 33.5804 56.272 33.2811C57.3207 32.9817 58.3444 32.5077 59.3182 31.9091C59.6927 31.6845 60.0423 31.4351 60.3919 31.1607V31.3353C60.3919 31.9839 60.5916 32.5576 61.0161 33.0316C61.0411 33.0565 61.0661 33.0815 61.091 33.1064C61.5654 33.5305 62.1647 33.7301 62.8139 33.7301C63.4631 33.7301 64.0374 33.4806 64.5118 33.0067C64.8863 32.6325 65.1111 32.1835 65.186 31.6596C65.2359 31.5598 65.2609 31.46 65.2609 31.3602V21.407C65.2609 18.0643 64.0624 15.1457 61.6653 12.7259C59.2932 10.3561 56.3469 9.13379 52.9011 9.13379ZM58.2184 26.7205V26.7205C56.7701 28.1923 55.0223 28.9157 52.8999 28.9157C50.8025 28.9157 49.0796 28.1923 47.6064 26.7205C46.1333 25.2238 45.4092 23.4776 45.4092 21.4321C45.4092 19.3865 46.1582 17.5905 47.6064 16.1187C49.0547 14.6718 50.7775 13.9484 52.8999 13.9484C54.9973 13.9484 56.7701 14.6718 58.2184 16.1187C59.6915 17.6404 60.4156 19.3865 60.4156 21.457C60.4156 23.5026 59.7165 25.2487 58.2184 26.7205Z" fill="#4030EA"/>
<path fill-rule="evenodd" clip-rule="evenodd" d="M89.9312 0.000976562C89.307 0.000976562 88.7327 0.225486 88.2583 0.674506C88.2333 0.699451 88.2333 0.699451 88.2083 0.724397C87.7339 1.24825 87.5092 1.822 87.5092 2.42069V11.7254C87.1346 11.451 86.7851 11.2015 86.4105 10.977C84.4629 9.80456 82.2906 9.20587 79.9435 9.20587C76.5727 9.20587 73.6513 10.4282 71.2043 12.8729C68.7823 15.2926 67.5338 18.2361 67.5338 21.6287C67.5338 24.9964 68.7573 27.94 71.2043 30.3846C73.6013 32.7794 76.5477 34.0017 79.9435 34.0017C83.3643 34.0017 86.3107 32.7794 88.7077 30.3846C91.1297 27.9649 92.3782 25.0213 92.3782 21.6038V2.47058C92.3782 1.79705 92.1285 1.19836 91.679 0.749342C91.1796 0.225486 90.6054 0.000976562 89.9312 0.000976562ZM85.2876 26.8933C83.8394 28.3401 82.1415 29.0635 80.119 29.1134C80.0691 29.0885 79.9941 29.0885 79.9442 29.0885C77.8718 29.0885 76.099 28.365 74.6008 26.8683C73.1026 25.3716 72.3785 23.6254 72.3785 21.53C72.3785 19.4345 73.1026 17.6884 74.6008 16.1916C76.099 14.6949 77.8468 13.9715 79.9442 13.9715C82.0666 13.9715 83.8144 14.6949 85.2876 16.1916C86.7608 17.7133 87.4849 19.4595 87.4849 21.5549C87.4849 23.6753 86.7858 25.4215 85.2876 26.8933Z" fill="#4030EA"/>
<path fill-rule="evenodd" clip-rule="evenodd" d="M122.767 9.1578C122.692 9.13286 122.592 9.10791 122.517 9.10791C120.47 9.10791 118.522 9.7066 116.75 10.879C116.2 11.2532 115.751 11.6025 115.326 12.0265C115.127 12.2261 114.927 12.4506 114.727 12.7001C114.552 12.5005 114.353 12.276 114.128 12.0764C113.703 11.6773 113.229 11.2782 112.68 10.904C110.957 9.73155 109.009 9.10791 106.887 9.10791C104.14 9.10791 101.718 10.0808 99.7206 12.0265C97.6981 13.9972 96.6743 16.3671 96.6743 19.1111V31.2845C96.6743 31.8832 96.8741 32.432 97.2985 32.9059C97.723 33.4048 98.3223 33.6543 99.0714 33.6543C99.7206 33.6543 100.295 33.4298 100.719 32.9808C101.194 32.5567 101.418 31.958 101.418 31.2845V19.2358C101.418 17.7889 101.943 16.5417 103.016 15.4441C104.115 14.3465 105.364 13.8226 106.837 13.8226C108.335 13.8226 109.583 14.3465 110.657 15.4441C111.731 16.5167 112.23 17.7391 112.23 19.2358V31.2845C112.23 32.0328 112.48 32.6066 113.004 33.0556C113.429 33.4547 113.978 33.6543 114.577 33.6543C115.276 33.6543 115.851 33.4298 116.275 32.9558C116.725 32.4819 116.949 31.9081 116.949 31.2845V19.2358C116.949 17.764 117.474 16.5167 118.547 15.4441C119.646 14.3465 120.894 13.8226 122.393 13.8226C123.916 13.8226 125.164 14.3465 126.238 15.4441C127.287 16.4918 127.786 17.7391 127.786 19.2358V31.2845C127.786 31.9829 128.036 32.5317 128.535 33.0057C129.034 33.4547 129.584 33.6543 130.158 33.6543C130.757 33.6543 131.307 33.4298 131.756 33.0307C132.28 32.6315 132.555 32.0079 132.555 31.2845V19.2358C132.555 16.4918 131.556 14.0721 129.559 12.0515C127.811 10.2305 125.489 9.20769 122.767 9.1578Z" fill="#4030EA"/>
<path fill-rule="evenodd" clip-rule="evenodd" d="M26.5962 9.1578C26.5198 9.13286 26.418 9.10791 26.3417 9.10791C24.2547 9.10791 22.2695 9.7066 20.4625 10.879C19.9026 11.2532 19.4445 11.6025 19.0118 12.0265C18.8082 12.2261 18.6046 12.4506 18.401 12.7001C18.2228 12.5005 18.0192 12.276 17.7902 12.0764C17.3575 11.6773 16.8739 11.2782 16.314 10.904C14.5579 9.73155 12.5727 9.10791 10.4094 9.10791C7.60981 9.10791 5.14108 10.0808 3.10501 12.0265C1.04349 13.9972 0 16.3671 0 19.1111V31.2845C0 31.8832 0.203607 32.432 0.636272 32.9059C1.06894 33.4048 1.67976 33.6543 2.44328 33.6543C3.10501 33.6543 3.69038 33.4298 4.12304 32.9808C4.60661 32.5567 4.83567 31.958 4.83567 31.2845V19.2358C4.83567 17.7889 5.37013 16.5417 6.46452 15.4441C7.58436 14.3465 8.8569 13.8226 10.3585 13.8226C11.8856 13.8226 13.1581 14.3465 14.2525 15.4441C15.3469 16.5167 15.8559 17.7391 15.8559 19.2358V31.2845C15.8559 32.0328 16.1104 32.6066 16.6449 33.0556C17.0775 33.4547 17.6375 33.6543 18.2483 33.6543C18.9609 33.6543 19.5463 33.4298 19.9789 32.9558C20.4371 32.4819 20.6661 31.9081 20.6661 31.2845V19.2358C20.6661 17.764 21.2006 16.5167 22.295 15.4441C23.4148 14.3465 24.6873 13.8226 26.2144 13.8226C27.7669 13.8226 29.0394 14.3465 30.1338 15.4441C31.2028 16.4918 31.7118 17.7391 31.7118 19.2358V31.2845C31.7118 31.9829 31.9663 32.5317 32.4753 33.0057C32.9843 33.4547 33.5442 33.6543 34.1296 33.6543C34.7404 33.6543 35.3004 33.4298 35.7585 33.0307C36.2929 32.6315 36.5729 32.0079 36.5729 31.2845V19.2358C36.5729 16.4918 35.5549 14.0721 33.5188 12.0515C31.7372 10.2305 29.3703 9.20769 26.5962 9.1578Z" fill="#4030EA"/>
<path fill-rule="evenodd" clip-rule="evenodd" d="M148.209 9.00098C144.839 9.00098 141.917 10.2233 139.52 12.6181C137.123 15.0128 135.9 17.9315 135.9 21.2991C135.9 24.6917 137.123 27.6103 139.52 29.9802C141.917 32.3749 144.839 33.5973 148.209 33.5973C151.555 33.5973 154.477 32.3749 156.874 29.9802C159.296 27.5604 160.519 24.6418 160.519 21.2991C160.519 17.9814 159.296 15.0627 156.874 12.6181C154.477 10.2233 151.555 9.00098 148.209 9.00098ZM153.501 26.5953C152.028 28.0671 150.305 28.7655 148.208 28.7655C148.158 28.7655 148.083 28.7655 148.033 28.7905C146.011 28.7655 144.313 28.0421 142.914 26.6202C141.441 25.1235 140.717 23.3773 140.717 21.3318C140.717 19.2862 141.441 17.5401 142.914 16.0433C144.388 14.5715 146.111 13.8731 148.208 13.8731C150.305 13.8731 152.053 14.5715 153.501 16.0433C154.975 17.5151 155.674 19.2613 155.674 21.3318C155.674 23.4023 154.975 25.1484 153.501 26.5953Z" fill="#4030EA"/>
<path fill-rule="evenodd" clip-rule="evenodd" d="M175.825 9.00098C172.454 9.00098 169.533 10.2233 167.136 12.6181C164.739 15.0128 163.515 17.9315 163.515 21.2991C163.515 24.6917 164.739 27.6103 167.136 29.9802C169.533 32.3749 172.454 33.5973 175.825 33.5973C179.171 33.5973 182.092 32.3749 184.489 29.9802C186.911 27.5604 188.135 24.6418 188.135 21.2991C188.135 17.9814 186.911 15.0627 184.489 12.6181C182.067 10.2233 179.171 9.00098 175.825 9.00098ZM181.117 26.5953C179.644 28.0671 177.921 28.7655 175.824 28.7655C175.774 28.7655 175.699 28.7655 175.649 28.7905C173.626 28.7655 171.928 28.0421 170.53 26.6202C169.057 25.1235 168.333 23.3773 168.333 21.3318C168.333 19.2862 169.057 17.5401 170.53 16.0433C172.003 14.5715 173.726 13.8731 175.824 13.8731C177.921 13.8731 179.669 14.5715 181.117 16.0433C182.59 17.5151 183.289 19.2613 183.289 21.3318C183.289 23.4023 182.565 25.1484 181.117 26.5953Z" fill="#4030EA"/>
<path fill-rule="evenodd" clip-rule="evenodd" d="M201.12 9.15576C201.095 9.15576 201.095 9.15576 201.07 9.15576H201.021V9.15576V9.15576V9.15576V9.15576V9.15576V9.15576V9.15576V9.15576V9.15576V9.15576V9.15576V9.15576V9.15576V9.15576V9.15576V9.15576V9.15576V9.15576C201.021 9.15576 201.021 9.15576 200.996 9.15576V9.15576V9.15576V9.15576V9.15576V9.15576V9.15576V9.15576V9.15576V9.15576V9.15576C200.996 9.15576 200.996 9.15576 200.971 9.15576C198.249 9.18071 195.877 10.1785 193.954 12.0993C191.932 14.095 190.933 16.4648 190.933 19.1589V31.3074C190.933 32.1805 191.283 32.6794 191.607 32.9787C191.832 33.2531 192.107 33.4527 192.406 33.5525C192.656 33.6523 192.931 33.6772 193.28 33.6772C193.979 33.6772 194.554 33.4527 195.003 32.9787C195.328 32.6794 195.702 32.1555 195.702 31.3074V19.2836C195.702 17.762 196.201 16.5147 197.25 15.467C198.324 14.4193 199.572 13.8954 201.046 13.8954C202.519 13.8954 203.767 14.4193 204.841 15.467C205.89 16.5147 206.414 17.762 206.414 19.2836V31.3074C206.414 31.8811 206.639 32.4299 207.038 32.9039C207.488 33.4028 208.087 33.6772 208.811 33.6772C209.535 33.6772 210.109 33.4278 210.559 32.9787C210.808 32.7542 210.983 32.5048 211.083 32.2304C211.183 31.9809 211.208 31.6816 211.208 31.3074V19.2836C211.208 16.5147 210.209 14.095 208.237 12.1243C206.264 10.1785 203.867 9.18071 201.12 9.15576Z" fill="#4030EA"/>
<path fill-rule="evenodd" clip-rule="evenodd" d="M238.048 16.4351C237.398 14.9633 236.499 13.6412 235.351 12.5436C233.004 10.2486 230.107 9.07617 226.737 9.07617C223.391 9.07617 220.494 10.2486 218.147 12.5436C215.675 14.9384 214.402 17.8071 214.402 21.075V21.4242C214.402 24.7918 215.6 27.7105 217.997 30.1302C220.369 32.525 223.316 33.7473 226.737 33.7473C228.709 33.7473 230.632 33.2733 232.454 32.3254C233.328 31.8514 234.152 31.3026 234.876 30.654C235.626 30.0055 236.275 29.282 236.824 28.4838C237.124 28.0597 237.274 27.5857 237.274 27.1118V26.9372C237.274 26.7875 237.249 26.6877 237.199 26.5879C237.049 25.9393 236.699 25.4155 236.125 25.0663C235.725 24.8168 235.276 24.6921 234.827 24.6921H234.577C234.527 24.6921 234.477 24.6921 234.427 24.717C233.728 24.8667 233.204 25.191 232.829 25.6899C232.479 26.1888 232.08 26.6378 231.606 27.0369C231.156 27.4111 230.657 27.7604 230.132 28.0348C230.107 28.0597 230.082 28.0597 230.057 28.0847C229.533 28.3341 229.009 28.5337 228.459 28.6584C227.885 28.8081 227.286 28.8829 226.662 28.8829C224.664 28.8829 222.966 28.1844 221.493 26.7875C220.769 26.0641 220.319 25.4903 220.02 24.8916C219.795 24.4426 219.62 23.9936 219.47 23.5446H236.574C237.748 23.5446 238.572 22.9209 238.872 21.7984C238.872 21.7734 238.897 21.7236 238.897 21.6986C238.921 21.5988 238.946 21.524 238.946 21.4492C238.971 21.3743 238.996 21.2745 238.996 21.1747C239.046 19.5034 238.722 17.9069 238.048 16.4351ZM219.669 18.8367C220.069 17.789 220.668 16.8661 221.517 16.0428C221.542 16.0179 221.592 15.993 221.617 15.968C223.14 14.621 224.788 13.9724 226.685 13.9724C227.634 13.9724 228.558 14.147 229.432 14.4713C230.381 14.8455 231.155 15.2945 231.779 15.8932C232.254 16.3173 232.678 16.891 233.152 17.6394C233.377 18.0135 233.577 18.4127 233.752 18.8367H219.669Z" fill="#4030EA"/>
</svg>
