<svg width="46" height="52" viewBox="0 0 46 52" fill="none" xmlns="http://www.w3.org/2000/svg">
	<path d="M44.5507 17.125C41.9257 5.575 31.8507 0.375 23.0007 0.375C23.0007 0.375 23.0007 0.375 22.9757 0.375C14.1507 0.375 4.05073 5.55 1.42573 17.1C-1.49927 30 6.40073 40.925 13.5507 47.8C16.2007 50.35 19.6007 51.625 23.0007 51.625C26.4007 51.625 29.8007 50.35 32.4257 47.8C39.5757 40.925 47.4757 30.025 44.5507 17.125ZM23.0007 29.65C18.6507 29.65 15.1257 26.125 15.1257 21.775C15.1257 17.425 18.6507 13.9 23.0007 13.9C27.3507 13.9 30.8757 17.425 30.8757 21.775C30.8757 26.125 27.3507 29.65 23.0007 29.65Z" fill="#4030EA" />
</svg>
