<svg width="30" height="21" viewBox="0 0 30 21" fill="none" xmlns="http://www.w3.org/2000/svg">
<path d="M29.7239 15.1814C29.7239 17.9761 28.1722 20.2418 25.1235 20.2418H4.88167C1.83297 20.2418 0.28125 17.9761 0.28125 15.1814V5.06046C0.28125 2.26571 1.83297 0 4.88167 0H25.1235C28.1722 0 29.7239 2.26571 29.7239 5.06046V15.1814Z" fill="#EC1C24"/>
<path fill-rule="evenodd" clip-rule="evenodd" d="M20.232 8.39924C19.0423 8.39924 17.8517 8.40246 16.6612 8.40246C16.6322 8.40246 16.6014 8.39924 16.5724 8.40246C16.525 8.40476 16.5006 8.3859 16.4937 8.33898C16.4882 8.31689 16.4799 8.29619 16.4716 8.27365C16.0958 7.00118 15.7185 5.7264 15.3408 4.45163C15.3316 4.41758 15.3243 4.384 15.3008 4.34766C15.2691 4.38768 15.2645 4.43322 15.2525 4.47049C14.8803 5.73468 14.5091 6.99704 14.1351 8.26123C14.0891 8.41902 14.1157 8.39878 13.9543 8.39878C12.7563 8.402 11.5602 8.402 10.3613 8.40338C10.3213 8.40338 10.2795 8.39556 10.2344 8.4135C10.2634 8.45675 10.2992 8.47791 10.3314 8.50275C11.3072 9.28436 12.2839 10.0651 13.2605 10.8485C13.3489 10.9184 13.3489 10.9184 13.318 11.0265C13.1299 11.6674 12.9413 12.3045 12.7554 12.9435C12.5599 13.6055 12.368 14.2666 12.173 14.9277C12.1638 14.9447 12.1619 14.9604 12.1776 14.976C12.2089 14.9525 12.2457 14.9282 12.2774 14.9042C13.2444 14.1281 14.2114 13.3548 15.1784 12.581C15.2051 12.5576 15.2323 12.5396 15.2589 12.5162C15.2843 12.4932 15.31 12.4899 15.339 12.5129C15.3588 12.5318 15.3804 12.5474 15.3997 12.5635L18.3224 14.8982C18.3573 14.9268 18.3914 14.9525 18.4342 14.9852C18.4397 14.93 18.4245 14.8973 18.4135 14.8601C18.1894 14.0973 17.9635 13.3346 17.7377 12.5727C17.5849 12.0538 17.4331 11.534 17.2776 11.0155C17.2564 10.9479 17.2624 10.8991 17.3259 10.8618C17.3416 10.854 17.3549 10.8393 17.371 10.8278C18.3398 10.0503 19.3096 9.2724 20.278 8.49401C20.3074 8.47055 20.3475 8.45307 20.3654 8.39832C20.3143 8.3997 20.2743 8.3997 20.2325 8.3997L20.232 8.39924ZM15.2939 7.32597C15.3358 7.40693 15.3482 7.46904 15.3652 7.52884C15.4443 7.79015 15.5235 8.05099 15.5985 8.31137C15.6242 8.3974 15.6205 8.39924 15.5327 8.40246C15.3565 8.40384 15.178 8.40246 14.9815 8.40246C15.0777 8.04087 15.1876 7.69446 15.2939 7.32597ZM12.8069 9.34601C12.8318 9.31933 12.847 9.32163 12.8608 9.32163C13.1524 9.3191 13.4441 9.31772 13.7358 9.31749C13.8218 9.31749 13.8227 9.32163 13.8015 9.39937C13.7445 9.59489 13.6865 9.78903 13.6253 10.0016C13.3443 9.77753 13.0756 9.56407 12.8069 9.34601ZM13.8218 12.5249C13.7739 12.5258 13.7781 12.4959 13.7873 12.4669C13.8682 12.1504 13.9635 11.8417 14.0587 11.5312C14.0605 11.5252 14.0674 11.5192 14.0789 11.5041C14.2464 11.6366 14.4148 11.7723 14.5942 11.914C14.3301 12.1242 14.0757 12.3234 13.8218 12.5249ZM15.3625 11.2984C15.3215 11.3311 15.2921 11.3398 15.2442 11.3021C14.9645 11.073 14.6793 10.8462 14.3945 10.6194C14.3531 10.5867 14.3407 10.5582 14.355 10.5058C14.4677 10.1345 14.5753 9.76465 14.6834 9.39339C14.7 9.33773 14.7267 9.31519 14.7883 9.31519C15.132 9.31795 15.4775 9.31703 15.8225 9.31703C15.868 9.31703 15.8993 9.32393 15.9136 9.37545C16.0254 9.75913 16.1372 10.14 16.2499 10.5205C16.2536 10.5325 16.2545 10.5435 16.2577 10.5545C16.2577 10.5913 16.2273 10.6038 16.2048 10.6217C16.0272 10.7639 15.8501 10.9069 15.6716 11.0482C15.5681 11.1323 15.4637 11.2129 15.3625 11.2984ZM16.7872 12.524C16.5328 12.3234 16.277 12.1242 16.0107 11.9163C16.1892 11.7732 16.3552 11.6402 16.5185 11.5082C16.5328 11.5179 16.5406 11.5197 16.5448 11.5252C16.6405 11.8385 16.7366 12.1504 16.8194 12.4701C16.8318 12.5014 16.8337 12.5258 16.7872 12.524ZM17.7883 9.34371C17.5564 9.54797 17.3084 9.7329 17.0706 9.92842C17.0444 9.95096 17.0214 9.97764 16.9813 9.98455C16.9349 9.87368 16.9105 9.75452 16.8737 9.64043C16.8476 9.55778 16.8231 9.47465 16.8001 9.39109C16.7835 9.32623 16.789 9.31749 16.8571 9.31749C17.0545 9.31473 17.25 9.31657 17.4464 9.31657H17.7869C17.7795 9.33497 17.786 9.31657 17.7915 9.33175C17.7915 9.33497 17.7915 9.34003 17.7883 9.34371Z" fill="black"/>
<path fill-rule="evenodd" clip-rule="evenodd" d="M12.174 14.9258C12.1772 14.9428 12.1772 14.9584 12.1786 14.9741C12.1496 14.9709 12.1496 14.9626 12.174 14.9258Z" fill="#570007"/>
<path fill-rule="evenodd" clip-rule="evenodd" d="M20.1454 8.48786C20.1275 8.53801 20.0921 8.55549 20.0636 8.57895C19.1531 9.30812 18.2445 10.0387 17.3332 10.7701C17.3268 10.7738 17.3208 10.7784 17.3148 10.783C17.2403 10.8401 17.2329 10.8368 17.2053 10.7439C17.1487 10.5594 17.0995 10.3727 17.0397 10.19C17.0121 10.1072 17.0319 10.0571 17.0977 10.0046C17.3778 9.78472 17.652 9.5593 17.9299 9.33572C17.9538 9.31732 17.9819 9.3026 17.997 9.2681C17.974 9.23405 17.9377 9.24831 17.9069 9.24831C17.2407 9.24601 16.5737 9.24601 15.9075 9.24601H14.8609C14.8379 9.24831 14.8145 9.24601 14.7929 9.24463C14.7602 9.24463 14.745 9.22623 14.7515 9.19311C14.7556 9.17097 14.7613 9.14914 14.7685 9.12778C14.8195 8.94929 14.8729 8.77033 14.9253 8.59413C14.9622 8.47728 14.9622 8.47728 15.0813 8.47728C15.6706 8.47636 16.2576 8.47636 16.8446 8.47636H19.9936C20.0401 8.4759 20.0898 8.46854 20.1454 8.48786Z" fill="#006838"/>
<path fill-rule="evenodd" clip-rule="evenodd" d="M10.4453 8.49654C10.4955 8.46756 10.5327 8.47584 10.57 8.47584C11.6883 8.47492 12.8058 8.47492 13.9232 8.47492C14.0737 8.47308 14.0737 8.47492 14.0327 8.61477C13.9817 8.78729 13.9306 8.9575 13.8814 9.12818C13.8459 9.24457 13.8459 9.24457 13.7259 9.24687C13.3969 9.24687 13.0653 9.24687 12.7368 9.24825C12.6981 9.24825 12.6554 9.24089 12.6135 9.25975C12.6208 9.30897 12.66 9.3237 12.6866 9.34578C13.4889 9.98754 14.2903 10.6288 15.0899 11.2715C15.117 11.2918 15.1446 11.3129 15.1704 11.3355C15.2353 11.3907 15.2353 11.3985 15.1649 11.4528C15.0195 11.5747 14.8709 11.6925 14.7237 11.8093C14.6519 11.8636 14.6506 11.8659 14.5774 11.8079C14.3547 11.629 14.1298 11.4477 13.9048 11.2683L10.5419 8.57797C10.512 8.55451 10.4844 8.52874 10.4453 8.49654Z" fill="#006838"/>
<path fill-rule="evenodd" clip-rule="evenodd" d="M12.2973 14.7749L13.4079 10.998C13.4608 10.9952 13.481 11.0246 13.5082 11.0458C13.6476 11.1562 13.7846 11.2703 13.9259 11.377C13.9866 11.424 13.9999 11.4686 13.9797 11.5422C13.8702 11.9047 13.7639 12.2681 13.6591 12.6325C13.6476 12.6716 13.6278 12.7084 13.6402 12.759C13.6834 12.7424 13.7147 12.713 13.7455 12.6882C14.5529 12.0423 15.3608 11.3959 16.1672 10.7472C16.291 10.6479 16.291 10.6479 16.336 10.7942C16.3853 10.9616 16.4331 11.1295 16.4823 11.2979C16.5155 11.4161 16.5155 11.4161 16.4188 11.4953C15.4896 12.2364 14.5695 12.9789 13.6402 13.7187C13.2321 14.0471 12.8255 14.3728 12.4169 14.7004C12.3866 14.7234 12.3581 14.7565 12.2969 14.7749" fill="#006838"/>
<path fill-rule="evenodd" clip-rule="evenodd" d="M18.3001 14.7673C18.255 14.7571 18.2311 14.7268 18.2017 14.7042C17.2931 13.9801 16.385 13.2537 15.4755 12.5282C15.3522 12.4302 15.3522 12.4431 15.4741 12.347C15.6052 12.2435 15.7331 12.1372 15.866 12.0337C15.9567 11.9615 15.958 11.9615 16.0468 12.0323C16.3164 12.2476 16.5869 12.4629 16.857 12.6773C16.8924 12.7054 16.9273 12.7297 16.9651 12.7587C16.9876 12.7104 16.9641 12.6759 16.9536 12.6419C16.6458 11.5953 16.338 10.5487 16.0289 9.50346C15.9691 9.2969 15.9599 9.31485 16.171 9.31485H16.5796C16.7019 9.31485 16.7028 9.31577 16.735 9.43032C16.8763 9.90232 17.0152 10.3766 17.1551 10.8477C17.5291 12.116 17.9036 13.3825 18.2766 14.6518C18.2891 14.6868 18.3029 14.7208 18.3006 14.7673" fill="#006838"/>
<path fill-rule="evenodd" clip-rule="evenodd" d="M15.2999 4.625C15.3349 4.65628 15.3358 4.69125 15.3464 4.72437C15.6947 5.9053 16.0452 7.0853 16.393 8.26623C16.433 8.39918 16.4312 8.39918 16.2955 8.4001C16.1322 8.4001 15.9688 8.4001 15.8069 8.39918C15.7043 8.39918 15.7034 8.3978 15.6717 8.29889C15.5635 7.93086 15.4527 7.56467 15.3459 7.19755C15.3349 7.16351 15.3289 7.12579 15.3013 7.09082C15.265 7.12993 15.2613 7.17731 15.2503 7.22147C14.9388 8.27037 14.6292 9.32157 14.321 10.3718C14.275 10.5227 14.275 10.5227 14.1567 10.428C14.0339 10.3309 13.9129 10.2338 13.7942 10.1363C13.6893 10.0535 13.688 10.0517 13.7257 9.92744C13.9097 9.3027 14.0923 8.67613 14.2773 8.05139L15.2457 4.75795C15.2608 4.71517 15.265 4.6687 15.3009 4.625" fill="#006838"/>
<path fill-rule="evenodd" clip-rule="evenodd" d="M13.784 12.4668C13.7964 12.4866 13.8075 12.5054 13.8185 12.5248C13.8084 12.5459 13.7914 12.5583 13.7605 12.5648C13.7568 12.5477 13.7569 12.5301 13.761 12.5131C13.765 12.4961 13.7729 12.4803 13.784 12.4668Z" fill="#C30010"/>
<path fill-rule="evenodd" clip-rule="evenodd" d="M16.7891 12.5206C16.7987 12.5022 16.8111 12.4847 16.8208 12.4668C16.8268 12.4792 16.836 12.4912 16.841 12.5022C16.8461 12.5206 16.8553 12.5436 16.8374 12.5528C16.8144 12.5616 16.8006 12.5381 16.7891 12.5206Z" fill="#C90010"/>
</svg>
