<svg width="30" height="21" viewBox="0 0 30 21" fill="none" xmlns="http://www.w3.org/2000/svg">
<g clip-path="url(#clip0_2366_126466)">
<path d="M27.5 0.75H2.5C1.11929 0.75 0 1.86929 0 3.25V18.25C0 19.6307 1.11929 20.75 2.5 20.75H27.5C28.8807 20.75 30 19.6307 30 18.25V3.25C30 1.86929 28.8807 0.75 27.5 0.75Z" fill="#252525"/>
<path d="M11.25 17C14.7018 17 17.5 14.2018 17.5 10.75C17.5 7.29822 14.7018 4.5 11.25 4.5C7.79822 4.5 5 7.29822 5 10.75C5 14.2018 7.79822 17 11.25 17Z" fill="#EB001B"/>
<path d="M18.75 17C22.2018 17 25 14.2018 25 10.75C25 7.29822 22.2018 4.5 18.75 4.5C15.2982 4.5 12.5 7.29822 12.5 10.75C12.5 14.2018 15.2982 17 18.75 17Z" fill="#F79E1B"/>
<path fill-rule="evenodd" clip-rule="evenodd" d="M15 5.75C16.5181 6.89026 17.5 8.70569 17.5 10.7505C17.5 12.7952 16.5181 14.6107 15 15.7509C13.4819 14.6107 12.5 12.7952 12.5 10.7505C12.5 8.70569 13.4819 6.89026 15 5.75Z" fill="#FF5F00"/>
</g>
<defs>
<clipPath id="clip0_2366_126466">
<rect width="30" height="20" fill="white" transform="translate(0 0.75)"/>
</clipPath>
</defs>
</svg>
