<svg width="27" height="8" viewBox="0 0 27 8" fill="none" xmlns="http://www.w3.org/2000/svg">
<path d="M2.48467 1.14305C1.83074 0.784382 1.08442 0.495922 0.25 0.295742L0.285001 0.139853H3.70622C4.16995 0.156107 4.54624 0.295633 4.66868 0.788389L5.41221 4.33324L5.63998 5.40091L7.72246 0.139853H9.97099L6.6286 7.84691H4.37996L2.48467 1.14305ZM11.625 7.85509H9.49854L10.8286 0.139853H12.9549L11.625 7.85509ZM19.3335 0.328468L19.0443 1.99448L18.852 1.91256C18.4672 1.75656 17.9593 1.60067 17.268 1.61714C16.4284 1.61714 16.0519 1.95346 16.0432 2.28182C16.0432 2.64302 16.4987 2.88105 17.2424 3.23406C18.4675 3.78398 19.0358 4.45696 19.0273 5.33524C19.0101 6.9358 17.5575 7.97007 15.3263 7.97007C14.3723 7.96178 13.4535 7.77262 12.9548 7.55946L13.2523 5.82756L13.5323 5.95083C14.2236 6.23839 14.6785 6.36122 15.5275 6.36122C16.1397 6.36122 16.7961 6.12297 16.8045 5.60611C16.8045 5.26956 16.5248 5.02313 15.7021 4.64557C14.8972 4.27609 13.8211 3.6606 13.8385 2.55247C13.8476 1.05053 15.3263 0 17.4262 0C18.2488 0 18.9141 0.172361 19.3335 0.328468ZM22.1597 5.12186H23.9272C23.8397 4.73612 23.437 2.88934 23.437 2.88934L23.2884 2.22455C23.1834 2.51178 22.9998 2.97967 23.0087 2.9632C23.0087 2.9632 22.3348 4.67863 22.1597 5.12186ZM24.7845 0.139853L26.5 7.85498H24.5311C24.5311 7.85498 24.3384 6.96852 24.2774 6.69765H21.5472C21.4683 6.90274 21.101 7.85498 21.101 7.85498H18.8697L22.0283 0.779989C22.2471 0.279269 22.6325 0.139853 23.1397 0.139853H24.7845Z" fill="#171E6C"/>
</svg>
