<svg width="30" height="21" viewBox="0 0 30 21" fill="none" xmlns="http://www.w3.org/2000/svg">
<g clip-path="url(#clip0_2315_127828)">
<path d="M27.1875 1.0625H2.8125C1.43179 1.0625 0.3125 2.18179 0.3125 3.5625V17.9375C0.3125 19.3182 1.43179 20.4375 2.8125 20.4375H27.1875C28.5682 20.4375 29.6875 19.3182 29.6875 17.9375V3.5625C29.6875 2.18179 28.5682 1.0625 27.1875 1.0625Z" fill="white" stroke="black" stroke-opacity="0.2" stroke-width="0.5"/>
<path d="M3.48467 8.14305C2.83074 7.78438 2.08442 7.49592 1.25 7.29574L1.285 7.13985H4.70622C5.16995 7.15611 5.54624 7.29563 5.66868 7.78839L6.41221 11.3332L6.63998 12.4009L8.72246 7.13985H10.971L7.6286 14.8469H5.37996L3.48467 8.14305ZM12.625 14.8551H10.4985L11.8286 7.13985H13.9549L12.625 14.8551ZM20.3335 7.32847L20.0443 8.99448L19.852 8.91256C19.4672 8.75656 18.9593 8.60067 18.268 8.61714C17.4284 8.61714 17.0519 8.95346 17.0432 9.28182C17.0432 9.64302 17.4987 9.88105 18.2424 10.2341C19.4675 10.784 20.0358 11.457 20.0273 12.3352C20.0101 13.9358 18.5575 14.9701 16.3263 14.9701C15.3723 14.9618 14.4535 14.7726 13.9548 14.5595L14.2523 12.8276L14.5323 12.9508C15.2236 13.2384 15.6785 13.3612 16.5275 13.3612C17.1397 13.3612 17.7961 13.123 17.8045 12.6061C17.8045 12.2696 17.5248 12.0231 16.7021 11.6456C15.8972 11.2761 14.8211 10.6606 14.8385 9.55247C14.8476 8.05053 16.3263 7 18.4262 7C19.2488 7 19.9141 7.17236 20.3335 7.32847ZM23.1597 12.1219H24.9272C24.8397 11.7361 24.437 9.88934 24.437 9.88934L24.2884 9.22455C24.1834 9.51178 23.9998 9.97967 24.0087 9.9632C24.0087 9.9632 23.3348 11.6786 23.1597 12.1219ZM25.7845 7.13985L27.5 14.855H25.5311C25.5311 14.855 25.3384 13.9685 25.2774 13.6977H22.5472C22.4683 13.9027 22.101 14.855 22.101 14.855H19.8697L23.0283 7.77999C23.2471 7.27927 23.6325 7.13985 24.1397 7.13985H25.7845Z" fill="#171E6C"/>
</g>
<defs>
<clipPath id="clip0_2315_127828">
<rect width="30" height="20" fill="white" transform="translate(0 0.75)"/>
</clipPath>
</defs>
</svg>
