<svg width="17" height="11" viewBox="0 0 17 11" fill="none" xmlns="http://www.w3.org/2000/svg">
<path d="M6.98701 6.12738C6.98701 6.37698 6.83412 6.45298 6.5865 6.52898L1.76454 8.00818C1.41963 8.11376 1.18537 8.42214 1.18537 8.77058V9.20018C1.18537 9.64201 1.5574 10.0002 2.01632 10.0002H14.4805C14.9394 10.0002 15.3114 9.64201 15.3114 9.20018V8.76978C15.3114 8.42134 15.0771 8.11296 14.7322 8.00738C10.5484 6.70498 8.38715 6.03538 8.24838 5.99778C7.99625 5.89443 7.83268 5.65601 7.83291 5.39218V4.40018C7.83291 4.17927 8.01892 4.00018 8.24838 4.00018C8.93096 4.00035 9.52178 3.54342 9.66878 2.90168C9.81578 2.25995 9.47937 1.60615 8.86004 1.32989C8.24071 1.05364 7.50516 1.2293 7.09171 1.75218C6.95243 1.92803 6.69145 1.96188 6.50881 1.82778C6.32616 1.69369 6.291 1.44243 6.43028 1.26658C7.04882 0.485258 8.13045 0.193446 9.08064 0.551547C10.0308 0.909647 10.6192 1.83086 10.5225 2.80883C10.4257 3.78679 9.66718 4.58446 8.66385 4.76338V5.16098C8.66385 5.24898 8.72202 5.32578 8.80844 5.35218L14.9848 7.24498C15.6743 7.45643 16.1425 8.0731 16.1423 8.76978V9.20018C16.1423 10.0838 15.3983 10.8002 14.4805 10.8002H2.01632C1.09848 10.8002 0.354431 10.0838 0.354431 9.20018V8.76978C0.354309 8.0731 0.82244 7.45643 1.51193 7.24498L6.5865 5.68978C6.75422 5.63849 6.9334 5.72761 6.98701 5.88898C6.99698 5.91938 6.98701 6.09538 6.98701 6.12738Z" fill="#2F2FE9"/>
</svg>
