<svg width="132" height="115" viewBox="0 0 132 115" fill="none" xmlns="http://www.w3.org/2000/svg">
<g opacity="0.26">
<mask id="mask0_6_14675" style="mask-type:alpha" maskUnits="userSpaceOnUse" x="0" y="0" width="11" height="11">
<path d="M5.43785 10.425C8.32541 10.425 10.6662 8.09121 10.6662 5.21245C10.6662 2.33368 8.32541 0 5.43785 0C2.55029 0 0.209473 2.33368 0.209473 5.21245C0.209473 8.09121 2.55029 10.425 5.43785 10.425Z" fill="url(#paint0_linear_6_14675)"/>
</mask>
<g mask="url(#mask0_6_14675)">
<path d="M5.43785 10.425C8.32541 10.425 10.6662 8.09121 10.6662 5.21245C10.6662 2.33368 8.32541 0 5.43785 0C2.55029 0 0.209473 2.33368 0.209473 5.21245C0.209473 8.09121 2.55029 10.425 5.43785 10.425Z" fill="#546080"/>
</g>
<mask id="mask1_6_14675" style="mask-type:alpha" maskUnits="userSpaceOnUse" x="30" y="0" width="11" height="11">
<path d="M35.7189 10.425C38.6065 10.425 40.9473 8.09121 40.9473 5.21245C40.9473 2.33368 38.6065 0 35.7189 0C32.8314 0 30.4905 2.33368 30.4905 5.21245C30.4905 8.09121 32.8314 10.425 35.7189 10.425Z" fill="url(#paint1_linear_6_14675)"/>
</mask>
<g mask="url(#mask1_6_14675)">
<path d="M35.7189 10.425C38.6065 10.425 40.9473 8.09121 40.9473 5.21245C40.9473 2.33368 38.6065 0 35.7189 0C32.8314 0 30.4905 2.33368 30.4905 5.21245C30.4905 8.09121 32.8314 10.425 35.7189 10.425Z" fill="#546080"/>
</g>
<mask id="mask2_6_14675" style="mask-type:alpha" maskUnits="userSpaceOnUse" x="60" y="0" width="12" height="11">
<path d="M66 10.425C68.8875 10.425 71.2284 8.09121 71.2284 5.21245C71.2284 2.33368 68.8875 0 66 0C63.1124 0 60.7716 2.33368 60.7716 5.21245C60.7716 8.09121 63.1124 10.425 66 10.425Z" fill="url(#paint2_linear_6_14675)"/>
</mask>
<g mask="url(#mask2_6_14675)">
<path d="M66 10.425C68.8875 10.425 71.2284 8.09121 71.2284 5.21245C71.2284 2.33368 68.8875 0 66 0C63.1124 0 60.7716 2.33368 60.7716 5.21245C60.7716 8.09121 63.1124 10.425 66 10.425Z" fill="#546080"/>
</g>
<mask id="mask3_6_14675" style="mask-type:alpha" maskUnits="userSpaceOnUse" x="91" y="0" width="11" height="11">
<path d="M96.2811 10.425C99.1686 10.425 101.509 8.09121 101.509 5.21245C101.509 2.33368 99.1686 0 96.2811 0C93.3935 0 91.0527 2.33368 91.0527 5.21245C91.0527 8.09121 93.3935 10.425 96.2811 10.425Z" fill="url(#paint3_linear_6_14675)"/>
</mask>
<g mask="url(#mask3_6_14675)">
<path d="M96.2811 10.425C99.1686 10.425 101.509 8.09121 101.509 5.21245C101.509 2.33368 99.1686 0 96.2811 0C93.3935 0 91.0527 2.33368 91.0527 5.21245C91.0527 8.09121 93.3935 10.425 96.2811 10.425Z" fill="#546080"/>
</g>
<mask id="mask4_6_14675" style="mask-type:alpha" maskUnits="userSpaceOnUse" x="121" y="0" width="11" height="11">
<path d="M126.562 10.425C129.45 10.425 131.791 8.09121 131.791 5.21245C131.791 2.33368 129.45 0 126.562 0C123.675 0 121.334 2.33368 121.334 5.21245C121.334 8.09121 123.675 10.425 126.562 10.425Z" fill="url(#paint4_linear_6_14675)"/>
</mask>
<g mask="url(#mask4_6_14675)">
<path d="M126.562 10.425C129.45 10.425 131.791 8.09121 131.791 5.21245C131.791 2.33368 129.45 0 126.562 0C123.675 0 121.334 2.33368 121.334 5.21245C121.334 8.09121 123.675 10.425 126.562 10.425Z" fill="#546080"/>
</g>
<mask id="mask5_6_14675" style="mask-type:alpha" maskUnits="userSpaceOnUse" x="0" y="26" width="11" height="11">
<path d="M5.43785 36.5958C8.32541 36.5958 10.6662 34.2621 10.6662 31.3833C10.6662 28.5046 8.32541 26.1709 5.43785 26.1709C2.55029 26.1709 0.209473 28.5046 0.209473 31.3833C0.209473 34.2621 2.55029 36.5958 5.43785 36.5958Z" fill="url(#paint5_linear_6_14675)"/>
</mask>
<g mask="url(#mask5_6_14675)">
<path d="M5.43785 36.5958C8.32541 36.5958 10.6662 34.2621 10.6662 31.3833C10.6662 28.5046 8.32541 26.1709 5.43785 26.1709C2.55029 26.1709 0.209473 28.5046 0.209473 31.3833C0.209473 34.2621 2.55029 36.5958 5.43785 36.5958Z" fill="#546080"/>
</g>
<mask id="mask6_6_14675" style="mask-type:alpha" maskUnits="userSpaceOnUse" x="30" y="26" width="11" height="11">
<path d="M35.7189 36.5958C38.6065 36.5958 40.9473 34.2621 40.9473 31.3833C40.9473 28.5046 38.6065 26.1709 35.7189 26.1709C32.8314 26.1709 30.4905 28.5046 30.4905 31.3833C30.4905 34.2621 32.8314 36.5958 35.7189 36.5958Z" fill="url(#paint6_linear_6_14675)"/>
</mask>
<g mask="url(#mask6_6_14675)">
<path d="M35.7189 36.5958C38.6065 36.5958 40.9473 34.2621 40.9473 31.3833C40.9473 28.5046 38.6065 26.1709 35.7189 26.1709C32.8314 26.1709 30.4905 28.5046 30.4905 31.3833C30.4905 34.2621 32.8314 36.5958 35.7189 36.5958Z" fill="#546080"/>
</g>
<mask id="mask7_6_14675" style="mask-type:alpha" maskUnits="userSpaceOnUse" x="60" y="26" width="12" height="11">
<path d="M66 36.5958C68.8875 36.5958 71.2284 34.2621 71.2284 31.3833C71.2284 28.5046 68.8875 26.1709 66 26.1709C63.1124 26.1709 60.7716 28.5046 60.7716 31.3833C60.7716 34.2621 63.1124 36.5958 66 36.5958Z" fill="url(#paint7_linear_6_14675)"/>
</mask>
<g mask="url(#mask7_6_14675)">
<path d="M66 36.5958C68.8875 36.5958 71.2284 34.2621 71.2284 31.3833C71.2284 28.5046 68.8875 26.1709 66 26.1709C63.1124 26.1709 60.7716 28.5046 60.7716 31.3833C60.7716 34.2621 63.1124 36.5958 66 36.5958Z" fill="#546080"/>
</g>
<mask id="mask8_6_14675" style="mask-type:alpha" maskUnits="userSpaceOnUse" x="91" y="26" width="11" height="11">
<path d="M96.2811 36.5958C99.1686 36.5958 101.509 34.2621 101.509 31.3833C101.509 28.5046 99.1686 26.1709 96.2811 26.1709C93.3935 26.1709 91.0527 28.5046 91.0527 31.3833C91.0527 34.2621 93.3935 36.5958 96.2811 36.5958Z" fill="url(#paint8_linear_6_14675)"/>
</mask>
<g mask="url(#mask8_6_14675)">
<path d="M96.2811 36.5958C99.1686 36.5958 101.509 34.2621 101.509 31.3833C101.509 28.5046 99.1686 26.1709 96.2811 26.1709C93.3935 26.1709 91.0527 28.5046 91.0527 31.3833C91.0527 34.2621 93.3935 36.5958 96.2811 36.5958Z" fill="#546080"/>
</g>
<mask id="mask9_6_14675" style="mask-type:alpha" maskUnits="userSpaceOnUse" x="121" y="26" width="11" height="11">
<path d="M126.562 36.5958C129.45 36.5958 131.791 34.2621 131.791 31.3833C131.791 28.5046 129.45 26.1709 126.562 26.1709C123.675 26.1709 121.334 28.5046 121.334 31.3833C121.334 34.2621 123.675 36.5958 126.562 36.5958Z" fill="url(#paint9_linear_6_14675)"/>
</mask>
<g mask="url(#mask9_6_14675)">
<path d="M126.562 36.5958C129.45 36.5958 131.791 34.2621 131.791 31.3833C131.791 28.5046 129.45 26.1709 126.562 26.1709C123.675 26.1709 121.334 28.5046 121.334 31.3833C121.334 34.2621 123.675 36.5958 126.562 36.5958Z" fill="#546080"/>
</g>
<mask id="mask10_6_14675" style="mask-type:alpha" maskUnits="userSpaceOnUse" x="0" y="52" width="11" height="11">
<path d="M5.43785 62.7126C8.32541 62.7126 10.6662 60.3789 10.6662 57.5001C10.6662 54.6213 8.32541 52.2876 5.43785 52.2876C2.55029 52.2876 0.209473 54.6213 0.209473 57.5001C0.209473 60.3789 2.55029 62.7126 5.43785 62.7126Z" fill="url(#paint10_linear_6_14675)"/>
</mask>
<g mask="url(#mask10_6_14675)">
<path d="M5.43785 62.7126C8.32541 62.7126 10.6662 60.3789 10.6662 57.5001C10.6662 54.6213 8.32541 52.2876 5.43785 52.2876C2.55029 52.2876 0.209473 54.6213 0.209473 57.5001C0.209473 60.3789 2.55029 62.7126 5.43785 62.7126Z" fill="#546080"/>
</g>
<mask id="mask11_6_14675" style="mask-type:alpha" maskUnits="userSpaceOnUse" x="30" y="52" width="11" height="11">
<path d="M35.7189 62.7126C38.6065 62.7126 40.9473 60.3789 40.9473 57.5001C40.9473 54.6213 38.6065 52.2876 35.7189 52.2876C32.8314 52.2876 30.4905 54.6213 30.4905 57.5001C30.4905 60.3789 32.8314 62.7126 35.7189 62.7126Z" fill="url(#paint11_linear_6_14675)"/>
</mask>
<g mask="url(#mask11_6_14675)">
<path d="M35.7189 62.7126C38.6065 62.7126 40.9473 60.3789 40.9473 57.5001C40.9473 54.6213 38.6065 52.2876 35.7189 52.2876C32.8314 52.2876 30.4905 54.6213 30.4905 57.5001C30.4905 60.3789 32.8314 62.7126 35.7189 62.7126Z" fill="#546080"/>
</g>
<mask id="mask12_6_14675" style="mask-type:alpha" maskUnits="userSpaceOnUse" x="60" y="52" width="12" height="11">
<path d="M66 62.7126C68.8875 62.7126 71.2284 60.3789 71.2284 57.5001C71.2284 54.6213 68.8875 52.2876 66 52.2876C63.1124 52.2876 60.7716 54.6213 60.7716 57.5001C60.7716 60.3789 63.1124 62.7126 66 62.7126Z" fill="url(#paint12_linear_6_14675)"/>
</mask>
<g mask="url(#mask12_6_14675)">
<path d="M66 62.7126C68.8875 62.7126 71.2284 60.3789 71.2284 57.5001C71.2284 54.6213 68.8875 52.2876 66 52.2876C63.1124 52.2876 60.7716 54.6213 60.7716 57.5001C60.7716 60.3789 63.1124 62.7126 66 62.7126Z" fill="#546080"/>
</g>
<mask id="mask13_6_14675" style="mask-type:alpha" maskUnits="userSpaceOnUse" x="91" y="52" width="11" height="11">
<path d="M96.2811 62.7126C99.1686 62.7126 101.509 60.3789 101.509 57.5001C101.509 54.6213 99.1686 52.2876 96.2811 52.2876C93.3935 52.2876 91.0527 54.6213 91.0527 57.5001C91.0527 60.3789 93.3935 62.7126 96.2811 62.7126Z" fill="url(#paint13_linear_6_14675)"/>
</mask>
<g mask="url(#mask13_6_14675)">
<path d="M96.2811 62.7126C99.1686 62.7126 101.509 60.3789 101.509 57.5001C101.509 54.6213 99.1686 52.2876 96.2811 52.2876C93.3935 52.2876 91.0527 54.6213 91.0527 57.5001C91.0527 60.3789 93.3935 62.7126 96.2811 62.7126Z" fill="#546080"/>
</g>
<mask id="mask14_6_14675" style="mask-type:alpha" maskUnits="userSpaceOnUse" x="121" y="52" width="11" height="11">
<path d="M126.562 62.7126C129.45 62.7126 131.791 60.3789 131.791 57.5001C131.791 54.6213 129.45 52.2876 126.562 52.2876C123.675 52.2876 121.334 54.6213 121.334 57.5001C121.334 60.3789 123.675 62.7126 126.562 62.7126Z" fill="url(#paint14_linear_6_14675)"/>
</mask>
<g mask="url(#mask14_6_14675)">
<path d="M126.562 62.7126C129.45 62.7126 131.791 60.3789 131.791 57.5001C131.791 54.6213 129.45 52.2876 126.562 52.2876C123.675 52.2876 121.334 54.6213 121.334 57.5001C121.334 60.3789 123.675 62.7126 126.562 62.7126Z" fill="#546080"/>
</g>
<mask id="mask15_6_14675" style="mask-type:alpha" maskUnits="userSpaceOnUse" x="0" y="78" width="11" height="11">
<path d="M5.43785 88.8835C8.32541 88.8835 10.6662 86.5497 10.6662 83.6709C10.6662 80.7922 8.32541 78.4585 5.43785 78.4585C2.55029 78.4585 0.209473 80.7922 0.209473 83.6709C0.209473 86.5497 2.55029 88.8835 5.43785 88.8835Z" fill="url(#paint15_linear_6_14675)"/>
</mask>
<g mask="url(#mask15_6_14675)">
<path d="M5.43785 88.8835C8.32541 88.8835 10.6662 86.5497 10.6662 83.6709C10.6662 80.7922 8.32541 78.4585 5.43785 78.4585C2.55029 78.4585 0.209473 80.7922 0.209473 83.6709C0.209473 86.5497 2.55029 88.8835 5.43785 88.8835Z" fill="#546080"/>
</g>
<mask id="mask16_6_14675" style="mask-type:alpha" maskUnits="userSpaceOnUse" x="30" y="78" width="11" height="11">
<path d="M35.7189 88.8835C38.6065 88.8835 40.9473 86.5497 40.9473 83.6709C40.9473 80.7922 38.6065 78.4585 35.7189 78.4585C32.8314 78.4585 30.4905 80.7922 30.4905 83.6709C30.4905 86.5497 32.8314 88.8835 35.7189 88.8835Z" fill="url(#paint16_linear_6_14675)"/>
</mask>
<g mask="url(#mask16_6_14675)">
<path d="M35.7189 88.8835C38.6065 88.8835 40.9473 86.5497 40.9473 83.6709C40.9473 80.7922 38.6065 78.4585 35.7189 78.4585C32.8314 78.4585 30.4905 80.7922 30.4905 83.6709C30.4905 86.5497 32.8314 88.8835 35.7189 88.8835Z" fill="#546080"/>
</g>
<mask id="mask17_6_14675" style="mask-type:alpha" maskUnits="userSpaceOnUse" x="60" y="78" width="12" height="11">
<path d="M66 88.8835C68.8875 88.8835 71.2284 86.5497 71.2284 83.6709C71.2284 80.7922 68.8875 78.4585 66 78.4585C63.1124 78.4585 60.7716 80.7922 60.7716 83.6709C60.7716 86.5497 63.1124 88.8835 66 88.8835Z" fill="url(#paint17_linear_6_14675)"/>
</mask>
<g mask="url(#mask17_6_14675)">
<path d="M66 88.8835C68.8875 88.8835 71.2284 86.5497 71.2284 83.6709C71.2284 80.7922 68.8875 78.4585 66 78.4585C63.1124 78.4585 60.7716 80.7922 60.7716 83.6709C60.7716 86.5497 63.1124 88.8835 66 88.8835Z" fill="#546080"/>
</g>
<mask id="mask18_6_14675" style="mask-type:alpha" maskUnits="userSpaceOnUse" x="91" y="78" width="11" height="11">
<path d="M96.2811 88.8835C99.1686 88.8835 101.509 86.5497 101.509 83.6709C101.509 80.7922 99.1686 78.4585 96.2811 78.4585C93.3935 78.4585 91.0527 80.7922 91.0527 83.6709C91.0527 86.5497 93.3935 88.8835 96.2811 88.8835Z" fill="url(#paint18_linear_6_14675)"/>
</mask>
<g mask="url(#mask18_6_14675)">
<path d="M96.2811 88.8835C99.1686 88.8835 101.509 86.5497 101.509 83.6709C101.509 80.7922 99.1686 78.4585 96.2811 78.4585C93.3935 78.4585 91.0527 80.7922 91.0527 83.6709C91.0527 86.5497 93.3935 88.8835 96.2811 88.8835Z" fill="#546080"/>
</g>
<mask id="mask19_6_14675" style="mask-type:alpha" maskUnits="userSpaceOnUse" x="121" y="78" width="11" height="11">
<path d="M126.562 88.8835C129.45 88.8835 131.791 86.5497 131.791 83.6709C131.791 80.7922 129.45 78.4585 126.562 78.4585C123.675 78.4585 121.334 80.7922 121.334 83.6709C121.334 86.5497 123.675 88.8835 126.562 88.8835Z" fill="url(#paint19_linear_6_14675)"/>
</mask>
<g mask="url(#mask19_6_14675)">
<path d="M126.562 88.8835C129.45 88.8835 131.791 86.5497 131.791 83.6709C131.791 80.7922 129.45 78.4585 126.562 78.4585C123.675 78.4585 121.334 80.7922 121.334 83.6709C121.334 86.5497 123.675 88.8835 126.562 88.8835Z" fill="#546080"/>
</g>
<mask id="mask20_6_14675" style="mask-type:alpha" maskUnits="userSpaceOnUse" x="0" y="104" width="11" height="11">
<path d="M5.43785 115C8.32541 115 10.6662 112.666 10.6662 109.787C10.6662 106.909 8.32541 104.575 5.43785 104.575C2.55029 104.575 0.209473 106.909 0.209473 109.787C0.209473 112.666 2.55029 115 5.43785 115Z" fill="url(#paint20_linear_6_14675)"/>
</mask>
<g mask="url(#mask20_6_14675)">
<path d="M5.43785 115C8.32541 115 10.6662 112.666 10.6662 109.787C10.6662 106.909 8.32541 104.575 5.43785 104.575C2.55029 104.575 0.209473 106.909 0.209473 109.787C0.209473 112.666 2.55029 115 5.43785 115Z" fill="#546080"/>
</g>
<mask id="mask21_6_14675" style="mask-type:alpha" maskUnits="userSpaceOnUse" x="30" y="104" width="11" height="11">
<path d="M35.7189 115C38.6065 115 40.9473 112.666 40.9473 109.787C40.9473 106.909 38.6065 104.575 35.7189 104.575C32.8314 104.575 30.4905 106.909 30.4905 109.787C30.4905 112.666 32.8314 115 35.7189 115Z" fill="url(#paint21_linear_6_14675)"/>
</mask>
<g mask="url(#mask21_6_14675)">
<path d="M35.7189 115C38.6065 115 40.9473 112.666 40.9473 109.787C40.9473 106.909 38.6065 104.575 35.7189 104.575C32.8314 104.575 30.4905 106.909 30.4905 109.787C30.4905 112.666 32.8314 115 35.7189 115Z" fill="#546080"/>
</g>
<mask id="mask22_6_14675" style="mask-type:alpha" maskUnits="userSpaceOnUse" x="60" y="104" width="12" height="11">
<path d="M66 115C68.8875 115 71.2284 112.666 71.2284 109.787C71.2284 106.909 68.8875 104.575 66 104.575C63.1124 104.575 60.7716 106.909 60.7716 109.787C60.7716 112.666 63.1124 115 66 115Z" fill="url(#paint22_linear_6_14675)"/>
</mask>
<g mask="url(#mask22_6_14675)">
<path d="M66 115C68.8875 115 71.2284 112.666 71.2284 109.787C71.2284 106.909 68.8875 104.575 66 104.575C63.1124 104.575 60.7716 106.909 60.7716 109.787C60.7716 112.666 63.1124 115 66 115Z" fill="#546080"/>
</g>
<mask id="mask23_6_14675" style="mask-type:alpha" maskUnits="userSpaceOnUse" x="91" y="104" width="11" height="11">
<path d="M96.2811 115C99.1686 115 101.509 112.666 101.509 109.787C101.509 106.909 99.1686 104.575 96.2811 104.575C93.3935 104.575 91.0527 106.909 91.0527 109.787C91.0527 112.666 93.3935 115 96.2811 115Z" fill="url(#paint23_linear_6_14675)"/>
</mask>
<g mask="url(#mask23_6_14675)">
<path d="M96.2811 115C99.1686 115 101.509 112.666 101.509 109.787C101.509 106.909 99.1686 104.575 96.2811 104.575C93.3935 104.575 91.0527 106.909 91.0527 109.787C91.0527 112.666 93.3935 115 96.2811 115Z" fill="#546080"/>
</g>
<mask id="mask24_6_14675" style="mask-type:alpha" maskUnits="userSpaceOnUse" x="121" y="104" width="11" height="11">
<path d="M126.562 115C129.45 115 131.791 112.666 131.791 109.787C131.791 106.909 129.45 104.575 126.562 104.575C123.675 104.575 121.334 106.909 121.334 109.787C121.334 112.666 123.675 115 126.562 115Z" fill="url(#paint24_linear_6_14675)"/>
</mask>
<g mask="url(#mask24_6_14675)">
<path d="M126.562 115C129.45 115 131.791 112.666 131.791 109.787C131.791 106.909 129.45 104.575 126.562 104.575C123.675 104.575 121.334 106.909 121.334 109.787C121.334 112.666 123.675 115 126.562 115Z" fill="#546080"/>
</g>
</g>
<defs>
<linearGradient id="paint0_linear_6_14675" x1="55.2055" y1="131.134" x2="-16.1962" y2="-50.67" gradientUnits="userSpaceOnUse">
<stop stop-color="white"/>
<stop offset="1" stop-color="white"/>
</linearGradient>
<linearGradient id="paint1_linear_6_14675" x1="85.4866" y1="131.134" x2="14.085" y2="-50.67" gradientUnits="userSpaceOnUse">
<stop stop-color="white"/>
<stop offset="1" stop-color="white"/>
</linearGradient>
<linearGradient id="paint2_linear_6_14675" x1="115.768" y1="131.134" x2="44.366" y2="-50.67" gradientUnits="userSpaceOnUse">
<stop stop-color="white"/>
<stop offset="1" stop-color="white"/>
</linearGradient>
<linearGradient id="paint3_linear_6_14675" x1="146.049" y1="131.134" x2="74.6471" y2="-50.67" gradientUnits="userSpaceOnUse">
<stop stop-color="white"/>
<stop offset="1" stop-color="white"/>
</linearGradient>
<linearGradient id="paint4_linear_6_14675" x1="176.33" y1="131.134" x2="104.928" y2="-50.67" gradientUnits="userSpaceOnUse">
<stop stop-color="white"/>
<stop offset="1" stop-color="white"/>
</linearGradient>
<linearGradient id="paint5_linear_6_14675" x1="55.2055" y1="157.303" x2="-16.195" y2="-24.4991" gradientUnits="userSpaceOnUse">
<stop stop-color="white"/>
<stop offset="1" stop-color="white"/>
</linearGradient>
<linearGradient id="paint6_linear_6_14675" x1="85.4866" y1="157.303" x2="14.0862" y2="-24.4991" gradientUnits="userSpaceOnUse">
<stop stop-color="white"/>
<stop offset="1" stop-color="white"/>
</linearGradient>
<linearGradient id="paint7_linear_6_14675" x1="115.768" y1="157.303" x2="44.3672" y2="-24.4991" gradientUnits="userSpaceOnUse">
<stop stop-color="white"/>
<stop offset="1" stop-color="white"/>
</linearGradient>
<linearGradient id="paint8_linear_6_14675" x1="146.049" y1="157.303" x2="74.6483" y2="-24.4991" gradientUnits="userSpaceOnUse">
<stop stop-color="white"/>
<stop offset="1" stop-color="white"/>
</linearGradient>
<linearGradient id="paint9_linear_6_14675" x1="176.33" y1="157.303" x2="104.929" y2="-24.4991" gradientUnits="userSpaceOnUse">
<stop stop-color="white"/>
<stop offset="1" stop-color="white"/>
</linearGradient>
<linearGradient id="paint10_linear_6_14675" x1="55.2055" y1="183.421" x2="-16.1962" y2="1.61761" gradientUnits="userSpaceOnUse">
<stop stop-color="white"/>
<stop offset="1" stop-color="white"/>
</linearGradient>
<linearGradient id="paint11_linear_6_14675" x1="85.4866" y1="183.421" x2="14.085" y2="1.61756" gradientUnits="userSpaceOnUse">
<stop stop-color="white"/>
<stop offset="1" stop-color="white"/>
</linearGradient>
<linearGradient id="paint12_linear_6_14675" x1="115.768" y1="183.421" x2="44.366" y2="1.61756" gradientUnits="userSpaceOnUse">
<stop stop-color="white"/>
<stop offset="1" stop-color="white"/>
</linearGradient>
<linearGradient id="paint13_linear_6_14675" x1="146.049" y1="183.421" x2="74.6471" y2="1.61756" gradientUnits="userSpaceOnUse">
<stop stop-color="white"/>
<stop offset="1" stop-color="white"/>
</linearGradient>
<linearGradient id="paint14_linear_6_14675" x1="176.33" y1="183.421" x2="104.928" y2="1.61756" gradientUnits="userSpaceOnUse">
<stop stop-color="white"/>
<stop offset="1" stop-color="white"/>
</linearGradient>
<linearGradient id="paint15_linear_6_14675" x1="55.2055" y1="209.592" x2="-16.1962" y2="27.7885" gradientUnits="userSpaceOnUse">
<stop stop-color="white"/>
<stop offset="1" stop-color="white"/>
</linearGradient>
<linearGradient id="paint16_linear_6_14675" x1="85.4866" y1="209.592" x2="14.085" y2="27.7885" gradientUnits="userSpaceOnUse">
<stop stop-color="white"/>
<stop offset="1" stop-color="white"/>
</linearGradient>
<linearGradient id="paint17_linear_6_14675" x1="115.768" y1="209.592" x2="44.366" y2="27.7885" gradientUnits="userSpaceOnUse">
<stop stop-color="white"/>
<stop offset="1" stop-color="white"/>
</linearGradient>
<linearGradient id="paint18_linear_6_14675" x1="146.049" y1="209.592" x2="74.6471" y2="27.7885" gradientUnits="userSpaceOnUse">
<stop stop-color="white"/>
<stop offset="1" stop-color="white"/>
</linearGradient>
<linearGradient id="paint19_linear_6_14675" x1="176.33" y1="209.592" x2="104.928" y2="27.7885" gradientUnits="userSpaceOnUse">
<stop stop-color="white"/>
<stop offset="1" stop-color="white"/>
</linearGradient>
<linearGradient id="paint20_linear_6_14675" x1="55.2055" y1="235.709" x2="-16.1962" y2="53.905" gradientUnits="userSpaceOnUse">
<stop stop-color="white"/>
<stop offset="1" stop-color="white"/>
</linearGradient>
<linearGradient id="paint21_linear_6_14675" x1="85.4866" y1="235.709" x2="14.085" y2="53.9049" gradientUnits="userSpaceOnUse">
<stop stop-color="white"/>
<stop offset="1" stop-color="white"/>
</linearGradient>
<linearGradient id="paint22_linear_6_14675" x1="115.768" y1="235.709" x2="44.366" y2="53.9049" gradientUnits="userSpaceOnUse">
<stop stop-color="white"/>
<stop offset="1" stop-color="white"/>
</linearGradient>
<linearGradient id="paint23_linear_6_14675" x1="146.049" y1="235.709" x2="74.6471" y2="53.9049" gradientUnits="userSpaceOnUse">
<stop stop-color="white"/>
<stop offset="1" stop-color="white"/>
</linearGradient>
<linearGradient id="paint24_linear_6_14675" x1="176.33" y1="235.709" x2="104.928" y2="53.9049" gradientUnits="userSpaceOnUse">
<stop stop-color="white"/>
<stop offset="1" stop-color="white"/>
</linearGradient>
</defs>
</svg>
