<svg width="132" height="115" viewBox="0 0 132 115" fill="none" xmlns="http://www.w3.org/2000/svg">
<g opacity="0.3">
<mask id="mask0_6_14548" style="mask-type:alpha" maskUnits="userSpaceOnUse" x="0" y="0" width="11" height="11">
<path d="M5.43785 10.425C8.32541 10.425 10.6662 8.09121 10.6662 5.21245C10.6662 2.33368 8.32541 0 5.43785 0C2.55029 0 0.209473 2.33368 0.209473 5.21245C0.209473 8.09121 2.55029 10.425 5.43785 10.425Z" fill="url(#paint0_linear_6_14548)"/>
</mask>
<g mask="url(#mask0_6_14548)">
<path d="M5.43785 10.425C8.32541 10.425 10.6662 8.09121 10.6662 5.21245C10.6662 2.33368 8.32541 0 5.43785 0C2.55029 0 0.209473 2.33368 0.209473 5.21245C0.209473 8.09121 2.55029 10.425 5.43785 10.425Z" fill="url(#paint1_linear_6_14548)"/>
</g>
<mask id="mask1_6_14548" style="mask-type:alpha" maskUnits="userSpaceOnUse" x="30" y="0" width="11" height="11">
<path d="M35.7189 10.425C38.6064 10.425 40.9473 8.09121 40.9473 5.21245C40.9473 2.33368 38.6064 0 35.7189 0C32.8313 0 30.4905 2.33368 30.4905 5.21245C30.4905 8.09121 32.8313 10.425 35.7189 10.425Z" fill="url(#paint2_linear_6_14548)"/>
</mask>
<g mask="url(#mask1_6_14548)">
<path d="M35.7189 10.425C38.6064 10.425 40.9473 8.09121 40.9473 5.21245C40.9473 2.33368 38.6064 0 35.7189 0C32.8313 0 30.4905 2.33368 30.4905 5.21245C30.4905 8.09121 32.8313 10.425 35.7189 10.425Z" fill="url(#paint3_linear_6_14548)"/>
</g>
<mask id="mask2_6_14548" style="mask-type:alpha" maskUnits="userSpaceOnUse" x="60" y="0" width="12" height="11">
<path d="M66 10.425C68.8876 10.425 71.2284 8.09121 71.2284 5.21245C71.2284 2.33368 68.8876 0 66 0C63.1124 0 60.7716 2.33368 60.7716 5.21245C60.7716 8.09121 63.1124 10.425 66 10.425Z" fill="url(#paint4_linear_6_14548)"/>
</mask>
<g mask="url(#mask2_6_14548)">
<path d="M66 10.425C68.8876 10.425 71.2284 8.09121 71.2284 5.21245C71.2284 2.33368 68.8876 0 66 0C63.1124 0 60.7716 2.33368 60.7716 5.21245C60.7716 8.09121 63.1124 10.425 66 10.425Z" fill="url(#paint5_linear_6_14548)"/>
</g>
<mask id="mask3_6_14548" style="mask-type:alpha" maskUnits="userSpaceOnUse" x="91" y="0" width="11" height="11">
<path d="M96.2811 10.425C99.1687 10.425 101.51 8.09121 101.51 5.21245C101.51 2.33368 99.1687 0 96.2811 0C93.3936 0 91.0527 2.33368 91.0527 5.21245C91.0527 8.09121 93.3936 10.425 96.2811 10.425Z" fill="url(#paint6_linear_6_14548)"/>
</mask>
<g mask="url(#mask3_6_14548)">
<path d="M96.2811 10.425C99.1687 10.425 101.51 8.09121 101.51 5.21245C101.51 2.33368 99.1687 0 96.2811 0C93.3936 0 91.0527 2.33368 91.0527 5.21245C91.0527 8.09121 93.3936 10.425 96.2811 10.425Z" fill="url(#paint7_linear_6_14548)"/>
</g>
<mask id="mask4_6_14548" style="mask-type:alpha" maskUnits="userSpaceOnUse" x="121" y="0" width="11" height="11">
<path d="M126.562 10.425C129.45 10.425 131.791 8.09121 131.791 5.21245C131.791 2.33368 129.45 0 126.562 0C123.675 0 121.334 2.33368 121.334 5.21245C121.334 8.09121 123.675 10.425 126.562 10.425Z" fill="url(#paint8_linear_6_14548)"/>
</mask>
<g mask="url(#mask4_6_14548)">
<path d="M126.562 10.425C129.45 10.425 131.791 8.09121 131.791 5.21245C131.791 2.33368 129.45 0 126.562 0C123.675 0 121.334 2.33368 121.334 5.21245C121.334 8.09121 123.675 10.425 126.562 10.425Z" fill="url(#paint9_linear_6_14548)"/>
</g>
<mask id="mask5_6_14548" style="mask-type:alpha" maskUnits="userSpaceOnUse" x="0" y="26" width="11" height="11">
<path d="M5.43785 36.5958C8.32541 36.5958 10.6662 34.2621 10.6662 31.3833C10.6662 28.5046 8.32541 26.1709 5.43785 26.1709C2.55029 26.1709 0.209473 28.5046 0.209473 31.3833C0.209473 34.2621 2.55029 36.5958 5.43785 36.5958Z" fill="url(#paint10_linear_6_14548)"/>
</mask>
<g mask="url(#mask5_6_14548)">
<path d="M5.43785 36.5958C8.32541 36.5958 10.6662 34.2621 10.6662 31.3833C10.6662 28.5046 8.32541 26.1709 5.43785 26.1709C2.55029 26.1709 0.209473 28.5046 0.209473 31.3833C0.209473 34.2621 2.55029 36.5958 5.43785 36.5958Z" fill="url(#paint11_linear_6_14548)"/>
</g>
<mask id="mask6_6_14548" style="mask-type:alpha" maskUnits="userSpaceOnUse" x="30" y="26" width="11" height="11">
<path d="M35.7189 36.5958C38.6064 36.5958 40.9473 34.2621 40.9473 31.3833C40.9473 28.5046 38.6064 26.1709 35.7189 26.1709C32.8313 26.1709 30.4905 28.5046 30.4905 31.3833C30.4905 34.2621 32.8313 36.5958 35.7189 36.5958Z" fill="url(#paint12_linear_6_14548)"/>
</mask>
<g mask="url(#mask6_6_14548)">
<path d="M35.7189 36.5958C38.6064 36.5958 40.9473 34.2621 40.9473 31.3833C40.9473 28.5046 38.6064 26.1709 35.7189 26.1709C32.8313 26.1709 30.4905 28.5046 30.4905 31.3833C30.4905 34.2621 32.8313 36.5958 35.7189 36.5958Z" fill="url(#paint13_linear_6_14548)"/>
</g>
<mask id="mask7_6_14548" style="mask-type:alpha" maskUnits="userSpaceOnUse" x="60" y="26" width="12" height="11">
<path d="M66 36.5958C68.8876 36.5958 71.2284 34.2621 71.2284 31.3833C71.2284 28.5046 68.8876 26.1709 66 26.1709C63.1124 26.1709 60.7716 28.5046 60.7716 31.3833C60.7716 34.2621 63.1124 36.5958 66 36.5958Z" fill="url(#paint14_linear_6_14548)"/>
</mask>
<g mask="url(#mask7_6_14548)">
<path d="M66 36.5958C68.8876 36.5958 71.2284 34.2621 71.2284 31.3833C71.2284 28.5046 68.8876 26.1709 66 26.1709C63.1124 26.1709 60.7716 28.5046 60.7716 31.3833C60.7716 34.2621 63.1124 36.5958 66 36.5958Z" fill="url(#paint15_linear_6_14548)"/>
</g>
<mask id="mask8_6_14548" style="mask-type:alpha" maskUnits="userSpaceOnUse" x="91" y="26" width="11" height="11">
<path d="M96.2811 36.5958C99.1687 36.5958 101.51 34.2621 101.51 31.3833C101.51 28.5046 99.1687 26.1709 96.2811 26.1709C93.3936 26.1709 91.0527 28.5046 91.0527 31.3833C91.0527 34.2621 93.3936 36.5958 96.2811 36.5958Z" fill="url(#paint16_linear_6_14548)"/>
</mask>
<g mask="url(#mask8_6_14548)">
<path d="M96.2811 36.5958C99.1687 36.5958 101.51 34.2621 101.51 31.3833C101.51 28.5046 99.1687 26.1709 96.2811 26.1709C93.3936 26.1709 91.0527 28.5046 91.0527 31.3833C91.0527 34.2621 93.3936 36.5958 96.2811 36.5958Z" fill="url(#paint17_linear_6_14548)"/>
</g>
<mask id="mask9_6_14548" style="mask-type:alpha" maskUnits="userSpaceOnUse" x="121" y="26" width="11" height="11">
<path d="M126.562 36.5958C129.45 36.5958 131.791 34.2621 131.791 31.3833C131.791 28.5046 129.45 26.1709 126.562 26.1709C123.675 26.1709 121.334 28.5046 121.334 31.3833C121.334 34.2621 123.675 36.5958 126.562 36.5958Z" fill="url(#paint18_linear_6_14548)"/>
</mask>
<g mask="url(#mask9_6_14548)">
<path d="M126.562 36.5958C129.45 36.5958 131.791 34.2621 131.791 31.3833C131.791 28.5046 129.45 26.1709 126.562 26.1709C123.675 26.1709 121.334 28.5046 121.334 31.3833C121.334 34.2621 123.675 36.5958 126.562 36.5958Z" fill="url(#paint19_linear_6_14548)"/>
</g>
<mask id="mask10_6_14548" style="mask-type:alpha" maskUnits="userSpaceOnUse" x="0" y="52" width="11" height="11">
<path d="M5.43785 62.7126C8.32541 62.7126 10.6662 60.3789 10.6662 57.5001C10.6662 54.6213 8.32541 52.2876 5.43785 52.2876C2.55029 52.2876 0.209473 54.6213 0.209473 57.5001C0.209473 60.3789 2.55029 62.7126 5.43785 62.7126Z" fill="url(#paint20_linear_6_14548)"/>
</mask>
<g mask="url(#mask10_6_14548)">
<path d="M5.43785 62.7126C8.32541 62.7126 10.6662 60.3789 10.6662 57.5001C10.6662 54.6213 8.32541 52.2876 5.43785 52.2876C2.55029 52.2876 0.209473 54.6213 0.209473 57.5001C0.209473 60.3789 2.55029 62.7126 5.43785 62.7126Z" fill="url(#paint21_linear_6_14548)"/>
</g>
<mask id="mask11_6_14548" style="mask-type:alpha" maskUnits="userSpaceOnUse" x="30" y="52" width="11" height="11">
<path d="M35.7189 62.7126C38.6064 62.7126 40.9473 60.3789 40.9473 57.5001C40.9473 54.6213 38.6064 52.2876 35.7189 52.2876C32.8313 52.2876 30.4905 54.6213 30.4905 57.5001C30.4905 60.3789 32.8313 62.7126 35.7189 62.7126Z" fill="url(#paint22_linear_6_14548)"/>
</mask>
<g mask="url(#mask11_6_14548)">
<path d="M35.7189 62.7126C38.6064 62.7126 40.9473 60.3789 40.9473 57.5001C40.9473 54.6213 38.6064 52.2876 35.7189 52.2876C32.8313 52.2876 30.4905 54.6213 30.4905 57.5001C30.4905 60.3789 32.8313 62.7126 35.7189 62.7126Z" fill="url(#paint23_linear_6_14548)"/>
</g>
<mask id="mask12_6_14548" style="mask-type:alpha" maskUnits="userSpaceOnUse" x="60" y="52" width="12" height="11">
<path d="M66 62.7126C68.8876 62.7126 71.2284 60.3789 71.2284 57.5001C71.2284 54.6213 68.8876 52.2876 66 52.2876C63.1124 52.2876 60.7716 54.6213 60.7716 57.5001C60.7716 60.3789 63.1124 62.7126 66 62.7126Z" fill="url(#paint24_linear_6_14548)"/>
</mask>
<g mask="url(#mask12_6_14548)">
<path d="M66 62.7126C68.8876 62.7126 71.2284 60.3789 71.2284 57.5001C71.2284 54.6213 68.8876 52.2876 66 52.2876C63.1124 52.2876 60.7716 54.6213 60.7716 57.5001C60.7716 60.3789 63.1124 62.7126 66 62.7126Z" fill="url(#paint25_linear_6_14548)"/>
</g>
<mask id="mask13_6_14548" style="mask-type:alpha" maskUnits="userSpaceOnUse" x="91" y="52" width="11" height="11">
<path d="M96.2811 62.7126C99.1687 62.7126 101.51 60.3789 101.51 57.5001C101.51 54.6213 99.1687 52.2876 96.2811 52.2876C93.3936 52.2876 91.0527 54.6213 91.0527 57.5001C91.0527 60.3789 93.3936 62.7126 96.2811 62.7126Z" fill="url(#paint26_linear_6_14548)"/>
</mask>
<g mask="url(#mask13_6_14548)">
<path d="M96.2811 62.7126C99.1687 62.7126 101.51 60.3789 101.51 57.5001C101.51 54.6213 99.1687 52.2876 96.2811 52.2876C93.3936 52.2876 91.0527 54.6213 91.0527 57.5001C91.0527 60.3789 93.3936 62.7126 96.2811 62.7126Z" fill="url(#paint27_linear_6_14548)"/>
</g>
<mask id="mask14_6_14548" style="mask-type:alpha" maskUnits="userSpaceOnUse" x="121" y="52" width="11" height="11">
<path d="M126.562 62.7126C129.45 62.7126 131.791 60.3789 131.791 57.5001C131.791 54.6213 129.45 52.2876 126.562 52.2876C123.675 52.2876 121.334 54.6213 121.334 57.5001C121.334 60.3789 123.675 62.7126 126.562 62.7126Z" fill="url(#paint28_linear_6_14548)"/>
</mask>
<g mask="url(#mask14_6_14548)">
<path d="M126.562 62.7126C129.45 62.7126 131.791 60.3789 131.791 57.5001C131.791 54.6213 129.45 52.2876 126.562 52.2876C123.675 52.2876 121.334 54.6213 121.334 57.5001C121.334 60.3789 123.675 62.7126 126.562 62.7126Z" fill="url(#paint29_linear_6_14548)"/>
</g>
<mask id="mask15_6_14548" style="mask-type:alpha" maskUnits="userSpaceOnUse" x="0" y="78" width="11" height="11">
<path d="M5.43785 88.8835C8.32541 88.8835 10.6662 86.5497 10.6662 83.6709C10.6662 80.7922 8.32541 78.4585 5.43785 78.4585C2.55029 78.4585 0.209473 80.7922 0.209473 83.6709C0.209473 86.5497 2.55029 88.8835 5.43785 88.8835Z" fill="url(#paint30_linear_6_14548)"/>
</mask>
<g mask="url(#mask15_6_14548)">
<path d="M5.43785 88.8835C8.32541 88.8835 10.6662 86.5497 10.6662 83.6709C10.6662 80.7922 8.32541 78.4585 5.43785 78.4585C2.55029 78.4585 0.209473 80.7922 0.209473 83.6709C0.209473 86.5497 2.55029 88.8835 5.43785 88.8835Z" fill="url(#paint31_linear_6_14548)"/>
</g>
<mask id="mask16_6_14548" style="mask-type:alpha" maskUnits="userSpaceOnUse" x="30" y="78" width="11" height="11">
<path d="M35.7189 88.8835C38.6064 88.8835 40.9473 86.5497 40.9473 83.6709C40.9473 80.7922 38.6064 78.4585 35.7189 78.4585C32.8313 78.4585 30.4905 80.7922 30.4905 83.6709C30.4905 86.5497 32.8313 88.8835 35.7189 88.8835Z" fill="url(#paint32_linear_6_14548)"/>
</mask>
<g mask="url(#mask16_6_14548)">
<path d="M35.7189 88.8835C38.6064 88.8835 40.9473 86.5497 40.9473 83.6709C40.9473 80.7922 38.6064 78.4585 35.7189 78.4585C32.8313 78.4585 30.4905 80.7922 30.4905 83.6709C30.4905 86.5497 32.8313 88.8835 35.7189 88.8835Z" fill="url(#paint33_linear_6_14548)"/>
</g>
<mask id="mask17_6_14548" style="mask-type:alpha" maskUnits="userSpaceOnUse" x="60" y="78" width="12" height="11">
<path d="M66 88.8835C68.8876 88.8835 71.2284 86.5497 71.2284 83.6709C71.2284 80.7922 68.8876 78.4585 66 78.4585C63.1124 78.4585 60.7716 80.7922 60.7716 83.6709C60.7716 86.5497 63.1124 88.8835 66 88.8835Z" fill="url(#paint34_linear_6_14548)"/>
</mask>
<g mask="url(#mask17_6_14548)">
<path d="M66 88.8835C68.8876 88.8835 71.2284 86.5497 71.2284 83.6709C71.2284 80.7922 68.8876 78.4585 66 78.4585C63.1124 78.4585 60.7716 80.7922 60.7716 83.6709C60.7716 86.5497 63.1124 88.8835 66 88.8835Z" fill="url(#paint35_linear_6_14548)"/>
</g>
<mask id="mask18_6_14548" style="mask-type:alpha" maskUnits="userSpaceOnUse" x="91" y="78" width="11" height="11">
<path d="M96.2811 88.8835C99.1687 88.8835 101.51 86.5497 101.51 83.6709C101.51 80.7922 99.1687 78.4585 96.2811 78.4585C93.3936 78.4585 91.0527 80.7922 91.0527 83.6709C91.0527 86.5497 93.3936 88.8835 96.2811 88.8835Z" fill="url(#paint36_linear_6_14548)"/>
</mask>
<g mask="url(#mask18_6_14548)">
<path d="M96.2811 88.8835C99.1687 88.8835 101.51 86.5497 101.51 83.6709C101.51 80.7922 99.1687 78.4585 96.2811 78.4585C93.3936 78.4585 91.0527 80.7922 91.0527 83.6709C91.0527 86.5497 93.3936 88.8835 96.2811 88.8835Z" fill="url(#paint37_linear_6_14548)"/>
</g>
<mask id="mask19_6_14548" style="mask-type:alpha" maskUnits="userSpaceOnUse" x="121" y="78" width="11" height="11">
<path d="M126.562 88.8835C129.45 88.8835 131.791 86.5497 131.791 83.6709C131.791 80.7922 129.45 78.4585 126.562 78.4585C123.675 78.4585 121.334 80.7922 121.334 83.6709C121.334 86.5497 123.675 88.8835 126.562 88.8835Z" fill="url(#paint38_linear_6_14548)"/>
</mask>
<g mask="url(#mask19_6_14548)">
<path d="M126.562 88.8835C129.45 88.8835 131.791 86.5497 131.791 83.6709C131.791 80.7922 129.45 78.4585 126.562 78.4585C123.675 78.4585 121.334 80.7922 121.334 83.6709C121.334 86.5497 123.675 88.8835 126.562 88.8835Z" fill="url(#paint39_linear_6_14548)"/>
</g>
<mask id="mask20_6_14548" style="mask-type:alpha" maskUnits="userSpaceOnUse" x="0" y="104" width="11" height="11">
<path d="M5.43785 115C8.32541 115 10.6662 112.666 10.6662 109.787C10.6662 106.909 8.32541 104.575 5.43785 104.575C2.55029 104.575 0.209473 106.909 0.209473 109.787C0.209473 112.666 2.55029 115 5.43785 115Z" fill="url(#paint40_linear_6_14548)"/>
</mask>
<g mask="url(#mask20_6_14548)">
<path d="M5.43785 115C8.32541 115 10.6662 112.666 10.6662 109.787C10.6662 106.909 8.32541 104.575 5.43785 104.575C2.55029 104.575 0.209473 106.909 0.209473 109.787C0.209473 112.666 2.55029 115 5.43785 115Z" fill="url(#paint41_linear_6_14548)"/>
</g>
<mask id="mask21_6_14548" style="mask-type:alpha" maskUnits="userSpaceOnUse" x="30" y="104" width="11" height="11">
<path d="M35.7189 115C38.6064 115 40.9473 112.666 40.9473 109.787C40.9473 106.909 38.6064 104.575 35.7189 104.575C32.8313 104.575 30.4905 106.909 30.4905 109.787C30.4905 112.666 32.8313 115 35.7189 115Z" fill="url(#paint42_linear_6_14548)"/>
</mask>
<g mask="url(#mask21_6_14548)">
<path d="M35.7189 115C38.6064 115 40.9473 112.666 40.9473 109.787C40.9473 106.909 38.6064 104.575 35.7189 104.575C32.8313 104.575 30.4905 106.909 30.4905 109.787C30.4905 112.666 32.8313 115 35.7189 115Z" fill="url(#paint43_linear_6_14548)"/>
</g>
<mask id="mask22_6_14548" style="mask-type:alpha" maskUnits="userSpaceOnUse" x="60" y="104" width="12" height="11">
<path d="M66 115C68.8876 115 71.2284 112.666 71.2284 109.787C71.2284 106.909 68.8876 104.575 66 104.575C63.1124 104.575 60.7716 106.909 60.7716 109.787C60.7716 112.666 63.1124 115 66 115Z" fill="url(#paint44_linear_6_14548)"/>
</mask>
<g mask="url(#mask22_6_14548)">
<path d="M66 115C68.8876 115 71.2284 112.666 71.2284 109.787C71.2284 106.909 68.8876 104.575 66 104.575C63.1124 104.575 60.7716 106.909 60.7716 109.787C60.7716 112.666 63.1124 115 66 115Z" fill="url(#paint45_linear_6_14548)"/>
</g>
<mask id="mask23_6_14548" style="mask-type:alpha" maskUnits="userSpaceOnUse" x="91" y="104" width="11" height="11">
<path d="M96.2811 115C99.1687 115 101.51 112.666 101.51 109.787C101.51 106.909 99.1687 104.575 96.2811 104.575C93.3936 104.575 91.0527 106.909 91.0527 109.787C91.0527 112.666 93.3936 115 96.2811 115Z" fill="url(#paint46_linear_6_14548)"/>
</mask>
<g mask="url(#mask23_6_14548)">
<path d="M96.2811 115C99.1687 115 101.51 112.666 101.51 109.787C101.51 106.909 99.1687 104.575 96.2811 104.575C93.3936 104.575 91.0527 106.909 91.0527 109.787C91.0527 112.666 93.3936 115 96.2811 115Z" fill="url(#paint47_linear_6_14548)"/>
</g>
<mask id="mask24_6_14548" style="mask-type:alpha" maskUnits="userSpaceOnUse" x="121" y="104" width="11" height="11">
<path d="M126.562 115C129.45 115 131.791 112.666 131.791 109.787C131.791 106.909 129.45 104.575 126.562 104.575C123.675 104.575 121.334 106.909 121.334 109.787C121.334 112.666 123.675 115 126.562 115Z" fill="url(#paint48_linear_6_14548)"/>
</mask>
<g mask="url(#mask24_6_14548)">
<path d="M126.562 115C129.45 115 131.791 112.666 131.791 109.787C131.791 106.909 129.45 104.575 126.562 104.575C123.675 104.575 121.334 106.909 121.334 109.787C121.334 112.666 123.675 115 126.562 115Z" fill="url(#paint49_linear_6_14548)"/>
</g>
</g>
<defs>
<linearGradient id="paint0_linear_6_14548" x1="55.2055" y1="131.134" x2="-16.1962" y2="-50.67" gradientUnits="userSpaceOnUse">
<stop/>
<stop offset="1" stop-color="white"/>
</linearGradient>
<linearGradient id="paint1_linear_6_14548" x1="55.2055" y1="131.134" x2="-16.1962" y2="-50.67" gradientUnits="userSpaceOnUse">
<stop stop-color="#97C3F9"/>
<stop offset="1" stop-color="#93C1F9"/>
</linearGradient>
<linearGradient id="paint2_linear_6_14548" x1="81.4099" y1="120.843" x2="10.0083" y2="-60.9613" gradientUnits="userSpaceOnUse">
<stop/>
<stop offset="1" stop-color="white"/>
</linearGradient>
<linearGradient id="paint3_linear_6_14548" x1="81.4099" y1="120.843" x2="10.0083" y2="-60.9613" gradientUnits="userSpaceOnUse">
<stop stop-color="#97C3F9"/>
<stop offset="1" stop-color="#93C1F9"/>
</linearGradient>
<linearGradient id="paint4_linear_6_14548" x1="107.614" y1="110.551" x2="36.2128" y2="-71.2526" gradientUnits="userSpaceOnUse">
<stop/>
<stop offset="1" stop-color="white"/>
</linearGradient>
<linearGradient id="paint5_linear_6_14548" x1="107.614" y1="110.551" x2="36.2128" y2="-71.2526" gradientUnits="userSpaceOnUse">
<stop stop-color="#97C3F9"/>
<stop offset="1" stop-color="#93C1F9"/>
</linearGradient>
<linearGradient id="paint6_linear_6_14548" x1="133.819" y1="100.259" x2="62.4171" y2="-81.5444" gradientUnits="userSpaceOnUse">
<stop/>
<stop offset="1" stop-color="white"/>
</linearGradient>
<linearGradient id="paint7_linear_6_14548" x1="133.819" y1="100.259" x2="62.4171" y2="-81.5444" gradientUnits="userSpaceOnUse">
<stop stop-color="#97C3F9"/>
<stop offset="1" stop-color="#93C1F9"/>
</linearGradient>
<linearGradient id="paint8_linear_6_14548" x1="160.023" y1="89.9679" x2="88.6213" y2="-91.8359" gradientUnits="userSpaceOnUse">
<stop/>
<stop offset="1" stop-color="white"/>
</linearGradient>
<linearGradient id="paint9_linear_6_14548" x1="160.023" y1="89.9679" x2="88.6213" y2="-91.8359" gradientUnits="userSpaceOnUse">
<stop stop-color="#97C3F9"/>
<stop offset="1" stop-color="#93C1F9"/>
</linearGradient>
<linearGradient id="paint10_linear_6_14548" x1="46.2633" y1="134.645" x2="-25.1372" y2="-47.1572" gradientUnits="userSpaceOnUse">
<stop/>
<stop offset="1" stop-color="white"/>
</linearGradient>
<linearGradient id="paint11_linear_6_14548" x1="46.2633" y1="134.645" x2="-25.1372" y2="-47.1572" gradientUnits="userSpaceOnUse">
<stop stop-color="#97C3F9"/>
<stop offset="1" stop-color="#93C1F9"/>
</linearGradient>
<linearGradient id="paint12_linear_6_14548" x1="72.4675" y1="124.354" x2="1.06713" y2="-57.4491" gradientUnits="userSpaceOnUse">
<stop/>
<stop offset="1" stop-color="white"/>
</linearGradient>
<linearGradient id="paint13_linear_6_14548" x1="72.4675" y1="124.354" x2="1.06713" y2="-57.4491" gradientUnits="userSpaceOnUse">
<stop stop-color="#97C3F9"/>
<stop offset="1" stop-color="#93C1F9"/>
</linearGradient>
<linearGradient id="paint14_linear_6_14548" x1="98.6719" y1="114.062" x2="27.2715" y2="-67.7404" gradientUnits="userSpaceOnUse">
<stop/>
<stop offset="1" stop-color="white"/>
</linearGradient>
<linearGradient id="paint15_linear_6_14548" x1="98.6719" y1="114.062" x2="27.2715" y2="-67.7404" gradientUnits="userSpaceOnUse">
<stop stop-color="#97C3F9"/>
<stop offset="1" stop-color="#93C1F9"/>
</linearGradient>
<linearGradient id="paint16_linear_6_14548" x1="124.876" y1="103.771" x2="53.4759" y2="-78.0318" gradientUnits="userSpaceOnUse">
<stop/>
<stop offset="1" stop-color="white"/>
</linearGradient>
<linearGradient id="paint17_linear_6_14548" x1="124.876" y1="103.771" x2="53.4759" y2="-78.0318" gradientUnits="userSpaceOnUse">
<stop stop-color="#97C3F9"/>
<stop offset="1" stop-color="#93C1F9"/>
</linearGradient>
<linearGradient id="paint18_linear_6_14548" x1="151.081" y1="93.4793" x2="79.6802" y2="-88.3232" gradientUnits="userSpaceOnUse">
<stop/>
<stop offset="1" stop-color="white"/>
</linearGradient>
<linearGradient id="paint19_linear_6_14548" x1="151.081" y1="93.4793" x2="79.6802" y2="-88.3232" gradientUnits="userSpaceOnUse">
<stop stop-color="#97C3F9"/>
<stop offset="1" stop-color="#93C1F9"/>
</linearGradient>
<linearGradient id="paint20_linear_6_14548" x1="37.3208" y1="138.158" x2="-34.0809" y2="-43.6457" gradientUnits="userSpaceOnUse">
<stop/>
<stop offset="1" stop-color="white"/>
</linearGradient>
<linearGradient id="paint21_linear_6_14548" x1="37.3208" y1="138.158" x2="-34.0809" y2="-43.6457" gradientUnits="userSpaceOnUse">
<stop stop-color="#97C3F9"/>
<stop offset="1" stop-color="#93C1F9"/>
</linearGradient>
<linearGradient id="paint22_linear_6_14548" x1="63.5251" y1="127.867" x2="-7.87649" y2="-53.9373" gradientUnits="userSpaceOnUse">
<stop/>
<stop offset="1" stop-color="white"/>
</linearGradient>
<linearGradient id="paint23_linear_6_14548" x1="63.5251" y1="127.867" x2="-7.87649" y2="-53.9373" gradientUnits="userSpaceOnUse">
<stop stop-color="#97C3F9"/>
<stop offset="1" stop-color="#93C1F9"/>
</linearGradient>
<linearGradient id="paint24_linear_6_14548" x1="89.7295" y1="117.575" x2="18.328" y2="-64.2287" gradientUnits="userSpaceOnUse">
<stop/>
<stop offset="1" stop-color="white"/>
</linearGradient>
<linearGradient id="paint25_linear_6_14548" x1="89.7295" y1="117.575" x2="18.328" y2="-64.2287" gradientUnits="userSpaceOnUse">
<stop stop-color="#97C3F9"/>
<stop offset="1" stop-color="#93C1F9"/>
</linearGradient>
<linearGradient id="paint26_linear_6_14548" x1="115.934" y1="107.283" x2="44.5323" y2="-74.5204" gradientUnits="userSpaceOnUse">
<stop/>
<stop offset="1" stop-color="white"/>
</linearGradient>
<linearGradient id="paint27_linear_6_14548" x1="115.934" y1="107.283" x2="44.5323" y2="-74.5204" gradientUnits="userSpaceOnUse">
<stop stop-color="#97C3F9"/>
<stop offset="1" stop-color="#93C1F9"/>
</linearGradient>
<linearGradient id="paint28_linear_6_14548" x1="142.138" y1="96.992" x2="70.7365" y2="-84.8119" gradientUnits="userSpaceOnUse">
<stop/>
<stop offset="1" stop-color="white"/>
</linearGradient>
<linearGradient id="paint29_linear_6_14548" x1="142.138" y1="96.992" x2="70.7365" y2="-84.8119" gradientUnits="userSpaceOnUse">
<stop stop-color="#97C3F9"/>
<stop offset="1" stop-color="#93C1F9"/>
</linearGradient>
<linearGradient id="paint30_linear_6_14548" x1="28.3784" y1="141.67" x2="-43.0233" y2="-40.1338" gradientUnits="userSpaceOnUse">
<stop/>
<stop offset="1" stop-color="white"/>
</linearGradient>
<linearGradient id="paint31_linear_6_14548" x1="28.3784" y1="141.67" x2="-43.0233" y2="-40.1338" gradientUnits="userSpaceOnUse">
<stop stop-color="#97C3F9"/>
<stop offset="1" stop-color="#93C1F9"/>
</linearGradient>
<linearGradient id="paint32_linear_6_14548" x1="54.5828" y1="131.379" x2="-16.8189" y2="-50.4253" gradientUnits="userSpaceOnUse">
<stop/>
<stop offset="1" stop-color="white"/>
</linearGradient>
<linearGradient id="paint33_linear_6_14548" x1="54.5828" y1="131.379" x2="-16.8189" y2="-50.4253" gradientUnits="userSpaceOnUse">
<stop stop-color="#97C3F9"/>
<stop offset="1" stop-color="#93C1F9"/>
</linearGradient>
<linearGradient id="paint34_linear_6_14548" x1="80.7871" y1="121.087" x2="9.38557" y2="-60.7167" gradientUnits="userSpaceOnUse">
<stop/>
<stop offset="1" stop-color="white"/>
</linearGradient>
<linearGradient id="paint35_linear_6_14548" x1="80.7871" y1="121.087" x2="9.38557" y2="-60.7167" gradientUnits="userSpaceOnUse">
<stop stop-color="#97C3F9"/>
<stop offset="1" stop-color="#93C1F9"/>
</linearGradient>
<linearGradient id="paint36_linear_6_14548" x1="106.992" y1="110.796" x2="35.5899" y2="-71.0083" gradientUnits="userSpaceOnUse">
<stop/>
<stop offset="1" stop-color="white"/>
</linearGradient>
<linearGradient id="paint37_linear_6_14548" x1="106.992" y1="110.796" x2="35.5899" y2="-71.0083" gradientUnits="userSpaceOnUse">
<stop stop-color="#97C3F9"/>
<stop offset="1" stop-color="#93C1F9"/>
</linearGradient>
<linearGradient id="paint38_linear_6_14548" x1="133.196" y1="100.504" x2="61.7942" y2="-81.2999" gradientUnits="userSpaceOnUse">
<stop/>
<stop offset="1" stop-color="white"/>
</linearGradient>
<linearGradient id="paint39_linear_6_14548" x1="133.196" y1="100.504" x2="61.7942" y2="-81.2999" gradientUnits="userSpaceOnUse">
<stop stop-color="#97C3F9"/>
<stop offset="1" stop-color="#93C1F9"/>
</linearGradient>
<linearGradient id="paint40_linear_6_14548" x1="19.436" y1="145.182" x2="-51.9656" y2="-36.622" gradientUnits="userSpaceOnUse">
<stop/>
<stop offset="1" stop-color="white"/>
</linearGradient>
<linearGradient id="paint41_linear_6_14548" x1="19.436" y1="145.182" x2="-51.9656" y2="-36.622" gradientUnits="userSpaceOnUse">
<stop stop-color="#97C3F9"/>
<stop offset="1" stop-color="#93C1F9"/>
</linearGradient>
<linearGradient id="paint42_linear_6_14548" x1="45.6404" y1="134.89" x2="-25.7612" y2="-46.9135" gradientUnits="userSpaceOnUse">
<stop/>
<stop offset="1" stop-color="white"/>
</linearGradient>
<linearGradient id="paint43_linear_6_14548" x1="45.6404" y1="134.89" x2="-25.7612" y2="-46.9135" gradientUnits="userSpaceOnUse">
<stop stop-color="#97C3F9"/>
<stop offset="1" stop-color="#93C1F9"/>
</linearGradient>
<linearGradient id="paint44_linear_6_14548" x1="71.8448" y1="124.599" x2="0.443221" y2="-57.2048" gradientUnits="userSpaceOnUse">
<stop/>
<stop offset="1" stop-color="white"/>
</linearGradient>
<linearGradient id="paint45_linear_6_14548" x1="71.8448" y1="124.599" x2="0.443221" y2="-57.2048" gradientUnits="userSpaceOnUse">
<stop stop-color="#97C3F9"/>
<stop offset="1" stop-color="#93C1F9"/>
</linearGradient>
<linearGradient id="paint46_linear_6_14548" x1="98.0492" y1="114.307" x2="26.6476" y2="-67.4964" gradientUnits="userSpaceOnUse">
<stop/>
<stop offset="1" stop-color="white"/>
</linearGradient>
<linearGradient id="paint47_linear_6_14548" x1="98.0492" y1="114.307" x2="26.6476" y2="-67.4964" gradientUnits="userSpaceOnUse">
<stop stop-color="#97C3F9"/>
<stop offset="1" stop-color="#93C1F9"/>
</linearGradient>
<linearGradient id="paint48_linear_6_14548" x1="124.253" y1="104.016" x2="52.8518" y2="-77.7879" gradientUnits="userSpaceOnUse">
<stop/>
<stop offset="1" stop-color="white"/>
</linearGradient>
<linearGradient id="paint49_linear_6_14548" x1="124.253" y1="104.016" x2="52.8518" y2="-77.7879" gradientUnits="userSpaceOnUse">
<stop stop-color="#97C3F9"/>
<stop offset="1" stop-color="#93C1F9"/>
</linearGradient>
</defs>
</svg>
