<svg width="18" height="12" viewBox="0 0 18 12" fill="none" xmlns="http://www.w3.org/2000/svg">
<path fill-rule="evenodd" clip-rule="evenodd" d="M9.20116 3.75547C9.20116 3.29218 9.59126 2.91661 10.0725 2.91661H13.5577C14.0389 2.91661 14.429 3.29218 14.429 3.75547H16.1716C16.6528 3.75547 17.0429 4.13104 17.0429 4.59433V6.69148C17.0429 8.00681 16.1446 9.95884 14.9065 10.3321L15.1731 10.5888C15.3434 10.7528 15.3434 11.0187 15.1731 11.1827C15.0027 11.3467 14.7266 11.3467 14.5562 11.1827L13.813 10.4663H3.71803L2.97481 11.1827C2.86461 11.2888 2.704 11.3303 2.55347 11.2914C2.40294 11.2526 2.28536 11.1394 2.24502 10.9945C2.20469 10.8495 2.24773 10.6949 2.35792 10.5888L2.62454 10.333C1.38729 9.95884 0.488098 8.00681 0.488098 6.69148V4.59433C0.488098 4.13104 0.878195 3.75547 1.3594 3.75547H2.23071V1.23888C2.23071 0.775595 2.62081 0.400024 3.10202 0.400024H4.84463C5.32584 0.400024 5.71594 0.775595 5.71594 1.23888V2.08781C5.71594 2.31946 5.52089 2.50724 5.28028 2.50724C5.03968 2.50724 4.84463 2.31946 4.84463 2.08781V1.23888H3.10202V3.75547H9.20116ZM10.0725 3.75546V7.11091H13.5577V6.27205H11.3794C11.1388 6.27205 10.9438 6.08426 10.9438 5.85262C10.9438 5.62097 11.1388 5.43319 11.3794 5.43319H13.5577V3.75546H10.0725ZM1.3594 4.59433H9.20116V7.11091C9.20116 7.5742 9.59126 7.94977 10.0725 7.94977H13.5577C14.0389 7.94977 14.429 7.5742 14.429 7.11091V4.59433H16.1716V6.69148C16.1716 7.8491 15.1957 9.62749 13.9933 9.62749H3.53767C2.33527 9.62749 1.3594 7.8491 1.3594 6.69148V4.59433Z" fill="#2F2FE9"/>
</svg>
