<svg width="17" height="16" viewBox="0 0 17 16" fill="none" xmlns="http://www.w3.org/2000/svg">
<path fill-rule="evenodd" clip-rule="evenodd" d="M3.81384 8.8V4.4C3.81384 1.96995 5.85998 0 8.38403 0C10.9081 0 12.9542 1.96995 12.9542 4.4V8.8H15.0316C15.261 8.8 15.447 8.62091 15.447 8.4C15.447 8.17909 15.261 8 15.0316 8H14.6161V7.2H15.0316C15.6393 7.19913 16.1591 7.62041 16.2619 8.19713C16.3646 8.77385 16.0204 9.33783 15.447 9.532V14.4C15.447 14.8418 15.075 15.2 14.6161 15.2H12.9542C12.9542 15.6418 12.5822 16 12.1233 16H4.64478C4.18587 16 3.81384 15.6418 3.81384 15.2H2.15196C1.69304 15.2 1.32102 14.8418 1.32102 14.4V9.532C0.747683 9.33783 0.403408 8.77385 0.506156 8.19713C0.608905 7.62041 1.12872 7.19913 1.73649 7.2L2.15196 7.216V8H1.73649C1.50703 8 1.32102 8.17909 1.32102 8.4C1.32102 8.62091 1.50703 8.8 1.73649 8.8H3.81384ZM12.1233 6.416V4.4C12.1234 2.56742 10.6935 1.02724 8.80199 0.8224L8.80116 0.8552C8.85932 4.3512 10.419 6.1824 12.1233 6.416ZM4.64478 7.2224C6.23521 7.0576 7.69601 5.8368 8.38569 3.6304C9.07454 5.8352 10.5337 7.056 12.1233 7.2224V8.8H4.64478V7.2224ZM7.97022 0.8224C6.07704 1.02536 4.64494 2.56606 4.64478 4.4V6.416C6.34988 6.184 7.91205 4.3536 7.97022 0.856V0.8224ZM2.15196 9.6H4.64478V14.4H2.35969C2.24502 14.4 2.15196 14.3104 2.15196 14.2V9.6ZM7.96855 14.4H5.47573V9.6H7.96855V14.4ZM11.2923 14.4H8.7995V9.6H11.2923V14.4ZM14.4084 14.4H12.1233V9.6H14.6161V14.2C14.6161 14.3105 14.5231 14.4 14.4084 14.4Z" fill="#2F2FE9"/>
</svg>
