<svg width="30" height="30" viewBox="0 0 30 30" fill="none" xmlns="http://www.w3.org/2000/svg">
<path fill-rule="evenodd" clip-rule="evenodd" d="M18.007 7.5C18.007 7.22386 17.7831 7 17.507 7C17.2309 7 17.007 7.22386 17.007 7.5V9.51C17.007 9.78614 17.2309 10.01 17.507 10.01C17.7831 10.01 18.007 9.78614 18.007 9.51V7.5ZM17.007 17.035C15.3483 17.0311 14.0067 15.6837 14.01 14.025C14.0081 13.2283 14.3229 12.4635 14.8849 11.8988C15.4469 11.3341 16.2103 11.0159 17.007 11.014C18.6657 11.0179 20.0073 12.3653 20.004 14.024C20.0059 14.8207 19.6911 15.5855 19.1291 16.1502C18.5671 16.7149 17.8037 17.0331 17.007 17.035ZM17.007 16.032C17.5382 16.0307 18.0472 15.8184 18.4219 15.4418C18.7966 15.0652 19.0063 14.5552 19.005 14.024C19.0072 12.9182 18.1128 12.0198 17.007 12.017C15.9012 12.0198 15.0068 12.9182 15.009 14.024C15.009 15.133 15.904 16.032 17.007 16.032ZM13.01 14.524V14.528C13.01 14.8041 12.7861 15.028 12.51 15.028H10.514C10.2379 15.028 10.014 14.8041 10.014 14.528V14.524C10.014 14.2479 10.2379 14.024 10.514 14.024H12.511C12.7871 14.024 13.011 14.2479 13.011 14.524H13.01ZM13.984 10.989L13.986 10.987H13.987C14.1815 10.7919 14.1815 10.4761 13.987 10.281L12.572 8.86L12.571 8.858C12.4773 8.76465 12.3503 8.7124 12.2181 8.71278C12.0858 8.71315 11.9592 8.76612 11.866 8.86L11.864 8.862C11.6695 9.05713 11.6695 9.37287 11.864 9.568L13.278 10.989C13.3715 11.0829 13.4985 11.1357 13.631 11.1357C13.7635 11.1357 13.8905 11.0829 13.984 10.989ZM20.355 11.489C20.1605 11.2939 20.1605 10.9781 20.355 10.783L21.77 9.362L21.771 9.36C21.8647 9.26665 21.9917 9.2144 22.1239 9.21478C22.2562 9.21515 22.3828 9.26812 22.476 9.362L22.478 9.364C22.6719 9.55902 22.6719 9.87398 22.478 10.069L21.063 11.491L21.062 11.492C20.9684 11.5855 20.8415 11.6379 20.7093 11.6377C20.577 11.6375 20.4503 11.5847 20.357 11.491L20.355 11.489ZM24 14.528V14.524C24 14.2479 23.7761 14.024 23.5 14.024H21.503C21.2269 14.024 21.003 14.2479 21.003 14.524V14.528C21.003 14.8041 21.2269 15.028 21.503 15.028H23.5C23.7761 15.028 24 14.8041 24 14.528ZM24.994 19.119C24.54 19.322 24.217 19.553 24.024 19.813C23.397 20.663 22.994 20.989 22.184 20.989C21.374 20.989 20.971 20.663 20.343 19.813C19.891 19.203 19.693 19.042 19.304 19.042C18.914 19.042 18.717 19.202 18.265 19.813C17.637 20.663 17.235 20.989 16.425 20.989C15.614 20.989 15.211 20.663 14.583 19.813C14.131 19.203 13.934 19.042 13.544 19.042C13.154 19.042 12.957 19.202 12.505 19.813C11.877 20.663 11.475 20.989 10.665 20.989C9.855 20.989 9.452 20.663 8.823 19.813C8.372 19.203 8.174 19.042 7.785 19.042C7.395 19.042 7.197 19.202 6.745 19.813C6.411 20.265 5.831 20.643 5.005 20.948L5.015 19.905C5.445 19.702 5.754 19.471 5.944 19.215C6.572 18.365 6.974 18.039 7.784 18.039C8.594 18.039 8.997 18.365 9.626 19.215C10.077 19.825 10.275 19.986 10.664 19.986C11.054 19.986 11.252 19.826 11.704 19.215C12.332 18.365 12.734 18.039 13.544 18.039C14.354 18.039 14.757 18.365 15.385 19.215C15.837 19.825 16.035 19.986 16.425 19.986C16.814 19.986 17.011 19.826 17.463 19.215C18.091 18.365 18.493 18.039 19.304 18.039C20.114 18.039 20.517 18.365 21.145 19.215C21.597 19.825 21.795 19.986 22.184 19.986C22.574 19.986 22.771 19.826 23.223 19.215C23.557 18.763 24.148 18.385 24.996 18.08L24.994 19.119ZM24.026 22.824C24.22 22.562 24.544 22.33 25 22.128L24.994 21.09C24.147 21.395 23.557 21.773 23.224 22.225C22.772 22.835 22.575 22.995 22.185 22.995C21.796 22.995 21.598 22.835 21.146 22.224C20.518 21.375 20.115 21.048 19.305 21.048C18.494 21.048 18.092 21.375 17.464 22.225C17.012 22.835 16.815 22.995 16.426 22.995C16.036 22.995 15.838 22.835 15.386 22.224C14.758 21.375 14.355 21.048 13.545 21.048C12.735 21.048 12.333 21.375 11.705 22.225C11.253 22.835 11.055 22.995 10.665 22.995C10.276 22.995 10.078 22.835 9.627 22.224C8.998 21.375 8.595 21.048 7.785 21.048C6.975 21.048 6.573 21.374 5.945 22.224C5.752 22.485 5.437 22.717 5 22.92L5.01 23.958C5.834 23.653 6.413 23.275 6.746 22.823C7.198 22.213 7.396 22.053 7.786 22.053C8.175 22.053 8.373 22.213 8.824 22.824C9.453 23.673 9.856 24 10.666 24C11.476 24 11.878 23.673 12.506 22.823C12.958 22.213 13.155 22.053 13.545 22.053C13.935 22.053 14.132 22.213 14.584 22.824C15.212 23.673 15.615 24 16.426 24C17.236 24 17.638 23.673 18.266 22.823C18.718 22.213 18.915 22.053 19.305 22.053C19.694 22.053 19.892 22.213 20.344 22.824C20.972 23.673 21.375 24 22.185 24C22.996 24 23.398 23.674 24.026 22.824Z" fill="#2F2FE9"/>
</svg>
