<svg width="33" height="33" viewBox="0 0 33 33" fill="none" xmlns="http://www.w3.org/2000/svg">
<path d="M1.83325 29.8335H31.1666" stroke="#4030EA" stroke-width="1.5" stroke-miterlimit="10" stroke-linecap="round" stroke-linejoin="round"/>
<path opacity="0.4" d="M26.8735 29.8466V23.8999" stroke="#4030EA" stroke-width="1.5" stroke-miterlimit="10" stroke-linecap="round" stroke-linejoin="round"/>
<path d="M26.9001 15.02C25.2735 15.02 23.9668 16.3267 23.9668 17.9534V20.98C23.9668 22.6066 25.2735 23.9133 26.9001 23.9133C28.5268 23.9133 29.8335 22.6066 29.8335 20.98V17.9534C29.8335 16.3267 28.5268 15.02 26.9001 15.02Z" stroke="#4030EA" stroke-width="1.5" stroke-miterlimit="10" stroke-linecap="round" stroke-linejoin="round"/>
<path d="M3.30005 29.8332V8.53988C3.30005 5.85988 4.63345 4.51318 7.28678 4.51318H15.5934C18.2468 4.51318 19.5667 5.85988 19.5667 8.53988V29.8332" stroke="#4030EA" stroke-width="1.5" stroke-miterlimit="10" stroke-linecap="round" stroke-linejoin="round"/>
<path opacity="0.4" d="M8.2334 11.5H14.8334" stroke="#4030EA" stroke-width="1.5" stroke-miterlimit="10" stroke-linecap="round" stroke-linejoin="round"/>
<path opacity="0.4" d="M8.2334 16.5H14.8334" stroke="#4030EA" stroke-width="1.5" stroke-miterlimit="10" stroke-linecap="round" stroke-linejoin="round"/>
<path opacity="0.4" d="M11.5 29.8335V24.8335" stroke="#4030EA" stroke-width="1.5" stroke-miterlimit="10" stroke-linecap="round" stroke-linejoin="round"/>
</svg>
