<svg width="31" height="30" viewBox="0 0 31 30" fill="none" xmlns="http://www.w3.org/2000/svg">
<path fill-rule="evenodd" clip-rule="evenodd" d="M24.75 10.018H23.75V9C23.75 8.44772 23.3023 8 22.75 8H19.78C18.4 8 17.216 8.577 16.25 9.703C15.285 8.577 14.1 8 12.72 8H9.75C9.19772 8 8.75 8.44772 8.75 9V10.018H7.75C7.198 10.018 6.75 10.469 6.75 11.026V20.105C6.75 20.662 7.198 21.114 7.75 21.114H11.75C13.53 21.114 14.518 21.69 15.741 22.838C15.8517 22.9421 15.998 23 16.15 23H16.35C16.502 23 16.6483 22.9421 16.759 22.838C17.982 21.69 18.97 21.114 20.75 21.114H24.75C25.302 21.114 25.75 20.662 25.75 20.106V11.026C25.75 10.469 25.302 10.018 24.75 10.018ZM19.78 9.008H22.5V9.01C22.6381 9.01 22.75 9.12193 22.75 9.26V10.316L23.75 10.472V11.026H22.75V17.838C22.75 17.9761 22.6381 18.088 22.5 18.088H19.78C18.635 18.088 17.62 18.489 16.75 19.279V10.686C17.585 9.555 18.584 9.008 19.78 9.008ZM23.75 11.026H24.5C24.5666 11.0263 24.6303 11.053 24.6772 11.1002C24.7241 11.1475 24.7503 11.2114 24.75 11.278V19.852C24.75 19.991 24.638 20.104 24.5 20.104H20.75C19.033 20.104 18.028 20.58 16.75 21.53V20.42L16.822 20.344C17.687 19.635 18.624 19.096 19.78 19.096H22.75C23.3023 19.096 23.75 18.6483 23.75 18.096V11.026ZM15.75 19.279V10.686C14.915 9.556 13.916 9.009 12.72 9.009H10C9.86193 9.009 9.75 9.12093 9.75 9.259V17.838C9.75 17.976 9.862 18.088 10 18.088H12.72C13.865 18.088 14.88 18.49 15.75 19.279ZM15.678 20.345L15.75 20.422V20.423V21.533C14.472 20.583 13.467 20.106 11.75 20.106H8C7.862 20.106 7.75 19.994 7.75 19.854V11.279C7.74973 11.2124 7.77592 11.1485 7.82281 11.1012C7.86969 11.054 7.93343 11.0273 8 11.027H8.75V18.097C8.75 18.6493 9.19772 19.097 9.75 19.097H12.721C13.876 19.097 14.911 19.704 15.678 20.345Z" fill="#2F2FE9"/>
</svg>
