<svg width="16" height="16" viewBox="0 0 16 16" fill="none" xmlns="http://www.w3.org/2000/svg">
<path d="M5.33338 14.6667H10.6667C13.3467 14.6667 13.8267 13.5933 13.9667 12.2867L14.4667 6.95333C14.6467 5.32667 14.18 4 11.3334 4H4.66671C1.82005 4 1.35338 5.32667 1.53338 6.95333L2.03338 12.2867C2.17338 13.5933 2.65338 14.6667 5.33338 14.6667Z" stroke="#4030EA" stroke-width="1.5" stroke-miterlimit="10" stroke-linecap="round" stroke-linejoin="round"/>
<path opacity="0.4" d="M5.3335 4.00016V3.46683C5.3335 2.28683 5.3335 1.3335 7.46683 1.3335H8.5335C10.6668 1.3335 10.6668 2.28683 10.6668 3.46683V4.00016" stroke="#4030EA" stroke-width="1.5" stroke-miterlimit="10" stroke-linecap="round" stroke-linejoin="round"/>
<g opacity="0.4">
<path d="M9.33317 8.66667V9.33333C9.33317 9.34 9.33317 9.34 9.33317 9.34667C9.33317 10.0733 9.3265 10.6667 7.99984 10.6667C6.67984 10.6667 6.6665 10.08 6.6665 9.35333V8.66667C6.6665 8 6.6665 8 7.33317 8H8.6665C9.33317 8 9.33317 8 9.33317 8.66667Z" stroke="#4030EA" stroke-width="1.5" stroke-miterlimit="10" stroke-linecap="round" stroke-linejoin="round"/>
<path d="M14.4335 7.3335C12.8935 8.4535 11.1335 9.12016 9.3335 9.34683" stroke="#4030EA" stroke-width="1.5" stroke-miterlimit="10" stroke-linecap="round" stroke-linejoin="round"/>
<path d="M1.74609 7.51318C3.24609 8.53985 4.93943 9.15985 6.66609 9.35318" stroke="#4030EA" stroke-width="1.5" stroke-miterlimit="10" stroke-linecap="round" stroke-linejoin="round"/>
</g>
</svg>
