<svg width="42" height="42" viewBox="0 0 42 42" fill="none" xmlns="http://www.w3.org/2000/svg">
<path d="M16.625 34.125V31.5H7.875C6.9125 31.5 6.0375 31.115 5.4075 30.4675C4.76 29.8375 4.375 28.9625 4.375 28C4.375 26.1975 5.775 24.6925 7.5425 24.5175C7.6475 24.5 7.7525 24.5 7.875 24.5H34.125C34.2475 24.5 34.3525 24.5 34.4575 24.5175C35.2975 24.5875 36.0325 24.955 36.5925 25.5325C37.31 26.2325 37.695 27.23 37.6075 28.315C37.45 30.1525 35.7875 31.5 33.9325 31.5H25.375V34.125C25.375 36.54 23.415 38.5 21 38.5C18.585 38.5 16.625 36.54 16.625 34.125Z" stroke="#4030EA" stroke-width="1.5" stroke-linecap="round" stroke-linejoin="round"/>
<g opacity="0.4">
<path d="M35.2983 9.275L34.4583 24.5175C34.3533 24.5 34.2483 24.5 34.1258 24.5H7.87577C7.75327 24.5 7.64827 24.5 7.54327 24.5175L6.70327 9.275C6.38827 6.1775 8.82077 3.5 11.9183 3.5H30.0833C33.1808 3.5 35.6133 6.1775 35.2983 9.275Z" stroke="#4030EA" stroke-width="1.5" stroke-linecap="round" stroke-linejoin="round"/>
<path d="M13.9844 3.5V12.25" stroke="#4030EA" stroke-width="1.5" stroke-linecap="round" stroke-linejoin="round"/>
<path d="M21 3.5V7" stroke="#4030EA" stroke-width="1.5" stroke-linecap="round" stroke-linejoin="round"/>
</g>
</svg>
