<svg width="22" height="22" viewBox="0 0 22 22" fill="none" xmlns="http://www.w3.org/2000/svg">
<rect x="0.75" y="0.75" width="20.5" height="20.5" rx="5.25" stroke="#4030EA" stroke-width="1.5"/>
<path d="M11.75 8C11.75 7.58579 11.4142 7.25 11 7.25C10.5858 7.25 10.25 7.58579 10.25 8L11.75 8ZM10.25 14C10.25 14.4142 10.5858 14.75 11 14.75C11.4142 14.75 11.75 14.4142 11.75 14L10.25 14ZM10.25 8L10.25 14L11.75 14L11.75 8L10.25 8Z" fill="#4030EA"/>
<path d="M8 10.25C7.58579 10.25 7.25 10.5858 7.25 11C7.25 11.4142 7.58579 11.75 8 11.75V10.25ZM14 11.75C14.4142 11.75 14.75 11.4142 14.75 11C14.75 10.5858 14.4142 10.25 14 10.25V11.75ZM8 11.75H14V10.25H8V11.75Z" fill="#4030EA"/>
</svg>
