<svg width="17" height="17" viewBox="0 0 17 17" fill="none" xmlns="http://www.w3.org/2000/svg">
<path d="M1.83331 14.9609H15.1666" stroke="#546080" stroke-miterlimit="10" stroke-linecap="round" stroke-linejoin="round"/>
<path d="M10.5067 14.9548L2.50667 14.9682L2.5 5.00816C2.5 4.5615 2.72668 4.14814 3.09334 3.90147L5.76001 2.12148C6.20668 1.82148 6.79332 1.82148 7.23999 2.12148L9.90666 3.90147C10.28 4.14814 10.5 4.5615 10.5 5.00816L10.5067 14.9548Z" stroke="#546080" stroke-miterlimit="10" stroke-linecap="round" stroke-linejoin="round"/>
<path opacity="0.4" d="M13.82 14.9683V12.2949" stroke="#546080" stroke-miterlimit="10" stroke-linecap="round" stroke-linejoin="round"/>
<path d="M13.8333 8.29492C13.1 8.29492 12.5 8.89492 12.5 9.62826V10.9616C12.5 11.6949 13.1 12.2949 13.8333 12.2949C14.5667 12.2949 15.1667 11.6949 15.1667 10.9616V9.62826C15.1667 8.89492 14.5667 8.29492 13.8333 8.29492Z" stroke="#546080" stroke-miterlimit="10" stroke-linecap="round" stroke-linejoin="round"/>
<path d="M2.5 9.62891H10.5" stroke="#546080" stroke-miterlimit="10" stroke-linecap="round" stroke-linejoin="round"/>
<path opacity="0.4" d="M6.5 14.9609V12.4609" stroke="#546080" stroke-width="1.5" stroke-miterlimit="10" stroke-linecap="round" stroke-linejoin="round"/>
<path opacity="0.4" d="M6.5 7.29492C7.05228 7.29492 7.5 6.84721 7.5 6.29492C7.5 5.74264 7.05228 5.29492 6.5 5.29492C5.94772 5.29492 5.5 5.74264 5.5 6.29492C5.5 6.84721 5.94772 7.29492 6.5 7.29492Z" stroke="#546080" stroke-width="1.5" stroke-miterlimit="10" stroke-linecap="round" stroke-linejoin="round"/>
</svg>
