<svg width="16" height="16" viewBox="0 0 16 16" fill="none" xmlns="http://www.w3.org/2000/svg">
<path d="M8.66659 14.6668H3.33325C1.99992 14.6668 1.33325 14.0002 1.33325 12.6668V7.3335C1.33325 6.00016 1.99992 5.3335 3.33325 5.3335H6.66659V12.6668C6.66659 14.0002 7.33325 14.6668 8.66659 14.6668Z" stroke="#546080" stroke-width="1.5" stroke-miterlimit="10" stroke-linecap="round" stroke-linejoin="round"/>
<path opacity="0.4" d="M6.73991 2.6665C6.68658 2.8665 6.66659 3.0865 6.66659 3.33317V5.33317H3.33325V3.99984C3.33325 3.2665 3.93325 2.6665 4.66659 2.6665H6.73991Z" stroke="#546080" stroke-width="1.5" stroke-miterlimit="10" stroke-linecap="round" stroke-linejoin="round"/>
<path opacity="0.4" d="M9.33325 5.3335V8.66683" stroke="#546080" stroke-width="1.5" stroke-miterlimit="10" stroke-linecap="round" stroke-linejoin="round"/>
<path opacity="0.4" d="M12 5.3335V8.66683" stroke="#546080" stroke-width="1.5" stroke-miterlimit="10" stroke-linecap="round" stroke-linejoin="round"/>
<path d="M11.3333 11.3335H9.99992C9.63325 11.3335 9.33325 11.6335 9.33325 12.0002V14.6668H11.9999V12.0002C11.9999 11.6335 11.6999 11.3335 11.3333 11.3335Z" stroke="#546080" stroke-width="1.5" stroke-miterlimit="10" stroke-linecap="round" stroke-linejoin="round"/>
<path opacity="0.4" d="M4 8.6665V11.3332" stroke="#546080" stroke-width="1.5" stroke-miterlimit="10" stroke-linecap="round" stroke-linejoin="round"/>
<path d="M6.66675 12.6668V3.3335C6.66675 2.00016 7.33341 1.3335 8.66675 1.3335H12.6667C14.0001 1.3335 14.6667 2.00016 14.6667 3.3335V12.6668C14.6667 14.0002 14.0001 14.6668 12.6667 14.6668H8.66675C7.33341 14.6668 6.66675 14.0002 6.66675 12.6668Z" stroke="#546080" stroke-width="1.5" stroke-miterlimit="10" stroke-linecap="round" stroke-linejoin="round"/>
</svg>
