<svg width="16" height="16" viewBox="0 0 16 16" fill="none" xmlns="http://www.w3.org/2000/svg">
<path opacity="0.4" d="M14.6667 11.666H10" stroke="#546080" stroke-width="1.5" stroke-miterlimit="10" stroke-linecap="round" stroke-linejoin="round"/>
<path opacity="0.4" d="M3.33594 11.666H1.33594" stroke="#546080" stroke-width="1.5" stroke-miterlimit="10" stroke-linecap="round" stroke-linejoin="round"/>
<path opacity="0.4" d="M14.6641 4.33398H12.6641" stroke="#546080" stroke-width="1.5" stroke-miterlimit="10" stroke-linecap="round" stroke-linejoin="round"/>
<path opacity="0.4" d="M6.0026 4.33398H1.33594" stroke="#546080" stroke-width="1.5" stroke-miterlimit="10" stroke-linecap="round" stroke-linejoin="round"/>
<path d="M4.66927 9.66602H8.66927C9.4026 9.66602 10.0026 9.99935 10.0026 10.9993V12.3327C10.0026 13.3327 9.4026 13.666 8.66927 13.666H4.66927C3.93594 13.666 3.33594 13.3327 3.33594 12.3327V10.9993C3.33594 9.99935 3.93594 9.66602 4.66927 9.66602Z" stroke="#546080" stroke-width="1.5" stroke-miterlimit="10" stroke-linecap="round" stroke-linejoin="round"/>
<path d="M7.33333 2.33398H11.3333C12.0667 2.33398 12.6667 2.66732 12.6667 3.66732V5.00065C12.6667 6.00065 12.0667 6.33398 11.3333 6.33398H7.33333C6.6 6.33398 6 6.00065 6 5.00065V3.66732C6 2.66732 6.6 2.33398 7.33333 2.33398Z" stroke="#546080" stroke-width="1.5" stroke-miterlimit="10" stroke-linecap="round" stroke-linejoin="round"/>
</svg>
