<svg width="42" height="43" viewBox="0 0 42 43" fill="none" xmlns="http://www.w3.org/2000/svg">
<path d="M3.5 22.8184H33.25" stroke="url(#paint0_linear_3302_8331)" stroke-width="1.5" stroke-miterlimit="10" stroke-linecap="round" stroke-linejoin="round"/>
<path d="M33.25 18.7404V31.2529C33.1975 36.2404 31.8324 37.5004 26.6349 37.5004H10.1151C4.83005 37.5004 3.5 36.1879 3.5 30.9729V18.7404C3.5 14.0154 4.6025 12.4929 8.75 12.2479C9.17 12.2304 9.62505 12.2129 10.1151 12.2129H26.6349C31.9199 12.2129 33.25 13.5254 33.25 18.7404Z" stroke="url(#paint1_linear_3302_8331)" stroke-width="1.5" stroke-linecap="round" stroke-linejoin="round"/>
<path opacity="0.4" d="M38.5 12.5275V24.76C38.5 29.485 37.3975 31.0075 33.25 31.2525V18.74C33.25 13.525 31.9199 12.2125 26.6349 12.2125H10.1151C9.62505 12.2125 9.17 12.23 8.75 12.2475C8.8025 7.26 10.1676 6 15.3651 6H31.8849C37.1699 6 38.5 7.3125 38.5 12.5275Z" stroke="url(#paint2_linear_3302_8331)" stroke-width="1.5" stroke-linecap="round" stroke-linejoin="round"/>
<path opacity="0.4" d="M9.1875 31.918H12.1974" stroke="#292D32" stroke-width="1.5" stroke-miterlimit="10" stroke-linecap="round" stroke-linejoin="round"/>
<path opacity="0.4" d="M15.9424 31.918H21.9624" stroke="#292D32" stroke-width="1.5" stroke-miterlimit="10" stroke-linecap="round" stroke-linejoin="round"/>
<defs>
<linearGradient id="paint0_linear_3302_8331" x1="3.5" y1="18.7291" x2="32.5513" y2="25.4536" gradientUnits="userSpaceOnUse">
<stop stop-color="#9733EE"/>
<stop offset="1" stop-color="#4030EA"/>
</linearGradient>
<linearGradient id="paint1_linear_3302_8331" x1="3.5" y1="-91.1945" x2="34.1052" y2="-90.9144" gradientUnits="userSpaceOnUse">
<stop stop-color="#9733EE"/>
<stop offset="1" stop-color="#4030EA"/>
</linearGradient>
<linearGradient id="paint2_linear_3302_8331" x1="8.75" y1="-97.2643" x2="39.3552" y2="-96.9837" gradientUnits="userSpaceOnUse">
<stop stop-color="#9733EE"/>
<stop offset="1" stop-color="#4030EA"/>
</linearGradient>
</defs>
</svg>
