<svg width="24" height="20" viewBox="0 0 24 20" fill="none" xmlns="http://www.w3.org/2000/svg">
<path fill-rule="evenodd" clip-rule="evenodd" d="M1.8972 9.3675C2.24602 9.3675 2.52878 9.08473 2.52878 8.73592V3.68329C2.52878 2.62729 3.31194 1.78855 4.25552 1.78855H19.7494C20.693 1.78855 21.4762 2.62729 21.4762 3.68329V8.73592C21.4762 9.08473 21.7589 9.3675 22.1077 9.3675C22.4565 9.3675 22.7393 9.08473 22.7393 8.73592V3.68329C22.7393 1.94897 21.4105 0.525391 19.7494 0.525391H4.25552C2.59447 0.525391 1.26563 1.94897 1.26563 3.68329V8.73592C1.26563 9.08473 1.54839 9.3675 1.8972 9.3675ZM20.5806 18.2097H3.41937L2.3419 19.2884C2.18214 19.4482 1.94929 19.5106 1.73107 19.4521C1.51284 19.3936 1.34238 19.2232 1.28391 19.005C1.22543 18.7867 1.28783 18.5539 1.44758 18.3941L1.75326 18.0897C0.708071 17.7538 -0.000513734 16.7812 2.79468e-07 15.6834V13.1571C2.79468e-07 11.7618 1.13107 10.6308 2.52632 10.6308H4.128C3.90569 10.2469 3.7889 9.81115 3.78947 9.3676V8.10444C3.78947 6.7092 4.92054 5.57813 6.31579 5.57813H10.1053C10.8594 5.57813 11.5377 5.90907 12 6.43328C12.4791 5.88888 13.1695 5.57727 13.8947 5.57813H17.6842C19.0795 5.57813 20.2105 6.7092 20.2105 8.10444V9.3676C20.2105 9.82739 20.088 10.2594 19.872 10.6308H21.4737C22.8689 10.6308 24 11.7618 24 13.1571V15.6834C24.0005 16.7812 23.2919 17.7538 22.2467 18.0897L22.5524 18.3941C22.7994 18.6411 22.7994 19.0415 22.5524 19.2884C22.3055 19.5354 21.9051 19.5354 21.6581 19.2884L20.5806 18.2097ZM13.8972 11.8945H2.52878C1.83116 11.8945 1.26563 12.4601 1.26563 13.1577V15.684C1.26563 16.3816 1.83116 16.9472 2.52878 16.9472H21.4762C22.1738 16.9472 22.7393 16.3816 22.7393 15.684V13.1577C22.7393 12.4601 22.1738 11.8945 21.4762 11.8945H13.8972ZM18.9486 9.36811C18.9486 10.0657 18.3831 10.6313 17.6854 10.6313H13.896C13.1983 10.6313 12.6328 10.0657 12.6328 9.36811V8.10495C12.6328 7.40733 13.1983 6.8418 13.896 6.8418H17.6854C18.3831 6.8418 18.9486 7.40733 18.9486 8.10495V9.36811ZM11.3666 9.36811V8.10495C11.3666 7.40733 10.801 6.8418 10.1034 6.8418H6.31394C5.61632 6.8418 5.05078 7.40733 5.05078 8.10495V9.36811C5.05078 10.0657 5.61632 10.6313 6.31394 10.6313H10.1034C10.801 10.6313 11.3666 10.0657 11.3666 9.36811Z" fill="#2F2FE9"/>
</svg>
