<svg width="17" height="13" viewBox="0 0 17 13" fill="none" xmlns="http://www.w3.org/2000/svg">
<path fill-rule="evenodd" clip-rule="evenodd" d="M1.56544 6.19998C1.7949 6.19998 1.98092 6.02089 1.98092 5.79998V2.59998C1.98092 1.93118 2.4961 1.39998 3.11681 1.39998H13.3092C13.9299 1.39998 14.445 1.93118 14.445 2.59998V5.79998C14.445 6.02089 14.6311 6.19998 14.8605 6.19998C15.09 6.19998 15.276 6.02089 15.276 5.79998V2.59998C15.276 1.50158 14.4018 0.599976 13.3092 0.599976H3.11681C2.02412 0.599976 1.14997 1.50158 1.14997 2.59998V5.79998C1.14997 6.02089 1.33599 6.19998 1.56544 6.19998ZM2.56839 11.8L1.8596 12.4832C1.75451 12.5844 1.60133 12.6239 1.45778 12.5868C1.31422 12.5498 1.20209 12.4418 1.16362 12.3036C1.12516 12.1654 1.1662 12.018 1.27129 11.9168L1.47238 11.724C0.78482 11.5112 0.318693 10.8953 0.319031 10.2V8.59998C0.319031 7.71632 1.06308 6.99998 1.98092 6.99998H3.03455C2.88831 6.7569 2.81148 6.48089 2.81186 6.19998V5.39998C2.81186 4.51632 3.55591 3.79998 4.47374 3.79998H6.96657C7.46264 3.79998 7.90886 4.00958 8.21298 4.34158C8.52815 3.99678 8.98233 3.79943 9.4594 3.79998H11.9522C12.8701 3.79998 13.6141 4.51632 13.6141 5.39998V6.19998C13.6141 6.49118 13.5335 6.76478 13.3914 6.99998H14.445C15.3629 6.99998 16.1069 7.71632 16.1069 8.59998V10.2C16.1073 10.8953 15.6411 11.5112 14.9536 11.724L15.1547 11.9168C15.3171 12.0732 15.3171 12.3268 15.1547 12.4832C14.9922 12.6396 14.7288 12.6396 14.5664 12.4832L13.8576 11.8H2.56839ZM9.4594 7.79998H1.98092C1.522 7.79998 1.14997 8.15815 1.14997 8.59998V10.2C1.14997 10.6418 1.522 11 1.98092 11H14.445C14.904 11 15.276 10.6418 15.276 10.2V8.59998C15.276 8.15815 14.904 7.79998 14.445 7.79998H9.4594ZM12.7832 6.19998C12.7832 6.6418 12.4111 6.99998 11.9522 6.99998H9.4594C9.00048 6.99998 8.62845 6.6418 8.62845 6.19998V5.39998C8.62845 4.95815 9.00048 4.59998 9.4594 4.59998H11.9522C12.4111 4.59998 12.7832 4.95815 12.7832 5.39998V6.19998ZM6.96657 6.99998C7.42549 6.99998 7.79751 6.6418 7.79751 6.19998V5.39998C7.79751 4.95815 7.42549 4.59998 6.96657 4.59998H4.47374C4.01483 4.59998 3.6428 4.95815 3.6428 5.39998V6.19998C3.6428 6.6418 4.01483 6.99998 4.47374 6.99998H6.96657Z" fill="#2F2FE9"/>
</svg>
