<svg width="20" height="20" viewBox="0 0 20 20" fill="none" xmlns="http://www.w3.org/2000/svg">
<path opacity="0.19" d="M10 0C4.47715 0 0 4.47715 0 10C0 15.5228 4.47715 20 10 20C15.5228 20 20 15.5228 20 10C19.9936 4.47982 15.5202 0.00642897 10 0Z" fill="#4030EA"/>
<path d="M15.7725 6.83362L10.0684 14.5745C9.93234 14.7549 9.72948 14.8732 9.50539 14.9027C9.2813 14.9321 9.05478 14.8703 8.87671 14.7311L4.80338 11.4745C4.44393 11.1868 4.38573 10.6622 4.67338 10.3028C4.96102 9.94334 5.4856 9.88514 5.84504 10.1728L9.24171 12.8903L14.4309 5.84778C14.601 5.59244 14.8978 5.45127 15.2032 5.48032C15.5087 5.50936 15.7735 5.70393 15.8925 5.98676C16.0115 6.2696 15.9654 6.59494 15.7725 6.83362Z" fill="#4030EA"/>
</svg>
