<svg width="31" height="30" viewBox="0 0 31 30" fill="none" xmlns="http://www.w3.org/2000/svg">
<path fill-rule="evenodd" clip-rule="evenodd" d="M16.25 9.002V19H15.75C15.474 19 15.25 19.5 15.25 20C15.25 20.5 15.474 21 15.75 21H21.75C22.026 21 22.25 20.514 22.25 20.024C22.25 19.535 22.026 19 21.75 19H21.25V9.002H24C24.1381 9.002 24.25 9.11393 24.25 9.252V22.5C24.25 22.7761 24.4739 23 24.75 23C25.0261 23 25.25 22.7761 25.25 22.5V9.002C25.25 8.44972 24.8023 8.002 24.25 8.002H21.25V7.5C21.25 7.22386 21.0261 7 20.75 7C20.4739 7 20.25 7.22386 20.25 7.5V8.002H17.25V7.5C17.25 7.22386 17.0261 7 16.75 7C16.4739 7 16.25 7.22386 16.25 7.5V8.002L13.25 8L12.25 8.002H7.25C6.69772 8.002 6.25 8.44972 6.25 9.002V22.5C6.25 22.7761 6.47386 23 6.75 23C7.02614 23 7.25 22.7761 7.25 22.5V21H12.25V22.5C12.25 22.7761 12.4739 23 12.75 23C13.0261 23 13.25 22.7761 13.25 22.5V9.002H16.25ZM20.25 19H17.25V9.002H20.25V19ZM7.25 20H12.25V18H7.25V20ZM12.25 17H7.25V15H12.25V17ZM7.25 14H12.25V12H7.25V14ZM12.25 11H7.25V9.252C7.25 9.11393 7.36193 9.002 7.5 9.002H12.25V11Z" fill="#2F2FE9"/>
</svg>
