<svg width="18" height="18" viewBox="0 0 18 18" fill="none" xmlns="http://www.w3.org/2000/svg">
<path opacity="0.34" d="M12.7202 4.62793C14.2202 5.67043 15.2552 7.32793 15.4652 9.24043" stroke="#4030EA" stroke-width="1.5" stroke-linecap="round" stroke-linejoin="round"/>
<path opacity="0.34" d="M2.61768 9.27754C2.81268 7.37254 3.83268 5.71504 5.31768 4.66504" stroke="#4030EA" stroke-width="1.5" stroke-linecap="round" stroke-linejoin="round"/>
<path opacity="0.34" d="M6.14258 15.7051C7.01258 16.1476 8.00258 16.3951 9.04508 16.3951C10.0501 16.3951 10.9951 16.1701 11.8426 15.7576" stroke="#4030EA" stroke-width="1.5" stroke-linecap="round" stroke-linejoin="round"/>
<path d="M9.04496 5.77547C10.1965 5.77547 11.13 4.84198 11.13 3.69047C11.13 2.53895 10.1965 1.60547 9.04496 1.60547C7.89345 1.60547 6.95996 2.53895 6.95996 3.69047C6.95996 4.84198 7.89345 5.77547 9.04496 5.77547Z" stroke="#4030EA" stroke-width="1.5" stroke-linecap="round" stroke-linejoin="round"/>
<path d="M3.6226 14.9395C4.77411 14.9395 5.7076 14.006 5.7076 12.8545C5.7076 11.703 4.77411 10.7695 3.6226 10.7695C2.47108 10.7695 1.5376 11.703 1.5376 12.8545C1.5376 14.006 2.47108 14.9395 3.6226 14.9395Z" stroke="#4030EA" stroke-width="1.5" stroke-linecap="round" stroke-linejoin="round"/>
<path d="M14.3775 14.9395C15.529 14.9395 16.4625 14.006 16.4625 12.8545C16.4625 11.703 15.529 10.7695 14.3775 10.7695C13.226 10.7695 12.2925 11.703 12.2925 12.8545C12.2925 14.006 13.226 14.9395 14.3775 14.9395Z" stroke="#4030EA" stroke-width="1.5" stroke-linecap="round" stroke-linejoin="round"/>
</svg>
