<svg width="16" height="16" viewBox="0 0 16 16" fill="none" xmlns="http://www.w3.org/2000/svg">
<path d="M14.6667 7.26683V2.7335C14.6667 1.7335 14.24 1.3335 13.18 1.3335H10.4867C9.42667 1.3335 9 1.7335 9 2.7335V7.26683C9 8.26683 9.42667 8.66683 10.4867 8.66683H13.18C14.24 8.66683 14.6667 8.26683 14.6667 7.26683Z" stroke="#546080" stroke-width="1.5" stroke-linecap="round" stroke-linejoin="round"/>
<path opacity="0.4" d="M14.6667 13.2665V12.0665C14.6667 11.0665 14.24 10.6665 13.18 10.6665H10.4867C9.42667 10.6665 9 11.0665 9 12.0665V13.2665C9 14.2665 9.42667 14.6665 10.4867 14.6665H13.18C14.24 14.6665 14.6667 14.2665 14.6667 13.2665Z" stroke="#546080" stroke-width="1.5" stroke-linecap="round" stroke-linejoin="round"/>
<path d="M6.99992 8.7335V13.2668C6.99992 14.2668 6.57325 14.6668 5.51325 14.6668H2.81992C1.75992 14.6668 1.33325 14.2668 1.33325 13.2668V8.7335C1.33325 7.7335 1.75992 7.3335 2.81992 7.3335H5.51325C6.57325 7.3335 6.99992 7.7335 6.99992 8.7335Z" stroke="#546080" stroke-width="1.5" stroke-linecap="round" stroke-linejoin="round"/>
<path opacity="0.4" d="M6.99992 2.7335V3.9335C6.99992 4.9335 6.57325 5.3335 5.51325 5.3335H2.81992C1.75992 5.3335 1.33325 4.9335 1.33325 3.9335V2.7335C1.33325 1.7335 1.75992 1.3335 2.81992 1.3335H5.51325C6.57325 1.3335 6.99992 1.7335 6.99992 2.7335Z" stroke="#546080" stroke-width="1.5" stroke-linecap="round" stroke-linejoin="round"/>
</svg>
