<svg width="16" height="16" viewBox="0 0 16 16" fill="none" xmlns="http://www.w3.org/2000/svg">
<path fill-rule="evenodd" clip-rule="evenodd" d="M0 7.99992C0 3.58876 3.58881 0 8 0C12.4112 0 16 3.58876 16 7.99992C16 12.4112 12.4112 16 8 16C3.58881 16 0 12.4112 0 7.99992ZM0.921875 7.99975C0.921875 11.9015 4.09618 15.0758 7.99788 15.0758C11.8996 15.0758 15.0739 11.9015 15.0739 7.99978C15.0739 4.0981 11.8996 0.923828 7.99788 0.923828C4.09618 0.923828 0.921875 4.0981 0.921875 7.99975Z" fill="#2F2FE9"/>
<path fill-rule="evenodd" clip-rule="evenodd" d="M12.4029 3.78435C12.282 3.55954 12.002 3.47538 11.7772 3.59619L6.57727 6.39222C6.49745 6.43515 6.43202 6.50056 6.38911 6.5804L3.59421 11.7792C3.49534 11.9631 3.53385 12.1841 3.67429 12.3246C3.70543 12.3557 3.74158 12.3829 3.78245 12.4048C3.92135 12.4795 4.08143 12.4757 4.21194 12.4089L4.21202 12.409L4.21398 12.4079L4.21957 12.4049L9.42206 9.61094C9.5019 9.56806 9.56731 9.50265 9.61029 9.42278L12.394 4.23687C12.4001 4.22639 12.4059 4.2158 12.4111 4.20493L12.4149 4.19794L12.4144 4.19779C12.4736 4.07028 12.4746 3.91766 12.4029 3.78435ZM5.13281 10.868L6.90884 7.56445L8.43611 9.09177L5.13281 10.868ZM7.5625 6.91098L9.08985 8.43832L10.8658 5.13477L7.5625 6.91098Z" fill="#2F2FE9" fill-opacity="0.5"/>
</svg>
