<svg width="16" height="16" viewBox="0 0 16 16" fill="none" xmlns="http://www.w3.org/2000/svg">
<path fill-rule="evenodd" clip-rule="evenodd" d="M5.33333 5.33333C4.11733 5.33333 3.2 4.112 3.2 2.66667C3.2 1.22133 4.11733 0 5.33333 0C6.54933 0 7.46667 1.22133 7.46667 2.66667C7.46667 4.112 6.54933 5.33333 5.33333 5.33333ZM2.13333 9.6C0.917333 9.6 0 8.37867 0 6.93333C0 5.488 0.917333 4.26667 2.13333 4.26667C3.34933 4.26667 4.26667 5.488 4.26667 6.93333C4.26667 8.37867 3.34933 9.6 2.13333 9.6ZM13.8667 9.6C12.6507 9.6 11.7333 8.37867 11.7333 6.93333C11.7333 5.488 12.6507 4.26667 13.8667 4.26667C15.0827 4.26667 16 5.488 16 6.93333C16 8.37867 15.0827 9.6 13.8667 9.6ZM8.7424 5.44427C7.34187 5.03253 5.86133 5.7984 5.43573 7.15413H5.43467L4.86933 8.9568C4.66221 9.61622 4.29799 10.2154 3.808 10.7029L2.8832 11.6235C2.31156 12.1869 2.0436 12.9896 2.16213 13.7835C2.3744 15.1861 3.7216 16.1557 5.17013 15.9488L7.46667 14.9867C7.8197 14.9268 8.1803 14.9268 8.53333 14.9867L10.8075 15.9691C11.5735 16.0858 12.3529 15.8696 12.9493 15.3749C13.4792 14.9404 13.8081 14.3079 13.8595 13.6246C13.9109 12.9413 13.6803 12.2667 13.2213 11.7579L12.128 10.5344C11.7902 10.156 11.5225 9.72038 11.3376 9.248L10.4523 6.99093C10.1611 6.2464 9.5296 5.67573 8.7424 5.44427ZM8.43413 6.46613C8.89893 6.59779 9.27686 6.93675 9.45813 7.38453V7.38667L10.4672 9.872C10.6538 10.3315 10.9191 10.7549 11.2512 11.1232L12.4128 12.4128C12.6877 12.7144 12.8261 13.116 12.7954 13.523C12.7647 13.9299 12.5677 14.3062 12.2507 14.5632C11.8976 14.8555 11.4283 14.9845 10.9664 14.9163C9.83147 14.2859 9.13173 13.952 8.8672 13.9147C8.30539 13.8587 7.73941 13.8587 7.1776 13.9147C6.91307 13.952 6.19413 14.2795 5.01973 14.8949C4.15147 15.0165 3.34507 14.4405 3.21707 13.6085C3.14614 13.1359 3.3069 12.658 3.64907 12.3243L4.7456 11.2427C5.23912 10.7552 5.60635 10.1547 5.81547 9.49333L6.45227 7.4816C6.7072 6.67627 7.59467 6.2208 8.43413 6.46613ZM14.9333 6.93333C14.9333 7.84533 14.4171 8.53333 13.8667 8.53333C13.3163 8.53333 12.8 7.84533 12.8 6.93333C12.8 6.02133 13.3163 5.33333 13.8667 5.33333C14.4171 5.33333 14.9333 6.02133 14.9333 6.93333ZM3.2 6.93333C3.2 7.84533 2.68373 8.53333 2.13333 8.53333C1.58293 8.53333 1.06667 7.84533 1.06667 6.93333C1.06667 6.02133 1.58293 5.33333 2.13333 5.33333C2.68373 5.33333 3.2 6.02133 3.2 6.93333ZM6.4 2.66667C6.4 3.57867 5.88373 4.26667 5.33333 4.26667C4.78293 4.26667 4.26667 3.57867 4.26667 2.66667C4.26667 1.75467 4.78293 1.06667 5.33333 1.06667C5.88373 1.06667 6.4 1.75467 6.4 2.66667ZM10.6667 5.33333C9.45067 5.33333 8.53333 4.112 8.53333 2.66667C8.53333 1.22133 9.45067 0 10.6667 0C11.8827 0 12.8 1.22133 12.8 2.66667C12.8 4.112 11.8827 5.33333 10.6667 5.33333ZM11.7333 2.66667C11.7333 3.57867 11.2171 4.26667 10.6667 4.26667C10.1163 4.26667 9.6 3.57867 9.6 2.66667C9.6 1.75467 10.1163 1.06667 10.6667 1.06667C11.2171 1.06667 11.7333 1.75467 11.7333 2.66667Z" fill="#2F2FE9"/>
</svg>
