<svg width="80" height="81" viewBox="0 0 80 81" fill="none" xmlns="http://www.w3.org/2000/svg">
<g id="icons/done">
<path id="Combined Shape" fill-rule="evenodd" clip-rule="evenodd" d="M0.220459 40.0502C0.220459 62.1663 18.0274 80.1004 40 80.1004C61.9727 80.1004 79.7796 62.1663 79.7796 40.0502C79.7796 17.9341 61.9727 0 40 0C18.0274 0 0.220459 17.9341 0.220459 40.0502ZM75.9906 40.0507C75.9906 60.0805 59.8739 76.3124 39.9996 76.3124C20.1253 76.3124 4.00854 60.0805 4.00854 40.0507C4.00854 20.021 20.1253 3.78906 39.9996 3.78906C59.8739 3.78906 75.9906 20.021 75.9906 40.0507Z" fill="#0E9D4C"/>
<path id="ion-android-done - Ionicons" fill-rule="evenodd" clip-rule="evenodd" d="M34.7252 47.3922L55.3909 26.7266L58.2661 29.5119L34.7252 52.963L23.7634 42.0012L26.6387 39.2158L34.7252 47.3922Z" fill="#0E9D4C" fill-opacity="0.5"/>
</g>
</svg>
