<svg width="372" height="202" viewBox="0 0 372 202" fill="none" xmlns="http://www.w3.org/2000/svg">
<path fill-rule="evenodd" clip-rule="evenodd" d="M99.2712 0C87.8867 0 77.7209 5.23994 71.0349 13.4492C67.4683 10.8551 63.0825 9.32578 58.3409 9.32578C48.8125 9.32578 40.7204 15.5018 37.8179 24.0849C35.8167 23.4715 33.6917 23.1418 31.4899 23.1418C19.5225 23.1418 9.82094 32.8841 9.82094 44.9019C9.82094 45.285 9.8308 45.6658 9.85027 46.044L162.192 46.0439C161.709 35.9843 153.434 27.9774 143.297 27.9774C140.363 27.9774 137.585 28.648 135.107 29.845C131.947 12.8575 117.104 0 99.2712 0Z" fill="url(#paint0_linear_608_9978)"/>
<path fill-rule="evenodd" clip-rule="evenodd" d="M308.344 14.2578C298.284 14.2578 289.301 18.892 283.393 26.1521C280.241 23.8579 276.366 22.5054 272.176 22.5054C263.756 22.5054 256.605 27.9673 254.04 35.5581C252.272 35.0157 250.394 34.724 248.449 34.724C237.874 34.724 229.301 43.34 229.301 53.9684C229.301 54.2993 229.309 54.6282 229.325 54.9549L363.944 54.9548C363.505 46.0693 356.198 39.0006 347.248 39.0006C344.656 39.0006 342.201 39.5937 340.011 40.6523C337.219 25.6287 324.103 14.2578 308.344 14.2578Z" fill="url(#paint1_linear_608_9978)"/>
<path fill-rule="evenodd" clip-rule="evenodd" d="M146.003 23.0215C135.943 23.0215 126.96 27.6556 121.052 34.9158C117.901 32.6216 114.025 31.2691 109.835 31.2691C101.415 31.2691 94.2646 36.731 91.6996 44.3218C89.9313 43.7794 88.0535 43.4877 86.1079 43.4877C75.5327 43.4877 66.9599 52.1037 66.9599 62.7321C66.9599 63.0629 66.9682 63.3918 66.9846 63.7186L201.603 63.7185C201.164 54.833 193.857 47.7642 184.907 47.7642C182.315 47.7642 179.86 48.3574 177.67 49.4159C174.878 34.3924 161.762 23.0215 146.003 23.0215Z" fill="url(#paint2_linear_608_9978)"/>
<path fill-rule="evenodd" clip-rule="evenodd" d="M248.135 17.6758C227.013 17.6758 208.13 27.3117 195.597 42.4497L195.22 42.9094L195.02 42.7652C188.371 37.9859 180.227 35.1735 171.43 35.1735C153.751 35.1735 138.712 46.5307 133.135 62.3838L132.969 62.8645L132.769 62.8039C129.076 61.6929 125.162 61.0961 121.109 61.0961C98.6819 61.0961 80.5006 79.3754 80.5006 101.924C80.5006 102.611 80.5175 103.293 80.5508 103.971L366.048 103.971C365.095 85.1415 349.608 70.169 330.642 70.169C325.205 70.169 320.054 71.3995 315.449 73.5987L315.296 73.6721L315.112 72.7188C308.815 41.3198 281.221 17.6758 248.135 17.6758Z" fill="url(#paint3_linear_608_9978)"/>
<path fill-rule="evenodd" clip-rule="evenodd" d="M194.513 63.2734C184.453 63.2734 175.47 67.9076 169.561 75.1677C166.41 72.8736 162.534 71.521 158.344 71.521C149.924 71.521 142.774 76.9829 140.209 84.5737C138.441 84.0313 136.563 83.7397 134.617 83.7397C124.042 83.7397 115.469 92.3557 115.469 102.984C115.469 103.315 115.477 103.644 115.494 103.971L250.112 103.97C249.674 95.085 242.366 88.0162 233.417 88.0162C230.824 88.0162 228.37 88.6093 226.18 89.6679C223.387 74.6443 210.271 63.2734 194.513 63.2734Z" fill="url(#paint4_linear_608_9978)"/>
<path fill-rule="evenodd" clip-rule="evenodd" d="M266.129 119.418C275.837 119.418 283.964 125.619 286.044 133.933C288.745 132.726 291.78 132.049 294.988 132.049C303.051 132.049 310.024 136.327 313.347 142.54C314.409 142.258 315.533 142.106 316.696 142.106C322.619 142.106 327.54 146.035 328.521 151.203H203.736C204.717 146.035 209.639 142.106 215.562 142.106C217.392 142.106 219.126 142.481 220.678 143.152C223.742 136.36 231.046 131.581 239.568 131.581C242.028 131.581 244.385 131.979 246.569 132.708C249.106 125.018 256.904 119.418 266.129 119.418Z" fill="url(#paint5_linear_608_9978)"/>
<path fill-rule="evenodd" clip-rule="evenodd" d="M91.3475 66.541C79.7404 66.541 69.3759 71.8873 62.5593 80.263C58.9231 77.6164 54.4515 76.056 49.6172 76.056C39.9026 76.056 31.6524 82.3572 28.6931 91.1144C26.6528 90.4887 24.4862 90.1522 22.2414 90.1522C10.04 90.1522 0.148895 100.092 0.148895 112.354C0.148895 112.73 0.158218 113.104 0.176651 113.476L155.496 113.476C154.982 103.233 146.555 95.0859 136.234 95.0859C133.243 95.0859 130.411 95.7702 127.884 96.9914C124.662 79.6593 109.529 66.541 91.3475 66.541Z" fill="url(#paint6_linear_608_9978)"/>
<path fill-rule="evenodd" clip-rule="evenodd" d="M259.839 101.742C247.411 101.742 236.314 107.46 229.015 116.419C225.122 113.588 220.334 111.919 215.158 111.919C204.757 111.919 195.923 118.659 192.754 128.026C190.57 127.356 188.25 126.996 185.847 126.996C172.782 126.996 162.192 137.628 162.192 150.743C162.192 151.196 162.205 151.647 162.23 152.094L328.531 152.094C328.056 141.067 319.001 132.273 307.899 132.273C304.697 132.273 301.664 133.005 298.959 134.311C295.509 115.773 279.307 101.742 259.839 101.742Z" fill="url(#paint7_linear_608_9978)"/>
<path fill-rule="evenodd" clip-rule="evenodd" d="M111.863 101.742C124.291 101.742 135.388 107.46 142.687 116.419C146.58 113.588 151.368 111.919 156.544 111.919C166.946 111.919 175.779 118.659 178.948 128.026C181.132 127.356 183.452 126.996 185.856 126.996C198.92 126.996 209.51 137.628 209.51 150.743C209.51 151.196 209.498 151.647 209.473 152.094L43.1714 152.094C43.6464 141.067 52.7016 132.273 63.8028 132.273C67.0054 132.273 70.0378 133.005 72.743 134.311C76.1927 115.773 92.3956 101.742 111.863 101.742Z" fill="url(#paint8_linear_608_9978)"/>
<path fill-rule="evenodd" clip-rule="evenodd" d="M76.2711 163.167L76.2711 167.351L39.5806 186.107H142.997L97.0909 162.64L97.0908 159.899C97.0908 157.155 95.3965 154.806 92.9952 153.838L92.9951 152.165C92.9951 149.342 90.703 147.054 87.8755 147.054V141.251C87.8755 140.594 87.3425 140.062 86.6851 140.062H83.9463C83.2889 140.062 82.7559 140.594 82.7559 141.251L82.7558 153.944C78.9741 155.307 76.2711 158.922 76.2711 163.167Z" fill="#FFE38E"/>
<path fill-rule="evenodd" clip-rule="evenodd" d="M355.033 118.676C355.529 118.676 355.93 119.075 355.93 119.568V144.52H355.781L355.781 149.071C362.349 150.611 367.239 156.507 367.239 163.545V180.016C367.239 180.586 367.07 181.117 366.779 181.561L372 186.108H278.703L303.85 172.881V161.166C303.85 155.557 308.857 150.999 315.073 150.908L315.261 150.907H330.466C331.088 150.907 331.692 150.974 332.271 151.1L332.271 143.319C332.271 139.635 335.268 136.648 338.965 136.648H344.026V130.961C344.026 127.736 346.638 125.115 349.879 125.063L349.978 125.063V119.568C349.978 119.075 350.379 118.676 350.874 118.676H355.033Z" fill="#FFE38E"/>
<path fill-rule="evenodd" clip-rule="evenodd" d="M262.781 135.459C264.014 135.459 265.013 137.68 265.013 139.321C265.013 140.961 264.014 141.4 262.781 141.4C262.747 141.4 262.713 141.4 262.68 141.399C263.019 141.893 263.227 142.511 263.227 143.034C263.227 143.693 262.896 144.048 262.391 144.223C263.433 144.253 264.269 145.106 264.269 146.153H264.414C264.909 146.153 265.31 146.553 265.31 147.045V152.54C268.598 152.54 271.262 155.181 271.262 158.438V164.125H272.603C276.263 164.125 279.238 166.058 279.297 168.458L279.298 168.531V177.368L296.41 186.108H244.925C249.083 176.625 253.636 170.99 258.582 169.203C258.838 168.498 259.097 167.867 259.358 167.309L259.358 147.045C259.358 146.553 259.76 146.153 260.255 146.153H260.4C260.4 145.342 260.901 144.648 261.611 144.362C261.507 144.368 261.401 144.371 261.293 144.371C260.224 144.371 259.358 144.1 259.358 143.034C259.358 142.118 259.997 140.913 260.855 140.591C260.66 140.283 260.549 139.869 260.549 139.321C260.549 137.68 261.548 135.459 262.781 135.459Z" fill="#FFE38E"/>
<path fill-rule="evenodd" clip-rule="evenodd" d="M40.6224 101.445C42.0195 101.445 43.152 102.576 43.152 103.97V113.773H45.384C48.8356 113.773 51.6336 116.566 51.6336 120.011V138.132H54.1632C61.5668 138.132 67.5826 144.063 67.7022 151.425L67.704 151.648V159.975L119.04 186.107H0L22.7196 166.625C22.5585 166.27 22.4688 165.876 22.4688 165.461V152.985C22.4688 147.068 25.9347 141.96 30.9504 139.572L30.9504 126.511C30.8541 126.244 30.8016 125.956 30.8016 125.656V103.97C30.8016 102.576 31.9341 101.445 33.3312 101.445H40.6224Z" fill="#FFC30D"/>
<path d="M372 185.662H0V202H372V185.662Z" fill="#E8E7FF"/>
<path d="M372 185.662H0V188.039H372V185.662Z" fill="#2F2FE9" fill-opacity="0.59"/>
<path fill-rule="evenodd" clip-rule="evenodd" d="M121.008 96.8312L130.353 89.166V167.096H121.008V96.8312Z" fill="#2F2FE9" fill-opacity="0.59"/>
<path fill-rule="evenodd" clip-rule="evenodd" d="M129.841 57.8813L148.275 44.4531V167.097H129.841V57.8813Z" fill="#2F2FE9" fill-opacity="0.59"/>
<path fill-rule="evenodd" clip-rule="evenodd" d="M148.275 44.4531H165.685V167.097H148.275V44.4531Z" fill="#2F2FE9" fill-opacity="0.87"/>
<path d="M146.227 151H123.697V167.097H146.227V151Z" fill="#CECCFF"/>
<path d="M138.034 157.77H131.89V167.096H138.034V157.77Z" fill="#2F2FE9"/>
<path fill-rule="evenodd" clip-rule="evenodd" d="M131.89 59.5824L138.034 54.6738V148.701H131.89V59.5824Z" fill="#2F2FE9"/>
<path fill-rule="evenodd" clip-rule="evenodd" d="M140.083 53.0654L146.227 48.1582V148.701H140.083V53.0654Z" fill="#2F2FE9"/>
<path d="M162.996 90.1895H151.731V114.718H162.996V90.1895Z" fill="#370EA3"/>
<path d="M162.996 136.562H151.731V161.091H162.996V136.562Z" fill="#370EA3"/>
<path d="M162.996 74.7305H151.731V83.801H162.996V74.7305Z" fill="#370EA3"/>
<path d="M162.996 48.1582H151.731V68.2156H162.996V48.1582Z" fill="#370EA3"/>
<path fill-rule="evenodd" clip-rule="evenodd" d="M123.697 98.7488L129.841 93.6387V148.701H123.697V98.7488Z" fill="#CECCFF"/>
<path d="M162.996 121.105H151.731V130.176H162.996V121.105Z" fill="#FFC30D"/>
<path d="M193.058 114.498H164.232V156.402H193.058V114.498Z" fill="#2F2FE9" fill-opacity="0.59"/>
<path d="M192.088 82.6895H167.142V114.498H192.088V82.6895Z" fill="#2F2FE9" fill-opacity="0.59"/>
<path d="M191.257 51.8496H169.637V82.8281H191.257V51.8496Z" fill="#2F2FE9" fill-opacity="0.59"/>
<path d="M190.563 24.7441H171.715V51.5737H190.563V24.7441Z" fill="#2F2FE9" fill-opacity="0.59"/>
<path d="M207.471 114.498H193.058V156.402H207.471V114.498Z" fill="#2F2FE9"/>
<path d="M204.56 82.6895H192.088V114.498H204.56V82.6895Z" fill="#2F2FE9"/>
<path d="M202.066 51.8496H191.256V82.8281H202.066V51.8496Z" fill="#2F2FE9"/>
<path d="M199.987 24.7441H190.563V51.5737H199.987V24.7441Z" fill="#2F2FE9"/>
<path d="M190.84 146.307H166.449V156.402H190.84V146.307Z" fill="#2F2FE9" fill-opacity="0.87"/>
<path d="M203.868 85.041H194.721V90.5729H203.868V85.041Z" fill="#FFC30D"/>
<path d="M201.511 55.8613H193.473V60.5634H201.511V55.8613Z" fill="#FFC30D"/>
<path d="M203.868 95.5527H194.721V101.085H203.868V95.5527Z" fill="#370EA3"/>
<path d="M201.511 64.9883H193.473V69.6904H201.511V64.9883Z" fill="#370EA3"/>
<path d="M199.432 36.2227H192.503V40.3716H199.432V36.2227Z" fill="#370EA3"/>
<path d="M203.868 106.062H194.721V111.594H203.868V106.062Z" fill="#370EA3"/>
<path d="M201.511 74.1152H193.473V78.8173H201.511V74.1152Z" fill="#370EA3"/>
<path d="M199.432 44.1055H192.503V48.2544H199.432V44.1055Z" fill="#370EA3"/>
<path d="M206.501 116.988H196.107V123.35H206.501V116.988Z" fill="#370EA3"/>
<path d="M206.501 126.531H196.107V132.893H206.501V126.531Z" fill="#370EA3"/>
<path d="M206.501 135.936H196.107V142.297H206.501V135.936Z" fill="#370EA3"/>
<path d="M206.501 146.307H196.107V156.402H206.501V146.307Z" fill="#370EA3"/>
<path d="M190.148 85.041H169.082V90.5729H190.148V85.041Z" fill="#2F2FE9"/>
<path d="M189.593 55.8613H171.299V60.5634H189.593V55.8613Z" fill="#FFC30D"/>
<path d="M190.148 95.5527H169.082V101.085H190.148V95.5527Z" fill="#2F2FE9"/>
<path d="M189.593 64.9883H171.299V69.6904H189.593V64.9883Z" fill="#2F2FE9"/>
<path d="M189.039 36.2227H173.24V40.3716H189.039V36.2227Z" fill="#2F2FE9"/>
<path d="M190.148 106.062H169.082V111.594H190.148V106.062Z" fill="#2F2FE9"/>
<path d="M189.593 74.1152H171.299V78.8173H189.593V74.1152Z" fill="#2F2FE9"/>
<path d="M189.039 44.1055H173.24V48.2544H189.039V44.1055Z" fill="#2F2FE9"/>
<path d="M190.84 116.988H166.449V123.35H190.84V116.988Z" fill="#2F2FE9"/>
<path d="M190.84 126.531H166.449V132.893H190.84V126.531Z" fill="#2F2FE9"/>
<path d="M190.84 135.936H166.449V142.297H190.84V135.936Z" fill="#2F2FE9"/>
<path d="M190.84 146.307H184.188V156.402H190.84V146.307Z" fill="#FFC30D"/>
<path d="M193.058 81.8613H166.172V83.7975H193.058V81.8613Z" fill="#2F2FE9" fill-opacity="0.87"/>
<path d="M192.088 51.0195H168.805V52.6791H192.088V51.0195Z" fill="#2F2FE9" fill-opacity="0.87"/>
<path d="M194.166 113.393H163.123V115.605H194.166V113.393Z" fill="#2F2FE9" fill-opacity="0.87"/>
<path d="M205.531 81.8613H193.058V83.7975H205.531V81.8613Z" fill="#370EA3"/>
<path d="M202.897 51.0195H192.088V52.6791H202.897V51.0195Z" fill="#370EA3"/>
<path d="M208.58 113.393H194.167V115.605H208.58V113.393Z" fill="#370EA3"/>
<path d="M199.432 28.2012H192.503V32.3501H199.432V28.2012Z" fill="#FFC30D"/>
<path d="M189.039 28.2012H173.24V32.3501H189.039V28.2012Z" fill="#FFC30D"/>
<path d="M191.256 23.9141H171.022V25.297H191.256V23.9141Z" fill="#2F2FE9" fill-opacity="0.87"/>
<path d="M200.68 23.9141H191.256V25.297H200.68V23.9141Z" fill="#370EA3"/>
<path d="M241.956 64.9316H237.347V70.9442H241.956V64.9316Z" fill="#2F2FE9" fill-opacity="0.59"/>
<path d="M237.347 65.9551H233.763V70.9442H237.347V65.9551Z" fill="#2F2FE9" fill-opacity="0.59"/>
<path d="M244.516 64.9316H241.955V70.9442H244.516V64.9316Z" fill="#2F2FE9" fill-opacity="0.87"/>
<path d="M239.907 65.9551H237.347V70.9442H239.907V65.9551Z" fill="#2F2FE9" fill-opacity="0.87"/>
<path d="M236.067 68.7695H209.441V148.084H236.067V68.7695Z" fill="#2F2FE9" fill-opacity="0.59"/>
<path d="M253.476 68.7695H236.067V148.084H253.476V68.7695Z" fill="#2F2FE9" fill-opacity="0.87"/>
<path d="M217.633 138.873H211.489V148.084H217.633V138.873Z" fill="#2F2FE9"/>
<path d="M217.633 88.7266H211.489V95.8905H217.633V88.7266Z" fill="#2F2FE9"/>
<path d="M217.633 113.289H211.489V120.453H217.633V113.289Z" fill="#2F2FE9"/>
<path d="M217.633 73.8867H211.489V83.6092H217.633V73.8867Z" fill="#370EA3"/>
<path d="M217.633 101.008H211.489V108.172H217.633V101.008Z" fill="#2F2FE9"/>
<path d="M225.826 88.7266H219.682V95.8905H225.826V88.7266Z" fill="#2F2FE9"/>
<path d="M225.826 113.289H219.682V120.453H225.826V113.289Z" fill="#2F2FE9"/>
<path d="M225.826 73.8867H219.682V83.6092H225.826V73.8867Z" fill="#2F2FE9"/>
<path d="M225.826 101.008H219.682V108.172H225.826V101.008Z" fill="#2F2FE9"/>
<path d="M234.019 88.7266H227.874V95.8905H234.019V88.7266Z" fill="#CECCFF"/>
<path d="M234.019 113.289H227.874V120.453H234.019V113.289Z" fill="#2F2FE9"/>
<path d="M234.019 73.8867H227.874V83.6092H234.019V73.8867Z" fill="#2F2FE9"/>
<path d="M234.019 101.008H227.874V108.172H234.019V101.008Z" fill="#2F2FE9"/>
<path d="M250.788 88.7266H239.523V95.8905H250.788V88.7266Z" fill="#2F2FE9"/>
<path d="M250.788 113.289H239.523V120.453H250.788V113.289Z" fill="#2F2FE9"/>
<path d="M250.788 73.8867H239.523V83.6092H250.788V73.8867Z" fill="#2F2FE9"/>
<path d="M250.788 101.008H239.523V108.172H250.788V101.008Z" fill="#2F2FE9"/>
<path d="M217.633 125.57H211.489V132.734H217.633V125.57Z" fill="#CECCFF"/>
<path d="M225.826 125.57H219.682V132.734H225.826V125.57Z" fill="#2F2FE9"/>
<path d="M234.019 125.57H227.874V132.734H234.019V125.57Z" fill="#2F2FE9"/>
<path d="M250.788 125.57H239.523V132.734H250.788V125.57Z" fill="#FFC30D"/>
<path d="M234.019 138.873H219.682V146.037H234.019V138.873Z" fill="#370EA3"/>
<path d="M250.916 138.873H239.651V146.037H250.916V138.873Z" fill="#2F2FE9"/>
<path d="M237.091 68.7695H208.417V70.8164H237.091V68.7695Z" fill="#E8E7FF"/>
<path d="M254.501 68.7695H237.091V70.8164H254.501V68.7695Z" fill="#2F2FE9" fill-opacity="0.59"/>
<path fill-rule="evenodd" clip-rule="evenodd" d="M80.6494 139.916H106.243L110.707 156.997H76.1854L80.6494 139.916Z" fill="#2F2FE9"/>
<path d="M94.0416 156.998H59.52V185.664H94.0416V156.998Z" fill="#CECCFF"/>
<path d="M110.707 156.998H94.0415V185.664H110.707V156.998Z" fill="#2F2FE9" fill-opacity="0.59"/>
<path d="M83.9234 171.256H62.645V185.663H83.9234V171.256Z" fill="#2F2FE9" fill-opacity="0.87"/>
<path d="M80.3519 153.135C80.3519 151.166 78.753 149.57 76.7807 149.57C74.8084 149.57 73.2095 151.166 73.2095 153.135C73.2095 155.104 74.8084 156.7 76.7807 156.7C78.753 156.7 80.3519 155.104 80.3519 153.135Z" fill="#CECCFF"/>
<path fill-rule="evenodd" clip-rule="evenodd" d="M63.984 139.916H89.5776L94.0416 156.997H59.52L63.984 139.916Z" fill="#2F2FE9" fill-opacity="0.87"/>
<path d="M84.8157 146.006H77.6733V153.135H84.8157V146.006Z" fill="#2F2FE9"/>
<path fill-rule="evenodd" clip-rule="evenodd" d="M97.1665 146.006H104.309L106.141 153.135H98.9982L97.1665 146.006Z" fill="#370EA3"/>
<path d="M74.6976 146.006H67.5552V153.135H74.6976V146.006Z" fill="#FFC30D"/>
<path d="M83.9234 160.562H62.645V167.692H83.9234V160.562Z" fill="#2F2FE9" fill-opacity="0.87"/>
<path d="M92.4049 160.562H85.5601V167.692H92.4049V160.562Z" fill="#2F2FE9" fill-opacity="0.87"/>
<path d="M108.327 160.562H97.1665V167.692H108.327V160.562Z" fill="#FFC30D"/>
<path d="M108.327 174.227H97.1665V181.356H108.327V174.227Z" fill="#2F2FE9"/>
<path d="M92.7025 174.227H85.5601V185.663H92.7025V174.227Z" fill="#2F2FE9"/>
<path fill-rule="evenodd" clip-rule="evenodd" d="M119.154 106.348C120.568 106.348 121.714 107.493 121.714 108.906V110.185H116.594V108.906C116.594 108.423 115.848 106.733 116.082 106.348H119.154Z" fill="#2F2FE9" fill-opacity="0.87"/>
<path d="M130.419 109.93H101.744V110.953H130.419V109.93Z" fill="#2F2FE9" fill-opacity="0.59"/>
<path d="M149.877 109.93H130.419V110.953H149.877V109.93Z" fill="#2F2FE9" fill-opacity="0.87"/>
<path fill-rule="evenodd" clip-rule="evenodd" d="M116.082 106.348C117.496 106.348 118.642 107.493 118.642 108.906V110.185H113.521V108.906C113.521 107.493 114.668 106.348 116.082 106.348Z" fill="#2F2FE9" fill-opacity="0.59"/>
<path d="M116.082 109.418C116.647 109.418 117.106 108.96 117.106 108.395C117.106 107.829 116.647 107.371 116.082 107.371C115.516 107.371 115.058 107.829 115.058 108.395C115.058 108.96 115.516 109.418 116.082 109.418Z" fill="#2F2FE9" fill-opacity="0.87"/>
<path d="M129.396 110.953H102.77V185.662H129.396V110.953Z" fill="#E8E7FF"/>
<path d="M106.865 117.861C107.713 117.861 108.401 117.174 108.401 116.326C108.401 115.478 107.713 114.791 106.865 114.791C106.016 114.791 105.329 115.478 105.329 116.326C105.329 117.174 106.016 117.861 106.865 117.861Z" fill="#2F2FE9" fill-opacity="0.59"/>
<path d="M113.01 117.861C113.858 117.861 114.546 117.174 114.546 116.326C114.546 115.478 113.858 114.791 113.01 114.791C112.161 114.791 111.474 115.478 111.474 116.326C111.474 117.174 112.161 117.861 113.01 117.861Z" fill="#2F2FE9" fill-opacity="0.59"/>
<path d="M119.154 117.861C120.002 117.861 120.69 117.174 120.69 116.326C120.69 115.478 120.002 114.791 119.154 114.791C118.305 114.791 117.618 115.478 117.618 116.326C117.618 117.174 118.305 117.861 119.154 117.861Z" fill="#2F2FE9" fill-opacity="0.59"/>
<path d="M125.298 117.861C126.147 117.861 126.834 117.174 126.834 116.326C126.834 115.478 126.147 114.791 125.298 114.791C124.45 114.791 123.762 115.478 123.762 116.326C123.762 117.174 124.45 117.861 125.298 117.861Z" fill="#2F2FE9" fill-opacity="0.59"/>
<path d="M148.853 110.953H129.395V185.662H148.853V110.953Z" fill="#CECCFF"/>
<path fill-rule="evenodd" clip-rule="evenodd" d="M106.865 150.098C107.996 150.098 108.913 151.014 108.913 152.144V156.238H104.817V152.144C104.817 151.014 105.734 150.098 106.865 150.098Z" fill="#2F2FE9" fill-opacity="0.87"/>
<path fill-rule="evenodd" clip-rule="evenodd" d="M119.154 150.098C120.285 150.098 121.202 151.014 121.202 152.144V156.238H117.106V152.144C117.106 151.014 118.023 150.098 119.154 150.098Z" fill="#2F2FE9" fill-opacity="0.87"/>
<path fill-rule="evenodd" clip-rule="evenodd" d="M132.979 150.098C134.111 150.098 135.028 151.014 135.028 152.144V156.238H130.931V152.144C130.931 151.014 131.848 150.098 132.979 150.098Z" fill="#2F2FE9"/>
<path fill-rule="evenodd" clip-rule="evenodd" d="M113.009 150.098C114.141 150.098 115.058 151.014 115.058 152.144V156.238H110.961V152.144C110.961 151.014 111.878 150.098 113.009 150.098Z" fill="#2F2FE9" fill-opacity="0.87"/>
<path fill-rule="evenodd" clip-rule="evenodd" d="M125.298 150.098C126.429 150.098 127.346 151.014 127.346 152.144V156.238H123.25V152.144C123.25 151.014 124.167 150.098 125.298 150.098Z" fill="#2F2FE9" fill-opacity="0.87"/>
<path fill-rule="evenodd" clip-rule="evenodd" d="M139.124 150.098C140.255 150.098 141.172 151.014 141.172 152.144V156.238H137.075V152.144C137.075 151.014 137.992 150.098 139.124 150.098Z" fill="#2F2FE9"/>
<path fill-rule="evenodd" clip-rule="evenodd" d="M145.268 150.098C146.399 150.098 147.316 151.014 147.316 152.144V156.238H143.22V152.144C143.22 151.014 144.137 150.098 145.268 150.098Z" fill="#2F2FE9"/>
<path d="M130.419 155.982H101.744V157.006H130.419V155.982Z" fill="#2F2FE9" fill-opacity="0.59"/>
<path d="M149.877 155.982H130.419V157.006H149.877V155.982Z" fill="#2F2FE9" fill-opacity="0.87"/>
<path fill-rule="evenodd" clip-rule="evenodd" d="M106.865 137.051C107.996 137.051 108.913 137.967 108.913 139.098V143.191H104.817V139.098C104.817 137.967 105.734 137.051 106.865 137.051Z" fill="#2F2FE9" fill-opacity="0.87"/>
<path fill-rule="evenodd" clip-rule="evenodd" d="M119.154 137.051C120.285 137.051 121.202 137.967 121.202 139.098V143.191H117.106V139.098C117.106 137.967 118.023 137.051 119.154 137.051Z" fill="#2F2FE9" fill-opacity="0.87"/>
<path fill-rule="evenodd" clip-rule="evenodd" d="M132.979 137.051C134.111 137.051 135.028 137.967 135.028 139.098V143.191H130.931V139.098C130.931 137.967 131.848 137.051 132.979 137.051Z" fill="#2F2FE9"/>
<path fill-rule="evenodd" clip-rule="evenodd" d="M113.009 137.051C114.141 137.051 115.058 137.967 115.058 139.098V143.191H110.961V139.098C110.961 137.967 111.878 137.051 113.009 137.051Z" fill="#FFC30D"/>
<path fill-rule="evenodd" clip-rule="evenodd" d="M125.298 137.051C126.429 137.051 127.346 137.967 127.346 139.098V143.191H123.25V139.098C123.25 137.967 124.167 137.051 125.298 137.051Z" fill="#2F2FE9" fill-opacity="0.87"/>
<path fill-rule="evenodd" clip-rule="evenodd" d="M139.124 137.051C140.255 137.051 141.172 137.967 141.172 139.098V143.191H137.075V139.098C137.075 137.967 137.992 137.051 139.124 137.051Z" fill="#2F2FE9" fill-opacity="0.87"/>
<path fill-rule="evenodd" clip-rule="evenodd" d="M145.268 137.051C146.399 137.051 147.316 137.967 147.316 139.098V143.191H143.22V139.098C143.22 137.967 144.137 137.051 145.268 137.051Z" fill="#2F2FE9" fill-opacity="0.87"/>
<path d="M130.419 142.936H101.744V143.959H130.419V142.936Z" fill="#2F2FE9" fill-opacity="0.59"/>
<path d="M149.877 142.936H130.419V143.959H149.877V142.936Z" fill="#2F2FE9" fill-opacity="0.87"/>
<path fill-rule="evenodd" clip-rule="evenodd" d="M106.865 124.002C107.996 124.002 108.913 124.918 108.913 126.049V130.142H104.817V126.049C104.817 124.918 105.734 124.002 106.865 124.002Z" fill="#2F2FE9" fill-opacity="0.87"/>
<path fill-rule="evenodd" clip-rule="evenodd" d="M119.154 124.002C120.285 124.002 121.202 124.918 121.202 126.049V130.142H117.106V126.049C117.106 124.918 118.023 124.002 119.154 124.002Z" fill="#2F2FE9" fill-opacity="0.87"/>
<path fill-rule="evenodd" clip-rule="evenodd" d="M132.979 124.002C134.111 124.002 135.028 124.918 135.028 126.049V130.142H130.931V126.049C130.931 124.918 131.848 124.002 132.979 124.002Z" fill="#2F2FE9"/>
<path fill-rule="evenodd" clip-rule="evenodd" d="M113.009 124.002C114.141 124.002 115.058 124.918 115.058 126.049V130.142H110.961V126.049C110.961 124.918 111.878 124.002 113.009 124.002Z" fill="#2F2FE9" fill-opacity="0.87"/>
<path fill-rule="evenodd" clip-rule="evenodd" d="M125.298 124.002C126.429 124.002 127.346 124.918 127.346 126.049V130.142H123.25V126.049C123.25 124.918 124.167 124.002 125.298 124.002Z" fill="#2F2FE9"/>
<path fill-rule="evenodd" clip-rule="evenodd" d="M139.124 124.002C140.255 124.002 141.172 124.918 141.172 126.049V130.142H137.075V126.049C137.075 124.918 137.992 124.002 139.124 124.002Z" fill="#2F2FE9"/>
<path fill-rule="evenodd" clip-rule="evenodd" d="M145.268 124.002C146.399 124.002 147.316 124.918 147.316 126.049V130.142H143.22V126.049C143.22 124.918 144.137 124.002 145.268 124.002Z" fill="#2F2FE9"/>
<path d="M130.419 129.887H101.744V130.91H130.419V129.887Z" fill="#2F2FE9" fill-opacity="0.59"/>
<path d="M149.877 129.887H130.419V130.91H149.877V129.887Z" fill="#2F2FE9" fill-opacity="0.87"/>
<path fill-rule="evenodd" clip-rule="evenodd" d="M106.865 163.146C107.996 163.146 108.913 164.063 108.913 165.193V169.287H104.817V165.193C104.817 164.063 105.734 163.146 106.865 163.146Z" fill="#2F2FE9"/>
<path fill-rule="evenodd" clip-rule="evenodd" d="M132.979 163.146C134.111 163.146 135.028 164.063 135.028 165.193V169.287H130.931V165.193C130.931 164.063 131.848 163.146 132.979 163.146Z" fill="#2F2FE9" fill-opacity="0.87"/>
<path fill-rule="evenodd" clip-rule="evenodd" d="M119.154 163.146C120.285 163.146 121.202 164.063 121.202 165.193V169.287H117.106V165.193C117.106 164.063 118.023 163.146 119.154 163.146Z" fill="#2F2FE9" fill-opacity="0.87"/>
<path fill-rule="evenodd" clip-rule="evenodd" d="M113.01 163.146C114.141 163.146 115.058 164.063 115.058 165.193V169.287H110.961V165.193C110.961 164.063 111.878 163.146 113.01 163.146Z" fill="#2F2FE9" fill-opacity="0.87"/>
<path fill-rule="evenodd" clip-rule="evenodd" d="M139.123 163.146C140.255 163.146 141.172 164.063 141.172 165.193V169.287H137.075V165.193C137.075 164.063 137.992 163.146 139.123 163.146Z" fill="#2F2FE9"/>
<path fill-rule="evenodd" clip-rule="evenodd" d="M125.298 163.146C126.429 163.146 127.346 164.063 127.346 165.193V169.287H123.25V165.193C123.25 164.063 124.167 163.146 125.298 163.146Z" fill="#2F2FE9" fill-opacity="0.87"/>
<path d="M149.877 169.287H130.419V170.311H149.877V169.287Z" fill="#2F2FE9" fill-opacity="0.87"/>
<path d="M130.419 169.287H101.744V170.311H130.419V169.287Z" fill="#2F2FE9" fill-opacity="0.59"/>
<path fill-rule="evenodd" clip-rule="evenodd" d="M116.018 176.451C117.396 176.451 118.514 177.568 118.514 178.946V185.662H113.521V178.946C113.521 177.568 114.639 176.451 116.018 176.451Z" fill="#2F2FE9" fill-opacity="0.87"/>
<path d="M111.73 176.451H104.817V183.615H111.73V176.451Z" fill="#2F2FE9" fill-opacity="0.87"/>
<path d="M127.347 176.451H120.434V183.615H127.347V176.451Z" fill="#2F2FE9" fill-opacity="0.87"/>
<path d="M145.781 176.451H132.467V183.615H145.781V176.451Z" fill="#2F2FE9"/>
<path d="M132.979 117.861C133.827 117.861 134.515 117.174 134.515 116.326C134.515 115.478 133.827 114.791 132.979 114.791C132.131 114.791 131.443 115.478 131.443 116.326C131.443 117.174 132.131 117.861 132.979 117.861Z" fill="#2F2FE9" fill-opacity="0.87"/>
<path d="M139.124 117.861C139.972 117.861 140.66 117.174 140.66 116.326C140.66 115.478 139.972 114.791 139.124 114.791C138.275 114.791 137.587 115.478 137.587 116.326C137.587 117.174 138.275 117.861 139.124 117.861Z" fill="#2F2FE9" fill-opacity="0.87"/>
<path fill-rule="evenodd" clip-rule="evenodd" d="M145.268 163.146C146.4 163.146 147.317 164.063 147.317 165.193V169.287H143.22V165.193C143.22 164.063 144.137 163.146 145.268 163.146Z" fill="#2F2FE9"/>
<path d="M145.269 117.861C146.117 117.861 146.805 117.174 146.805 116.326C146.805 115.478 146.117 114.791 145.269 114.791C144.42 114.791 143.732 115.478 143.732 116.326C143.732 117.174 144.42 117.861 145.269 117.861Z" fill="#2F2FE9" fill-opacity="0.87"/>
<path d="M173.006 100.719C173.006 100.012 172.433 99.4395 171.726 99.4395C171.019 99.4395 170.446 100.012 170.446 100.719V108.906C170.446 109.613 171.019 110.185 171.726 110.185C172.433 110.185 173.006 109.613 173.006 108.906V100.719Z" fill="#2F2FE9" fill-opacity="0.59"/>
<path d="M176.591 100.719C176.591 100.012 176.018 99.4395 175.311 99.4395C174.604 99.4395 174.03 100.012 174.03 100.719V108.906C174.03 109.613 174.604 110.185 175.311 110.185C176.018 110.185 176.591 109.613 176.591 108.906V100.719Z" fill="#2F2FE9" fill-opacity="0.59"/>
<path d="M177.615 106.348H140.747V185.662H177.615V106.348Z" fill="#CECCFF"/>
<path d="M190.928 106.348H177.615V185.662H190.928V106.348Z" fill="#2F2FE9" fill-opacity="0.59"/>
<path d="M161.229 176.451H155.085V185.662H161.229V176.451Z" fill="#2F2FE9"/>
<path d="M173.518 126.305H142.796V133.469H173.518V126.305Z" fill="#2F2FE9" fill-opacity="0.87"/>
<path d="M173.518 114.023H142.796V121.187H173.518V114.023Z" fill="#2F2FE9" fill-opacity="0.87"/>
<path d="M173.518 150.867H142.796V158.031H173.518V150.867Z" fill="#2F2FE9" fill-opacity="0.87"/>
<path d="M173.518 138.586H142.796V145.75H173.518V138.586Z" fill="#2F2FE9" fill-opacity="0.87"/>
<path d="M187.216 126.305H181.071V133.469H187.216V126.305Z" fill="#FFC30D"/>
<path d="M187.216 150.867H181.071V158.031H187.216V150.867Z" fill="#2F2FE9"/>
<path d="M187.216 113.512H181.071V121.187H187.216V113.512Z" fill="#2F2FE9"/>
<path d="M187.216 138.586H181.071V145.75H187.216V138.586Z" fill="#2F2FE9"/>
<path d="M173.518 163.146H142.796V170.31H173.518V163.146Z" fill="#2F2FE9" fill-opacity="0.87"/>
<path d="M187.216 163.146H181.071V170.31H187.216V163.146Z" fill="#2F2FE9"/>
<path d="M173.518 176.451H165.325V183.615H173.518V176.451Z" fill="#2F2FE9" fill-opacity="0.87"/>
<path d="M150.988 176.451H142.796V183.615H150.988V176.451Z" fill="#2F2FE9" fill-opacity="0.87"/>
<path d="M178.639 104.301H139.723V108.394H178.639V104.301Z" fill="#E8E7FF"/>
<path d="M191.952 104.301H178.638V108.394H191.952V104.301Z" fill="#CECCFF"/>
<path d="M213.331 100.719C213.331 100.012 212.758 99.4395 212.051 99.4395C211.344 99.4395 210.771 100.012 210.771 100.719V108.906C210.771 109.613 211.344 110.185 212.051 110.185C212.758 110.185 213.331 109.613 213.331 108.906V100.719Z" fill="#2F2FE9" fill-opacity="0.59"/>
<path d="M216.916 100.719C216.916 100.012 216.342 99.4395 215.635 99.4395C214.928 99.4395 214.355 100.012 214.355 100.719V108.906C214.355 109.613 214.928 110.185 215.635 110.185C216.342 110.185 216.916 109.613 216.916 108.906V100.719Z" fill="#2F2FE9" fill-opacity="0.59"/>
<path d="M217.941 106.348H181.073V185.662H217.941V106.348Z" fill="#CECCFF"/>
<path d="M231.253 106.348H217.94V185.662H231.253V106.348Z" fill="#2F2FE9" fill-opacity="0.59"/>
<path d="M201.554 176.451H195.41V185.662H201.554V176.451Z" fill="#2F2FE9"/>
<path d="M213.843 126.305H183.12V133.469H213.843V126.305Z" fill="#2F2FE9" fill-opacity="0.87"/>
<path d="M213.843 114.023H183.12V121.187H213.843V114.023Z" fill="#2F2FE9" fill-opacity="0.87"/>
<path d="M213.843 150.867H183.12V158.031H213.843V150.867Z" fill="#2F2FE9" fill-opacity="0.87"/>
<path d="M213.843 138.586H183.12V145.75H213.843V138.586Z" fill="#2F2FE9" fill-opacity="0.87"/>
<path d="M227.541 126.305H221.396V133.469H227.541V126.305Z" fill="#FFC30D"/>
<path d="M227.541 150.867H221.396V158.031H227.541V150.867Z" fill="#2F2FE9"/>
<path d="M227.541 113.512H221.396V121.187H227.541V113.512Z" fill="#2F2FE9"/>
<path d="M227.541 138.586H221.396V145.75H227.541V138.586Z" fill="#2F2FE9"/>
<path d="M213.843 163.146H183.12V170.31H213.843V163.146Z" fill="#2F2FE9" fill-opacity="0.87"/>
<path d="M227.541 163.146H221.396V170.31H227.541V163.146Z" fill="#2F2FE9"/>
<path d="M213.843 176.451H205.651V183.615H213.843V176.451Z" fill="#2F2FE9" fill-opacity="0.87"/>
<path d="M191.313 176.451H183.12V183.615H191.313V176.451Z" fill="#2F2FE9" fill-opacity="0.87"/>
<path d="M218.964 104.301H180.048V108.394H218.964V104.301Z" fill="#E8E7FF"/>
<path d="M232.277 104.301H218.964V108.394H232.277V104.301Z" fill="#CECCFF"/>
<path d="M257.967 106.348H221.099V185.662H257.967V106.348Z" fill="#2F2FE9" fill-opacity="0.87"/>
<path d="M253.87 171.463H223.147V185.663H253.87V171.463Z" fill="#2F2FE9" fill-opacity="0.59"/>
<path fill-rule="evenodd" clip-rule="evenodd" d="M229.164 165.449H247.854C251.177 165.449 253.87 168.141 253.87 171.462H223.147C223.147 168.141 225.841 165.449 229.164 165.449Z" fill="#2F2FE9"/>
<path d="M271.28 106.348H257.966V185.662H271.28V106.348Z" fill="#2F2FE9"/>
<path fill-rule="evenodd" clip-rule="evenodd" d="M238.509 173.381C240.206 173.381 241.581 174.755 241.581 176.451V185.662H235.437V176.451C235.437 174.755 236.812 173.381 238.509 173.381Z" fill="#2F2FE9"/>
<path fill-rule="evenodd" clip-rule="evenodd" d="M230.316 173.381C232.013 173.381 233.388 174.755 233.388 176.451V185.662H227.244V176.451C227.244 174.755 228.619 173.381 230.316 173.381Z" fill="#2F2FE9"/>
<path fill-rule="evenodd" clip-rule="evenodd" d="M246.702 173.381C248.398 173.381 249.774 174.755 249.774 176.451V185.662H243.629V176.451C243.629 174.755 245.005 173.381 246.702 173.381Z" fill="#2F2FE9"/>
<path fill-rule="evenodd" clip-rule="evenodd" d="M264.495 173.381C266.192 173.381 267.567 174.755 267.567 176.451V185.662H261.423V176.451C261.423 174.755 262.798 173.381 264.495 173.381Z" fill="#370EA3"/>
<path fill-rule="evenodd" clip-rule="evenodd" d="M226.22 111.465C227.917 111.465 229.292 112.839 229.292 114.535V163.147H223.147V114.535C223.147 112.839 224.523 111.465 226.22 111.465Z" fill="#CECCFF"/>
<path fill-rule="evenodd" clip-rule="evenodd" d="M234.413 111.465C236.109 111.465 237.485 112.839 237.485 114.535V163.147H231.34V114.535C231.34 112.839 232.716 111.465 234.413 111.465Z" fill="#CECCFF"/>
<path fill-rule="evenodd" clip-rule="evenodd" d="M242.605 111.465C244.302 111.465 245.677 112.839 245.677 114.535V163.147H239.533V114.535C239.533 112.839 240.908 111.465 242.605 111.465Z" fill="#CECCFF"/>
<path fill-rule="evenodd" clip-rule="evenodd" d="M250.798 111.465C252.495 111.465 253.87 112.839 253.87 114.535V163.147H247.726V114.535C247.726 112.839 249.101 111.465 250.798 111.465Z" fill="#FFC30D"/>
<path fill-rule="evenodd" clip-rule="evenodd" d="M264.495 111.465C266.192 111.465 267.567 112.839 267.567 114.535V163.147H261.423V114.535C261.423 112.839 262.798 111.465 264.495 111.465Z" fill="#2F2FE9" fill-opacity="0.59"/>
<path d="M258.991 104.301H220.075V108.394H258.991V104.301Z" fill="#2F2FE9"/>
<path d="M272.304 104.301H258.991V108.394H272.304V104.301Z" fill="#370EA3"/>
<path fill-rule="evenodd" clip-rule="evenodd" d="M277.958 139.916C279.602 139.916 280.934 141.246 280.934 142.887V144.372H274.982V142.887C274.982 142.325 274.116 140.364 274.387 139.916H277.958Z" fill="#2F2FE9" fill-opacity="0.87"/>
<path d="M289.863 145.264H258.912V185.664H289.863V145.264Z" fill="#E8E7FF"/>
<path d="M305.338 145.264H289.862V185.664H305.338V145.264Z" fill="#CECCFF"/>
<path fill-rule="evenodd" clip-rule="evenodd" d="M263.674 149.125C264.989 149.125 266.055 150.189 266.055 151.501V156.254H261.293V151.501C261.293 150.189 262.359 149.125 263.674 149.125Z" fill="#2F2FE9" fill-opacity="0.87"/>
<path fill-rule="evenodd" clip-rule="evenodd" d="M263.674 161.898C264.989 161.898 266.055 162.962 266.055 164.275V169.028H261.293V164.275C261.293 162.962 262.359 161.898 263.674 161.898Z" fill="#FFC30D"/>
<path fill-rule="evenodd" clip-rule="evenodd" d="M277.958 149.125C279.273 149.125 280.339 150.189 280.339 151.501V156.254H275.578V151.501C275.578 150.189 276.644 149.125 277.958 149.125Z" fill="#FFC30D"/>
<path fill-rule="evenodd" clip-rule="evenodd" d="M294.029 149.125C295.344 149.125 296.41 150.189 296.41 151.501V156.254H291.648V151.501C291.648 150.189 292.714 149.125 294.029 149.125Z" fill="#2F2FE9"/>
<path fill-rule="evenodd" clip-rule="evenodd" d="M294.029 161.898C295.344 161.898 296.41 162.962 296.41 164.275V169.028H291.648V164.275C291.648 162.962 292.714 161.898 294.029 161.898Z" fill="#2F2FE9"/>
<path fill-rule="evenodd" clip-rule="evenodd" d="M277.958 161.898C279.273 161.898 280.339 162.962 280.339 164.275V169.028H275.578V164.275C275.578 162.962 276.644 161.898 277.958 161.898Z" fill="#2F2FE9" fill-opacity="0.87"/>
<path fill-rule="evenodd" clip-rule="evenodd" d="M270.816 149.125C272.131 149.125 273.197 150.189 273.197 151.501V156.254H268.435V151.501C268.435 150.189 269.501 149.125 270.816 149.125Z" fill="#2F2FE9" fill-opacity="0.87"/>
<path fill-rule="evenodd" clip-rule="evenodd" d="M270.816 161.898C272.131 161.898 273.197 162.962 273.197 164.275V169.028H268.435V164.275C268.435 162.962 269.501 161.898 270.816 161.898Z" fill="#2F2FE9" fill-opacity="0.87"/>
<path fill-rule="evenodd" clip-rule="evenodd" d="M285.101 149.125C286.416 149.125 287.482 150.189 287.482 151.501V156.254H282.72V151.501C282.72 150.189 283.786 149.125 285.101 149.125Z" fill="#2F2FE9" fill-opacity="0.87"/>
<path fill-rule="evenodd" clip-rule="evenodd" d="M301.171 149.125C302.486 149.125 303.552 150.189 303.552 151.501V156.254H298.791V151.501C298.791 150.189 299.856 149.125 301.171 149.125Z" fill="#2F2FE9"/>
<path fill-rule="evenodd" clip-rule="evenodd" d="M301.171 161.898C302.486 161.898 303.552 162.962 303.552 164.275V169.028H298.791V164.275C298.791 162.962 299.856 161.898 301.171 161.898Z" fill="#2F2FE9"/>
<path fill-rule="evenodd" clip-rule="evenodd" d="M285.101 161.898C286.416 161.898 287.482 162.962 287.482 164.275V169.028H282.72V164.275C282.72 162.962 283.786 161.898 285.101 161.898Z" fill="#2F2FE9" fill-opacity="0.87"/>
<path d="M291.053 155.957H257.722V157.145H291.053V155.957Z" fill="#2F2FE9" fill-opacity="0.59"/>
<path d="M291.053 144.074H257.722V145.262H291.053V144.074Z" fill="#2F2FE9" fill-opacity="0.59"/>
<path d="M306.528 144.074H291.053V145.262H306.528V144.074Z" fill="#2F2FE9" fill-opacity="0.87"/>
<path d="M306.528 155.957H291.053V157.145H306.528V155.957Z" fill="#2F2FE9" fill-opacity="0.87"/>
<path d="M306.528 169.027H291.053V170.216H306.528V169.027Z" fill="#2F2FE9" fill-opacity="0.87"/>
<path d="M291.053 169.027H257.722V170.216H291.053V169.027Z" fill="#2F2FE9" fill-opacity="0.59"/>
<path fill-rule="evenodd" clip-rule="evenodd" d="M274.387 139.916C276.031 139.916 277.363 141.246 277.363 142.887V144.372H271.411V142.887C271.411 141.246 272.744 139.916 274.387 139.916Z" fill="#2F2FE9" fill-opacity="0.59"/>
<path fill-rule="evenodd" clip-rule="evenodd" d="M274.313 174.969C275.915 174.969 277.214 176.265 277.214 177.865V185.663H271.411V177.865C271.411 176.265 272.71 174.969 274.313 174.969Z" fill="#2F2FE9" fill-opacity="0.87"/>
<path d="M274.387 143.482C275.045 143.482 275.578 142.95 275.578 142.294C275.578 141.637 275.045 141.105 274.387 141.105C273.73 141.105 273.197 141.637 273.197 142.294C273.197 142.95 273.73 143.482 274.387 143.482Z" fill="#2F2FE9" fill-opacity="0.87"/>
<path d="M269.328 174.969H261.293V183.286H269.328V174.969Z" fill="#2F2FE9" fill-opacity="0.87"/>
<path d="M287.481 174.969H279.446V183.286H287.481V174.969Z" fill="#2F2FE9" fill-opacity="0.87"/>
<path d="M301.617 174.969H293.582V183.286H301.617V174.969Z" fill="#FFC30D"/>
<path fill-rule="evenodd" clip-rule="evenodd" d="M54.9826 188.631H84.9648C85.6222 188.631 86.1552 188.099 86.1552 187.443V185.512C86.1552 183.789 84.7561 182.393 83.0304 182.393H54.1085C53.7798 182.393 53.5133 182.659 53.5133 182.987C53.5133 183.016 53.5154 183.045 53.5197 183.073L54.2466 187.996C54.3004 188.361 54.6136 188.631 54.9826 188.631Z" fill="#2F2FE9" fill-opacity="0.87"/>
<path fill-rule="evenodd" clip-rule="evenodd" d="M68.2755 182.393H72.837H77.2505L76.325 178.65C76.243 178.318 75.9449 178.085 75.6027 178.085H69.2873C68.8978 178.085 68.5743 178.385 68.5454 178.773L68.2755 182.393Z" fill="#2F2FE9"/>
<path fill-rule="evenodd" clip-rule="evenodd" d="M57.6607 184.176H62.3473C63.9088 184.176 65.1745 185.439 65.1745 186.998V189.077C65.1745 189.487 64.8414 189.82 64.4305 189.82H55.552C55.3055 189.82 55.1056 189.62 55.1056 189.374C55.1056 189.359 55.1064 189.343 55.108 189.328L55.441 186.17C55.5606 185.037 56.5185 184.176 57.6607 184.176Z" fill="#2F2FE9" fill-opacity="0.59"/>
<path fill-rule="evenodd" clip-rule="evenodd" d="M78.523 184.176H84.072C85.6334 184.176 86.8992 185.439 86.8992 186.998V189.374C86.8992 189.62 86.6993 189.82 86.4528 189.82H76.467C76.2205 189.82 76.0206 189.62 76.0206 189.374C76.0206 189.336 76.0256 189.298 76.0353 189.261L77.084 185.283C77.2561 184.631 77.8471 184.176 78.523 184.176Z" fill="#2F2FE9" fill-opacity="0.59"/>
<path fill-rule="evenodd" clip-rule="evenodd" d="M59.1196 186.107H61.157C62.3897 186.107 63.389 187.105 63.389 188.335V189.821H56.693L56.9035 188.07C57.0381 186.95 57.9897 186.107 59.1196 186.107Z" fill="#370EA3"/>
<path fill-rule="evenodd" clip-rule="evenodd" d="M81.3937 186.107H83.1793C84.412 186.107 85.4113 187.105 85.4113 188.335V189.821H79.1617V188.335C79.1617 187.105 80.161 186.107 81.3937 186.107Z" fill="#370EA3"/>
<path fill-rule="evenodd" clip-rule="evenodd" d="M77.2506 182.393L76.4049 178.976H75.0608L75.1439 182.188C75.1605 182.248 75.1978 182.299 75.2475 182.335C75.2972 182.371 75.3593 182.393 75.4256 182.393H77.2506Z" fill="#2F2FE9" fill-opacity="0.59"/>
<path d="M60.1153 192.048C61.4302 192.048 62.4961 190.984 62.4961 189.671C62.4961 188.359 61.4302 187.295 60.1153 187.295C58.8004 187.295 57.7345 188.359 57.7345 189.671C57.7345 190.984 58.8004 192.048 60.1153 192.048Z" fill="#2F2FE9"/>
<path d="M60.1153 190.859C60.7728 190.859 61.3057 190.327 61.3057 189.671C61.3057 189.014 60.7728 188.482 60.1153 188.482C59.4579 188.482 58.9249 189.014 58.9249 189.671C58.9249 190.327 59.4579 190.859 60.1153 190.859Z" fill="#E8E7FF"/>
<path d="M82.4351 192.048C83.75 192.048 84.8159 190.984 84.8159 189.671C84.8159 188.359 83.75 187.295 82.4351 187.295C81.1202 187.295 80.0543 188.359 80.0543 189.671C80.0543 190.984 81.1202 192.048 82.4351 192.048Z" fill="#2F2FE9"/>
<path d="M82.4352 190.859C83.0926 190.859 83.6256 190.327 83.6256 189.671C83.6256 189.014 83.0926 188.482 82.4352 188.482C81.7777 188.482 81.2448 189.014 81.2448 189.671C81.2448 190.327 81.7777 190.859 82.4352 190.859Z" fill="#E8E7FF"/>
<path fill-rule="evenodd" clip-rule="evenodd" d="M69.7623 178.977H74.3999C74.5642 178.977 74.6975 179.11 74.6975 179.274V182.096C74.6975 182.26 74.5642 182.393 74.3999 182.393H69.5165C69.3521 182.393 69.2189 182.26 69.2189 182.096C69.2189 182.087 69.2192 182.079 69.22 182.07L69.4658 179.248C69.4792 179.094 69.6079 178.977 69.7623 178.977Z" fill="#2F2FE9" fill-opacity="0.59"/>
<path fill-rule="evenodd" clip-rule="evenodd" d="M318.061 188.631H348.043C348.701 188.631 349.234 188.099 349.234 187.443V185.512C349.234 183.789 347.835 182.393 346.109 182.393H317.187C316.858 182.393 316.592 182.659 316.592 182.987C316.592 183.016 316.594 183.045 316.598 183.073L317.325 187.996C317.379 188.361 317.692 188.631 318.061 188.631Z" fill="#2F2FE9" fill-opacity="0.87"/>
<path fill-rule="evenodd" clip-rule="evenodd" d="M331.354 182.393H335.915H340.329L339.404 178.65C339.322 178.318 339.023 178.085 338.681 178.085H332.366C331.976 178.085 331.653 178.385 331.624 178.773L331.354 182.393Z" fill="#2F2FE9"/>
<path fill-rule="evenodd" clip-rule="evenodd" d="M320.739 184.176H325.425C326.987 184.176 328.253 185.439 328.253 186.998V189.077C328.253 189.487 327.919 189.82 327.509 189.82H318.63C318.383 189.82 318.184 189.62 318.184 189.374C318.184 189.359 318.184 189.343 318.186 189.328L318.519 186.17C318.639 185.037 319.596 184.176 320.739 184.176Z" fill="#2F2FE9" fill-opacity="0.59"/>
<path fill-rule="evenodd" clip-rule="evenodd" d="M341.602 184.176H347.15C348.712 184.176 349.978 185.439 349.978 186.998V189.374C349.978 189.62 349.778 189.82 349.531 189.82H339.546C339.299 189.82 339.099 189.62 339.099 189.374C339.099 189.336 339.104 189.298 339.114 189.261L340.163 185.283C340.335 184.631 340.926 184.176 341.602 184.176Z" fill="#2F2FE9" fill-opacity="0.59"/>
<path fill-rule="evenodd" clip-rule="evenodd" d="M322.198 186.107H324.235C325.468 186.107 326.467 187.105 326.467 188.335V189.821H319.771L319.982 188.07C320.117 186.95 321.068 186.107 322.198 186.107Z" fill="#370EA3"/>
<path fill-rule="evenodd" clip-rule="evenodd" d="M344.472 186.107H346.258C347.491 186.107 348.49 187.105 348.49 188.335V189.821H342.24V188.335C342.24 187.105 343.24 186.107 344.472 186.107Z" fill="#370EA3"/>
<path fill-rule="evenodd" clip-rule="evenodd" d="M340.329 182.393L339.483 178.976H338.139L338.222 182.188C338.239 182.248 338.276 182.299 338.326 182.335C338.376 182.371 338.438 182.393 338.504 182.393H340.329Z" fill="#2F2FE9" fill-opacity="0.59"/>
<path d="M323.193 192.048C324.508 192.048 325.574 190.984 325.574 189.671C325.574 188.359 324.508 187.295 323.193 187.295C321.878 187.295 320.812 188.359 320.812 189.671C320.812 190.984 321.878 192.048 323.193 192.048Z" fill="#2F2FE9"/>
<path d="M323.194 190.859C323.851 190.859 324.384 190.327 324.384 189.671C324.384 189.014 323.851 188.482 323.194 188.482C322.536 188.482 322.003 189.014 322.003 189.671C322.003 190.327 322.536 190.859 323.194 190.859Z" fill="#E8E7FF"/>
<path d="M345.514 192.048C346.828 192.048 347.894 190.984 347.894 189.671C347.894 188.359 346.828 187.295 345.514 187.295C344.199 187.295 343.133 188.359 343.133 189.671C343.133 190.984 344.199 192.048 345.514 192.048Z" fill="#2F2FE9"/>
<path d="M345.514 190.859C346.171 190.859 346.704 190.327 346.704 189.671C346.704 189.014 346.171 188.482 345.514 188.482C344.856 188.482 344.323 189.014 344.323 189.671C344.323 190.327 344.856 190.859 345.514 190.859Z" fill="#E8E7FF"/>
<path fill-rule="evenodd" clip-rule="evenodd" d="M332.841 178.977H337.478C337.643 178.977 337.776 179.11 337.776 179.274V182.096C337.776 182.26 337.643 182.393 337.478 182.393H332.595C332.431 182.393 332.297 182.26 332.297 182.096C332.297 182.087 332.298 182.079 332.298 182.07L332.544 179.248C332.558 179.094 332.686 178.977 332.841 178.977Z" fill="#2F2FE9" fill-opacity="0.59"/>
<path fill-rule="evenodd" clip-rule="evenodd" d="M22.1709 182.541H49.4085C50.0659 182.541 50.5989 183.073 50.5989 183.729V187.888C50.5989 188.216 50.3324 188.482 50.0037 188.482H22.7726C22.4441 188.482 22.1778 188.217 22.1774 187.889L22.1709 182.541Z" fill="#2F2FE9" fill-opacity="0.59"/>
<path fill-rule="evenodd" clip-rule="evenodd" d="M24.9116 177.789H39.7548C40.2199 177.789 40.6424 178.059 40.8365 178.481L42.7055 182.542H22.1711L23.8092 178.529C23.9918 178.082 24.4276 177.789 24.9116 177.789Z" fill="#CECCFF"/>
<path fill-rule="evenodd" clip-rule="evenodd" d="M39.998 178.83C40.0659 178.83 40.1294 178.853 40.1803 178.892C40.2311 178.932 40.2692 178.987 40.2862 179.053L41.9998 182.543H35.2658V178.83H39.998ZM34.6706 182.543H24.258C24.2062 182.543 24.1547 182.534 24.106 182.517C23.8742 182.433 23.7544 182.177 23.8384 181.946L24.8887 179.053C24.9056 178.987 24.9437 178.932 24.9946 178.892C25.0454 178.853 25.109 178.83 25.1768 178.83H34.6706V182.543Z" fill="#2F2FE9"/>
<path d="M26.412 192.048C27.9323 192.048 29.1648 190.818 29.1648 189.301C29.1648 187.783 27.9323 186.553 26.412 186.553C24.8917 186.553 23.6592 187.783 23.6592 189.301C23.6592 190.818 24.8917 192.048 26.412 192.048Z" fill="#370EA3"/>
<path d="M26.4121 190.711C27.1928 190.711 27.8257 190.079 27.8257 189.3C27.8257 188.52 27.1928 187.889 26.4121 187.889C25.6314 187.889 24.9985 188.52 24.9985 189.3C24.9985 190.079 25.6314 190.711 26.4121 190.711Z" fill="#E8E7FF"/>
<path d="M45.6073 192.048C47.1276 192.048 48.3601 190.818 48.3601 189.301C48.3601 187.783 47.1276 186.553 45.6073 186.553C44.087 186.553 42.8545 187.783 42.8545 189.301C42.8545 190.818 44.087 192.048 45.6073 192.048Z" fill="#370EA3"/>
<path d="M45.607 190.711C46.3877 190.711 47.0206 190.079 47.0206 189.3C47.0206 188.52 46.3877 187.889 45.607 187.889C44.8262 187.889 44.1934 188.52 44.1934 189.3C44.1934 190.079 44.8262 190.711 45.607 190.711Z" fill="#E8E7FF"/>
<path d="M21.7248 182.541H20.088C19.8415 182.541 19.6416 182.741 19.6416 182.987V187.591C19.6416 187.837 19.8415 188.037 20.088 188.037H21.7248C21.9713 188.037 22.1712 187.837 22.1712 187.591V182.987C22.1712 182.741 21.9713 182.541 21.7248 182.541Z" fill="#2F2FE9"/>
<path fill-rule="evenodd" clip-rule="evenodd" d="M283.093 188.631H313.075C313.732 188.631 314.265 188.099 314.265 187.443V185.512C314.265 183.789 312.866 182.393 311.141 182.393H282.219C281.89 182.393 281.624 182.659 281.624 182.987C281.624 183.016 281.626 183.045 281.63 183.073L282.357 187.996C282.411 188.361 282.724 188.631 283.093 188.631Z" fill="#2F2FE9" fill-opacity="0.87"/>
<path fill-rule="evenodd" clip-rule="evenodd" d="M296.386 182.393H300.947H305.361L304.435 178.65C304.353 178.318 304.055 178.085 303.713 178.085H297.398C297.008 178.085 296.684 178.385 296.656 178.773L296.386 182.393Z" fill="#2F2FE9"/>
<path fill-rule="evenodd" clip-rule="evenodd" d="M285.771 184.176H290.458C292.019 184.176 293.285 185.439 293.285 186.998V189.077C293.285 189.487 292.952 189.82 292.541 189.82H283.662C283.416 189.82 283.216 189.62 283.216 189.374C283.216 189.359 283.217 189.343 283.218 189.328L283.551 186.17C283.671 185.037 284.629 184.176 285.771 184.176Z" fill="#2F2FE9" fill-opacity="0.59"/>
<path fill-rule="evenodd" clip-rule="evenodd" d="M306.633 184.176H312.182C313.744 184.176 315.009 185.439 315.009 186.998V189.374C315.009 189.62 314.81 189.82 314.563 189.82H304.577C304.331 189.82 304.131 189.62 304.131 189.374C304.131 189.336 304.136 189.298 304.146 189.261L305.194 185.283C305.366 184.631 305.957 184.176 306.633 184.176Z" fill="#2F2FE9" fill-opacity="0.59"/>
<path fill-rule="evenodd" clip-rule="evenodd" d="M287.23 186.107H289.267C290.5 186.107 291.499 187.105 291.499 188.335V189.821H284.803L285.014 188.07C285.148 186.95 286.1 186.107 287.23 186.107Z" fill="#370EA3"/>
<path fill-rule="evenodd" clip-rule="evenodd" d="M309.504 186.107H311.29C312.522 186.107 313.522 187.105 313.522 188.335V189.821H307.272V188.335C307.272 187.105 308.271 186.107 309.504 186.107Z" fill="#370EA3"/>
<path fill-rule="evenodd" clip-rule="evenodd" d="M305.361 182.393L304.515 178.976H303.171L303.254 182.188C303.271 182.248 303.308 182.299 303.358 182.335C303.407 182.371 303.47 182.393 303.536 182.393H305.361Z" fill="#2F2FE9" fill-opacity="0.59"/>
<path d="M288.226 192.048C289.54 192.048 290.606 190.984 290.606 189.671C290.606 188.359 289.54 187.295 288.226 187.295C286.911 187.295 285.845 188.359 285.845 189.671C285.845 190.984 286.911 192.048 288.226 192.048Z" fill="#2F2FE9"/>
<path d="M288.226 190.859C288.883 190.859 289.416 190.327 289.416 189.671C289.416 189.014 288.883 188.482 288.226 188.482C287.568 188.482 287.035 189.014 287.035 189.671C287.035 190.327 287.568 190.859 288.226 190.859Z" fill="#E8E7FF"/>
<path d="M310.545 192.048C311.86 192.048 312.926 190.984 312.926 189.671C312.926 188.359 311.86 187.295 310.545 187.295C309.23 187.295 308.165 188.359 308.165 189.671C308.165 190.984 309.23 192.048 310.545 192.048Z" fill="#2F2FE9"/>
<path d="M310.545 190.859C311.203 190.859 311.736 190.327 311.736 189.671C311.736 189.014 311.203 188.482 310.545 188.482C309.888 188.482 309.355 189.014 309.355 189.671C309.355 190.327 309.888 190.859 310.545 190.859Z" fill="#E8E7FF"/>
<path fill-rule="evenodd" clip-rule="evenodd" d="M297.873 178.977H302.51C302.674 178.977 302.808 179.11 302.808 179.274V182.096C302.808 182.26 302.674 182.393 302.51 182.393H297.627C297.462 182.393 297.329 182.26 297.329 182.096C297.329 182.087 297.329 182.079 297.33 182.07L297.576 179.248C297.589 179.094 297.718 178.977 297.873 178.977Z" fill="#2F2FE9" fill-opacity="0.59"/>
<path fill-rule="evenodd" clip-rule="evenodd" d="M100.738 185.215H116.659C117.317 185.215 117.85 185.747 117.85 186.403V189.225C117.85 189.553 117.583 189.819 117.254 189.819H100.191C99.8622 189.819 99.5957 189.553 99.5957 189.225C99.5957 189.169 99.6036 189.113 99.6193 189.059L100.738 185.215Z" fill="#CECCFF"/>
<path fill-rule="evenodd" clip-rule="evenodd" d="M102.831 180.611H110.874C111.406 180.611 111.873 180.963 112.019 181.474L113.088 185.216H100.738L101.677 181.508C101.811 180.981 102.286 180.611 102.831 180.611Z" fill="#2F2FE9" fill-opacity="0.59"/>
<path fill-rule="evenodd" clip-rule="evenodd" d="M110.976 181.502C111.043 181.502 111.107 181.525 111.158 181.564C111.209 181.603 111.247 181.659 111.264 181.725L112.085 185.215H106.839V181.502H110.976ZM106.243 185.215H102.156C102.122 185.215 102.087 185.211 102.054 185.203C101.814 185.147 101.665 184.907 101.721 184.668L102.413 181.725C102.43 181.659 102.469 181.603 102.519 181.564C102.57 181.525 102.634 181.502 102.702 181.502H106.243V185.215Z" fill="#2F2FE9"/>
<path d="M102.971 192.048C104.286 192.048 105.351 190.984 105.351 189.671C105.351 188.359 104.286 187.295 102.971 187.295C101.656 187.295 100.59 188.359 100.59 189.671C100.59 190.984 101.656 192.048 102.971 192.048Z" fill="#2F2FE9"/>
<path d="M102.97 190.861C103.627 190.861 104.16 190.329 104.16 189.673C104.16 189.016 103.627 188.484 102.97 188.484C102.312 188.484 101.779 189.016 101.779 189.673C101.779 190.329 102.312 190.861 102.97 190.861Z" fill="#E8E7FF"/>
<path d="M114.576 192.048C115.891 192.048 116.957 190.984 116.957 189.671C116.957 188.359 115.891 187.295 114.576 187.295C113.261 187.295 112.195 188.359 112.195 189.671C112.195 190.984 113.261 192.048 114.576 192.048Z" fill="#2F2FE9"/>
<path d="M114.576 190.861C115.233 190.861 115.766 190.329 115.766 189.673C115.766 189.016 115.233 188.484 114.576 188.484C113.918 188.484 113.385 189.016 113.385 189.673C113.385 190.329 113.918 190.861 114.576 190.861Z" fill="#E8E7FF"/>
<defs>
<linearGradient id="paint0_linear_608_9978" x1="86.0065" y1="0" x2="86.0065" y2="46.044" gradientUnits="userSpaceOnUse">
<stop stop-color="#D5ECFF" stop-opacity="0.5"/>
<stop offset="1" stop-color="white" stop-opacity="0"/>
</linearGradient>
<linearGradient id="paint1_linear_608_9978" x1="296.622" y1="14.2578" x2="296.622" y2="54.9549" gradientUnits="userSpaceOnUse">
<stop stop-color="#D5ECFF" stop-opacity="0.5"/>
<stop offset="1" stop-color="white" stop-opacity="0"/>
</linearGradient>
<linearGradient id="paint2_linear_608_9978" x1="134.281" y1="23.0215" x2="134.281" y2="63.7186" gradientUnits="userSpaceOnUse">
<stop stop-color="#98D1FF" stop-opacity="0.5"/>
<stop offset="1" stop-color="white" stop-opacity="0"/>
</linearGradient>
<linearGradient id="paint3_linear_608_9978" x1="223.274" y1="17.6758" x2="223.274" y2="103.971" gradientUnits="userSpaceOnUse">
<stop stop-color="#98D1FF" stop-opacity="0.5"/>
<stop offset="1" stop-color="white" stop-opacity="0"/>
</linearGradient>
<linearGradient id="paint4_linear_608_9978" x1="182.791" y1="63.2734" x2="182.791" y2="103.971" gradientUnits="userSpaceOnUse">
<stop stop-color="#98D1FF" stop-opacity="0.5"/>
<stop offset="1" stop-color="white" stop-opacity="0"/>
</linearGradient>
<linearGradient id="paint5_linear_608_9978" x1="266.129" y1="119.418" x2="266.129" y2="151.203" gradientUnits="userSpaceOnUse">
<stop stop-color="#70BFFF" stop-opacity="0.5"/>
<stop offset="1" stop-color="white" stop-opacity="0"/>
</linearGradient>
<linearGradient id="paint6_linear_608_9978" x1="77.8225" y1="66.541" x2="77.8225" y2="113.476" gradientUnits="userSpaceOnUse">
<stop stop-color="#70BFFF" stop-opacity="0.5"/>
<stop offset="1" stop-color="white" stop-opacity="0"/>
</linearGradient>
<linearGradient id="paint7_linear_608_9978" x1="245.361" y1="101.742" x2="245.361" y2="152.094" gradientUnits="userSpaceOnUse">
<stop stop-color="#D5ECFF" stop-opacity="0.5"/>
<stop offset="1" stop-color="white" stop-opacity="0"/>
</linearGradient>
<linearGradient id="paint8_linear_608_9978" x1="126.341" y1="101.742" x2="126.341" y2="152.094" gradientUnits="userSpaceOnUse">
<stop stop-color="#70BFFF" stop-opacity="0.5"/>
<stop offset="1" stop-color="white" stop-opacity="0"/>
</linearGradient>
</defs>
</svg>
