<svg width="16" height="16" viewBox="0 0 16 16" fill="none" xmlns="http://www.w3.org/2000/svg">
<path d="M12.0241 9.03267C11.7441 9.30601 11.5841 9.69934 11.6241 10.1193C11.6841 10.8393 12.3441 11.366 13.0641 11.366H14.3307V12.1593C14.3307 13.5393 13.2041 14.666 11.8241 14.666H4.17073C2.79073 14.666 1.66406 13.5393 1.66406 12.1593V7.67269C1.66406 6.29269 2.79073 5.16602 4.17073 5.16602H11.8241C13.2041 5.16602 14.3307 6.29269 14.3307 7.67269V8.63269H12.9841C12.6107 8.63269 12.2707 8.77934 12.0241 9.03267Z" stroke="#546080" stroke-width="1.5" stroke-linecap="round" stroke-linejoin="round"/>
<path opacity="0.4" d="M1.66406 8.27288V5.22625C1.66406 4.43291 2.15073 3.72622 2.89073 3.44622L8.18406 1.44622C9.01073 1.13289 9.8974 1.74624 9.8974 2.6329V5.16623" stroke="#546080" stroke-width="1.5" stroke-linecap="round" stroke-linejoin="round"/>
<path d="M15.0366 9.31278V10.6862C15.0366 11.0528 14.7433 11.3528 14.3699 11.3661H13.0633C12.3433 11.3661 11.6833 10.8395 11.6233 10.1195C11.5833 9.69947 11.7433 9.30613 12.0233 9.0328C12.2699 8.77946 12.6099 8.63281 12.9833 8.63281H14.3699C14.7433 8.64615 15.0366 8.94612 15.0366 9.31278Z" stroke="#546080" stroke-width="1.5" stroke-linecap="round" stroke-linejoin="round"/>
<path opacity="0.4" d="M4.66406 8H9.33073" stroke="#546080" stroke-width="1.5" stroke-linecap="round" stroke-linejoin="round"/>
</svg>
