<svg width="129" height="129" viewBox="0 0 129 129" fill="none" xmlns="http://www.w3.org/2000/svg">
<path d="M43.1667 117.833H85.8333C107.273 117.833 111.113 109.247 112.233 98.7933L116.233 56.1267C117.673 43.1133 113.94 32.5 91.1667 32.5H37.8333C15.06 32.5 11.3267 43.1133 12.7667 56.1267L16.7667 98.7933C17.8867 109.247 21.7267 117.833 43.1667 117.833Z" stroke="#4030EA" stroke-width="3" stroke-miterlimit="10" stroke-linecap="round" stroke-linejoin="round"/>
<path opacity="0.4" d="M43.1667 32.5013V28.2346C43.1667 18.7946 43.1667 11.168 60.2333 11.168H68.7667C85.8333 11.168 85.8333 18.7946 85.8333 28.2346V32.5013" stroke="#4030EA" stroke-width="3" stroke-miterlimit="10" stroke-linecap="round" stroke-linejoin="round"/>
<g opacity="0.4">
<path d="M75.1667 69.8333V75.1667C75.1667 75.22 75.1667 75.22 75.1667 75.2733C75.1667 81.0867 75.1133 85.8333 64.5 85.8333C53.94 85.8333 53.8333 81.14 53.8333 75.3267V69.8333C53.8333 64.5 53.8333 64.5 59.1667 64.5H69.8333C75.1667 64.5 75.1667 64.5 75.1667 69.8333Z" stroke="#4030EA" stroke-width="3" stroke-miterlimit="10" stroke-linecap="round" stroke-linejoin="round"/>
<path d="M115.967 59.168C103.647 68.128 89.5667 73.4613 75.1667 75.2746" stroke="#4030EA" stroke-width="3" stroke-miterlimit="10" stroke-linecap="round" stroke-linejoin="round"/>
<path d="M14.4688 60.6055C26.4688 68.8188 40.0154 73.7788 53.8288 75.3255" stroke="#4030EA" stroke-width="3" stroke-miterlimit="10" stroke-linecap="round" stroke-linejoin="round"/>
</g>
</svg>
