<svg width="16" height="17" viewBox="0 0 16 17" fill="none" xmlns="http://www.w3.org/2000/svg">
<path d="M8.57756 2.50127L14.9282 13.5013C14.9867 13.6026 15.0175 13.7176 15.0175 13.8346C15.0175 13.9516 14.9867 14.0666 14.9282 14.1679C14.8697 14.2693 14.7856 14.3534 14.6842 14.412C14.5829 14.4705 14.4679 14.5013 14.3509 14.5013H1.64956C1.53254 14.5013 1.41758 14.4705 1.31623 14.412C1.21489 14.3534 1.13073 14.2693 1.07222 14.1679C1.01371 14.0666 0.982909 13.9516 0.98291 13.8346C0.982911 13.7176 1.01372 13.6026 1.07223 13.5013L7.42289 2.50127C7.48141 2.39993 7.56557 2.31578 7.66691 2.25728C7.76825 2.19877 7.88321 2.16797 8.00023 2.16797C8.11725 2.16797 8.2322 2.19877 8.33355 2.25728C8.43489 2.31578 8.51905 2.39993 8.57756 2.50127ZM2.80423 13.1679H13.1962L8.00023 4.16794L2.80423 13.1679ZM7.33356 11.1679H8.66689V12.5013H7.33356V11.1679ZM7.33356 6.50127H8.66689V9.83461H7.33356V6.50127Z" fill="#F2185D"/>
</svg>
