<svg width="20" height="21" viewBox="0 0 20 21" fill="none" xmlns="http://www.w3.org/2000/svg">
<path d="M12.1092 8.39063L7.89258 12.6073C7.35091 12.0656 7.01758 11.324 7.01758 10.499C7.01758 8.84896 8.35091 7.51562 10.0009 7.51562C10.8259 7.51562 11.5676 7.84896 12.1092 8.39063Z" stroke="#4030EA" stroke-width="1.5" stroke-linecap="round" stroke-linejoin="round"/>
<path d="M14.8499 5.30937C13.3915 4.20937 11.7249 3.60938 9.99987 3.60938C7.0582 3.60938 4.31654 5.34271 2.4082 8.34271C1.6582 9.51771 1.6582 11.4927 2.4082 12.6677C3.06654 13.701 3.8332 14.5927 4.66654 15.3094" stroke="#4030EA" stroke-width="1.5" stroke-linecap="round" stroke-linejoin="round"/>
<path opacity="0.4" d="M7.01758 16.776C7.96758 17.176 8.97591 17.3927 10.0009 17.3927C12.9426 17.3927 15.6842 15.6594 17.5926 12.6594C18.3426 11.4844 18.3426 9.50937 17.5926 8.33437C17.3176 7.90104 17.0176 7.49271 16.7092 7.10938" stroke="#4030EA" stroke-width="1.5" stroke-linecap="round" stroke-linejoin="round"/>
<path opacity="0.4" d="M12.9242 11.082C12.7076 12.257 11.7492 13.2154 10.5742 13.432" stroke="#4030EA" stroke-width="1.5" stroke-linecap="round" stroke-linejoin="round"/>
<path d="M7.89102 12.6094L1.66602 18.8344" stroke="#4030EA" stroke-width="1.5" stroke-linecap="round" stroke-linejoin="round"/>
<path d="M18.3324 2.16797L12.1074 8.39297" stroke="#4030EA" stroke-width="1.5" stroke-linecap="round" stroke-linejoin="round"/>
</svg>
