<svg width="16" height="16" viewBox="0 0 16 16" fill="none" xmlns="http://www.w3.org/2000/svg">
<path opacity="0.4" d="M14.6667 11.4676C14.6667 12.0676 14.5 12.6342 14.2 13.1142C13.6467 14.0409 12.6333 14.6676 11.4667 14.6676C10.3 14.6676 9.27999 14.0409 8.73333 13.1142C8.43999 12.6342 8.26666 12.0676 8.26666 11.4676C8.26666 9.7009 9.7 8.26758 11.4667 8.26758C13.2333 8.26758 14.6667 9.7009 14.6667 11.4676Z" stroke="#546080" stroke-width="1.5" stroke-miterlimit="10" stroke-linecap="round" stroke-linejoin="round"/>
<path opacity="0.4" d="M10.22 11.4683L11.0066 12.255L12.7133 10.6816" stroke="#546080" stroke-width="1.5" stroke-linecap="round" stroke-linejoin="round"/>
<path d="M14.6666 5.79309C14.6666 7.10642 14.3266 8.2664 13.7933 9.27307C13.2066 8.65307 12.38 8.26644 11.4666 8.26644C9.69998 8.26644 8.26665 9.69976 8.26665 11.4664C8.26665 12.2864 8.57998 13.0331 9.08665 13.5998C8.83998 13.7131 8.61331 13.8064 8.41331 13.8731C8.18665 13.9531 7.81331 13.9531 7.58665 13.8731C5.65331 13.2131 1.33331 10.4598 1.33331 5.79309C1.33331 3.73309 2.99331 2.06641 5.03998 2.06641C6.24665 2.06641 7.32665 2.6531 7.99998 3.5531C8.67331 2.6531 9.75331 2.06641 10.96 2.06641C13.0066 2.06641 14.6666 3.73309 14.6666 5.79309Z" stroke="#546080" stroke-width="1.5" stroke-linecap="round" stroke-linejoin="round"/>
</svg>
