<svg width="21" height="21" viewBox="0 0 21 21" fill="none" xmlns="http://www.w3.org/2000/svg">
<path d="M5.00065 2.25H16.0007C16.9173 2.25 17.6673 3 17.6673 3.91667V5.75C17.6673 6.41667 17.2507 7.25 16.834 7.66667L13.2507 10.8333C12.7507 11.25 12.4173 12.0833 12.4173 12.75V16.3333C12.4173 16.8333 12.084 17.5 11.6673 17.75L10.5007 18.5C9.41732 19.1667 7.91732 18.4167 7.91732 17.0833V12.6667C7.91732 12.0833 7.58398 11.3333 7.25065 10.9167L4.08398 7.58333C3.66732 7.16667 3.33398 6.41667 3.33398 5.91667V4C3.33398 3 4.08398 2.25 5.00065 2.25Z" stroke="#4030EA" stroke-miterlimit="10" stroke-linecap="round" stroke-linejoin="round"/>
<path opacity="0.4" d="M9.60833 2.25L5.5 8.83333" stroke="#4030EA" stroke-miterlimit="10" stroke-linecap="round" stroke-linejoin="round"/>
</svg>
