<svg width="25" height="24" viewBox="0 0 25 24" fill="none" xmlns="http://www.w3.org/2000/svg">
<path opacity="0.4" d="M9.5 10C10.6046 10 11.5 9.10457 11.5 8C11.5 6.89543 10.6046 6 9.5 6C8.39543 6 7.5 6.89543 7.5 8C7.5 9.10457 8.39543 10 9.5 10Z" stroke="#4030EA" stroke-width="1.5" stroke-linecap="round" stroke-linejoin="round"/>
<path d="M13.5 2H9.5C4.5 2 2.5 4 2.5 9V15C2.5 20 4.5 22 9.5 22H15.5C20.5 22 22.5 20 22.5 15V10" stroke="#4030EA" stroke-width="1.5" stroke-linecap="round" stroke-linejoin="round"/>
<g opacity="0.4">
<path d="M18.5 8L18.5 2L16.5 4" stroke="#4030EA" stroke-width="1.5" stroke-linecap="round" stroke-linejoin="round"/>
<path d="M18.5 2L20.5 4" stroke="#4030EA" stroke-width="1.5" stroke-linecap="round" stroke-linejoin="round"/>
</g>
<path opacity="0.4" d="M3.16992 18.9505L8.09992 15.6405C8.88992 15.1105 10.0299 15.1705 10.7399 15.7805L11.0699 16.0705C11.8499 16.7405 13.1099 16.7405 13.8899 16.0705L18.0499 12.5005C18.8299 11.8305 20.0899 11.8305 20.8699 12.5005L22.4999 13.9005" stroke="#4030EA" stroke-width="1.5" stroke-linecap="round" stroke-linejoin="round"/>
</svg>
