<svg width="16" height="16" viewBox="0 0 16 16" fill="none" xmlns="http://www.w3.org/2000/svg">
<path opacity="0.4" d="M6.06672 6.91176C6.77856 6.91176 7.35561 6.33471 7.35561 5.62287C7.35561 4.91104 6.77856 4.33398 6.06672 4.33398C5.35489 4.33398 4.77783 4.91104 4.77783 5.62287C4.77783 6.33471 5.35489 6.91176 6.06672 6.91176Z" stroke="#4030EA" stroke-linecap="round" stroke-linejoin="round"/>
<path d="M8.64455 1.75586L6.06678 1.75586C2.84455 1.75586 1.55566 3.04475 1.55566 6.26697L1.55567 10.1336C1.55567 13.3559 2.84456 14.6447 6.06678 14.6447L9.93344 14.6448C13.1557 14.6448 14.4446 13.3559 14.4446 10.1336L14.4446 6.91142" stroke="#4030EA" stroke-linecap="round" stroke-linejoin="round"/>
<g opacity="0.45">
<path d="M12.6019 2.13524L10.2625 4.47457C10.1723 4.56479 10.0821 4.73879 10.0692 4.86768L9.94031 5.76346C9.8952 6.08568 10.1208 6.31123 10.443 6.26612L11.3388 6.13723C11.4612 6.1179 11.6416 6.03412 11.7319 5.9439L14.0712 3.60457C14.4772 3.19857 14.6641 2.73457 14.0712 2.14168C13.4719 1.5359 13.0079 1.72924 12.6019 2.13524Z" stroke="#4030EA" stroke-miterlimit="10" stroke-linecap="round" stroke-linejoin="round"/>
<path d="M12.2656 2.4707C12.4654 3.17959 13.0196 3.73381 13.7285 3.93359" stroke="#4030EA" stroke-miterlimit="10" stroke-linecap="round" stroke-linejoin="round"/>
</g>
<path opacity="0.4" d="M1.98731 12.6797L5.16442 10.5466C5.67353 10.2051 6.40819 10.2437 6.86575 10.6368L7.07842 10.8237C7.58108 11.2555 8.39308 11.2555 8.89575 10.8237L11.5766 8.52305C12.0793 8.09128 12.8913 8.09128 13.394 8.52305L14.4444 9.42528" stroke="#4030EA" stroke-linecap="round" stroke-linejoin="round"/>
</svg>
