<svg width="43" height="43" viewBox="0 0 43 43" fill="none" xmlns="http://www.w3.org/2000/svg">
<path opacity="0.4" d="M16.268 17.8105C18.2043 17.8105 19.7739 16.2409 19.7739 14.3047C19.7739 12.3684 18.2043 10.7988 16.268 10.7988C14.3318 10.7988 12.7622 12.3684 12.7622 14.3047C12.7622 16.2409 14.3318 17.8105 16.268 17.8105Z" stroke="#4030EA" stroke-width="1.5" stroke-linecap="round" stroke-linejoin="round"/>
<path d="M23.2796 3.78711H16.268C7.50339 3.78711 3.99756 7.29294 3.99756 16.0575V26.575C3.99756 35.3396 7.50339 38.8454 16.268 38.8454H26.7855C35.5501 38.8454 39.0559 35.3396 39.0559 26.575V17.8104" stroke="#4030EA" stroke-width="1.5" stroke-linecap="round" stroke-linejoin="round"/>
<g opacity="0.4">
<path d="M28.1001 9.04492H37.7411" stroke="#4030EA" stroke-width="1.5" stroke-linecap="round"/>
<path d="M32.9204 13.8657V4.22461" stroke="#4030EA" stroke-width="1.5" stroke-linecap="round"/>
</g>
<path opacity="0.4" d="M5.17188 33.4997L13.8138 27.6975C15.1986 26.7685 17.1969 26.8736 18.4415 27.9429L19.0199 28.4513C20.3872 29.6257 22.5959 29.6257 23.9631 28.4513L31.2553 22.1933C32.6225 21.0189 34.8312 21.0189 36.1985 22.1933L39.0558 24.6474" stroke="#4030EA" stroke-width="1.5" stroke-linecap="round" stroke-linejoin="round"/>
</svg>
