<svg width="21" height="20" viewBox="0 0 21 20" fill="none" xmlns="http://www.w3.org/2000/svg">
<path d="M10.5 0C4.98 0 0.5 4.48 0.5 10C0.5 15.52 4.98 20 10.5 20H15.5V18H10.5C6.16 18 2.5 14.34 2.5 10C2.5 5.66 6.16 2 10.5 2C14.84 2 18.5 5.66 18.5 10V11.43C18.5 12.22 17.79 13 17 13C16.21 13 15.5 12.22 15.5 11.43V10C15.5 7.24 13.26 5 10.5 5C7.74 5 5.5 7.24 5.5 10C5.5 12.76 7.74 15 10.5 15C11.88 15 13.14 14.44 14.04 13.53C14.69 14.42 15.81 15 17 15C18.97 15 20.5 13.4 20.5 11.43V10C20.5 4.48 16.02 0 10.5 0ZM10.5 13C8.84 13 7.5 11.66 7.5 10C7.5 8.34 8.84 7 10.5 7C12.16 7 13.5 8.34 13.5 10C13.5 11.66 12.16 13 10.5 13Z" fill="#4030EA"/>
</svg>
