<svg width="16" height="17" viewBox="0 0 16 17" fill="none" xmlns="http://www.w3.org/2000/svg">
<path d="M8 13.5C10.7614 13.5 13 11.2614 13 8.5C13 5.73858 10.7614 3.5 8 3.5C5.23858 3.5 3 5.73858 3 8.5C3 11.2614 5.23858 13.5 8 13.5Z" stroke="#546080" stroke-width="1.5" stroke-linecap="round" stroke-linejoin="round"/>
<path opacity="0.4" d="M8 10.5C9.10457 10.5 10 9.60457 10 8.5C10 7.39543 9.10457 6.5 8 6.5C6.89543 6.5 6 7.39543 6 8.5C6 9.60457 6.89543 10.5 8 10.5Z" stroke="#546080" stroke-width="1.5" stroke-linecap="round" stroke-linejoin="round"/>
<path opacity="0.4" d="M8 3.16732V1.83398" stroke="#546080" stroke-width="1.5" stroke-linecap="round" stroke-linejoin="round"/>
<path opacity="0.4" d="M2.66683 8.5H1.3335" stroke="#546080" stroke-width="1.5" stroke-linecap="round" stroke-linejoin="round"/>
<path opacity="0.4" d="M8 13.834V15.1673" stroke="#546080" stroke-width="1.5" stroke-linecap="round" stroke-linejoin="round"/>
<path opacity="0.4" d="M13.3335 8.5H14.6668" stroke="#546080" stroke-width="1.5" stroke-linecap="round" stroke-linejoin="round"/>
</svg>
