<svg width="21" height="13" viewBox="0 0 21 13" fill="none" xmlns="http://www.w3.org/2000/svg">
<path fill-rule="evenodd" clip-rule="evenodd" d="M4.75 13C5.85457 13 6.75 12.1046 6.75 11V8H14.75V11C14.75 12.1046 15.6454 13 16.75 13C17.8546 13 18.75 12.1046 18.75 11V10.915C19.2092 11.0774 19.7187 11.0066 20.1163 10.7253C20.514 10.444 20.7503 9.98709 20.75 9.5V3.5C20.7503 3.01291 20.514 2.55602 20.1163 2.2747C19.7187 1.99337 19.2092 1.92264 18.75 2.085V2C18.75 0.895431 17.8546 0 16.75 0C15.6454 0 14.75 0.895431 14.75 2V5H6.75V2C6.75 0.895431 5.85457 0 4.75 0C3.64543 0 2.75 0.895431 2.75 2V2.085C2.29077 1.92264 1.78129 1.99337 1.38365 2.2747C0.98602 2.55602 0.749745 3.01291 0.75 3.5V9.5C0.749745 9.98709 0.98602 10.444 1.38365 10.7253C1.78129 11.0066 2.29077 11.0774 2.75 10.915V11C2.75 12.1046 3.64543 13 4.75 13ZM14.75 7H6.75V6H14.75V7ZM5.75 11V2C5.75 1.44772 5.30229 1 4.75 1C4.19772 1 3.75 1.44772 3.75 2V11C3.75 11.5523 4.19772 12 4.75 12C5.30229 12 5.75 11.5523 5.75 11ZM15.75 11V2C15.75 1.44772 16.1977 1 16.75 1C17.3023 1 17.75 1.44772 17.75 2V11C17.75 11.5523 17.3023 12 16.75 12C16.1977 12 15.75 11.5523 15.75 11ZM2.75 9.5V3.5C2.75 3.22386 2.52614 3 2.25 3C1.97386 3 1.75 3.22386 1.75 3.5V9.5C1.75 9.77614 1.97386 10 2.25 10C2.52614 10 2.75 9.77614 2.75 9.5ZM18.75 9.5V3.5C18.75 3.22386 18.9739 3 19.25 3C19.5261 3 19.75 3.22386 19.75 3.5V9.5C19.75 9.77614 19.5261 10 19.25 10C18.9739 10 18.75 9.77614 18.75 9.5Z" fill="#2F2FE9"/>
</svg>
