<svg width="10" height="10" viewBox="0 0 10 10" fill="none" xmlns="http://www.w3.org/2000/svg">
<g clip-path="url(#clip0_716_5208)">
<path d="M0.441829 9.55706C0.197814 9.31305 0.197814 8.91742 0.441829 8.6734L8.67296 0.442262C8.91697 0.198246 9.3126 0.198245 9.55661 0.442261C9.80063 0.686277 9.80063 1.08191 9.55661 1.32592L1.32549 9.55706C1.08147 9.80108 0.685845 9.80108 0.441829 9.55706Z" fill="#5762E3"/>
<path d="M7.94061 9.55706C7.69659 9.31305 7.69659 8.91742 7.94061 8.6734L8.67291 7.9411C8.91693 7.69708 9.31256 7.69708 9.55657 7.9411C9.80059 8.18511 9.80059 8.58074 9.55657 8.82476L8.82427 9.55706C8.58025 9.80108 8.18462 9.80108 7.94061 9.55706Z" fill="#5762E3"/>
<path d="M4.19134 9.55706C3.94733 9.31305 3.94733 8.91742 4.19134 8.67341L8.67305 4.1917C8.91707 3.94769 9.31269 3.94769 9.55671 4.1917C9.80073 4.43572 9.80073 4.83135 9.55671 5.07536L5.075 9.55706C4.83099 9.80108 4.43536 9.80108 4.19134 9.55706Z" fill="#5762E3"/>
</g>
<defs>
<clipPath id="clip0_716_5208">
<rect width="10" height="10" fill="white"/>
</clipPath>
</defs>
</svg>
