<svg width="14" height="14" viewBox="0 0 14 14" fill="none" xmlns="http://www.w3.org/2000/svg">
<path fill-rule="evenodd" clip-rule="evenodd" d="M7 0C3.13401 0 0 3.13401 0 7C0 10.866 3.13401 14 7 14C10.866 14 14 10.866 14 7C14 3.13401 10.866 0 7 0ZM8.45908 10.8504C8.09741 10.9904 7.81041 11.1001 7.59575 11.1736C7.35439 11.2521 7.10167 11.2899 6.84791 11.2856C6.41274 11.2856 6.07208 11.1782 5.82941 10.9659C5.59246 10.7642 5.4595 10.4661 5.46774 10.1551C5.46774 10.0279 5.47708 9.8984 5.49574 9.76656C5.51208 9.6324 5.54241 9.48423 5.58208 9.31506L6.03241 7.72373C6.07091 7.57206 6.10591 7.4274 6.13391 7.2909C6.16191 7.1544 6.17358 7.02956 6.17358 6.9164C6.17358 6.71456 6.13158 6.57106 6.04874 6.49173C5.96241 6.41123 5.80374 6.37156 5.56691 6.37156C5.45024 6.37156 5.33008 6.39023 5.20758 6.42523C5.10156 6.45711 4.99652 6.49212 4.89258 6.53023L5.01391 6.03906C5.30791 5.91773 5.59024 5.8174 5.86091 5.73106C6.12924 5.64473 6.38591 5.60156 6.62508 5.60156C7.05674 5.60156 7.39274 5.70656 7.62724 5.91656C7.86058 6.12423 7.97841 6.39723 7.97841 6.7309C7.97841 6.8009 7.97141 6.9234 7.95508 7.09606C7.93991 7.27106 7.90841 7.42973 7.86524 7.5779L7.41608 9.16573C7.37874 9.29406 7.34608 9.43873 7.31691 9.6009C7.2933 9.72328 7.27926 9.84733 7.27491 9.9719C7.27491 10.1819 7.32158 10.3277 7.41608 10.4036C7.50941 10.4806 7.67274 10.5179 7.90608 10.5179C8.01575 10.5179 8.13941 10.4992 8.27708 10.4619C8.41358 10.4234 8.51391 10.3907 8.57574 10.3604L8.45791 10.8504H8.45908ZM7.62338 4.69556C7.90312 4.70086 8.17375 4.59613 8.37705 4.4039H8.37821C8.58821 4.20906 8.69321 3.9734 8.69321 3.69806C8.69321 3.42273 8.58821 3.18356 8.37821 2.98756C8.16938 2.7904 7.91738 2.69356 7.62221 2.69356C7.34084 2.6881 7.06856 2.79324 6.86388 2.9864C6.65505 3.18473 6.54888 3.42273 6.54888 3.69806C6.54602 3.968 6.66105 4.22576 6.86388 4.4039C7.0695 4.59616 7.34192 4.70078 7.62338 4.69556Z" fill="#4030EA"/>
</svg>
