<svg width="16" height="16" viewBox="0 0 16 16" fill="none" xmlns="http://www.w3.org/2000/svg">
<path d="M7.16691 1.63289C7.63358 1.23956 8.38691 1.23956 8.84025 1.63289L9.89358 2.53289C10.0936 2.69956 10.4736 2.83956 10.7402 2.83956H11.8736C12.5802 2.83956 13.1602 3.41956 13.1602 4.12622V5.25956C13.1602 5.52622 13.3002 5.89956 13.4669 6.09956L14.3669 7.15289C14.7602 7.61956 14.7602 8.37289 14.3669 8.82622L13.4669 9.87956C13.3002 10.0796 13.1602 10.4529 13.1602 10.7196V11.8529C13.1602 12.5596 12.5802 13.1396 11.8736 13.1396H10.7402C10.4736 13.1396 10.1002 13.2796 9.90025 13.4462L8.84691 14.3462C8.38025 14.7396 7.62691 14.7396 7.17358 14.3462L6.12025 13.4462C5.92025 13.2796 5.54025 13.1396 5.28025 13.1396H4.11358C3.40691 13.1396 2.82691 12.5596 2.82691 11.8529V10.7129C2.82691 10.4529 2.69358 10.0729 2.52691 9.87956L1.62691 8.81956C1.24025 8.35956 1.24025 7.61289 1.62691 7.15289L2.52691 6.09289C2.69358 5.89289 2.82691 5.51956 2.82691 5.25956V4.13289C2.82691 3.42622 3.40691 2.84622 4.11358 2.84622H5.26691C5.53358 2.84622 5.90691 2.70622 6.10691 2.53956L7.16691 1.63289Z" stroke="#4030EA" stroke-width="1.2" stroke-linecap="round" stroke-linejoin="round"/>
<g opacity="0.4">
<path d="M8 5.41992V8.63992" stroke="#4030EA" stroke-width="1.2" stroke-linecap="round" stroke-linejoin="round"/>
<path d="M7.99609 10.666H8.00208" stroke="#4030EA" stroke-width="1.2" stroke-linecap="round" stroke-linejoin="round"/>
</g>
</svg>
