<svg width="22" height="23" viewBox="0 0 22 23" fill="none" xmlns="http://www.w3.org/2000/svg">
<path fill-rule="evenodd" clip-rule="evenodd" d="M6.87498 0.624023H15.125C18.9214 0.624023 22 3.70265 22 7.49902V15.749C22 19.5454 18.9214 22.624 15.125 22.624H6.87498C3.07861 22.624 -1.52588e-05 19.5454 -1.52588e-05 15.749V7.49902C-1.52588e-05 3.70265 3.07861 0.624023 6.87498 0.624023ZM15.125 20.5615C17.7787 20.5615 19.9375 18.4028 19.9375 15.749V7.49902C19.9375 4.84527 17.7787 2.68652 15.125 2.68652H6.87498C4.22123 2.68652 2.06248 4.84527 2.06248 7.49902V15.749C2.06248 18.4028 4.22123 20.5615 6.87498 20.5615H15.125Z" fill="#4030EA"/>
<path fill-rule="evenodd" clip-rule="evenodd" d="M5.49998 11.624C5.49998 8.58665 7.96261 6.12402 11 6.12402C14.0374 6.12402 16.5 8.58665 16.5 11.624C16.5 14.6614 14.0374 17.124 11 17.124C7.96261 17.124 5.49998 14.6614 5.49998 11.624ZM7.56248 11.624C7.56248 13.5188 9.10523 15.0615 11 15.0615C12.8947 15.0615 14.4375 13.5188 14.4375 11.624C14.4375 9.7279 12.8947 8.18652 11 8.18652C9.10523 8.18652 7.56248 9.7279 7.56248 11.624Z" fill="#4030EA"/>
<circle cx="16.9125" cy="5.71139" r="0.732875" fill="#4030EA"/>
</svg>
