<svg width="31" height="30" viewBox="0 0 31 30" fill="none" xmlns="http://www.w3.org/2000/svg">
<path fill-rule="evenodd" clip-rule="evenodd" d="M15.223 6.35144L14.657 6.91744C12.4784 9.09435 11.7433 12.3288 12.767 15.2334C11.532 14.4534 10.069 14.0014 8.5 14.0014H7C6.72386 14.0014 6.5 14.2253 6.5 14.5014V16.0014C6.50055 20.4193 10.0821 24.0004 14.5 24.0004H17.5C21.9175 24.0004 25.4989 20.4199 25.5 16.0024V14.5024C25.5 14.2263 25.2761 14.0024 25 14.0024H23.5C22.0614 14.0001 20.6491 14.3875 19.413 15.1234C20.3809 12.2439 19.6339 9.06466 17.485 6.91744L16.92 6.35144C16.4514 5.88285 15.6916 5.88285 15.223 6.35144ZM17.5 23.0004H16.5V22.0014C16.5 18.1355 19.634 15.0014 23.5 15.0014H24.5V16.0014C24.4994 19.867 21.3656 23.0004 17.5 23.0004ZM15.5 22.0004C15.4994 18.1348 12.3656 15.0014 8.5 15.0014H7.5V16.0014C7.5 19.8674 10.634 23.0014 14.5 23.0014H15.5V22.0014V22.0004ZM15.364 7.62444L15.894 7.09444C15.9409 7.04742 16.0046 7.021 16.071 7.021C16.1374 7.021 16.2011 7.04742 16.248 7.09444L16.778 7.62444C18.0908 8.93688 18.8283 10.7171 18.8283 12.5734C18.8283 14.4298 18.0908 16.21 16.778 17.5224L16.248 18.0524C16.2011 18.0995 16.1374 18.1259 16.071 18.1259C16.0046 18.1259 15.9409 18.0995 15.894 18.0524L15.364 17.5224C14.0512 16.21 13.3137 14.4298 13.3137 12.5734C13.3137 10.7171 14.0512 8.93688 15.364 7.62444Z" fill="#2F2FE9"/>
</svg>
