<svg width="16" height="16" viewBox="0 0 16 16" fill="none" xmlns="http://www.w3.org/2000/svg">
<path d="M13.1933 9.95289C11.8199 11.3196 9.85327 11.7396 8.1266 11.1996L4.9866 14.3329C4.75993 14.5662 4.31327 14.7062 3.99327 14.6596L2.53993 14.4596C2.05993 14.3929 1.61327 13.9396 1.53993 13.4596L1.33993 12.0062C1.29327 11.6862 1.4466 11.2396 1.6666 11.0129L4.79993 7.87956C4.2666 6.14622 4.67993 4.17956 6.05327 2.81289C8.01994 0.846224 11.2133 0.846224 13.1866 2.81289C15.1599 4.77956 15.1599 7.98622 13.1933 9.95289Z" stroke="#2F2FE9" stroke-width="0.8" stroke-miterlimit="10" stroke-linecap="round" stroke-linejoin="round"/>
<path opacity="0.4" d="M4.59326 11.6602L6.1266 13.1935" stroke="#2F2FE9" stroke-width="0.8" stroke-miterlimit="10" stroke-linecap="round" stroke-linejoin="round"/>
<path opacity="0.4" d="M9.6665 7.33301C10.2188 7.33301 10.6665 6.88529 10.6665 6.33301C10.6665 5.78072 10.2188 5.33301 9.6665 5.33301C9.11422 5.33301 8.6665 5.78072 8.6665 6.33301C8.6665 6.88529 9.11422 7.33301 9.6665 7.33301Z" stroke="#2F2FE9" stroke-width="0.8" stroke-linecap="round" stroke-linejoin="round"/>
</svg>
