<svg width="16" height="16" viewBox="0 0 16 16" fill="none" xmlns="http://www.w3.org/2000/svg">
<path opacity="0.4" d="M8.00004 5.25977L7.28671 6.49977C7.12671 6.7731 7.26004 6.99977 7.57337 6.99977H8.42004C8.74004 6.99977 8.86671 7.22643 8.70671 7.49977L8.00004 8.73977" stroke="#32C284" stroke-width="1.5" stroke-linecap="round" stroke-linejoin="round"/>
<path d="M5.53552 12.0261V11.2528C4.00219 10.3261 2.74219 8.51947 2.74219 6.59947C2.74219 3.29947 5.77552 0.712799 9.20219 1.45947C10.7089 1.7928 12.0289 2.7928 12.7155 4.1728C14.1089 6.9728 12.6422 9.94613 10.4889 11.2461V12.0195C10.4889 12.2128 10.5622 12.6595 9.84885 12.6595H6.17552C5.44219 12.6661 5.53552 12.3795 5.53552 12.0261Z" stroke="#32C284" stroke-width="1.5" stroke-linecap="round" stroke-linejoin="round"/>
<path opacity="0.4" d="M5.66406 14.6668C7.19073 14.2335 8.80406 14.2335 10.3307 14.6668" stroke="#32C284" stroke-width="1.5" stroke-linecap="round" stroke-linejoin="round"/>
</svg>
