<svg width="12" height="13" viewBox="0 0 12 13" fill="none" xmlns="http://www.w3.org/2000/svg">
<path opacity="0.4" d="M3 5.25V4.25C3 2.595 3.5 1.25 6 1.25C8.5 1.25 9 2.595 9 4.25V5.25" stroke="#4030EA" stroke-width="1.2" stroke-linecap="round" stroke-linejoin="round"/>
<path opacity="0.4" d="M6 9.5C6.69036 9.5 7.25 8.94036 7.25 8.25C7.25 7.55964 6.69036 7 6 7C5.30964 7 4.75 7.55964 4.75 8.25C4.75 8.94036 5.30964 9.5 6 9.5Z" stroke="#4030EA" stroke-width="1.2" stroke-linecap="round" stroke-linejoin="round"/>
<path d="M8.5 11.25H3.5C1.5 11.25 1 10.75 1 8.75V7.75C1 5.75 1.5 5.25 3.5 5.25H8.5C10.5 5.25 11 5.75 11 7.75V8.75C11 10.75 10.5 11.25 8.5 11.25Z" stroke="#4030EA" stroke-width="1.2" stroke-linecap="round" stroke-linejoin="round"/>
</svg>
