<svg width="16" height="16" viewBox="0 0 16 16" fill="none" xmlns="http://www.w3.org/2000/svg">
<path d="M14.0533 5.72019V10.2802C14.0533 11.0268 13.6533 11.7202 13.0066 12.1002L9.04661 14.3869C8.39994 14.7602 7.59994 14.7602 6.94661 14.3869L2.98661 12.1002C2.33994 11.7269 1.93994 11.0335 1.93994 10.2802V5.72019C1.93994 4.97352 2.33994 4.28016 2.98661 3.90016L6.94661 1.6135C7.59327 1.24016 8.39327 1.24016 9.04661 1.6135L13.0066 3.90016C13.6533 4.28016 14.0533 4.96685 14.0533 5.72019Z" stroke="#546080" stroke-width="1.5" stroke-linecap="round" stroke-linejoin="round"/>
<path opacity="0.4" d="M8.00011 7.33321C8.85799 7.33321 9.55344 6.63775 9.55344 5.77987C9.55344 4.92198 8.85799 4.22656 8.00011 4.22656C7.14223 4.22656 6.44678 4.92198 6.44678 5.77987C6.44678 6.63775 7.14223 7.33321 8.00011 7.33321Z" stroke="#546080" stroke-width="1.5" stroke-linecap="round" stroke-linejoin="round"/>
<path opacity="0.4" d="M10.6666 11.1069C10.6666 9.90689 9.47325 8.93359 7.99992 8.93359C6.52659 8.93359 5.33325 9.90689 5.33325 11.1069" stroke="#546080" stroke-width="1.5" stroke-linecap="round" stroke-linejoin="round"/>
</svg>
