<svg width="29" height="28" viewBox="0 0 29 28" fill="none" xmlns="http://www.w3.org/2000/svg">
<path d="M26.0666 11.6667V15.1667C26.0666 19.8333 23.7333 22.1667 19.0666 22.1667H18.4833C18.1216 22.1667 17.7716 22.3417 17.5499 22.6333L15.7999 24.9667C15.0299 25.9933 13.7699 25.9933 12.9999 24.9667L11.2499 22.6333C11.0633 22.3767 10.6316 22.1667 10.3166 22.1667H9.73328C5.06661 22.1667 2.73328 21 2.73328 15.1667V9.33334C2.73328 4.66668 5.06661 2.33334 9.73328 2.33334H16.7333" stroke="white" stroke-width="1.5" stroke-miterlimit="10" stroke-linecap="round" stroke-linejoin="round"/>
<path opacity="0.4" d="M23.1499 8.16668C24.7608 8.16668 26.0666 6.86084 26.0666 5.25001C26.0666 3.63918 24.7608 2.33334 23.1499 2.33334C21.5391 2.33334 20.2333 3.63918 20.2333 5.25001C20.2333 6.86084 21.5391 8.16668 23.1499 8.16668Z" stroke="white" stroke-width="1.5" stroke-linecap="round" stroke-linejoin="round"/>
<path opacity="0.4" d="M19.0625 12.8333H19.073" stroke="white" stroke-width="1.5" stroke-linecap="round" stroke-linejoin="round"/>
<path opacity="0.4" d="M14.3947 12.8333H14.4052" stroke="white" stroke-width="1.5" stroke-linecap="round" stroke-linejoin="round"/>
<path opacity="0.4" d="M9.72689 12.8333H9.73737" stroke="white" stroke-width="1.5" stroke-linecap="round" stroke-linejoin="round"/>
</svg>
