<svg width="29" height="28" viewBox="0 0 29 28" fill="none" xmlns="http://www.w3.org/2000/svg">
<path d="M26.2667 17.5V10.5C26.2667 4.66668 23.9334 2.33334 18.1 2.33334H11.1C5.26668 2.33334 2.93335 4.66668 2.93335 10.5V17.5C2.93335 23.3333 5.26668 25.6667 11.1 25.6667H18.1C23.9334 25.6667 26.2667 23.3333 26.2667 17.5Z" stroke="white" stroke-width="1.5" stroke-linecap="round" stroke-linejoin="round"/>
<path d="M3.54004 8.29501H25.66" stroke="white" stroke-width="1.5" stroke-linecap="round" stroke-linejoin="round"/>
<path d="M10.54 2.46167V8.13167" stroke="white" stroke-width="1.5" stroke-linecap="round" stroke-linejoin="round"/>
<path d="M18.66 2.46167V7.60667" stroke="white" stroke-width="1.5" stroke-linecap="round" stroke-linejoin="round"/>
<path opacity="0.4" d="M11.975 16.8583V15.4583C11.975 13.6617 13.2467 12.9267 14.7984 13.825L16.0117 14.525L17.225 15.225C18.7767 16.1233 18.7767 17.5933 17.225 18.4917L16.0117 19.1917L14.7984 19.8917C13.2467 20.79 11.975 20.055 11.975 18.2583V16.8583V16.8583Z" stroke="white" stroke-width="1.5" stroke-miterlimit="10" stroke-linecap="round" stroke-linejoin="round"/>
</svg>
