<svg width="28" height="28" viewBox="0 0 28 28" fill="none" xmlns="http://www.w3.org/2000/svg">
<path d="M10.5 25.6667H17.5C23.3333 25.6667 25.6666 23.3333 25.6666 17.5V10.5C25.6666 4.66668 23.3333 2.33334 17.5 2.33334H10.5C4.66665 2.33334 2.33331 4.66668 2.33331 10.5V17.5C2.33331 23.3333 4.66665 25.6667 10.5 25.6667Z" stroke="white" stroke-width="1.5" stroke-linecap="round" stroke-linejoin="round"/>
<path opacity="0.4" d="M10.5 11.6667C11.7887 11.6667 12.8334 10.622 12.8334 9.33333C12.8334 8.04467 11.7887 7 10.5 7C9.21136 7 8.16669 8.04467 8.16669 9.33333C8.16669 10.622 9.21136 11.6667 10.5 11.6667Z" stroke="white" stroke-width="1.5" stroke-linecap="round" stroke-linejoin="round"/>
<path opacity="0.4" d="M3.11499 22.1083L8.86666 18.2467C9.78832 17.6283 11.1183 17.6983 11.9467 18.41L12.3317 18.7483C13.2417 19.53 14.7117 19.53 15.6217 18.7483L20.475 14.5833C21.385 13.8017 22.855 13.8017 23.765 14.5833L25.6667 16.2167" stroke="white" stroke-width="1.5" stroke-linecap="round" stroke-linejoin="round"/>
</svg>
