<svg width="29" height="29" viewBox="0 0 29 29" fill="none" xmlns="http://www.w3.org/2000/svg">
<path opacity="0.4" d="M14.8 8.01334V11.8983" stroke="white" stroke-width="1.5" stroke-miterlimit="10" stroke-linecap="round"/>
<path d="M14.8233 2.83334C10.53 2.83334 7.05332 6.31001 7.05332 10.6033V13.0533C7.05332 13.8467 6.72666 15.0367 6.31832 15.7133L4.83666 18.1867C3.92666 19.715 4.55666 21.4183 6.23666 21.9783C11.8133 23.8333 17.845 23.8333 23.4217 21.9783C24.9967 21.4533 25.6733 19.61 24.8217 18.1867L23.34 15.7133C22.9317 15.0367 22.605 13.835 22.605 13.0533V10.6033C22.5933 6.33334 19.0933 2.83334 14.8233 2.83334Z" stroke="white" stroke-width="1.5" stroke-miterlimit="10" stroke-linecap="round"/>
<path opacity="0.4" d="M18.685 22.4567C18.685 24.5917 16.935 26.3417 14.8 26.3417C13.7383 26.3417 12.7583 25.8983 12.0583 25.1983C11.3583 24.4983 10.915 23.5183 10.915 22.4567" stroke="white" stroke-width="1.5" stroke-miterlimit="10"/>
</svg>
