<svg width="16" height="16" viewBox="0 0 16 16" fill="none" xmlns="http://www.w3.org/2000/svg">
<path d="M9.3335 3.33333C9.3335 2.6 8.7335 2 8.00016 2C7.26683 2 6.66683 2.6 6.66683 3.33333C6.66683 4.06667 7.26683 4.66667 8.00016 4.66667C8.7335 4.66667 9.3335 4.06667 9.3335 3.33333Z" stroke="#4030EA"/>
<path d="M9.3335 12.6668C9.3335 11.9335 8.7335 11.3335 8.00016 11.3335C7.26683 11.3335 6.66683 11.9335 6.66683 12.6668C6.66683 13.4002 7.26683 14.0002 8.00016 14.0002C8.7335 14.0002 9.3335 13.4002 9.3335 12.6668Z" stroke="#4030EA"/>
<path opacity="0.4" d="M9.3335 7.99984C9.3335 7.2665 8.7335 6.6665 8.00016 6.6665C7.26683 6.6665 6.66683 7.2665 6.66683 7.99984C6.66683 8.73317 7.26683 9.33317 8.00016 9.33317C8.7335 9.33317 9.3335 8.73317 9.3335 7.99984Z" stroke="#4030EA"/>
</svg>
