<svg width="19" height="20" viewBox="0 0 19 20" fill="none" xmlns="http://www.w3.org/2000/svg">
<path d="M15.5 14.08C14.74 14.08 14.06 14.38 13.54 14.85L6.41 10.7C6.46 10.47 6.5 10.24 6.5 10C6.5 9.76 6.46 9.53 6.41 9.3L13.46 5.19C14 5.69 14.71 6 15.5 6C17.16 6 18.5 4.66 18.5 3C18.5 1.34 17.16 0 15.5 0C13.84 0 12.5 1.34 12.5 3C12.5 3.24 12.54 3.47 12.59 3.7L5.54 7.81C5 7.31 4.29 7 3.5 7C1.84 7 0.5 8.34 0.5 10C0.5 11.66 1.84 13 3.5 13C4.29 13 5 12.69 5.54 12.19L12.66 16.35C12.61 16.56 12.58 16.78 12.58 17C12.58 18.61 13.89 19.92 15.5 19.92C17.11 19.92 18.42 18.61 18.42 17C18.42 15.39 17.11 14.08 15.5 14.08Z" fill="#546080"/>
</svg>
