<svg width="17" height="14" viewBox="0 0 17 14" fill="none" xmlns="http://www.w3.org/2000/svg">
<path fill-rule="evenodd" clip-rule="evenodd" d="M16.3316 1.40039H2.33301V2.10032H16.3316V1.40039ZM12.832 12.5998V11.8999H13.5319V3.50071H2.33301V2.80078H14.2318V12.5998H12.832ZM15.6345 11.8999H16.3344V12.5998H14.9346V2.80078H16.3344V3.50071H15.6345V11.8999ZM3.03223 10.4991H11.4314V8.39933H10.0315V7.6994H11.2564L9.68157 5.59961H4.78205L3.20721 7.6994H5.83195V8.39933H3.03223V10.4991ZM12.132 11.8997V7.70011H12.0921C12.0685 7.6331 12.0347 7.57008 11.992 7.51323L10.2422 5.18036C10.11 5.00412 9.90258 4.90039 9.68228 4.90039H4.78276C4.56246 4.90039 4.355 5.00412 4.22282 5.18036L2.47299 7.51323C2.38213 7.63439 2.33301 7.78174 2.33301 7.93319V11.8997C2.33301 12.2863 2.64638 12.5996 3.03294 12.5996H3.73287C4.11943 12.5996 4.4328 12.2863 4.4328 11.8997V11.1998H10.0322V11.8997C10.0322 12.2863 10.3456 12.5996 10.7322 12.5996H11.4321C11.8187 12.5996 12.132 12.2863 12.132 11.8997ZM11.4275 11.1992H10.7275V11.8991H11.4275V11.1992ZM3.03223 11.8991V11.1992H3.73216V11.8991H3.03223ZM3.72754 9.09961H5.82733V9.79954H3.72754V9.09961ZM10.7336 9.09961H8.63379V9.79954H10.7336V9.09961Z" fill="#2F2FE9"/>
</svg>
