<svg width="30" height="32" viewBox="0 0 30 32" fill="none" xmlns="http://www.w3.org/2000/svg">
<path opacity="0.4" d="M13.7083 26H9.32941C8.55812 26 7.87392 25.9733 7.26436 25.88C3.99262 25.4933 3.10938 23.84 3.10938 19.3333V12.6667C3.10938 8.16 3.99262 6.50667 7.26436 6.12C7.87392 6.02667 8.55812 6 9.32941 6H13.6337" stroke="#4030EA" stroke-width="1.5" stroke-linecap="round" stroke-linejoin="round"/>
<path d="M18.6875 6H20.5286C21.2999 6 21.9841 6.02667 22.5937 6.12C25.8654 6.50667 26.7487 8.16 26.7487 12.6667V19.3333C26.7487 23.84 25.8654 25.4933 22.5937 25.88C21.9841 25.9733 21.2999 26 20.5286 26H18.6875" stroke="#4030EA" stroke-width="1.5" stroke-linecap="round" stroke-linejoin="round"/>
<path d="M18.6562 2.66602V29.3327" stroke="#4030EA" stroke-width="1.5" stroke-linecap="round" stroke-linejoin="round"/>
<path opacity="0.4" d="M13.8027 16.0007H13.8138" stroke="#4030EA" stroke-width="2" stroke-linecap="round" stroke-linejoin="round"/>
<path opacity="0.4" d="M8.82611 16.0007H8.83728" stroke="#4030EA" stroke-width="2" stroke-linecap="round" stroke-linejoin="round"/>
</svg>
