<svg width="42" height="42" viewBox="0 0 42 42" fill="none" xmlns="http://www.w3.org/2000/svg">
<path opacity="0.4" d="M31.4967 12.53C31.3917 12.5125 31.2692 12.5125 31.1642 12.53C28.7492 12.4425 26.8242 10.465 26.8242 8.015C26.8242 5.5125 28.8367 3.5 31.3392 3.5C33.8417 3.5 35.8542 5.53 35.8542 8.015C35.8367 10.465 33.9117 12.4425 31.4967 12.53Z" stroke="#4030EA" stroke-width="1.5" stroke-linecap="round" stroke-linejoin="round"/>
<path opacity="0.4" d="M29.6931 25.2703C32.0906 25.6728 34.7331 25.2528 36.5881 24.0103C39.0556 22.3653 39.0556 19.6703 36.5881 18.0253C34.7156 16.7828 32.0381 16.3628 29.6406 16.7828" stroke="#4030EA" stroke-width="1.5" stroke-linecap="round" stroke-linejoin="round"/>
<path opacity="0.4" d="M10.4434 12.53C10.5484 12.5125 10.6709 12.5125 10.7759 12.53C13.1909 12.4425 15.1159 10.465 15.1159 8.015C15.1159 5.5125 13.1034 3.5 10.6009 3.5C8.09844 3.5 6.08594 5.53 6.08594 8.015C6.10344 10.465 8.02844 12.4425 10.4434 12.53Z" stroke="#4030EA" stroke-width="1.5" stroke-linecap="round" stroke-linejoin="round"/>
<path opacity="0.4" d="M12.2456 25.2703C9.84812 25.6728 7.20562 25.2528 5.35062 24.0103C2.88313 22.3653 2.88313 19.6703 5.35062 18.0253C7.22312 16.7828 9.90062 16.3628 12.2981 16.7828" stroke="#4030EA" stroke-width="1.5" stroke-linecap="round" stroke-linejoin="round"/>
<path d="M21.0006 25.6042C20.8956 25.5867 20.7731 25.5867 20.6681 25.6042C18.2531 25.5167 16.3281 23.5392 16.3281 21.0892C16.3281 18.5867 18.3406 16.5742 20.8431 16.5742C23.3456 16.5742 25.3581 18.6042 25.3581 21.0892C25.3406 23.5392 23.4156 25.5342 21.0006 25.6042Z" stroke="#4030EA" stroke-width="1.5" stroke-linecap="round" stroke-linejoin="round"/>
<path d="M15.9073 31.1178C13.4398 32.7628 13.4398 35.4578 15.9073 37.1028C18.7073 38.9753 23.2923 38.9753 26.0923 37.1028C28.5598 35.4578 28.5598 32.7628 26.0923 31.1178C23.3098 29.2628 18.7073 29.2628 15.9073 31.1178Z" stroke="#4030EA" stroke-width="1.5" stroke-linecap="round" stroke-linejoin="round"/>
</svg>
