<svg width="16" height="16" viewBox="0 0 16 16" fill="none" xmlns="http://www.w3.org/2000/svg">
<path opacity="0.4" d="M5.54688 10.1798L9.90686 5.81982" stroke="white" stroke-linecap="round" stroke-linejoin="round"/>
<path opacity="0.4" d="M5.82001 6.91343C6.27288 6.91343 6.63999 6.54632 6.63999 6.09344C6.63999 5.64057 6.27288 5.27344 5.82001 5.27344C5.36713 5.27344 5 5.64057 5 6.09344C5 6.54632 5.36713 6.91343 5.82001 6.91343Z" stroke="white" stroke-linecap="round" stroke-linejoin="round"/>
<path opacity="0.4" d="M10.1803 10.7269C10.6332 10.7269 11.0003 10.3598 11.0003 9.9069C11.0003 9.45403 10.6332 9.08691 10.1803 9.08691C9.72746 9.08691 9.36035 9.45403 9.36035 9.9069C9.36035 10.3598 9.72746 10.7269 10.1803 10.7269Z" stroke="white" stroke-linecap="round" stroke-linejoin="round"/>
<path d="M7.99967 14.6668C11.6816 14.6668 14.6663 11.6821 14.6663 8.00016C14.6663 4.31826 11.6816 1.3335 7.99967 1.3335C4.31778 1.3335 1.33301 4.31826 1.33301 8.00016C1.33301 11.6821 4.31778 14.6668 7.99967 14.6668Z" stroke="white" stroke-linecap="round" stroke-linejoin="round"/>
</svg>
