<svg width="30" height="30" viewBox="0 0 30 30" fill="none" xmlns="http://www.w3.org/2000/svg">
<path fill-rule="evenodd" clip-rule="evenodd" d="M11.004 19.819V8.92504H11.032C11.22 7.49504 12.372 6.51704 14.372 6.01704C14.6371 5.94676 14.9101 6.10007 14.988 6.36304C15.0201 6.48925 14.9999 6.62307 14.9319 6.73415C14.8639 6.84523 14.754 6.92416 14.627 6.95304C13.064 7.34304 12.24 8.09704 12.054 9.02904H18.032C18.22 7.59904 19.372 6.51704 21.372 6.01704C21.6371 5.94676 21.9101 6.10007 21.988 6.36304C22.0201 6.48911 22 6.6228 21.9323 6.73386C21.8645 6.84491 21.7548 6.92393 21.628 6.95304C19.835 7.40104 19.013 8.18904 19.013 9.35504V18.71C19.387 18.357 19.749 18.21 20.3 18.21C21.111 18.21 21.514 18.528 22.143 19.353C22.595 19.946 22.793 20.103 23.183 20.103C23.573 20.103 23.771 19.946 24.223 19.353C24.455 19.049 24.636 19.073 24.863 19.243C25.088 19.413 24.933 19.934 24.863 20.031C24.792 20.129 23.994 21.077 23.183 21.077C22.373 21.077 21.969 20.759 21.34 19.934C20.888 19.341 20.69 19.185 20.3 19.185C19.91 19.185 19.713 19.341 19.26 19.935C19.171 20.052 19.086 20.159 19.004 20.256L18.649 20.628C18.295 20.944 17.941 21.077 17.418 21.077C16.607 21.077 16.204 20.759 15.575 19.934C15.123 19.341 14.925 19.185 14.535 19.185C14.145 19.185 13.947 19.341 13.495 19.935C12.866 20.759 12.463 21.077 11.652 21.077C10.842 21.077 10.438 20.759 9.809 19.934C9.357 19.341 9.159 19.185 8.769 19.185C8.379 19.185 8.182 19.341 7.729 19.935C7.101 20.759 6.316 21.065 5.505 21.065C5.23255 21.0684 5.00884 20.8505 5.005 20.578C5.005 20.308 5.229 20.09 5.505 20.09C5.895 20.09 6.475 19.946 6.927 19.353C7.556 18.528 7.958 18.21 8.769 18.21C9.58 18.21 9.983 18.528 10.612 19.353C10.767 19.556 10.892 19.707 11.004 19.819ZM18.004 12.064H12.014V10.004H18.004V12.064ZM12.014 15.036H18.004V13.039H12.014V15.036ZM12.013 16.01V20.031C12.213 19.938 12.4 19.737 12.693 19.353C13.321 18.528 13.723 18.21 14.535 18.21C15.345 18.21 15.749 18.528 16.378 19.353C16.83 19.946 17.028 20.103 17.418 20.103C17.6362 20.1119 17.8483 20.0301 18.004 19.877V16.01H12.014H12.013ZM23.183 24.001C23.994 24.001 24.712 23.251 24.828 22.925C24.8424 22.8843 24.8579 22.8427 24.8735 22.8009C24.9828 22.5073 25.0975 22.1994 24.863 22.083C24.593 21.95 24.457 21.97 24.223 22.277C23.771 22.871 23.573 23.027 23.183 23.027C22.793 23.027 22.595 22.871 22.143 22.277C21.514 21.452 21.111 21.135 20.3 21.135C19.489 21.135 19.086 21.452 18.458 22.277C18.005 22.871 17.808 23.027 17.418 23.027C17.028 23.027 16.83 22.871 16.378 22.277C15.749 21.452 15.345 21.135 14.535 21.135C13.724 21.135 13.321 21.452 12.692 22.277C12.24 22.871 12.042 23.027 11.652 23.027C11.262 23.027 11.064 22.871 10.612 22.277C9.983 21.452 9.58 21.135 8.769 21.135C7.958 21.135 7.556 21.452 6.927 22.277C6.475 22.871 5.89 23.026 5.5 23.026C5.224 23.026 5 23.244 5 23.514C5.00384 23.7865 5.22755 24.0044 5.5 24.001C6.312 24.001 7.102 23.683 7.729 22.859C8.182 22.265 8.379 22.109 8.769 22.109C9.159 22.109 9.357 22.265 9.809 22.858C10.438 23.684 10.842 24.001 11.652 24.001C12.463 24.001 12.866 23.683 13.495 22.859C13.947 22.265 14.145 22.109 14.535 22.109C14.925 22.109 15.123 22.265 15.575 22.858C16.204 23.684 16.607 24.001 17.418 24.001C18.23 24.001 18.632 23.683 19.26 22.859C19.713 22.265 19.91 22.109 20.3 22.109C20.69 22.109 20.888 22.265 21.34 22.858C21.969 23.684 22.373 24.001 23.183 24.001Z" fill="#2F2FE9"/>
</svg>
