<svg width="16" height="14" viewBox="0 0 16 14" fill="none" xmlns="http://www.w3.org/2000/svg">
<path fill-rule="evenodd" clip-rule="evenodd" d="M1.01631 0.599976H15.1423C15.6012 0.599976 15.9733 0.958148 15.9733 1.39998V12.6C15.9733 13.0418 15.6012 13.4 15.1423 13.4H1.01631C0.557389 13.4 0.185364 13.0418 0.185364 12.6V1.39998C0.185364 0.958148 0.557389 0.599976 1.01631 0.599976ZM8.49479 7.79998V1.39998H14.9346C15.0493 1.39998 15.1423 1.48952 15.1423 1.59998V7.79998H8.49479ZM7.66385 1.39998V7.79998H1.01631V1.59998C1.01631 1.48952 1.10931 1.39998 1.22404 1.39998H7.66385ZM1.01631 8.59998H15.1423V12.4C15.1423 12.5104 15.0493 12.6 14.9346 12.6H1.22404C1.10937 12.6 1.01631 12.5104 1.01631 12.4V8.59998ZM8.91026 10.2H7.24837C7.01892 10.2 6.8329 10.3791 6.8329 10.6C6.8329 10.8209 7.01892 11 7.24837 11H8.91026C9.13972 11 9.32573 10.8209 9.32573 10.6C9.32573 10.3791 9.13972 10.2 8.91026 10.2ZM5.17517 5.03198V3.43198C5.17517 3.21106 5.36119 3.03198 5.59064 3.03198C5.8201 3.03198 6.00612 3.21106 6.00612 3.43198V5.03198C6.00612 5.25289 5.8201 5.43198 5.59064 5.43198C5.36119 5.43198 5.17517 5.25289 5.17517 5.03198ZM10.1567 3.43198V5.03198C10.1567 5.25289 10.3427 5.43198 10.5721 5.43198C10.8016 5.43198 10.9876 5.25289 10.9876 5.03198V3.43198C10.9876 3.21106 10.8016 3.03198 10.5721 3.03198C10.3427 3.03198 10.1567 3.21106 10.1567 3.43198Z" fill="#2F2FE9"/>
</svg>
