<svg width="20" height="20" viewBox="0 0 20 20" fill="none" xmlns="http://www.w3.org/2000/svg">
<path opacity="0.4" d="M14.5 11.26V13.96C14.5 17.56 13.06 19 9.46 19H6.04C2.44 19 1 17.56 1 13.96V10.54C1 6.94 2.44 5.5 6.04 5.5H8.74" stroke="#4030EA" stroke-width="1.5" stroke-linecap="round" stroke-linejoin="round"/>
<path d="M14.5002 11.26H11.6202C9.46023 11.26 8.74023 10.54 8.74023 8.38V5.5L14.5002 11.26Z" stroke="#4030EA" stroke-width="1.5" stroke-linecap="round" stroke-linejoin="round"/>
<path opacity="0.4" d="M5.5 3.7C5.5 2.206 6.706 1 8.2 1H13.6" stroke="#4030EA" stroke-width="1.5" stroke-linecap="round" stroke-linejoin="round"/>
<path opacity="0.4" d="M19.0002 6.40039V11.9714C19.0002 13.3664 17.8662 14.5004 16.4712 14.5004" stroke="#4030EA" stroke-width="1.5" stroke-linecap="round" stroke-linejoin="round"/>
<path d="M19.0001 6.4H16.3001C14.2751 6.4 13.6001 5.725 13.6001 3.7V1L19.0001 6.4Z" stroke="#4030EA" stroke-width="1.5" stroke-linecap="round" stroke-linejoin="round"/>
</svg>
