<svg width="42" height="43" viewBox="0 0 42 43" fill="none" xmlns="http://www.w3.org/2000/svg">
<path d="M16.0305 19.7373C15.8555 19.7198 15.6455 19.7198 15.453 19.7373C11.288 19.5973 7.98047 16.1848 7.98047 11.9848C7.98047 7.69734 11.4455 4.21484 15.7505 4.21484C20.038 4.21484 23.5205 7.69734 23.5205 11.9848C23.503 16.1848 20.1955 19.5973 16.0305 19.7373Z" stroke="#4030EA" stroke-width="1.5" stroke-linecap="round" stroke-linejoin="round"/>
<path opacity="0.4" d="M28.7177 7.71484C32.1127 7.71484 34.8427 10.4623 34.8427 13.8398C34.8427 17.1473 32.2177 19.8423 28.9452 19.9648C28.8052 19.9473 28.6477 19.9473 28.4902 19.9648" stroke="#4030EA" stroke-width="1.5" stroke-linecap="round" stroke-linejoin="round"/>
<path d="M7.27977 26.1948C3.04477 29.0298 3.04477 33.6498 7.27977 36.4673C12.0923 39.6873 19.9848 39.6873 24.7973 36.4673C29.0323 33.6323 29.0323 29.0123 24.7973 26.1948C20.0023 22.9923 12.1098 22.9923 7.27977 26.1948Z" stroke="#4030EA" stroke-width="1.5" stroke-linecap="round" stroke-linejoin="round"/>
<path opacity="0.4" d="M32.0957 35.7148C33.3557 35.4523 34.5457 34.9448 35.5257 34.1923C38.2557 32.1448 38.2557 28.7673 35.5257 26.7198C34.5632 25.9848 33.3907 25.4948 32.1482 25.2148" stroke="#4030EA" stroke-width="1.5" stroke-linecap="round" stroke-linejoin="round"/>
</svg>
