<svg width="17" height="16" viewBox="0 0 17 16" fill="none" xmlns="http://www.w3.org/2000/svg">
<path d="M0.666748 14.6665H15.3334" stroke="#4030EA" stroke-width="1.5" stroke-miterlimit="10" stroke-linecap="round" stroke-linejoin="round"/>
<path opacity="0.4" d="M13.1868 14.6735V11.7002" stroke="#4030EA" stroke-width="1.5" stroke-miterlimit="10" stroke-linecap="round" stroke-linejoin="round"/>
<path d="M13.2001 7.25977C12.3867 7.25977 11.7334 7.91311 11.7334 8.72644V10.2397C11.7334 11.0531 12.3867 11.7064 13.2001 11.7064C14.0134 11.7064 14.6667 11.0531 14.6667 10.2397V8.72644C14.6667 7.91311 14.0134 7.25977 13.2001 7.25977Z" stroke="#4030EA" stroke-width="1.5" stroke-miterlimit="10" stroke-linecap="round" stroke-linejoin="round"/>
<path d="M1.3999 14.6668V4.02018C1.3999 2.68018 2.0666 2.00684 3.39327 2.00684H7.54659C8.87326 2.00684 9.53324 2.68018 9.53324 4.02018V14.6668" stroke="#4030EA" stroke-width="1.5" stroke-miterlimit="10" stroke-linecap="round" stroke-linejoin="round"/>
<path opacity="0.4" d="M3.8667 5.5H7.16671" stroke="#4030EA" stroke-width="1.5" stroke-miterlimit="10" stroke-linecap="round" stroke-linejoin="round"/>
<path opacity="0.4" d="M3.8667 8H7.16671" stroke="#4030EA" stroke-width="1.5" stroke-miterlimit="10" stroke-linecap="round" stroke-linejoin="round"/>
<path opacity="0.4" d="M5.5 14.6665V12.1665" stroke="#4030EA" stroke-width="1.5" stroke-miterlimit="10" stroke-linecap="round" stroke-linejoin="round"/>
</svg>
