<svg width="95" height="111" viewBox="0 0 95 111" fill="none" xmlns="http://www.w3.org/2000/svg">
<path d="M50.7856 103.508H23.8123C17.0689 103.508 13.6973 100.136 13.6973 93.3928V66.4195C13.6973 59.6761 17.0689 56.3044 23.8123 56.3044H40.6706V93.3928C40.6706 100.136 44.0423 103.508 50.7856 103.508Z" stroke="#4030EA" stroke-width="4" stroke-miterlimit="10" stroke-linecap="round" stroke-linejoin="round"/>
<path opacity="0.4" d="M41.0397 42.8177C40.77 43.8292 40.6689 44.9419 40.6689 46.1894V56.3044H23.8105V49.5611C23.8105 45.8523 26.845 42.8177 30.5539 42.8177H41.0397Z" stroke="#4030EA" stroke-width="4" stroke-miterlimit="10" stroke-linecap="round" stroke-linejoin="round"/>
<path opacity="0.4" d="M54.1562 56.3044V73.1628" stroke="#4030EA" stroke-width="4" stroke-miterlimit="10" stroke-linecap="round" stroke-linejoin="round"/>
<path opacity="0.4" d="M67.6426 56.3044V73.1628" stroke="#4030EA" stroke-width="4" stroke-miterlimit="10" stroke-linecap="round" stroke-linejoin="round"/>
<path d="M64.2713 86.6494H57.5279C55.6735 86.6494 54.1562 88.1667 54.1562 90.0211V103.508H67.6429V90.0211C67.6429 88.1667 66.1257 86.6494 64.2713 86.6494Z" stroke="#4030EA" stroke-width="4" stroke-miterlimit="10" stroke-linecap="round" stroke-linejoin="round"/>
<path opacity="0.4" d="M27.1836 73.1627V86.6494" stroke="#4030EA" stroke-width="4" stroke-miterlimit="10" stroke-linecap="round" stroke-linejoin="round"/>
<path d="M40.6699 93.3927V46.1893C40.6699 39.446 44.0416 36.0743 50.7849 36.0743H71.0149C77.7583 36.0743 81.13 39.446 81.13 46.1893V93.3927C81.13 100.136 77.7583 103.508 71.0149 103.508H50.7849C44.0416 103.508 40.6699 100.136 40.6699 93.3927Z" stroke="#4030EA" stroke-width="4" stroke-miterlimit="10" stroke-linecap="round" stroke-linejoin="round"/>
<circle cx="47.098" cy="47.348" r="47.098" fill="#4030EA" fill-opacity="0.05"/>
</svg>
