<svg width="16" height="16" viewBox="0 0 16 16" fill="none" xmlns="http://www.w3.org/2000/svg">
<path d="M12.6467 14.6673H3.31335C1.31335 14.6673 1.31335 13.7673 1.31335 12.6673V12.0007C1.31335 11.634 1.61335 11.334 1.98002 11.334H13.98C14.3467 11.334 14.6467 11.634 14.6467 12.0007V12.6673C14.6467 13.7673 14.6467 14.6673 12.6467 14.6673Z" stroke="#546080" stroke-width="1.5" stroke-linecap="round" stroke-linejoin="round"/>
<path d="M13.8133 8.66732V11.334H2.17999V8.66732C2.17999 6.10732 3.98666 3.96732 6.39333 3.45398C6.75333 3.37398 7.12666 3.33398 7.51333 3.33398H8.47999C8.86666 3.33398 9.24666 3.37398 9.60666 3.45398C12.0133 3.97398 13.8133 6.10732 13.8133 8.66732Z" stroke="#546080" stroke-width="1.5" stroke-linecap="round" stroke-linejoin="round"/>
<path opacity="0.4" d="M9.66665 3.00065C9.66665 3.16065 9.64665 3.30732 9.60665 3.45398C9.24665 3.37398 8.86665 3.33398 8.47998 3.33398H7.51331C7.12665 3.33398 6.75331 3.37398 6.39331 3.45398C6.35331 3.30732 6.33331 3.16065 6.33331 3.00065C6.33331 2.08065 7.07998 1.33398 7.99998 1.33398C8.91998 1.33398 9.66665 2.08065 9.66665 3.00065Z" stroke="#546080" stroke-width="1.5" stroke-linecap="round" stroke-linejoin="round"/>
<path opacity="0.4" d="M10 7.33398H6" stroke="#546080" stroke-width="1.5" stroke-linecap="round" stroke-linejoin="round"/>
</svg>
