<svg width="42" height="42" viewBox="0 0 42 42" fill="none" xmlns="http://www.w3.org/2000/svg">
<path d="M33.1992 38.5H8.69922C3.44922 38.5 3.44922 36.1375 3.44922 33.25V31.5C3.44922 30.5375 4.23672 29.75 5.19922 29.75H36.6992C37.6617 29.75 38.4492 30.5375 38.4492 31.5V33.25C38.4492 36.1375 38.4492 38.5 33.1992 38.5Z" stroke="#4030EA" stroke-width="1.5" stroke-linecap="round" stroke-linejoin="round"/>
<path d="M36.2602 22.75V29.75H5.72266V22.75C5.72266 16.03 10.4652 10.4125 16.7827 9.065C17.7277 8.855 18.7077 8.75 19.7227 8.75H22.2602C23.2752 8.75 24.2727 8.855 25.2177 9.065C31.5352 10.43 36.2602 16.03 36.2602 22.75Z" stroke="#4030EA" stroke-width="1.5" stroke-linecap="round" stroke-linejoin="round"/>
<path opacity="0.34" d="M25.375 7.875C25.375 8.295 25.3225 8.68 25.2175 9.065C24.2725 8.855 23.275 8.75 22.26 8.75H19.7225C18.7075 8.75 17.7275 8.855 16.7825 9.065C16.6775 8.68 16.625 8.295 16.625 7.875C16.625 5.46 18.585 3.5 21 3.5C23.415 3.5 25.375 5.46 25.375 7.875Z" stroke="#4030EA" stroke-width="1.5" stroke-linecap="round" stroke-linejoin="round"/>
<path opacity="0.34" d="M26.25 19.25H15.75" stroke="#4030EA" stroke-width="1.5" stroke-linecap="round" stroke-linejoin="round"/>
</svg>
