<svg width="20" height="18" viewBox="0 0 20 18" fill="none" xmlns="http://www.w3.org/2000/svg">
<path fill-rule="evenodd" clip-rule="evenodd" d="M20 4V15.997H16.002V9C16.0039 8.47192 15.7947 7.96498 15.421 7.59185C15.0473 7.21872 14.5401 7.01033 14.012 7.013C12.901 7.013 12 7.903 12 9V15.997H5L0.757 17.93C0.520254 18.07 0.214972 17.9944 0.0710001 17.76C0.0245172 17.6834 -4.27993e-05 17.5956 5.59884e-08 17.506V0.494C5.59884e-08 0.22 0.224 0 0.5 0C0.59 0 0.68 0.024 0.757 0.07L5 3H19C19.5523 3 20 3.44772 20 4ZM5 15.01H11V9C11 7.358 12.349 6.026 14.012 6.026C14.8034 6.02147 15.5639 6.3329 16.1249 6.89121C16.6858 7.44952 17.0008 8.20857 17 9V15.01H19V4.237C19 4.09893 18.8881 3.987 18.75 3.987H5V15.01ZM1 1.365L4 3.559V15.438L1 16.635V1.365Z" fill="#2F2FE9"/>
</svg>
