<svg width="31" height="30" viewBox="0 0 31 30" fill="none" xmlns="http://www.w3.org/2000/svg">
<path fill-rule="evenodd" clip-rule="evenodd" d="M9.5 13.95V23.5C9.5 23.7761 9.27614 24 9 24C8.72386 24 8.5 23.7761 8.5 23.5V13.95C7.33583 13.7124 6.49976 12.6882 6.5 11.5V7H7.5V12C7.5 12.502 8.5 13.027 8.5 12.502V7H9.5V12.502C9.5 13.012 10.502 12.5 10.502 12V7H11.5V11.5C11.5002 12.6882 10.6642 13.7124 9.5 13.95ZM15 7C16.105 7 16.5 7.895 16.5 9V14.788C16.5002 15.5382 16.0805 16.2255 15.413 16.568L14.5 17.036V23C14.5 23.552 14.5 24 14.001 24C13.5 24 13.5 23.552 13.5 23V9C13.5 7.895 13.895 7 15 7ZM14.4993 8.86838C14.4955 8.37851 14.4926 8 15 8C15.5074 8 15.5045 8.37851 15.5007 8.86838V8.86839V8.8684V8.86841V8.86842C15.5003 8.91148 15.5 8.9554 15.5 9V14.788C15.5 15.1632 15.29 15.5069 14.956 15.678L14.5 15.98V9C14.5 8.9554 14.4997 8.91148 14.4993 8.86842V8.86841V8.8684V8.86839V8.86838ZM19.5 8H18.5V7H21.5V8H20.5V17H21.5C22.6046 17 23.5 17.8954 23.5 19V22C23.5 23.1046 22.6046 24 21.5 24H18.5C17.3954 24 16.5 23.1046 16.5 22V19C16.5 17.8954 17.3954 17 18.5 17H19.5V8ZM21.5 18C22.0523 18 22.5 18.4477 22.5 19V22C22.5 22.5523 22.0523 23 21.5 23V18ZM20.5 18V23H19.5V18H20.5ZM18.5 18V23C17.9477 23 17.5 22.5523 17.5 22V19C17.5 18.4477 17.9477 18 18.5 18Z" fill="#2F2FE9"/>
</svg>
