<svg width="22" height="22" viewBox="0 0 22 22" fill="none" xmlns="http://www.w3.org/2000/svg">
<path d="M18.2413 12.375H3.75801C2.38301 12.375 1.83301 12.9617 1.83301 14.4192V18.1225C1.83301 19.58 2.38301 20.1667 3.75801 20.1667H18.2413C19.6163 20.1667 20.1663 19.58 20.1663 18.1225V14.4192C20.1663 12.9617 19.6163 12.375 18.2413 12.375Z" stroke="#979797" stroke-width="1.5" stroke-linecap="round" stroke-linejoin="round"/>
<path opacity="0.4" d="M18.2413 1.8335H3.75801C2.38301 1.8335 1.83301 2.42016 1.83301 3.87766V7.581C1.83301 9.0385 2.38301 9.62516 3.75801 9.62516H18.2413C19.6163 9.62516 20.1663 9.0385 20.1663 7.581V3.87766C20.1663 2.42016 19.6163 1.8335 18.2413 1.8335Z" stroke="#979797" stroke-width="1.5" stroke-linecap="round" stroke-linejoin="round"/>
</svg>
