<svg width="22" height="22" viewBox="0 0 22 22" fill="none" xmlns="http://www.w3.org/2000/svg">
<path d="M20.1667 7.81016V3.6485C20.1667 2.356 19.58 1.8335 18.1225 1.8335H14.4192C12.9617 1.8335 12.375 2.356 12.375 3.6485V7.801C12.375 9.10266 12.9617 9.616 14.4192 9.616H18.1225C19.58 9.62516 20.1667 9.10266 20.1667 7.81016Z" fill="#4030EA"/>
<path opacity="0.4" d="M20.1667 18.1225V14.4192C20.1667 12.9617 19.58 12.375 18.1225 12.375H14.4192C12.9617 12.375 12.375 12.9617 12.375 14.4192V18.1225C12.375 19.58 12.9617 20.1667 14.4192 20.1667H18.1225C19.58 20.1667 20.1667 19.58 20.1667 18.1225Z" fill="#4030EA"/>
<path opacity="0.4" d="M9.62467 7.81016V3.6485C9.62467 2.356 9.03801 1.8335 7.58051 1.8335H3.87717C2.41967 1.8335 1.83301 2.356 1.83301 3.6485V7.801C1.83301 9.10266 2.41967 9.616 3.87717 9.616H7.58051C9.03801 9.62516 9.62467 9.10266 9.62467 7.81016Z" fill="#4030EA"/>
<path d="M9.62467 18.1225V14.4192C9.62467 12.9617 9.03801 12.375 7.58051 12.375H3.87717C2.41967 12.375 1.83301 12.9617 1.83301 14.4192V18.1225C1.83301 19.58 2.41967 20.1667 3.87717 20.1667H7.58051C9.03801 20.1667 9.62467 19.58 9.62467 18.1225Z" fill="#4030EA"/>
</svg>
