<svg width="31" height="30" viewBox="0 0 31 30" fill="none" xmlns="http://www.w3.org/2000/svg">
<path fill-rule="evenodd" clip-rule="evenodd" d="M8.25 9.004C11.292 6.922 14.266 6 15.75 6C17.234 6 20.112 6.91 23.25 9.004V13.004C23.25 16.225 20.75 19.89 15.75 24C10.75 19.883 8.25 16.218 8.25 13.004V9.004ZM22.25 12.258C19.543 10.756 17.374 10 15.718 10C14.075 10 11.927 10.745 9.25 12.223V9.54C11.706 7.95 14.319 7 15.75 7C17.159 7 19.707 7.932 22.25 9.546V12.258ZM9.262 13.363C12.027 11.784 14.188 11 15.718 11C17.26 11 19.441 11.795 22.235 13.398C22.041 16.037 19.905 19.158 15.751 22.696C11.578 19.136 9.442 16.003 9.262 13.363ZM12.2755 15.6495C12.3628 15.9116 12.6459 16.0533 12.908 15.966C13.232 15.8584 13.5558 15.7122 13.8793 15.5661C14.5064 15.2828 15.1327 15 15.758 15C16.384 15 17.0108 15.2834 17.6386 15.5672C17.9615 15.7132 18.2846 15.8593 18.608 15.967C18.8703 16.0543 19.1537 15.9123 19.241 15.65C19.3283 15.3877 19.1863 15.1043 18.924 15.017C18.5859 14.9046 18.2474 14.7595 17.9087 14.6143C17.1927 14.3074 16.4756 14 15.758 14C15.0404 14 14.3233 14.3074 13.6073 14.6143C13.2686 14.7595 12.9301 14.9046 12.592 15.017C12.3299 15.1043 12.1882 15.3874 12.2755 15.6495Z" fill="#2F2FE9"/>
</svg>
