<svg width="17" height="16" viewBox="0 0 17 16" fill="none" xmlns="http://www.w3.org/2000/svg">
<path fill-rule="evenodd" clip-rule="evenodd" d="M7.55409 15.1354C7.13447 15.893 6.45309 16.0042 4.3425 15.9994H0.696321L0.437067 15.7858C0.354824 15.666 0.332617 15.5171 0.376539 15.3798C0.420461 15.2426 0.525899 15.1315 0.663915 15.077C1.48322 14.753 2.02334 14.4866 2.26348 14.297C2.35239 14.2266 2.44379 14.121 2.56096 13.9538C2.54268 13.9794 2.9407 13.3874 3.08445 13.2002C3.31379 12.9034 3.5556 12.6578 3.84559 12.4458C4.5386 11.9378 5.77338 11.8802 6.63092 12.145L9.49933 0.309022C9.55165 0.0938516 9.77523 -0.0397466 9.99873 0.0106218C10.2222 0.0609901 10.361 0.276252 10.3087 0.491422L7.40037 12.4914C7.39424 12.515 7.38589 12.5381 7.37544 12.5602C7.91971 13.1306 7.99532 14.3378 7.55409 15.1354ZM13.6491 11.2002H14.0645C15.6707 11.2002 16.9728 12.4538 16.9728 14.0002V15.2002C16.9728 15.642 16.6008 16.0002 16.1419 16.0002H10.3253C9.86637 16.0002 9.49434 15.642 9.49434 15.2002V14.0002C9.49434 12.4538 10.7964 11.2002 12.4026 11.2002H12.8181V0.400221C12.8181 0.179307 13.0041 0.000221252 13.2336 0.000221252C13.463 0.000221252 13.6491 0.179307 13.6491 0.400221V11.2002ZM11.1562 15.2002V14.0002C11.1562 13.7793 11.3422 13.6002 11.5717 13.6002C11.8012 13.6002 11.9872 13.7793 11.9872 14.0002V15.2002H14.48V14.0002C14.48 13.7793 14.666 13.6002 14.8955 13.6002C15.1249 13.6002 15.3109 13.7793 15.3109 14.0002V15.2002H15.9342C16.0489 15.2002 16.1419 15.1107 16.1419 15.0002V14.0002C16.1419 12.8957 15.2118 12.0002 14.0645 12.0002H12.4026C11.2554 12.0002 10.3253 12.8957 10.3253 14.0002V15.0002C10.3253 15.1098 10.4184 15.2002 10.533 15.2002H11.1562ZM12.8181 14.0002V15.2002H13.6491V14.0002C13.6491 13.7793 13.463 13.6002 13.2336 13.6002C13.0041 13.6002 12.8181 13.7793 12.8181 14.0002ZM4.34499 15.1994H4.0874H2.34657C2.50305 15.116 2.65203 15.0202 2.79196 14.913C2.95316 14.785 3.09027 14.6274 3.24815 14.4034C3.24316 14.4098 3.62706 13.8386 3.75253 13.6762C3.92041 13.4513 4.12106 13.2509 4.34831 13.081C4.92665 12.6578 6.29771 12.7298 6.73229 13.0722C7.04057 13.3154 7.12034 14.217 6.8212 14.7594C6.62676 15.1098 6.05424 15.2034 4.34499 15.1994Z" fill="#2F2FE9"/>
</svg>
