<svg width="32" height="32" viewBox="0 0 32 32" fill="none" xmlns="http://www.w3.org/2000/svg">
<path d="M13.9869 2.97406L7.33354 5.48073C5.80021 6.05406 4.54688 7.8674 4.54688 9.49406V19.4007C4.54688 20.9741 5.58687 23.0407 6.85354 23.9874L12.5869 28.2674C14.4669 29.6807 17.5602 29.6807 19.4402 28.2674L25.1735 23.9874C26.4402 23.0407 27.4802 20.9741 27.4802 19.4007V9.49406C27.4802 7.85406 26.2269 6.04073 24.6935 5.4674L18.0402 2.97406C16.9069 2.56073 15.0935 2.56073 13.9869 2.97406Z" stroke="#4030EA" stroke-width="1.5" stroke-linecap="round" stroke-linejoin="round"/>
<g opacity="0.4">
<path d="M16.0026 16.6673C17.4754 16.6673 18.6693 15.4734 18.6693 14.0007C18.6693 12.5279 17.4754 11.334 16.0026 11.334C14.5298 11.334 13.3359 12.5279 13.3359 14.0007C13.3359 15.4734 14.5298 16.6673 16.0026 16.6673Z" stroke="#4030EA" stroke-width="1.5" stroke-miterlimit="10" stroke-linecap="round" stroke-linejoin="round"/>
<path d="M16 16.668V20.668" stroke="#4030EA" stroke-width="1.5" stroke-miterlimit="10" stroke-linecap="round" stroke-linejoin="round"/>
</g>
</svg>
