<svg width="21" height="20" viewBox="0 0 21 20" fill="none" xmlns="http://www.w3.org/2000/svg">
<path d="M10.5008 0C9.18762 0 7.88726 0.258658 6.67401 0.761205C5.46075 1.26375 4.35836 2.00035 3.42977 2.92893C1.55441 4.8043 0.500843 7.34784 0.500843 10C0.4921 12.3091 1.29164 14.5485 2.76084 16.33L0.760843 18.33C0.622085 18.4706 0.528089 18.6492 0.490715 18.8432C0.45334 19.0372 0.474263 19.2379 0.550843 19.42C0.6339 19.5999 0.768547 19.7511 0.937689 19.8544C1.10683 19.9577 1.30284 20.0083 1.50084 20H10.5008C13.153 20 15.6965 18.9464 17.5719 17.0711C19.4473 15.1957 20.5008 12.6522 20.5008 10C20.5008 7.34784 19.4473 4.8043 17.5719 2.92893C15.6965 1.05357 13.153 0 10.5008 0ZM10.5008 18H3.91084L4.84084 17.07C5.02709 16.8826 5.13164 16.6292 5.13164 16.365C5.13164 16.1008 5.02709 15.8474 4.84084 15.66C3.53143 14.352 2.71602 12.6305 2.53353 10.7888C2.35105 8.94705 2.81279 7.09901 3.84007 5.55952C4.86735 4.02004 6.39663 2.88436 8.16736 2.34597C9.93808 1.80759 11.8407 1.8998 13.5511 2.60691C15.2614 3.31402 16.6737 4.59227 17.5473 6.22389C18.4209 7.85551 18.7017 9.73954 18.342 11.555C17.9822 13.3705 17.0042 15.005 15.5744 16.1802C14.1446 17.3554 12.3516 17.9985 10.5008 18Z" fill="#546080"/>
</svg>
