<svg width="19" height="19" viewBox="0 0 19 19" fill="none" xmlns="http://www.w3.org/2000/svg">
<path fill-rule="evenodd" clip-rule="evenodd" d="M3.99985 10H7.05001C7.11395 10.315 7.23712 10.6085 7.40738 10.8683L5.25949 12.9896H2.24865V13.9896H4.25949L2.69341 15.5557L3.40052 16.2628L5.02184 14.6415V16.7628H6.02184V13.6415L8.1108 11.5788C8.37577 11.7562 8.67655 11.8843 9 11.95V15.371L6.87102 17.5L7.57812 18.2071L9 16.7852V19H10V16.7071L11.5 18.2071L12.2071 17.5L10 15.2929V11.95C10.3453 11.8799 10.6647 11.7387 10.9423 11.5422L13.013 13.4591V16.7628H14.013V14.4591L15.6343 16.0804L16.3414 15.3733L14.9577 13.9896H16.7861V12.9896H13.9577L11.6244 10.8186C11.7782 10.5713 11.8901 10.2951 11.95 10H15.2929L17.629 12.3361L18.3361 11.629L16.7071 10H19V9H16.7071L18.3361 7.39445L17.629 6.68735L15.2929 9H11.95C11.8848 8.67867 11.7579 8.37972 11.5823 8.11602L13.6648 6.02016H16.7861V5.02016H14.6648L16.3414 3.3436L15.6343 2.6365L14.013 4.25781V2.24698H13.013V5.25781L10.8735 7.41076C10.6124 7.23875 10.3171 7.11437 10 7.05001V3.78523L12.2071 1.57812L11.5 0.871018L10 2.37102V0H9V2.29289L7.57812 0.871018L6.87102 1.57812L9 3.70711V7.05001C8.70321 7.11025 8.42552 7.22307 8.17706 7.37832L6.00035 5.02016V2.19174L5.02331 2.24698V4.07541L3.40199 2.45409L2.69488 3.16119L4.55385 5.02016H2.25013V6.02016H5.55385L7.45458 8.06219C7.25981 8.33876 7.11972 8.6566 7.05001 9H3.99985L1.64997 6.63205L0.942862 7.33916L2.62898 9H0V10H2.62898L1 11.629L1.70711 12.3361L3.99985 10ZM11 9.5C11 10.3284 10.3284 11 9.5 11C8.67157 11 8 10.3284 8 9.5C8 8.67157 8.67157 8 9.5 8C10.3284 8 11 8.67157 11 9.5Z" fill="#2F2FE9"/>
</svg>
