<svg width="18" height="18" viewBox="0 0 18 18" fill="none" xmlns="http://www.w3.org/2000/svg">
<path d="M9.37504 16.5003H3.06004C2.19004 16.5003 1.47754 15.8028 1.47754 14.9478V3.81776C1.47754 1.85276 2.94004 0.960262 4.73254 1.83776L8.06254 3.47276C8.78254 3.82526 9.37504 4.76276 9.37504 5.55776V16.5003Z" stroke="#2F2FE9" stroke-linecap="round" stroke-linejoin="round"/>
<path d="M16.4775 11.2945V14.1295C16.4775 15.7495 15.7275 16.4995 14.1075 16.4995H9.375V7.81445L9.7275 7.88945L13.1025 8.64695L14.625 8.98445C15.615 9.20195 16.425 9.71195 16.47 11.152C16.4775 11.197 16.4775 11.242 16.4775 11.2945Z" stroke="#2F2FE9" stroke-linecap="round" stroke-linejoin="round"/>
<path opacity="0.4" d="M4.125 6.75H6.7275" stroke="#2F2FE9" stroke-linecap="round" stroke-linejoin="round"/>
<path opacity="0.4" d="M4.125 9.75H6.7275" stroke="#2F2FE9" stroke-linecap="round" stroke-linejoin="round"/>
<path d="M13.1025 8.64812V11.0631C13.1025 11.9931 12.345 12.7506 11.415 12.7506C10.485 12.7506 9.72754 11.9931 9.72754 11.0631V7.89062L13.1025 8.64812Z" stroke="#2F2FE9" stroke-linecap="round" stroke-linejoin="round"/>
<path d="M16.47 11.1534C16.425 12.0384 15.69 12.7509 14.79 12.7509C13.86 12.7509 13.1025 11.9934 13.1025 11.0634V8.64844L14.625 8.98594C15.615 9.20344 16.425 9.71344 16.47 11.1534Z" stroke="#2F2FE9" stroke-linecap="round" stroke-linejoin="round"/>
</svg>
