<svg width="16" height="16" viewBox="0 0 16 16" fill="none" xmlns="http://www.w3.org/2000/svg">
<path d="M2.6711 14.4508L3.69121 13.4449C3.86705 13.2841 4.13839 13.2907 4.30626 13.4597C4.47412 13.6288 4.47877 13.9002 4.31678 14.0749L2.53959 15.8298C2.3664 16.0015 2.08721 16.0015 1.91402 15.8298L0.136839 14.0749C0.0209682 13.9638 -0.0259768 13.7989 0.014037 13.6434C0.0540508 13.488 0.174801 13.3662 0.329905 13.3248C0.485009 13.2835 0.650346 13.3291 0.762408 13.444L1.78251 14.4516V5.9434L0.762408 6.95017C0.587386 7.11796 0.310161 7.11444 0.139446 6.94227C-0.0312695 6.7701 -0.0324293 6.49286 0.136839 6.31927L1.91402 4.5643C2.08721 4.39263 2.3664 4.39263 2.53959 4.5643L4.31678 6.31927C4.43265 6.43035 4.47959 6.5953 4.43958 6.75074C4.39956 6.90619 4.27881 7.02797 4.12371 7.0693C3.96861 7.11064 3.80327 7.06509 3.69121 6.95017L2.6711 5.9434V14.4508Z" fill="#4030EA" fill-opacity="0.5"/>
<path d="M5.96968 2.66932L6.97645 3.68853C7.09138 3.80059 7.13692 3.96593 7.09559 4.12103C7.05426 4.27614 6.93248 4.39689 6.77703 4.4369C6.62158 4.47692 6.45663 4.42997 6.34555 4.3141L4.58969 2.53781C4.41802 2.36462 4.41802 2.08543 4.58969 1.91224L6.34555 0.136839C6.51914 -0.0324292 6.79639 -0.0312694 6.96856 0.139445C7.14073 0.31016 7.14424 0.587384 6.97645 0.762406L5.96968 1.78162H14.4824L13.4756 0.762406C13.3607 0.650345 13.3151 0.485007 13.3565 0.329904C13.3978 0.1748 13.5196 0.0540507 13.675 0.014037C13.8305 -0.0259767 13.9954 0.0209681 14.1065 0.136839L15.8624 1.91224C16.034 2.08543 16.034 2.36462 15.8624 2.53781L14.1065 4.31499C13.9329 4.48426 13.6557 4.4831 13.4835 4.31238C13.3113 4.14167 13.3078 3.86444 13.4756 3.68942L14.4824 2.67021H5.96968V2.66932Z" fill="#4030EA" fill-opacity="0.5"/>
<path d="M15.999 14.2234C15.9986 15.2046 15.203 15.9997 14.2219 15.9997H7.11312C6.13196 15.9997 5.33643 15.2046 5.33594 14.2234V7.11915C5.33692 6.13834 6.1323 5.34375 7.11312 5.34375H14.2219C15.2027 5.34375 15.9981 6.13834 15.999 7.11915V8.89633H15.1104V7.11915C15.11 6.62874 14.7123 6.23145 14.2219 6.23145H7.11312C6.62237 6.23145 6.22453 6.62929 6.22453 7.12004V14.2225C6.22453 14.7133 6.62237 15.1111 7.11312 15.1111H14.2219C14.7126 15.1111 15.1104 14.7133 15.1104 14.2225H15.999V14.2234Z" fill="#4030EA"/>
<path d="M15.998 12.4471H15.1094V10.6699H15.998V12.4471Z" fill="#4030EA"/>
</svg>
