<svg width="17" height="16" viewBox="0 0 17 16" fill="none" xmlns="http://www.w3.org/2000/svg">
<path d="M12.5 12.572H11.9933C11.46 12.572 10.9533 12.7787 10.58 13.152L9.43998 14.2787C8.91998 14.792 8.07334 14.792 7.55334 14.2787L6.41333 13.152C6.04 12.7787 5.52667 12.572 5 12.572H4.5C3.39333 12.572 2.5 11.6854 2.5 10.592V3.31203C2.5 2.2187 3.39333 1.33203 4.5 1.33203H12.5C13.6067 1.33203 14.5 2.2187 14.5 3.31203V10.5854C14.5 11.6787 13.6067 12.572 12.5 12.572Z" stroke="#546080" stroke-miterlimit="10" stroke-linecap="round" stroke-linejoin="round"/>
<path opacity="0.4" d="M8.54671 5.96719C8.52005 5.96719 8.48003 5.96719 8.4467 5.96719C7.7467 5.94052 7.19336 5.37385 7.19336 4.66719C7.19336 3.94719 7.77337 3.36719 8.49337 3.36719C9.21337 3.36719 9.79338 3.95385 9.79338 4.66719C9.80004 5.37385 9.24671 5.94719 8.54671 5.96719Z" stroke="#546080" stroke-linecap="round" stroke-linejoin="round"/>
<path opacity="0.4" d="M6.66695 7.97266C5.78029 8.56599 5.78029 9.53266 6.66695 10.126C7.67362 10.7993 9.32695 10.7993 10.3336 10.126C11.2203 9.53266 11.2203 8.56599 10.3336 7.97266C9.32695 7.30599 7.68029 7.30599 6.66695 7.97266Z" stroke="#546080" stroke-linecap="round" stroke-linejoin="round"/>
</svg>
