<svg width="16" height="16" viewBox="0 0 16 16" fill="none" xmlns="http://www.w3.org/2000/svg">
<path d="M2.9365 10.3509L5.9565 13.3709C7.1965 14.6109 9.20984 14.6109 10.4565 13.3709L13.3832 10.4442C14.6232 9.20424 14.6232 7.19091 13.3832 5.94424L10.3565 2.93091C9.72317 2.29758 8.84984 1.95758 7.9565 2.00424L4.62317 2.16424C3.28984 2.22424 2.22984 3.28424 2.16317 4.61091L2.00317 7.94424C1.96317 8.84424 2.30317 9.71758 2.9365 10.3509Z" stroke="white" stroke-linecap="round" stroke-linejoin="round"/>
<path opacity="0.4" d="M6.48991 8.15072C7.41038 8.15072 8.15658 7.40452 8.15658 6.48405C8.15658 5.56357 7.41038 4.81738 6.48991 4.81738C5.56943 4.81738 4.82324 5.56357 4.82324 6.48405C4.82324 7.40452 5.56943 8.15072 6.48991 8.15072Z" stroke="white" stroke-linecap="round"/>
<path opacity="0.4" d="M8.82324 11.4841L11.4899 8.81738" stroke="white" stroke-miterlimit="10" stroke-linecap="round" stroke-linejoin="round"/>
</svg>
