<svg width="12" height="12" viewBox="0 0 12 12" fill="none" xmlns="http://www.w3.org/2000/svg">
<path d="M5.02501 1.26514L2.01501 3.23014C1.05001 3.86014 1.05001 5.27014 2.01501 5.90014L5.02501 7.86514C5.56501 8.22014 6.45501 8.22014 6.99501 7.86514L9.99001 5.90014C10.95 5.27014 10.95 3.86514 9.99001 3.23514L6.99501 1.27014C6.45501 0.91014 5.56501 0.91014 5.02501 1.26514Z" stroke="#4030EA" stroke-linecap="round" stroke-linejoin="round"/>
<path opacity="0.4" d="M2.81506 6.54004L2.81006 8.88504C2.81006 9.52004 3.30006 10.2 3.90006 10.4L5.49506 10.93C5.77006 11.02 6.22506 11.02 6.50506 10.93L8.10006 10.4C8.70006 10.2 9.19006 9.52004 9.19006 8.88504V6.56504" stroke="#4030EA" stroke-linecap="round" stroke-linejoin="round"/>
<path opacity="0.4" d="M10.7 7.5V4.5" stroke="#4030EA" stroke-linecap="round" stroke-linejoin="round"/>
</svg>
