<svg width="16" height="16" viewBox="0 0 16 16" fill="none" xmlns="http://www.w3.org/2000/svg">
<path opacity="0.4" d="M11.9985 4.7735C11.9585 4.76683 11.9118 4.76683 11.8718 4.7735C10.9518 4.74017 10.2185 3.98683 10.2185 3.0535C10.2185 2.10016 10.9852 1.3335 11.9385 1.3335C12.8918 1.3335 13.6585 2.10683 13.6585 3.0535C13.6518 3.98683 12.9185 4.74017 11.9985 4.7735Z" stroke="#546080" stroke-width="1.5" stroke-linecap="round" stroke-linejoin="round"/>
<path opacity="0.4" d="M11.3117 9.62645C12.2251 9.77978 13.2318 9.61978 13.9384 9.14645C14.8784 8.51978 14.8784 7.49312 13.9384 6.86645C13.2251 6.39312 12.2051 6.23311 11.2917 6.39311" stroke="#546080" stroke-width="1.5" stroke-linecap="round" stroke-linejoin="round"/>
<path opacity="0.4" d="M3.97836 4.7735C4.01836 4.76683 4.06503 4.76683 4.10503 4.7735C5.02503 4.74017 5.75836 3.98683 5.75836 3.0535C5.75836 2.10016 4.99169 1.3335 4.03836 1.3335C3.08503 1.3335 2.31836 2.10683 2.31836 3.0535C2.32503 3.98683 3.05836 4.74017 3.97836 4.7735Z" stroke="#546080" stroke-width="1.5" stroke-linecap="round" stroke-linejoin="round"/>
<path opacity="0.4" d="M4.66492 9.62645C3.75158 9.77978 2.74492 9.61978 2.03825 9.14645C1.09825 8.51978 1.09825 7.49312 2.03825 6.86645C2.75159 6.39312 3.77158 6.23311 4.68492 6.39311" stroke="#546080" stroke-width="1.5" stroke-linecap="round" stroke-linejoin="round"/>
<path d="M7.99997 9.75348C7.95997 9.74681 7.9133 9.74681 7.8733 9.75348C6.9533 9.72015 6.21997 8.96681 6.21997 8.03348C6.21997 7.08014 6.98664 6.31348 7.93997 6.31348C8.8933 6.31348 9.65997 7.08681 9.65997 8.03348C9.6533 8.96681 8.91997 9.72681 7.99997 9.75348Z" stroke="#546080" stroke-width="1.5" stroke-linecap="round" stroke-linejoin="round"/>
<path d="M6.05998 11.8532C5.11998 12.4799 5.11998 13.5066 6.05998 14.1332C7.12665 14.8466 8.87331 14.8466 9.93998 14.1332C10.88 13.5066 10.88 12.4799 9.93998 11.8532C8.87998 11.1466 7.12665 11.1466 6.05998 11.8532Z" stroke="#546080" stroke-width="1.5" stroke-linecap="round" stroke-linejoin="round"/>
</svg>
