<svg width="23" height="22" viewBox="0 0 23 22" fill="none" xmlns="http://www.w3.org/2000/svg">
<path d="M21.7647 1.4268C21.48 1.18994 21.1364 1.0347 20.7704 0.977608C20.4045 0.920517 20.0299 0.963711 19.6866 1.10259L1.76566 8.33794C1.38241 8.49563 1.05618 8.76613 0.83026 9.11356C0.604343 9.46099 0.489427 9.86891 0.500765 10.2832C0.512102 10.6974 0.649157 11.0985 0.893738 11.433C1.13832 11.7676 1.47886 12.0198 1.87016 12.1563L5.49516 13.417L7.51566 20.0987C7.54312 20.1879 7.58297 20.2729 7.63404 20.3511C7.64179 20.3631 7.65272 20.372 7.66096 20.3837C7.71996 20.466 7.79127 20.5388 7.87239 20.5994C7.89546 20.617 7.91755 20.6335 7.94221 20.6491C8.03714 20.7121 8.14228 20.7581 8.25294 20.7852L8.26478 20.7862L8.27149 20.7891C8.33802 20.8026 8.40574 20.8095 8.47364 20.8096C8.48017 20.8096 8.48597 20.8065 8.49244 20.8064C8.5949 20.8046 8.69647 20.7869 8.79353 20.754C8.81611 20.7464 8.83546 20.7335 8.85737 20.7242C8.92975 20.6942 8.99832 20.6558 9.06166 20.6096C9.11238 20.5669 9.16312 20.5242 9.21388 20.4815L11.916 17.4981L15.9463 20.6201C16.3011 20.8964 16.7379 21.0465 17.1875 21.0469C17.6587 21.0463 18.1154 20.8837 18.4809 20.5864C18.8465 20.2892 19.0987 19.8752 19.1954 19.4141L22.458 3.39751C22.532 3.03703 22.5065 2.66323 22.3844 2.3161C22.2623 1.96897 22.0481 1.66158 21.7647 1.4268ZM8.87016 13.7354C8.7315 13.8735 8.63672 14.0495 8.5977 14.2413L8.28819 15.7453L7.50413 13.1522L11.5694 11.0352L8.87016 13.7354ZM17.1719 19.0391L12.4092 15.3496C12.21 15.1957 11.96 15.1224 11.7092 15.1445C11.4583 15.1666 11.225 15.2824 11.0557 15.4688L10.1903 16.424L10.4961 14.9375L17.5791 7.85451C17.7482 7.68567 17.8512 7.46187 17.8695 7.22364C17.8878 6.9854 17.8201 6.7485 17.6788 6.55583C17.5375 6.36316 17.3319 6.22748 17.0992 6.17335C16.8664 6.11922 16.622 6.15023 16.4102 6.26076L6.24491 11.5534L2.52055 10.1905L20.499 2.99807L17.1719 19.0391Z" fill="#546080"/>
</svg>
