<svg width="16" height="17" viewBox="0 0 16 17" fill="none" xmlns="http://www.w3.org/2000/svg">
<path d="M14 4.48763C11.78 4.26763 9.54667 4.1543 7.32 4.1543C6 4.1543 4.68 4.22096 3.36 4.3543L2 4.48763" stroke="#546080" stroke-width="1.5" stroke-linecap="round" stroke-linejoin="round"/>
<path opacity="0.34" d="M5.6665 3.81398L5.81317 2.94065C5.91984 2.30732 5.99984 1.83398 7.1265 1.83398H8.87317C9.99984 1.83398 10.0865 2.33398 10.1865 2.94732L10.3332 3.81398" stroke="#546080" stroke-width="1.5" stroke-linecap="round" stroke-linejoin="round"/>
<path d="M12.5664 6.59375L12.1331 13.3071C12.0598 14.3537 11.9998 15.1671 10.1398 15.1671H5.85977C3.99977 15.1671 3.93977 14.3537 3.86644 13.3071L3.43311 6.59375" stroke="#546080" stroke-width="1.5" stroke-linecap="round" stroke-linejoin="round"/>
<path opacity="0.34" d="M6.88672 11.5H9.10672" stroke="#546080" stroke-width="1.5" stroke-linecap="round" stroke-linejoin="round"/>
<path opacity="0.34" d="M6.3335 8.83398H9.66683" stroke="#546080" stroke-width="1.5" stroke-linecap="round" stroke-linejoin="round"/>
</svg>
