<svg width="22" height="19" viewBox="0 0 22 19" fill="none" xmlns="http://www.w3.org/2000/svg">
<path d="M22 2.74015C21.1819 3.09902 20.3101 3.3369 19.4012 3.4524C20.3362 2.89415 21.0499 2.0169 21.3854 0.959523C20.5136 1.47927 19.5511 1.8464 18.5254 2.05127C17.6976 1.1699 16.5179 0.624023 15.2309 0.624023C12.7339 0.624023 10.7236 2.65077 10.7236 5.1354C10.7236 5.4929 10.7539 5.83665 10.8281 6.1639C7.07848 5.98102 3.76061 4.1839 1.53173 1.44627C1.14261 2.1214 0.91436 2.89415 0.91436 3.72602C0.91436 5.28802 1.71873 6.67265 2.91773 7.47427C2.19311 7.46052 1.48223 7.25015 0.879985 6.91877C0.879985 6.93252 0.879985 6.9504 0.879985 6.96827C0.879985 9.16002 2.44336 10.9805 4.49348 11.3999C4.12636 11.5003 3.72623 11.5484 3.31098 11.5484C3.02223 11.5484 2.73073 11.5319 2.45711 11.4714C3.04148 13.2575 4.69973 14.5706 6.67148 14.6133C5.13698 15.8136 3.18861 16.5369 1.07936 16.5369C0.709485 16.5369 0.354735 16.5204 -1.52588e-05 16.475C1.99786 17.7634 4.36561 18.499 6.91898 18.499C15.2185 18.499 19.756 11.624 19.756 5.66477C19.756 5.4654 19.7491 5.2729 19.7395 5.08177C20.6346 4.44652 21.3867 3.65315 22 2.74015Z" fill="#4030EA"/>
</svg>
