<svg width="12" height="9" viewBox="0 0 12 9" fill="none" xmlns="http://www.w3.org/2000/svg">
<path fill-rule="evenodd" clip-rule="evenodd" d="M2.2367 8.60337C1.99108 8.85613 1.65796 8.99812 1.3106 8.99812C1.1385 8.99837 0.968043 8.96368 0.808985 8.89605C0.649926 8.82842 0.505392 8.72917 0.383655 8.60398C0.261919 8.47879 0.16537 8.33013 0.0995369 8.1665C0.0337043 8.00286 -0.000120163 7.82747 0 7.65037V4.56256C0 2.59162 1.64076 0.996094 3.66094 0.996094C4.54954 0.996094 5.36491 1.30589 5.99955 1.8202C6.63423 1.3067 7.4495 0.998047 8.33763 0.998047C10.3569 0.998047 11.9986 2.5992 11.9986 4.56452V7.65233C11.9986 8.00961 11.8607 8.35227 11.6153 8.605C11.3699 8.85772 11.037 8.99983 10.6898 9.00008C10.3424 9.00008 10.0093 8.85808 9.76369 8.60533C9.51808 8.35258 9.38009 8.00977 9.38009 7.65233V4.56452C9.38009 4.09337 8.9031 3.69542 8.33763 3.69542C7.84662 3.69542 7.42164 3.99688 7.31822 4.3835C7.32125 4.44282 7.32278 4.50252 7.32278 4.56256V7.65037C7.32278 8.00765 7.18492 8.35032 6.93951 8.60304C6.71107 8.83828 6.40684 8.97768 6.08584 8.99604C6.05226 8.99872 6.01848 9.00008 5.98456 9.00008C5.63737 8.99983 5.30448 8.85772 5.05906 8.605C4.81364 8.35227 4.67578 8.00961 4.67578 7.65233V4.56452C4.67578 4.50127 4.67747 4.43842 4.68081 4.37599C4.5751 3.99093 4.15165 3.69347 3.66276 3.69347C3.09729 3.69347 2.6203 4.09329 2.6203 4.56256V7.65037C2.6203 8.00782 2.48231 8.35062 2.2367 8.60337Z" fill="white"/>
</svg>
