<svg width="20" height="20" viewBox="0 0 20 20" fill="none" xmlns="http://www.w3.org/2000/svg">
<path d="M17.5635 7.15035V12.8503C17.5635 13.7837 17.0635 14.6504 16.2552 15.1254L11.3052 17.9837C10.4969 18.4504 9.49687 18.4504 8.68021 17.9837L3.73021 15.1254C2.92187 14.6587 2.42188 13.792 2.42188 12.8503V7.15035C2.42188 6.21702 2.92187 5.35032 3.73021 4.87532L8.68021 2.01699C9.48854 1.55033 10.4885 1.55033 11.3052 2.01699L16.2552 4.87532C17.0635 5.35032 17.5635 6.20869 17.5635 7.15035Z" stroke="#4030EA" stroke-width="1.2" stroke-linecap="round" stroke-linejoin="round"/>
<path opacity="0.4" d="M9.99635 9.16651C11.0687 9.16651 11.938 8.29719 11.938 7.22483C11.938 6.15248 11.0687 5.2832 9.99635 5.2832C8.924 5.2832 8.05469 6.15248 8.05469 7.22483C8.05469 8.29719 8.924 9.16651 9.99635 9.16651Z" stroke="#4030EA" stroke-width="1.2" stroke-linecap="round" stroke-linejoin="round"/>
<path opacity="0.4" d="M13.3307 13.8836C13.3307 12.3836 11.8391 11.167 9.9974 11.167C8.15573 11.167 6.66406 12.3836 6.66406 13.8836" stroke="#4030EA" stroke-width="1.2" stroke-linecap="round" stroke-linejoin="round"/>
</svg>
