<svg width="16" height="16" viewBox="0 0 16 16" fill="none" xmlns="http://www.w3.org/2000/svg">
<path d="M7.9974 8.00065C9.83834 8.00065 11.3307 6.50827 11.3307 4.66732C11.3307 2.82637 9.83834 1.33398 7.9974 1.33398C6.15645 1.33398 4.66406 2.82637 4.66406 4.66732C4.66406 6.50827 6.15645 8.00065 7.9974 8.00065Z" stroke="#4030EA" stroke-width="1.5" stroke-linecap="round" stroke-linejoin="round"/>
<path d="M12.81 10.4933L10.4499 12.8534C10.3566 12.9467 10.2699 13.12 10.2499 13.2467L10.1233 14.1467C10.0766 14.4733 10.3033 14.7 10.6299 14.6533L11.5299 14.5267C11.6566 14.5067 11.8366 14.42 11.9233 14.3267L14.2833 11.9667C14.6899 11.56 14.8833 11.0867 14.2833 10.4867C13.6899 9.89334 13.2166 10.0867 12.81 10.4933Z" stroke="#4030EA" stroke-width="1.5" stroke-miterlimit="10" stroke-linecap="round" stroke-linejoin="round"/>
<path d="M12.4688 10.834C12.6688 11.554 13.2287 12.114 13.9487 12.314" stroke="#4030EA" stroke-width="1.5" stroke-miterlimit="10" stroke-linecap="round" stroke-linejoin="round"/>
<path opacity="0.4" d="M2.27344 14.6667C2.27344 12.0867 4.84012 10 8.00012 10C8.69346 10 9.3601 10.1 9.9801 10.2867" stroke="#4030EA" stroke-width="1.5" stroke-linecap="round" stroke-linejoin="round"/>
</svg>
