<svg width="20" height="20" viewBox="0 0 20 20" fill="none" xmlns="http://www.w3.org/2000/svg">
<path d="M18.3307 7.50033V12.5003C18.3307 12.6837 18.3307 12.867 18.3141 13.042C17.6307 12.2003 16.5891 11.667 15.4141 11.667C14.5307 11.667 13.7141 11.9753 13.0724 12.492C12.2057 13.1753 11.6641 14.2337 11.6641 15.417C11.6641 16.117 11.8641 16.7837 12.2057 17.3503C12.4307 17.7253 12.7141 18.0503 13.0474 18.317C12.8724 18.3336 12.6891 18.3337 12.4974 18.3337H7.4974C3.33073 18.3337 1.66406 16.667 1.66406 12.5003V7.50033C1.66406 3.33366 3.33073 1.66699 7.4974 1.66699H12.4974C16.6641 1.66699 18.3307 3.33366 18.3307 7.50033Z" stroke="#4030EA" stroke-width="1.2" stroke-linecap="round" stroke-linejoin="round"/>
<g opacity="0.4">
<path d="M2.10156 5.92578H17.9016" stroke="#4030EA" stroke-width="1.2" stroke-linecap="round" stroke-linejoin="round"/>
<path d="M7.10156 1.75879V5.80878" stroke="#4030EA" stroke-width="1.2" stroke-linecap="round" stroke-linejoin="round"/>
<path d="M12.8984 1.75879V5.43382" stroke="#4030EA" stroke-width="1.2" stroke-linecap="round" stroke-linejoin="round"/>
</g>
<path d="M19.1641 15.417C19.1641 16.117 18.9641 16.7837 18.6224 17.3503C18.4224 17.6837 18.1724 17.9837 17.8807 18.2337C17.2224 18.817 16.3641 19.167 15.4141 19.167C14.5224 19.167 13.6974 18.8503 13.0557 18.317H13.0474C12.7141 18.0503 12.4307 17.7253 12.2057 17.3503C11.8641 16.7837 11.6641 16.117 11.6641 15.417C11.6641 14.2337 12.2057 13.1753 13.0724 12.492C13.7141 11.9753 14.5307 11.667 15.4141 11.667C16.5891 11.667 17.6307 12.2003 18.3141 13.042C18.8474 13.6837 19.1641 14.517 19.1641 15.417Z" stroke="#4030EA" stroke-width="1.5" stroke-miterlimit="10" stroke-linecap="round" stroke-linejoin="round"/>
<path opacity="0.4" d="M13.9531 15.4172L14.8781 16.3422L16.8781 14.4922" stroke="#4030EA" stroke-width="1.5" stroke-linecap="round" stroke-linejoin="round"/>
</svg>
