<svg width="24" height="25" viewBox="0 0 24 25" fill="none" xmlns="http://www.w3.org/2000/svg">
<path d="M22 15.0391V9.03906C22 4.03906 20 2.03906 15 2.03906H9C4 2.03906 2 4.03906 2 9.03906V15.0391C2 20.0391 4 22.0391 9 22.0391H15C20 22.0391 22 20.0391 22 15.0391Z" stroke="#4030EA" stroke-width="1.5" stroke-linecap="round" stroke-linejoin="round"/>
<path d="M2.52002 7.14844H21.48" stroke="#4030EA" stroke-width="1.5" stroke-linecap="round" stroke-linejoin="round"/>
<path d="M8.52002 2.14844V7.00844" stroke="#4030EA" stroke-width="1.5" stroke-linecap="round" stroke-linejoin="round"/>
<path d="M15.48 2.14844V6.55844" stroke="#4030EA" stroke-width="1.5" stroke-linecap="round" stroke-linejoin="round"/>
<path opacity="0.4" d="M9.75 14.4892V13.2892C9.75 11.7492 10.84 11.1192 12.17 11.8892L13.21 12.4892L14.25 13.0892C15.58 13.8592 15.58 15.1192 14.25 15.8892L13.21 16.4892L12.17 17.0892C10.84 17.8592 9.75 17.2292 9.75 15.6892V14.4892V14.4892Z" stroke="#4030EA" stroke-width="1.5" stroke-miterlimit="10" stroke-linecap="round" stroke-linejoin="round"/>
</svg>
