<svg width="32" height="33" viewBox="0 0 32 33" fill="none" xmlns="http://www.w3.org/2000/svg">
<path d="M21.5871 2.70508H10.4137C5.56034 2.70508 2.66699 5.5984 2.66699 10.4517V21.6117C2.66699 26.4783 5.56034 29.3716 10.4137 29.3716H21.5737C26.4271 29.3716 29.3204 26.4783 29.3204 21.625V10.4517C29.3338 5.5984 26.4404 2.70508 21.5871 2.70508ZM19.5471 18.345L17.8404 19.3317L16.1337 20.3183C13.9337 21.585 12.1337 20.545 12.1337 18.0117V16.0384V14.065C12.1337 11.5184 13.9337 10.4917 16.1337 11.7584L17.8404 12.745L19.5471 13.7317C21.7471 14.9984 21.7471 17.0783 19.5471 18.345Z" fill="white"/>
</svg>
