<svg width="80" height="81" viewBox="0 0 80 81" fill="none" xmlns="http://www.w3.org/2000/svg">
<g id="icons/done">
<path id="Combined Shape" fill-rule="evenodd" clip-rule="evenodd" d="M0.220703 40.0502C0.220703 62.1663 18.0276 80.1004 40.0003 80.1004C61.973 80.1004 79.7798 62.1663 79.7798 40.0502C79.7798 17.9341 61.973 0 40.0003 0C18.0276 0 0.220703 17.9341 0.220703 40.0502ZM75.9909 40.0507C75.9909 60.0805 59.8741 76.3124 39.9998 76.3124C20.1256 76.3124 4.00879 60.0805 4.00879 40.0507C4.00879 20.021 20.1256 3.78906 39.9998 3.78906C59.8741 3.78906 75.9909 20.021 75.9909 40.0507Z" fill="#FF6B62"/>
<path id="!" d="M38.1533 47.7842H41.502L41.792 21.7598H37.8369L38.1533 47.7842ZM39.8145 60.2031C41.5547 60.2031 42.7676 58.9639 42.7676 57.25C42.7676 55.5098 41.5547 54.2705 39.8145 54.2705C38.1006 54.2705 36.8613 55.5098 36.8613 57.25C36.8613 58.9639 38.1006 60.2031 39.8145 60.2031Z" fill="#FF6B62"/>
</g>
</svg>
