<svg width="25" height="24" viewBox="0 0 25 24" fill="none" xmlns="http://www.w3.org/2000/svg">
<path d="M7.10699 20.63C8.58699 21.5 10.317 22 12.167 22C17.687 22 22.167 17.52 22.167 12C22.167 6.48 17.687 2 12.167 2C6.64699 2 2.16699 6.48 2.16699 12C2.16699 13.82 2.65702 15.53 3.50702 17L2.16699 22L7.10699 20.63Z" stroke="#4030EA" stroke-width="1.5" stroke-miterlimit="10" stroke-linecap="round" stroke-linejoin="round"/>
<path opacity="0.4" d="M17.167 15.17C17.167 15.35 17.127 15.54 17.037 15.72C16.947 15.9 16.837 16.07 16.697 16.23C16.447 16.5 16.177 16.7 15.877 16.82C15.577 16.95 15.247 17.01 14.897 17.01C14.387 17.01 13.837 16.89 13.267 16.64C12.687 16.39 12.117 16.06 11.547 15.65C10.967 15.23 10.427 14.76 9.90698 14.25C9.38698 13.73 8.92702 13.18 8.50702 12.61C8.09702 12.04 7.76698 11.47 7.52698 10.9C7.28698 10.33 7.16699 9.77998 7.16699 9.25998C7.16699 8.91998 7.22698 8.58998 7.34698 8.28998C7.46698 7.97998 7.657 7.69998 7.927 7.44998C8.247 7.12998 8.59698 6.97998 8.96698 6.97998C9.10698 6.97998 9.24701 7.00998 9.37701 7.06998C9.50701 7.12998 9.62698 7.21998 9.71698 7.34998L10.877 8.98996C10.967 9.11996 11.037 9.22997 11.077 9.33997C11.127 9.44997 11.147 9.54996 11.147 9.64996C11.147 9.76996 11.107 9.88998 11.037 10.01C10.967 10.13 10.877 10.25 10.757 10.37L10.377 10.77C10.317 10.83 10.297 10.89 10.297 10.97C10.297 11.01 10.307 11.05 10.317 11.09C10.337 11.13 10.347 11.16 10.357 11.19C10.447 11.36 10.607 11.57 10.827 11.83C11.057 12.09 11.297 12.36 11.557 12.62C11.827 12.89 12.087 13.13 12.357 13.36C12.617 13.58 12.837 13.73 13.007 13.82C13.037 13.83 13.067 13.85 13.097 13.86C13.137 13.88 13.177 13.88 13.227 13.88C13.317 13.88 13.377 13.85 13.437 13.79L13.817 13.41C13.947 13.28 14.067 13.19 14.177 13.13C14.297 13.06 14.407 13.02 14.537 13.02C14.637 13.02 14.737 13.04 14.847 13.09C14.957 13.14 15.077 13.2 15.197 13.29L16.857 14.47C16.987 14.56 17.077 14.67 17.137 14.79C17.137 14.91 17.167 15.03 17.167 15.17Z" stroke="#4030EA" stroke-width="1.5" stroke-miterlimit="10"/>
</svg>
