<svg width="106" height="66" viewBox="0 0 106 66" fill="none" xmlns="http://www.w3.org/2000/svg">
<path d="M33.2435 45.2673C31.8435 39.1073 26.4701 36.334 21.7501 36.334C21.7501 36.334 21.7501 36.334 21.7368 36.334C17.0301 36.334 11.6435 39.094 10.2435 45.254C8.68346 52.134 12.8968 57.9606 16.7101 61.6273C18.1235 62.9873 19.9368 63.6673 21.7501 63.6673C23.5635 63.6673 25.3768 62.9873 26.7768 61.6273C30.5901 57.9606 34.8035 52.1473 33.2435 45.2673ZM21.7501 51.9473C19.4301 51.9473 17.5501 50.0673 17.5501 47.7473C17.5501 45.4273 19.4301 43.5473 21.7501 43.5473C24.0701 43.5473 25.9501 45.4273 25.9501 47.7473C25.9501 50.0673 24.0701 51.9473 21.7501 51.9473Z" fill="#4030EA"/>
<path d="M27.2238 24.75L21.75 30.5439L16.2762 24.75L27.2238 24.75Z" fill="#2F2FE9" stroke="#2F2FE9" stroke-width="2"/>
<rect x="0.75" width="105" height="24" rx="12" fill="#4030EA"/>
<path d="M27.2777 7.684V16H26.1857V9.364L23.5337 16H22.5617L19.8977 9.388V16H18.8057V7.684H20.1137L23.0657 14.668L25.9697 7.684H27.2777ZM32.7624 9.328C33.3944 9.328 33.9584 9.464 34.4544 9.736C34.9584 10.008 35.3504 10.4 35.6304 10.912C35.9184 11.424 36.0624 12.024 36.0624 12.712C36.0624 13.4 35.9184 14 35.6304 14.512C35.3504 15.016 34.9584 15.404 34.4544 15.676C33.9584 15.948 33.3944 16.084 32.7624 16.084C32.1304 16.084 31.5624 15.948 31.0584 15.676C30.5624 15.404 30.1704 15.016 29.8824 14.512C29.5944 14 29.4504 13.4 29.4504 12.712C29.4504 12.024 29.5944 11.424 29.8824 10.912C30.1704 10.4 30.5624 10.008 31.0584 9.736C31.5624 9.464 32.1304 9.328 32.7624 9.328ZM32.7624 10.288C32.3704 10.288 32.0064 10.376 31.6704 10.552C31.3424 10.728 31.0744 11 30.8664 11.368C30.6664 11.728 30.5664 12.176 30.5664 12.712C30.5664 13.24 30.6664 13.688 30.8664 14.056C31.0744 14.416 31.3424 14.684 31.6704 14.86C32.0064 15.036 32.3704 15.124 32.7624 15.124C33.1544 15.124 33.5144 15.036 33.8424 14.86C34.1784 14.684 34.4464 14.416 34.6464 14.056C34.8544 13.688 34.9584 13.24 34.9584 12.712C34.9584 12.176 34.8544 11.728 34.6464 11.368C34.4464 11 34.1784 10.728 33.8424 10.552C33.5144 10.376 33.1544 10.288 32.7624 10.288ZM41.7034 9.304C42.4714 9.304 43.0914 9.552 43.5634 10.048C44.0354 10.536 44.2714 11.244 44.2714 12.172V16H43.1794V12.268C43.1794 11.612 43.0114 11.108 42.6754 10.756C42.3394 10.404 41.8834 10.228 41.3074 10.228C40.7074 10.228 40.2274 10.424 39.8674 10.816C39.5074 11.2 39.3274 11.764 39.3274 12.508V16H38.2354V9.412H39.3274V10.972C39.4954 10.436 39.7914 10.024 40.2154 9.736C40.6474 9.448 41.1434 9.304 41.7034 9.304ZM54.0472 9.328C54.6312 9.328 55.1512 9.464 55.6072 9.736C56.0632 10.008 56.4192 10.4 56.6752 10.912C56.9392 11.424 57.0712 12.024 57.0712 12.712C57.0712 13.4 56.9392 14 56.6752 14.512C56.4192 15.016 56.0632 15.404 55.6072 15.676C55.1512 15.948 54.6312 16.084 54.0472 16.084C53.4072 16.084 52.8632 15.924 52.4152 15.604C51.9752 15.276 51.6712 14.848 51.5032 14.32V19.12H50.4112V9.412H51.5032V11.092C51.6712 10.564 51.9752 10.14 52.4152 9.82C52.8632 9.492 53.4072 9.328 54.0472 9.328ZM53.7352 10.3C53.3112 10.3 52.9272 10.4 52.5832 10.6C52.2392 10.792 51.9712 11.072 51.7792 11.44C51.5872 11.808 51.4912 12.232 51.4912 12.712C51.4912 13.192 51.5872 13.616 51.7792 13.984C51.9712 14.344 52.2392 14.624 52.5832 14.824C52.9272 15.024 53.3112 15.124 53.7352 15.124C54.4152 15.124 54.9552 14.912 55.3552 14.488C55.7632 14.056 55.9672 13.464 55.9672 12.712C55.9672 11.96 55.7632 11.372 55.3552 10.948C54.9552 10.516 54.4152 10.3 53.7352 10.3ZM60.3391 10.744C60.5551 10.288 60.8711 9.936 61.2871 9.688C61.7031 9.432 62.1991 9.304 62.7751 9.304V10.492H62.4391C61.8231 10.492 61.3191 10.652 60.9271 10.972C60.5351 11.284 60.3391 11.804 60.3391 12.532V16H59.2471V9.412H60.3391V10.744ZM67.5906 9.328C68.2226 9.328 68.7866 9.464 69.2826 9.736C69.7866 10.008 70.1786 10.4 70.4586 10.912C70.7466 11.424 70.8906 12.024 70.8906 12.712C70.8906 13.4 70.7466 14 70.4586 14.512C70.1786 15.016 69.7866 15.404 69.2826 15.676C68.7866 15.948 68.2226 16.084 67.5906 16.084C66.9586 16.084 66.3906 15.948 65.8866 15.676C65.3906 15.404 64.9986 15.016 64.7106 14.512C64.4226 14 64.2786 13.4 64.2786 12.712C64.2786 12.024 64.4226 11.424 64.7106 10.912C64.9986 10.4 65.3906 10.008 65.8866 9.736C66.3906 9.464 66.9586 9.328 67.5906 9.328ZM67.5906 10.288C67.1986 10.288 66.8346 10.376 66.4986 10.552C66.1706 10.728 65.9026 11 65.6946 11.368C65.4946 11.728 65.3946 12.176 65.3946 12.712C65.3946 13.24 65.4946 13.688 65.6946 14.056C65.9026 14.416 66.1706 14.684 66.4986 14.86C66.8346 15.036 67.1986 15.124 67.5906 15.124C67.9826 15.124 68.3426 15.036 68.6706 14.86C69.0066 14.684 69.2746 14.416 69.4746 14.056C69.6826 13.688 69.7866 13.24 69.7866 12.712C69.7866 12.176 69.6826 11.728 69.4746 11.368C69.2746 11 69.0066 10.728 68.6706 10.552C68.3426 10.376 67.9826 10.288 67.5906 10.288ZM73.6875 8.152C73.4635 8.152 73.2795 8.092 73.1355 7.972C72.9995 7.844 72.9315 7.68 72.9315 7.48C72.9315 7.28 72.9995 7.12 73.1355 7C73.2795 6.872 73.4635 6.808 73.6875 6.808C73.9035 6.808 74.0795 6.872 74.2155 7C74.3515 7.12 74.4195 7.28 74.4195 7.48C74.4195 7.68 74.3515 7.844 74.2155 7.972C74.0795 8.092 73.9035 8.152 73.6875 8.152ZM71.8515 18.16H72.3075C72.5955 18.16 72.8035 18.096 72.9315 17.968C73.0675 17.84 73.1355 17.62 73.1355 17.308V9.412H74.2395V17.344C74.2395 18.528 73.6395 19.12 72.4395 19.12H71.8515V18.16ZM82.7915 12.34C82.7915 12.572 82.7755 12.772 82.7435 12.94H77.4755C77.4995 13.692 77.7115 14.256 78.1115 14.632C78.5195 15.008 79.0155 15.196 79.5995 15.196C80.1275 15.196 80.5675 15.064 80.9195 14.8C81.2795 14.528 81.4995 14.168 81.5795 13.72H82.7435C82.6635 14.176 82.4835 14.584 82.2035 14.944C81.9315 15.304 81.5755 15.584 81.1355 15.784C80.6955 15.984 80.1995 16.084 79.6475 16.084C79.0155 16.084 78.4555 15.948 77.9675 15.676C77.4795 15.404 77.0955 15.016 76.8155 14.512C76.5435 14 76.4075 13.4 76.4075 12.712C76.4075 12.024 76.5435 11.424 76.8155 10.912C77.0955 10.4 77.4795 10.008 77.9675 9.736C78.4555 9.464 79.0155 9.328 79.6475 9.328C80.2875 9.328 80.8435 9.464 81.3155 9.736C81.7955 10.008 82.1595 10.372 82.4075 10.828C82.6635 11.284 82.7915 11.788 82.7915 12.34ZM81.6875 12.412C81.7115 11.924 81.6315 11.516 81.4475 11.188C81.2635 10.86 81.0115 10.616 80.6915 10.456C80.3715 10.296 80.0235 10.216 79.6475 10.216C79.0475 10.216 78.5435 10.404 78.1355 10.78C77.7275 11.148 77.5075 11.692 77.4755 12.412H81.6875ZM88.1138 15.04V16H87.2978C86.6258 16 86.1218 15.84 85.7858 15.52C85.4578 15.2 85.2938 14.664 85.2938 13.912V10.36H84.3098V9.412H85.2938V7.768H86.3978V9.412H88.1018V10.36H86.3978V13.936C86.3978 14.36 86.4738 14.652 86.6258 14.812C86.7858 14.964 87.0578 15.04 87.4418 15.04H88.1138Z" fill="#FCFCFC"/>
</svg>
