<?xml version="1.0" standalone="no"?>
<!DOCTYPE svg PUBLIC "-//W3C//DTD SVG 1.1//EN" "http://www.w3.org/Graphics/SVG/1.1/DTD/svg11.dtd" >
<svg xmlns="http://www.w3.org/2000/svg" xmlns:xlink="http://www.w3.org/1999/xlink" version="1.1">
<metadata>
Created by FontForge 20170731 at Thu Mar 29 05:59:33 2018
 By Aleksey,,,
(c) 2015-2017 Apple Inc. All rights reserved.
</metadata>
<defs>
<font id="SFProText-Regular" horiz-adv-x="1800" >
  <font-face 
    font-family="SF Pro Text"
    font-weight="400"
    font-stretch="normal"
    units-per-em="2048"
    panose-1="0 0 5 0 0 0 0 0 0 0"
    ascent="1638"
    descent="-410"
    x-height="1078"
    cap-height="1443"
    bbox="-626 -573 2698 2205"
    underline-thickness="120"
    underline-position="-490"
    unicode-range="U+000D-1F189"
  />
<missing-glyph horiz-adv-x="2048" 
d="M100 -62h1848v284h-1848v-284zM100 370h1848v284h-1848v-284zM100 802h1848v284h-1848v-284zM100 1234h1848v284h-1848v-284zM100 1666h1848v284h-1848v-284zM100 -494h1848v284h-1848v-284z" />
    <glyph glyph-name="uni2460" unicode="&#x31;&#x20dd;" 
d="M900 -50q-159 0 -299.5 61t-245 165.5t-165.5 245t-61 299.5t61 299.5t165.5 245t245 165.5t299.5 61t299.5 -61t245 -165.5t165.5 -245t61 -299.5t-61 -299.5t-165.5 -245t-245 -165.5t-299.5 -61zM900 78q134 0 250 50.5t201.5 137.5t134.5 204t49 250t-49 250
t-134.5 204t-201.5 137.5t-250 50.5t-250 -50.5t-201.5 -137.5t-134.5 -204t-49 -250t49 -250t134.5 -204t201.5 -137.5t250 -50.5zM999 388h-130v571h-6l-166 -114v117l172 119h130v-693z" />
    <glyph glyph-name="uni2461" unicode="&#x32;&#x20dd;" 
d="M900 -50q-159 0 -299.5 61t-245 165.5t-165.5 245t-61 299.5t61 299.5t165.5 245t245 165.5t299.5 61t299.5 -61t245 -165.5t165.5 -245t61 -299.5t-61 -299.5t-165.5 -245t-245 -165.5t-299.5 -61zM900 78q134 0 250 50.5t201.5 137.5t134.5 204t49 250t-49 250
t-134.5 204t-201.5 137.5t-250 50.5t-250 -50.5t-201.5 -137.5t-134.5 -204t-49 -250t49 -250t134.5 -204t201.5 -137.5t250 -50.5zM782 878h-124v6q0 39 15 77t45 67.5t76 47.5t107 18q55 0 99.5 -14.5t76 -40.5t48.5 -61.5t17 -76.5q0 -34 -10.5 -63.5t-28 -55.5
t-40.5 -50.5t-47 -49.5l-174 -185v-6h313v-103h-492v77l268 280q30 31 56 65.5t26 79.5q0 46 -32.5 74.5t-81.5 28.5q-57 0 -87 -32.5t-30 -76.5v-6z" />
    <glyph glyph-name="uni2462" unicode="&#x33;&#x20dd;" 
d="M900 -50q-159 0 -299.5 61t-245 165.5t-165.5 245t-61 299.5t61 299.5t165.5 245t245 165.5t299.5 61t299.5 -61t245 -165.5t165.5 -245t61 -299.5t-61 -299.5t-165.5 -245t-245 -165.5t-299.5 -61zM900 78q134 0 250 50.5t201.5 137.5t134.5 204t49 250t-49 250
t-134.5 204t-201.5 137.5t-250 50.5t-250 -50.5t-201.5 -137.5t-134.5 -204t-49 -250t49 -250t134.5 -204t201.5 -137.5t250 -50.5zM820 696v98h77q51 0 84.5 29t33.5 74q-1 44 -34 71.5t-84 27.5q-53 0 -85 -27t-34 -62h-122q1 39 17.5 72.5t47.5 59t76 40.5t103 15
q55 0 99.5 -13.5t76.5 -37.5t49.5 -56.5t18.5 -71.5q1 -37 -12.5 -65.5t-34 -48.5t-44.5 -32t-44 -15v-6q24 -3 51.5 -13.5t50.5 -30.5t38.5 -50.5t16.5 -72.5q1 -48 -20 -86t-58 -65t-86.5 -41t-105.5 -14q-60 0 -106.5 15t-79 40.5t-50 59.5t-19.5 73h120
q4 -38 41.5 -63.5t94.5 -26.5q63 0 101.5 32t38.5 81q-2 48 -38.5 79t-97.5 31h-81z" />
    <glyph glyph-name="uni2463" unicode="&#x34;&#x20dd;" 
d="M900 -50q-159 0 -299.5 61t-245 165.5t-165.5 245t-61 299.5t61 299.5t165.5 245t245 165.5t299.5 61t299.5 -61t245 -165.5t165.5 -245t61 -299.5t-61 -299.5t-165.5 -245t-245 -165.5t-299.5 -61zM900 78q134 0 250 50.5t201.5 137.5t134.5 204t49 250t-49 250
t-134.5 204t-201.5 137.5t-250 50.5t-250 -50.5t-201.5 -137.5t-134.5 -204t-49 -250t49 -250t134.5 -204t201.5 -137.5t250 -50.5zM875 1081h189v-458h91v-102h-91v-133h-123v133h-352v103q66 115 139.5 228.5t146.5 228.5zM710 623h231v361h-6q-58 -85 -116 -175.5
t-109 -181.5v-4z" />
    <glyph glyph-name="uni2464" unicode="&#x35;&#x20dd;" 
d="M900 -50q-159 0 -299.5 61t-245 165.5t-165.5 245t-61 299.5t61 299.5t165.5 245t245 165.5t299.5 61t299.5 -61t245 -165.5t165.5 -245t61 -299.5t-61 -299.5t-165.5 -245t-245 -165.5t-299.5 -61zM900 78q134 0 250 50.5t201.5 137.5t134.5 204t49 250t-49 250
t-134.5 204t-201.5 137.5t-250 50.5t-250 -50.5t-201.5 -137.5t-134.5 -204t-49 -250t49 -250t134.5 -204t201.5 -137.5t250 -50.5zM652 562h121q9 -45 48 -66t87 -21q26 0 51 9.5t44.5 27.5t31 44t11.5 60q0 30 -11 54t-30 41.5t-44.5 26.5t-53.5 9q-51 0 -82.5 -22.5
t-43.5 -45.5h-114l32 402h434v-102h-329l-17 -195h6q11 17 48 38.5t99 21.5q47 0 89.5 -15t74.5 -44t50.5 -70.5t18.5 -95.5q0 -55 -19.5 -100t-55 -77t-85.5 -49.5t-110 -17.5q-55 0 -100 14.5t-78 39.5t-52 59t-21 74z" />
    <glyph glyph-name="uni2465" unicode="&#x36;&#x20dd;" 
d="M900 -50q-159 0 -299.5 61t-245 165.5t-165.5 245t-61 299.5t61 299.5t165.5 245t245 165.5t299.5 61t299.5 -61t245 -165.5t165.5 -245t61 -299.5t-61 -299.5t-165.5 -245t-245 -165.5t-299.5 -61zM900 78q134 0 250 50.5t201.5 137.5t134.5 204t49 250t-49 250
t-134.5 204t-201.5 137.5t-250 50.5t-250 -50.5t-201.5 -137.5t-134.5 -204t-49 -250t49 -250t134.5 -204t201.5 -137.5t250 -50.5zM1158 616q0 -53 -19 -97.5t-53 -76.5t-81.5 -49.5t-104.5 -17.5q-58 0 -105.5 18t-82 50.5t-53.5 78.5t-19 101q0 63 23.5 123.5t74.5 132.5
q3 6 24.5 35.5t47 64.5t48 65t28.5 36h149q-4 -4 -18.5 -22t-34 -43.5t-42 -55t-42.5 -55.5l-35 -45.5t-19 -25.5q-14 -19 -24 -37l8 -2q20 20 52 32t67 12q46 0 84.5 -16.5t66.5 -46.5t44 -70.5t16 -88.5zM765 612q0 -57 38 -95.5t96 -38.5t96 38.5t38 95.5t-38 95.5
t-96 38.5t-96 -38.5t-38 -95.5z" />
    <glyph glyph-name="uni2466" unicode="&#x37;&#x20dd;" 
d="M900 -50q-159 0 -299.5 61t-245 165.5t-165.5 245t-61 299.5t61 299.5t165.5 245t245 165.5t299.5 61t299.5 -61t245 -165.5t165.5 -245t61 -299.5t-61 -299.5t-165.5 -245t-245 -165.5t-299.5 -61zM900 78q134 0 250 50.5t201.5 137.5t134.5 204t49 250t-49 250
t-134.5 204t-201.5 137.5t-250 50.5t-250 -50.5t-201.5 -137.5t-134.5 -204t-49 -250t49 -250t134.5 -204t201.5 -137.5t250 -50.5zM672 1071h491v-105l-296 -588h-137l301 584v6h-359v103z" />
    <glyph glyph-name="uni2467" unicode="&#x38;&#x20dd;" 
d="M900 -50q-159 0 -299.5 61t-245 165.5t-165.5 245t-61 299.5t61 299.5t165.5 245t245 165.5t299.5 61t299.5 -61t245 -165.5t165.5 -245t61 -299.5t-61 -299.5t-165.5 -245t-245 -165.5t-299.5 -61zM900 78q134 0 250 50.5t201.5 137.5t134.5 204t49 250t-49 250
t-134.5 204t-201.5 137.5t-250 50.5t-250 -50.5t-201.5 -137.5t-134.5 -204t-49 -250t49 -250t134.5 -204t201.5 -137.5t250 -50.5zM898 375q-61 0 -111.5 14.5t-86.5 41t-55.5 64t-19.5 83.5q0 65 41.5 112t109.5 61v5q-57 18 -89.5 58.5t-32.5 96.5q0 40 18 73.5t51 58
t78 38t99 13.5t99 -13.5t78 -38t51 -58t18 -73.5q0 -55 -32.5 -96.5t-89.5 -58.5v-5q68 -14 109.5 -61t41.5 -111q0 -46 -20 -83.5t-57 -64.5t-87.5 -41.5t-112.5 -14.5zM900 467q63 0 104 33.5t41 85.5q0 53 -40.5 86t-104.5 33t-105 -34t-41 -85q0 -52 41 -85.5t105 -33.5
zM900 793q54 0 87.5 29.5t33.5 75.5t-33.5 74.5t-87.5 28.5t-87.5 -28.5t-33.5 -74.5t33.5 -75.5t87.5 -29.5z" />
    <glyph glyph-name="uni2468" unicode="&#x39;&#x20dd;" 
d="M900 -50q-159 0 -299.5 61t-245 165.5t-165.5 245t-61 299.5t61 299.5t165.5 245t245 165.5t299.5 61t299.5 -61t245 -165.5t165.5 -245t61 -299.5t-61 -299.5t-165.5 -245t-245 -165.5t-299.5 -61zM900 78q134 0 250 50.5t201.5 137.5t134.5 204t49 250t-49 250
t-134.5 204t-201.5 137.5t-250 50.5t-250 -50.5t-201.5 -137.5t-134.5 -204t-49 -250t49 -250t134.5 -204t201.5 -137.5t250 -50.5zM641 853q0 53 19 97.5t53 76.5t81.5 49.5t104.5 17.5q58 0 105.5 -18t82 -50.5t53.5 -78t19 -101.5q0 -63 -23.5 -123.5t-74.5 -132.5
q-3 -6 -24.5 -35.5t-47 -64.5t-48 -65t-28.5 -36h-149q4 4 18.5 22t34 43.5t42 55t42.5 55.5l35 45.5t19 25.5q14 19 24 37l-8 2q-20 -20 -52 -32t-67 -12q-46 0 -84.5 16.5t-66.5 46.5t-44 70.5t-16 88.5zM1034 857q0 57 -38 95.5t-96 38.5t-96 -38.5t-38 -95.5t38 -95.5
t96 -38.5t96 38.5t38 95.5z" />
    <glyph glyph-name="uni24B6" unicode="A&#x20dd;" 
d="M900 -50q-159 0 -299.5 61t-245 165.5t-165.5 245t-61 299.5t61 299.5t165.5 245t245 165.5t299.5 61t299.5 -61t245 -165.5t165.5 -245t61 -299.5t-61 -299.5t-165.5 -245t-245 -165.5t-299.5 -61zM900 78q134 0 250 50.5t201.5 137.5t134.5 204t49 250t-49 250
t-134.5 204t-201.5 137.5t-250 50.5t-250 -50.5t-201.5 -137.5t-134.5 -204t-49 -250t49 -250t134.5 -204t201.5 -137.5t250 -50.5zM710 408h-132l248 693h148l248 -693h-132l-62 186h-256zM800 688h200l-95 287h-10z" />
    <glyph glyph-name="uni24B7" unicode="B&#x20dd;" 
d="M900 -50q-159 0 -299.5 61t-245 165.5t-165.5 245t-61 299.5t61 299.5t165.5 245t245 165.5t299.5 61t299.5 -61t245 -165.5t165.5 -245t61 -299.5t-61 -299.5t-165.5 -245t-245 -165.5t-299.5 -61zM900 78q134 0 250 50.5t201.5 137.5t134.5 204t49 250t-49 250
t-134.5 204t-201.5 137.5t-250 50.5t-250 -50.5t-201.5 -137.5t-134.5 -204t-49 -250t49 -250t134.5 -204t201.5 -137.5t250 -50.5zM663 388v693h294q97 0 154 -45.5t57 -125.5q0 -62 -34 -100t-88 -52v-5q68 -7 114.5 -50t46.5 -120q0 -46 -18.5 -82.5t-52 -61.5t-80 -38
t-102.5 -13h-291zM792 700v-215h111q92 0 131.5 25.5t39.5 78.5q0 52 -35 81.5t-101 29.5h-146zM792 984v-194h98q78 0 114 25t36 74q0 45 -29 70t-82 25h-137z" />
    <glyph glyph-name="uni24B8" unicode="C&#x20dd;" 
d="M900 -50q-159 0 -299.5 61t-245 165.5t-165.5 245t-61 299.5t61 299.5t165.5 245t245 165.5t299.5 61t299.5 -61t245 -165.5t165.5 -245t61 -299.5t-61 -299.5t-165.5 -245t-245 -165.5t-299.5 -61zM900 78q134 0 250 50.5t201.5 137.5t134.5 204t49 250t-49 250
t-134.5 204t-201.5 137.5t-250 50.5t-250 -50.5t-201.5 -137.5t-134.5 -204t-49 -250t49 -250t134.5 -204t201.5 -137.5t250 -50.5zM1068 606h132q-8 -52 -33 -94.5t-64.5 -73t-91 -47t-113.5 -16.5q-73 0 -132.5 26t-102 73.5t-66 113.5t-23.5 146t23.5 146.5t66 114
t102 73.5t132.5 26q63 0 115.5 -17t92 -48.5t64.5 -76t32 -98.5h-130q-8 60 -56 97.5t-116 37.5q-44 0 -79.5 -18.5t-61 -52t-39.5 -80.5t-14 -104t14 -104t39.5 -80.5t61 -51.5t79.5 -18q66 0 113 35.5t55 90.5z" />
    <glyph glyph-name="uni24B9" unicode="D&#x20dd;" 
d="M900 -50q-159 0 -299.5 61t-245 165.5t-165.5 245t-61 299.5t61 299.5t165.5 245t245 165.5t299.5 61t299.5 -61t245 -165.5t165.5 -245t61 -299.5t-61 -299.5t-165.5 -245t-245 -165.5t-299.5 -61zM900 78q134 0 250 50.5t201.5 137.5t134.5 204t49 250t-49 250
t-134.5 204t-201.5 137.5t-250 50.5t-250 -50.5t-201.5 -137.5t-134.5 -204t-49 -250t49 -250t134.5 -204t201.5 -137.5t250 -50.5zM656 1081h256q165 0 244 -89t79 -256t-79.5 -257.5t-243.5 -90.5h-256v693zM786 978v-487h110q106 0 155.5 60.5t49.5 182.5t-49.5 183
t-155.5 61h-110z" />
    <glyph glyph-name="uni24BA" unicode="E&#x20dd;" 
d="M900 -50q-159 0 -299.5 61t-245 165.5t-165.5 245t-61 299.5t61 299.5t165.5 245t245 165.5t299.5 61t299.5 -61t245 -165.5t165.5 -245t61 -299.5t-61 -299.5t-165.5 -245t-245 -165.5t-299.5 -61zM900 78q134 0 250 50.5t201.5 137.5t134.5 204t49 250t-49 250
t-134.5 204t-201.5 137.5t-250 50.5t-250 -50.5t-201.5 -137.5t-134.5 -204t-49 -250t49 -250t134.5 -204t201.5 -137.5t250 -50.5zM1135 491v-103h-459v693h459v-103h-330v-190h311v-98h-311v-199h330z" />
    <glyph glyph-name="uni24BB" unicode="F&#x20dd;" 
d="M900 -50q-159 0 -299.5 61t-245 165.5t-165.5 245t-61 299.5t61 299.5t165.5 245t245 165.5t299.5 61t299.5 -61t245 -165.5t165.5 -245t61 -299.5t-61 -299.5t-165.5 -245t-245 -165.5t-299.5 -61zM900 78q134 0 250 50.5t201.5 137.5t134.5 204t49 250t-49 250
t-134.5 204t-201.5 137.5t-250 50.5t-250 -50.5t-201.5 -137.5t-134.5 -204t-49 -250t49 -250t134.5 -204t201.5 -137.5t250 -50.5zM838 388h-131v693h454v-104h-323v-205h295v-102h-295v-282z" />
    <glyph glyph-name="uni24BC" unicode="G&#x20dd;" 
d="M900 -50q-159 0 -299.5 61t-245 165.5t-165.5 245t-61 299.5t61 299.5t165.5 245t245 165.5t299.5 61t299.5 -61t245 -165.5t165.5 -245t61 -299.5t-61 -299.5t-165.5 -245t-245 -165.5t-299.5 -61zM900 78q134 0 250 50.5t201.5 137.5t134.5 204t49 250t-49 250
t-134.5 204t-201.5 137.5t-250 50.5t-250 -50.5t-201.5 -137.5t-134.5 -204t-49 -250t49 -250t134.5 -204t201.5 -137.5t250 -50.5zM1071 604v57h-160v95h284v-122q0 -57 -19 -104.5t-56 -82t-92 -53.5t-128 -19t-133 26t-103 73.5t-66.5 113.5t-23.5 146t23.5 146.5
t66.5 114t103 73.5t133 26q61 0 113 -16.5t91 -46.5t64 -72.5t32 -94.5h-130q-8 54 -55.5 89.5t-112.5 35.5q-90 0 -143 -69t-53 -186q0 -58 14 -105t39.5 -80t61.5 -51t81 -18q83 0 126 34.5t43 89.5z" />
    <glyph glyph-name="uni24BD" unicode="H&#x20dd;" 
d="M900 -50q-159 0 -299.5 61t-245 165.5t-165.5 245t-61 299.5t61 299.5t165.5 245t245 165.5t299.5 61t299.5 -61t245 -165.5t165.5 -245t61 -299.5t-61 -299.5t-165.5 -245t-245 -165.5t-299.5 -61zM900 78q134 0 250 50.5t201.5 137.5t134.5 204t49 250t-49 250
t-134.5 204t-201.5 137.5t-250 50.5t-250 -50.5t-201.5 -137.5t-134.5 -204t-49 -250t49 -250t134.5 -204t201.5 -137.5t250 -50.5zM1191 388h-130v304h-321v-304h-130v693h130v-286h321v286h130v-693z" />
    <glyph glyph-name="uni24BE" unicode="I&#x20dd;" 
d="M900 -50q-159 0 -299.5 61t-245 165.5t-165.5 245t-61 299.5t61 299.5t165.5 245t245 165.5t299.5 61t299.5 -61t245 -165.5t165.5 -245t61 -299.5t-61 -299.5t-165.5 -245t-245 -165.5t-299.5 -61zM900 78q134 0 250 50.5t201.5 137.5t134.5 204t49 250t-49 250
t-134.5 204t-201.5 137.5t-250 50.5t-250 -50.5t-201.5 -137.5t-134.5 -204t-49 -250t49 -250t134.5 -204t201.5 -137.5t250 -50.5zM966 388h-132v693h132v-693z" />
    <glyph glyph-name="uni24BF" unicode="J&#x20dd;" 
d="M900 -50q-159 0 -299.5 61t-245 165.5t-165.5 245t-61 299.5t61 299.5t165.5 245t245 165.5t299.5 61t299.5 -61t245 -165.5t165.5 -245t61 -299.5t-61 -299.5t-165.5 -245t-245 -165.5t-299.5 -61zM900 78q134 0 250 50.5t201.5 137.5t134.5 204t49 250t-49 250
t-134.5 204t-201.5 137.5t-250 50.5t-250 -50.5t-201.5 -137.5t-134.5 -204t-49 -250t49 -250t134.5 -204t201.5 -137.5t250 -50.5zM636 576h126q1 -41 28 -66t72 -25q54 0 80.5 30t26.5 85v481h130v-477q0 -112 -62.5 -170.5t-173.5 -58.5q-55 0 -97.5 16t-71.5 43
t-43.5 63.5t-14.5 78.5z" />
    <glyph glyph-name="uni24C0" unicode="K&#x20dd;" 
d="M900 -50q-159 0 -299.5 61t-245 165.5t-165.5 245t-61 299.5t61 299.5t165.5 245t245 165.5t299.5 61t299.5 -61t245 -165.5t165.5 -245t61 -299.5t-61 -299.5t-165.5 -245t-245 -165.5t-299.5 -61zM900 78q134 0 250 50.5t201.5 137.5t134.5 204t49 250t-49 250
t-134.5 204t-201.5 137.5t-250 50.5t-250 -50.5t-201.5 -137.5t-134.5 -204t-49 -250t49 -250t134.5 -204t201.5 -137.5t250 -50.5zM1215 1081l-263 -297l274 -396h-158l-212 312l-78 -84v-228h-130v693h130v-317h5l287 317h145z" />
    <glyph glyph-name="uni24C1" unicode="L&#x20dd;" 
d="M900 -50q-159 0 -299.5 61t-245 165.5t-165.5 245t-61 299.5t61 299.5t165.5 245t245 165.5t299.5 61t299.5 -61t245 -165.5t165.5 -245t61 -299.5t-61 -299.5t-165.5 -245t-245 -165.5t-299.5 -61zM900 78q134 0 250 50.5t201.5 137.5t134.5 204t49 250t-49 250
t-134.5 204t-201.5 137.5t-250 50.5t-250 -50.5t-201.5 -137.5t-134.5 -204t-49 -250t49 -250t134.5 -204t201.5 -137.5t250 -50.5zM1168 495v-107h-446v693h131v-586h315z" />
    <glyph glyph-name="uni24C2" unicode="M&#x20dd;" 
d="M900 -50q-159 0 -299.5 61t-245 165.5t-165.5 245t-61 299.5t61 299.5t165.5 245t245 165.5t299.5 61t299.5 -61t245 -165.5t165.5 -245t61 -299.5t-61 -299.5t-165.5 -245t-245 -165.5t-299.5 -61zM900 78q134 0 250 50.5t201.5 137.5t134.5 204t49 250t-49 250
t-134.5 204t-201.5 137.5t-250 50.5t-250 -50.5t-201.5 -137.5t-134.5 -204t-49 -250t49 -250t134.5 -204t201.5 -137.5t250 -50.5zM668 388h-117v693h132l216 -533h4l216 533h130v-693h-117v473h-6l-180 -453h-91l-181 453h-6v-473z" />
    <glyph glyph-name="uni24C3" unicode="N&#x20dd;" 
d="M900 -50q-159 0 -299.5 61t-245 165.5t-165.5 245t-61 299.5t61 299.5t165.5 245t245 165.5t299.5 61t299.5 -61t245 -165.5t165.5 -245t61 -299.5t-61 -299.5t-165.5 -245t-245 -165.5t-299.5 -61zM900 78q134 0 250 50.5t201.5 137.5t134.5 204t49 250t-49 250
t-134.5 204t-201.5 137.5t-250 50.5t-250 -50.5t-201.5 -137.5t-134.5 -204t-49 -250t49 -250t134.5 -204t201.5 -137.5t250 -50.5zM738 388h-124v693h111l331 -482h6v482h124v-693h-111l-332 484h-5v-484z" />
    <glyph glyph-name="uni24C4" unicode="O&#x20dd;" 
d="M900 -50q-159 0 -299.5 61t-245 165.5t-165.5 245t-61 299.5t61 299.5t165.5 245t245 165.5t299.5 61t299.5 -61t245 -165.5t165.5 -245t61 -299.5t-61 -299.5t-165.5 -245t-245 -165.5t-299.5 -61zM900 78q134 0 250 50.5t201.5 137.5t134.5 204t49 250t-49 250
t-134.5 204t-201.5 137.5t-250 50.5t-250 -50.5t-201.5 -137.5t-134.5 -204t-49 -250t49 -250t134.5 -204t201.5 -137.5t250 -50.5zM900 375q-67 0 -126.5 24t-104 69.5t-70 112.5t-25.5 153t25.5 153t70 113t104 70t126.5 24q68 0 127 -24t103.5 -70t70 -113t25.5 -153
t-25.5 -153t-70 -112.5t-103.5 -69.5t-127 -24zM900 480q41 0 76 16.5t61.5 49t41.5 80t15 108.5q0 62 -15 109.5t-41.5 80t-61.5 49t-76 16.5q-40 0 -75.5 -16.5t-62 -49t-41.5 -80t-15 -109.5q0 -61 15 -108.5t41.5 -80t62 -49t75.5 -16.5z" />
    <glyph glyph-name="uni24C5" unicode="P&#x20dd;" 
d="M900 -50q-159 0 -299.5 61t-245 165.5t-165.5 245t-61 299.5t61 299.5t165.5 245t245 165.5t299.5 61t299.5 -61t245 -165.5t165.5 -245t61 -299.5t-61 -299.5t-165.5 -245t-245 -165.5t-299.5 -61zM900 78q134 0 250 50.5t201.5 137.5t134.5 204t49 250t-49 250
t-134.5 204t-201.5 137.5t-250 50.5t-250 -50.5t-201.5 -137.5t-134.5 -204t-49 -250t49 -250t134.5 -204t201.5 -137.5t250 -50.5zM962 1081q57 0 102 -17.5t76 -48t47.5 -72t16.5 -89.5q0 -49 -16.5 -90t-47.5 -71t-76.5 -47t-102.5 -17h-153v-241h-129v693h283zM1071 854
q0 60 -34 93t-97 33h-132v-251h132q63 0 97 32.5t34 92.5z" />
    <glyph glyph-name="uni24C6" unicode="Q&#x20dd;" 
d="M900 -50q-159 0 -299.5 61t-245 165.5t-165.5 245t-61 299.5t61 299.5t165.5 245t245 165.5t299.5 61t299.5 -61t245 -165.5t165.5 -245t61 -299.5t-61 -299.5t-165.5 -245t-245 -165.5t-299.5 -61zM900 78q134 0 250 50.5t201.5 137.5t134.5 204t49 250t-49 250
t-134.5 204t-201.5 137.5t-250 50.5t-250 -50.5t-201.5 -137.5t-134.5 -204t-49 -250t49 -250t134.5 -204t201.5 -137.5t250 -50.5zM1200 319h-128l-56 76q-55 -20 -116 -20q-67 0 -126.5 24t-104 69.5t-70 112.5t-25.5 153t25.5 153t70 113t104 70t126.5 24q68 0 127 -24
t103.5 -70t70 -113t25.5 -153q0 -98 -32.5 -170t-87.5 -118zM900 480q28 0 49 7l-84 115h126l44 -60q27 32 43 80.5t16 111.5q0 62 -15 109.5t-41.5 80t-61.5 49t-76 16.5q-40 0 -75.5 -16.5t-62 -49t-41.5 -80t-15 -109.5q0 -61 15 -108.5t41.5 -80t62 -49t75.5 -16.5z" />
    <glyph glyph-name="uni24C7" unicode="R&#x20dd;" 
d="M900 -50q-159 0 -299.5 61t-245 165.5t-165.5 245t-61 299.5t61 299.5t165.5 245t245 165.5t299.5 61t299.5 -61t245 -165.5t165.5 -245t61 -299.5t-61 -299.5t-165.5 -245t-245 -165.5t-299.5 -61zM900 78q134 0 250 50.5t201.5 137.5t134.5 204t49 250t-49 250
t-134.5 204t-201.5 137.5t-250 50.5t-250 -50.5t-201.5 -137.5t-134.5 -204t-49 -250t49 -250t134.5 -204t201.5 -137.5t250 -50.5zM934 1081q118 0 183.5 -58.5t65.5 -157.5q0 -74 -40 -124t-93 -70l146 -283h-146l-128 263h-142v-263h-128v693h282zM780 747h132
q65 0 101 28.5t36 85.5q0 59 -36.5 89.5t-96.5 30.5h-136v-234z" />
    <glyph glyph-name="uni24C8" unicode="S&#x20dd;" 
d="M900 -50q-159 0 -299.5 61t-245 165.5t-165.5 245t-61 299.5t61 299.5t165.5 245t245 165.5t299.5 61t299.5 -61t245 -165.5t165.5 -245t61 -299.5t-61 -299.5t-165.5 -245t-245 -165.5t-299.5 -61zM900 78q134 0 250 50.5t201.5 137.5t134.5 204t49 250t-49 250
t-134.5 204t-201.5 137.5t-250 50.5t-250 -50.5t-201.5 -137.5t-134.5 -204t-49 -250t49 -250t134.5 -204t201.5 -137.5t250 -50.5zM620 582h127q5 -48 47.5 -77.5t110.5 -29.5q67 0 106.5 27.5t39.5 75.5q0 36 -27 58.5t-88 37.5l-117 26q-88 20 -134 68t-46 121
q0 46 19.5 84t54.5 65t84 42t108 15q58 0 106.5 -14.5t83.5 -41.5t54.5 -64.5t20.5 -82.5h-124q-4 48 -42.5 76t-99.5 28q-60 0 -97 -27.5t-37 -72.5q0 -65 100 -87l117 -26q100 -23 146.5 -69.5t46.5 -124.5q0 -100 -76 -157t-207 -57q-62 0 -113 14.5t-87 41.5t-56 65
t-21 86z" />
    <glyph glyph-name="uni24C9" unicode="T&#x20dd;" 
d="M900 -50q-159 0 -299.5 61t-245 165.5t-165.5 245t-61 299.5t61 299.5t165.5 245t245 165.5t299.5 61t299.5 -61t245 -165.5t165.5 -245t61 -299.5t-61 -299.5t-165.5 -245t-245 -165.5t-299.5 -61zM900 78q134 0 250 50.5t201.5 137.5t134.5 204t49 250t-49 250
t-134.5 204t-201.5 137.5t-250 50.5t-250 -50.5t-201.5 -137.5t-134.5 -204t-49 -250t49 -250t134.5 -204t201.5 -137.5t250 -50.5zM966 368h-132v588h-210v105h552v-105h-210v-588z" />
    <glyph glyph-name="uni24CA" unicode="U&#x20dd;" 
d="M900 -50q-159 0 -299.5 61t-245 165.5t-165.5 245t-61 299.5t61 299.5t165.5 245t245 165.5t299.5 61t299.5 -61t245 -165.5t165.5 -245t61 -299.5t-61 -299.5t-165.5 -245t-245 -165.5t-299.5 -61zM900 78q134 0 250 50.5t201.5 137.5t134.5 204t49 250t-49 250
t-134.5 204t-201.5 137.5t-250 50.5t-250 -50.5t-201.5 -137.5t-134.5 -204t-49 -250t49 -250t134.5 -204t201.5 -137.5t250 -50.5zM900 462q72 0 115 40.5t43 115.5v443h130v-454q0 -57 -20.5 -103.5t-58 -79.5t-90.5 -51t-119 -18t-119 18t-90.5 51t-58 79.5t-20.5 103.5
v454h130v-443q0 -75 43 -115.5t115 -40.5z" />
    <glyph glyph-name="uni24CB" unicode="V&#x20dd;" 
d="M900 -50q-159 0 -299.5 61t-245 165.5t-165.5 245t-61 299.5t61 299.5t165.5 245t245 165.5t299.5 61t299.5 -61t245 -165.5t165.5 -245t61 -299.5t-61 -299.5t-165.5 -245t-245 -165.5t-299.5 -61zM900 78q134 0 250 50.5t201.5 137.5t134.5 204t49 250t-49 250
t-134.5 204t-201.5 137.5t-250 50.5t-250 -50.5t-201.5 -137.5t-134.5 -204t-49 -250t49 -250t134.5 -204t201.5 -137.5t250 -50.5zM822 368l-250 693h151l174 -555h6l174 555h151l-250 -693h-156z" />
    <glyph glyph-name="uni24CC" unicode="W&#x20dd;" 
d="M900 -50q-159 0 -299.5 61t-245 165.5t-165.5 245t-61 299.5t61 299.5t165.5 245t245 165.5t299.5 61t299.5 -61t245 -165.5t165.5 -245t61 -299.5t-61 -299.5t-165.5 -245t-245 -165.5t-299.5 -61zM900 78q134 0 250 50.5t201.5 137.5t134.5 204t49 250t-49 250
t-134.5 204t-201.5 137.5t-250 50.5t-250 -50.5t-201.5 -137.5t-134.5 -204t-49 -250t49 -250t134.5 -204t201.5 -137.5t250 -50.5zM898 869l-140 -501h-119l-195 693h143l117 -518h6l133 518h114l133 -518h6l117 518h143l-195 -693h-119l-140 501h-4z" />
    <glyph glyph-name="uni24CD" unicode="X&#x20dd;" 
d="M900 -50q-159 0 -299.5 61t-245 165.5t-165.5 245t-61 299.5t61 299.5t165.5 245t245 165.5t299.5 61t299.5 -61t245 -165.5t165.5 -245t61 -299.5t-61 -299.5t-165.5 -245t-245 -165.5t-299.5 -61zM900 78q134 0 250 50.5t201.5 137.5t134.5 204t49 250t-49 250
t-134.5 204t-201.5 137.5t-250 50.5t-250 -50.5t-201.5 -137.5t-134.5 -204t-49 -250t49 -250t134.5 -204t201.5 -137.5t250 -50.5zM1214 1081l-233 -348l230 -345h-152l-161 253h-6l-163 -253h-143l229 349l-227 344h155l159 -256h6l158 256h148z" />
    <glyph glyph-name="uni24CE" unicode="Y&#x20dd;" 
d="M900 -50q-159 0 -299.5 61t-245 165.5t-165.5 245t-61 299.5t61 299.5t165.5 245t245 165.5t299.5 61t299.5 -61t245 -165.5t165.5 -245t61 -299.5t-61 -299.5t-165.5 -245t-245 -165.5t-299.5 -61zM900 78q134 0 250 50.5t201.5 137.5t134.5 204t49 250t-49 250
t-134.5 204t-201.5 137.5t-250 50.5t-250 -50.5t-201.5 -137.5t-134.5 -204t-49 -250t49 -250t134.5 -204t201.5 -137.5t250 -50.5zM966 383h-131v273l-243 420h145l162 -297h5l162 297h142l-242 -418v-275z" />
    <glyph glyph-name="uni24CF" unicode="Z&#x20dd;" 
d="M900 -50q-159 0 -299.5 61t-245 165.5t-165.5 245t-61 299.5t61 299.5t165.5 245t245 165.5t299.5 61t299.5 -61t245 -165.5t165.5 -245t61 -299.5t-61 -299.5t-165.5 -245t-245 -165.5t-299.5 -61zM900 78q134 0 250 50.5t201.5 137.5t134.5 204t49 250t-49 250
t-134.5 204t-201.5 137.5t-250 50.5t-250 -50.5t-201.5 -137.5t-134.5 -204t-49 -250t49 -250t134.5 -204t201.5 -137.5t250 -50.5zM635 388v83l361 499v7h-350v104h509v-83l-360 -499v-7h370v-104h-530z" />
    <glyph glyph-name="uni24EA" unicode="&#x23;&#x20dd;" 
d="M900 -50q-159 0 -299.5 61t-245 165.5t-165.5 245t-61 299.5t61 299.5t165.5 245t245 165.5t299.5 61t299.5 -61t245 -165.5t165.5 -245t61 -299.5t-61 -299.5t-165.5 -245t-245 -165.5t-299.5 -61zM900 78q134 0 250 50.5t201.5 137.5t134.5 204t49 250t-49 250
t-134.5 204t-201.5 137.5t-250 50.5t-250 -50.5t-201.5 -137.5t-134.5 -204t-49 -250t49 -250t134.5 -204t201.5 -137.5t250 -50.5zM900 376q-58 0 -107.5 24t-85 69.5t-55.5 112.5t-20 153t20 153t55.5 112.5t85 69.5t107.5 24q59 0 108 -24t84.5 -69.5t55.5 -112.5
t20 -153t-20 -153t-55.5 -112.5t-84.5 -69.5t-108 -24zM900 486q66 0 105 64.5t39 184.5t-39 184.5t-105 64.5t-105 -64.5t-39 -184.5t39 -184.5t105 -64.5z" />
    <glyph glyph-name="uni24FF" unicode="&#x30;&#x20dd;&#x25cf;" 
d="M900 -50q-159 0 -299.5 61t-245 165.5t-165.5 245t-61 299.5t61 299.5t165.5 245t245 165.5t299.5 61t299.5 -61t245 -165.5t165.5 -245t61 -299.5t-61 -299.5t-165.5 -245t-245 -165.5t-299.5 -61zM896 338q69 0 124.5 27.5t95 78.5t61 124.5t21.5 166.5t-21.5 166.5
t-61 124.5t-95 78.5t-124.5 27.5t-124.5 -27.5t-95 -78.5t-61 -124.5t-21.5 -166.5t21.5 -166.5t61 -124.5t95 -78.5t124.5 -27.5zM896 461q-70 0 -109 70t-39 204t39 204t109 70t109 -70t39 -204t-39 -204t-109 -70z" />
    <glyph glyph-name="uni2776" unicode="&#x31;&#x20dd;&#x25cf;" 
d="M900 -50q-159 0 -299.5 61t-245 165.5t-165.5 245t-61 299.5t61 299.5t165.5 245t245 165.5t299.5 61t299.5 -61t245 -165.5t165.5 -245t61 -299.5t-61 -299.5t-165.5 -245t-245 -165.5t-299.5 -61zM1013 353v765h-148l-191 -132v-140l187 128h1v-621h151z" />
    <glyph glyph-name="uni2777" unicode="&#x32;&#x20dd;&#x25cf;" 
d="M900 -50q-159 0 -299.5 61t-245 165.5t-165.5 245t-61 299.5t61 299.5t165.5 245t245 165.5t299.5 61t299.5 -61t245 -165.5t165.5 -245t61 -299.5t-61 -299.5t-165.5 -245t-245 -165.5t-299.5 -61zM772 886v11q0 46 31 80.5t91 34.5q51 0 85 -30t34 -77q0 -48 -28 -85.5
t-60 -70.5l-293 -306v-91h546v122h-342l203 212q24 26 47 51.5t40 53t27.5 58.5t10.5 67q0 46 -19 85.5t-54 68t-84.5 45t-110.5 16.5q-68 0 -119 -20t-84.5 -53t-50 -75t-16.5 -86v-11h146z" />
    <glyph glyph-name="uni2778" unicode="&#x33;&#x20dd;&#x25cf;" 
d="M900 -50q-159 0 -299.5 61t-245 165.5t-165.5 245t-61 299.5t61 299.5t165.5 245t245 165.5t299.5 61t299.5 -61t245 -165.5t165.5 -245t61 -299.5t-61 -299.5t-165.5 -245t-245 -165.5t-299.5 -61zM804 688h93q64 0 102 -32t39 -83q0 -51 -39.5 -84t-106.5 -33
q-60 1 -99.5 28.5t-44.5 69.5h-140q2 -44 21.5 -83.5t55.5 -69t88 -46.5t118 -17q62 0 117 16t96 45.5t64.5 72.5t22.5 97q-1 45 -17.5 78.5t-41.5 56t-54 35t-56 15.5q22 5 47.5 18.5t47 36t36 53.5t13.5 71q-1 43 -20.5 79.5t-55 63.5t-84.5 42t-110 15q-65 0 -115 -17
t-84.5 -46.5t-52.5 -68.5t-20 -83h144q2 38 35 67.5t89 29.5q54 0 88.5 -28.5t35.5 -74.5q0 -46 -35 -76t-89 -30h-88v-118z" />
    <glyph glyph-name="uni2779" unicode="&#x34;&#x20dd;&#x25cf;" 
d="M900 -50q-159 0 -299.5 61t-245 165.5t-165.5 245t-61 299.5t61 299.5t165.5 245t245 165.5t299.5 61t299.5 -61t245 -165.5t165.5 -245t61 -299.5t-61 -299.5t-165.5 -245t-245 -165.5t-299.5 -61zM868 1118q-60 -94 -107 -166.5t-84 -131.5t-66.5 -108.5t-56.5 -96.5
v-117h383v-145h145v145h100v120h-100v500h-214zM696 619q55 96 117 191.5t124 188.5v-381h-241v1z" />
    <glyph glyph-name="uni277A" unicode="&#x35;&#x20dd;&#x25cf;" 
d="M900 -50q-159 0 -299.5 61t-245 165.5t-165.5 245t-61 299.5t61 299.5t165.5 245t245 165.5t299.5 61t299.5 -61t245 -165.5t165.5 -245t61 -299.5t-61 -299.5t-165.5 -245t-245 -165.5t-299.5 -61zM619 552q2 -46 23 -85t57.5 -67.5t87 -44.5t111.5 -16q66 0 121 19.5
t94.5 55t61.5 86t22 111.5q0 59 -21 105.5t-56 78.5t-82 48.5t-100 16.5q-64 0 -104 -21.5t-56 -41.5l17 201h359v120h-483l-35 -448h131q14 25 47.5 49.5t87.5 24.5q30 0 56.5 -9.5t46.5 -27.5t31.5 -43.5t11.5 -57.5q0 -36 -12.5 -63.5t-32.5 -46t-46 -28.5t-53 -10
q-51 0 -92.5 23t-50.5 71h-142z" />
    <glyph glyph-name="uni277B" unicode="&#x36;&#x20dd;&#x25cf;" 
d="M900 -50q-159 0 -299.5 61t-245 165.5t-165.5 245t-61 299.5t61 299.5t165.5 245t245 165.5t299.5 61t299.5 -61t245 -165.5t165.5 -245t61 -299.5t-61 -299.5t-165.5 -245t-245 -165.5t-299.5 -61zM1185 606q0 53 -17.5 97.5t-48.5 77t-73.5 51t-92.5 18.5
q-40 0 -75 -12.5t-58 -34.5l-8 2q4 8 13.5 21.5t22.5 31.5q24 32 55.5 73.5t61.5 80.5t53 68.5t30 37.5h-164q-6 -7 -30.5 -40t-53 -71.5t-52 -71.5t-27.5 -39q-56 -79 -82 -146t-26 -136q0 -62 21 -112.5t59 -86.5t90.5 -56t116.5 -20q63 0 115.5 19.5t90 55t58.5 84.5
t21 108zM752 601q0 32 11 59t30.5 46.5t46.5 31t59 11.5t59 -11.5t46.5 -31t30.5 -46.5t11 -59q0 -31 -11 -58.5t-30.5 -47t-46.5 -31t-59 -11.5t-59 11.5t-46.5 31t-30.5 47t-11 58.5z" />
    <glyph glyph-name="uni277C" unicode="&#x37;&#x20dd;&#x25cf;" 
d="M900 -50q-159 0 -299.5 61t-245 165.5t-165.5 245t-61 299.5t61 299.5t165.5 245t245 165.5t299.5 61t299.5 -61t245 -165.5t165.5 -245t61 -299.5t-61 -299.5t-165.5 -245t-245 -165.5t-299.5 -61zM641 1108v-123h392v-1l-332 -641h159l325 645v120h-544z" />
    <glyph glyph-name="uni277D" unicode="&#x38;&#x20dd;&#x25cf;" 
d="M900 -50q-159 0 -299.5 61t-245 165.5t-165.5 245t-61 299.5t61 299.5t165.5 245t245 165.5t299.5 61t299.5 -61t245 -165.5t165.5 -245t61 -299.5t-61 -299.5t-165.5 -245t-245 -165.5t-299.5 -61zM896 338q68 0 124 16.5t96 46t62 71.5t22 93q0 70 -44 121t-119 68
q63 21 97 66.5t34 107.5q0 45 -20 83t-56 65t-86 42t-110 15t-110 -15t-86 -42t-56 -65t-20 -83q0 -62 34 -107.5t97 -66.5q-75 -17 -119 -68t-44 -121q0 -51 22 -93t62 -71.5t96 -46t124 -16.5zM896 449q-67 0 -110.5 35t-43.5 89t43.5 89.5t110.5 35.5t110.5 -35.5
t43.5 -89.5t-43.5 -89t-110.5 -35zM896 805q-56 0 -90.5 30t-34.5 78t34.5 78t90.5 30t90.5 -30t34.5 -78t-34.5 -78t-90.5 -30z" />
    <glyph glyph-name="uni277E" unicode="&#x39;&#x20dd;&#x25cf;" 
d="M900 -50q-159 0 -299.5 61t-245 165.5t-165.5 245t-61 299.5t61 299.5t165.5 245t245 165.5t299.5 61t299.5 -61t245 -165.5t165.5 -245t61 -299.5t-61 -299.5t-165.5 -245t-245 -165.5t-299.5 -61zM613 864q0 -53 17.5 -97.5t48.5 -77t73.5 -51t92.5 -18.5q40 0 75 12.5
t58 34.5l8 -2q-4 -7 -13 -20.5t-21 -30.5q-24 -32 -56 -74t-62 -81t-53.5 -69t-30.5 -38h164q6 7 30.5 40t53 71.5t52 71.5t27.5 39q56 79 82 146t26 136q0 62 -21 112.5t-59 86.5t-90.5 56t-116.5 20q-63 0 -115.5 -19.5t-90 -54.5t-58.5 -84.5t-21 -108.5zM1046 869
q0 -31 -11 -58.5t-30.5 -47t-46.5 -31t-59 -11.5t-59 11.5t-46.5 31t-30.5 47t-11 58.5q0 32 11 59t30.5 46.5t46.5 31t59 11.5t59 -11.5t46.5 -31t30.5 -46.5t11 -59z" />
    <glyph glyph-name="u1F130" unicode="A&#x20de;" 
d="M416 1464h968q54 0 101 -20t82 -54.5t55 -80.5t20 -99v-976q0 -52 -20 -98.5t-55 -81t-82 -54.5t-101 -20h-968q-53 0 -100 20t-82 54.5t-55.5 81t-20.5 98.5v976q0 53 20.5 99t55.5 80.5t82 54.5t100 20zM1513 1208q0 28 -11.5 53t-31 44t-45.5 30t-55 11h-940
q-29 0 -55 -11t-45.5 -29.5t-31 -43.5t-11.5 -54v-972q0 -28 11.5 -53t31 -44t45.5 -30t55 -11h940q29 0 55 11t45.5 30t31 44t11.5 53v972zM710 388h-132l248 693h148l248 -693h-132l-62 186h-256zM800 668h200l-95 287h-10z" />
    <glyph glyph-name="u1F131" unicode="B&#x20de;" 
d="M416 1464h968q54 0 101 -20t82 -54.5t55 -80.5t20 -99v-976q0 -52 -20 -98.5t-55 -81t-82 -54.5t-101 -20h-968q-53 0 -100 20t-82 54.5t-55.5 81t-20.5 98.5v976q0 53 20.5 99t55.5 80.5t82 54.5t100 20zM1513 1208q0 28 -11.5 53t-31 44t-45.5 30t-55 11h-940
q-29 0 -55 -11t-45.5 -29.5t-31 -43.5t-11.5 -54v-972q0 -28 11.5 -53t31 -44t45.5 -30t55 -11h940q29 0 55 11t45.5 30t31 44t11.5 53v972zM663 388v693h294q97 0 154 -45.5t57 -125.5q0 -62 -34 -100t-88 -52v-5q68 -7 114.5 -50t46.5 -120q0 -46 -18.5 -82.5t-52 -61.5
t-80 -38t-102.5 -13h-291zM792 700v-215h111q92 0 131.5 25.5t39.5 78.5q0 52 -35 81.5t-101 29.5h-146zM792 984v-194h98q78 0 114 25t36 74q0 45 -29 70t-82 25h-137z" />
    <glyph glyph-name="u1F132" unicode="C&#x20de;" 
d="M416 1464h968q54 0 101 -20t82 -54.5t55 -80.5t20 -99v-976q0 -52 -20 -98.5t-55 -81t-82 -54.5t-101 -20h-968q-53 0 -100 20t-82 54.5t-55.5 81t-20.5 98.5v976q0 53 20.5 99t55.5 80.5t82 54.5t100 20zM1513 1208q0 28 -11.5 53t-31 44t-45.5 30t-55 11h-940
q-29 0 -55 -11t-45.5 -29.5t-31 -43.5t-11.5 -54v-972q0 -28 11.5 -53t31 -44t45.5 -30t55 -11h940q29 0 55 11t45.5 30t31 44t11.5 53v972zM1068 606h132q-8 -52 -33 -94.5t-64.5 -73t-91 -47t-113.5 -16.5q-73 0 -132.5 26t-102 73.5t-66 113.5t-23.5 146t23.5 146.5
t66 114t102 73.5t132.5 26q63 0 115.5 -17t92 -48.5t64.5 -76t32 -98.5h-130q-8 60 -56 97.5t-116 37.5q-44 0 -79.5 -18.5t-61 -52t-39.5 -80.5t-14 -104t14 -104t39.5 -80.5t61 -51.5t79.5 -18q66 0 113 35.5t55 90.5z" />
    <glyph glyph-name="u1F133" unicode="D&#x20de;" 
d="M416 1464h968q54 0 101 -20t82 -54.5t55 -80.5t20 -99v-976q0 -52 -20 -98.5t-55 -81t-82 -54.5t-101 -20h-968q-53 0 -100 20t-82 54.5t-55.5 81t-20.5 98.5v976q0 53 20.5 99t55.5 80.5t82 54.5t100 20zM1513 1208q0 28 -11.5 53t-31 44t-45.5 30t-55 11h-940
q-29 0 -55 -11t-45.5 -29.5t-31 -43.5t-11.5 -54v-972q0 -28 11.5 -53t31 -44t45.5 -30t55 -11h940q29 0 55 11t45.5 30t31 44t11.5 53v972zM633 1081h256q165 0 244 -89t79 -256t-79.5 -257.5t-243.5 -90.5h-256v693zM763 978v-487h110q106 0 155.5 60.5t49.5 182.5
t-49.5 183t-155.5 61h-110z" />
    <glyph glyph-name="u1F134" unicode="E&#x20de;" 
d="M416 1464h968q54 0 101 -20t82 -54.5t55 -80.5t20 -99v-976q0 -52 -20 -98.5t-55 -81t-82 -54.5t-101 -20h-968q-53 0 -100 20t-82 54.5t-55.5 81t-20.5 98.5v976q0 53 20.5 99t55.5 80.5t82 54.5t100 20zM1513 1208q0 28 -11.5 53t-31 44t-45.5 30t-55 11h-940
q-29 0 -55 -11t-45.5 -29.5t-31 -43.5t-11.5 -54v-972q0 -28 11.5 -53t31 -44t45.5 -30t55 -11h940q29 0 55 11t45.5 30t31 44t11.5 53v972zM1135 491v-103h-459v693h459v-103h-330v-190h311v-98h-311v-199h330z" />
    <glyph glyph-name="u1F135" unicode="F&#x20de;" 
d="M416 1464h968q54 0 101 -20t82 -54.5t55 -80.5t20 -99v-976q0 -52 -20 -98.5t-55 -81t-82 -54.5t-101 -20h-968q-53 0 -100 20t-82 54.5t-55.5 81t-20.5 98.5v976q0 53 20.5 99t55.5 80.5t82 54.5t100 20zM1513 1208q0 28 -11.5 53t-31 44t-45.5 30t-55 11h-940
q-29 0 -55 -11t-45.5 -29.5t-31 -43.5t-11.5 -54v-972q0 -28 11.5 -53t31 -44t45.5 -30t55 -11h940q29 0 55 11t45.5 30t31 44t11.5 53v972zM838 388h-131v693h454v-104h-323v-205h295v-102h-295v-282z" />
    <glyph glyph-name="u1F136" unicode="G&#x20de;" 
d="M416 1464h968q54 0 101 -20t82 -54.5t55 -80.5t20 -99v-976q0 -52 -20 -98.5t-55 -81t-82 -54.5t-101 -20h-968q-53 0 -100 20t-82 54.5t-55.5 81t-20.5 98.5v976q0 53 20.5 99t55.5 80.5t82 54.5t100 20zM1513 1208q0 28 -11.5 53t-31 44t-45.5 30t-55 11h-940
q-29 0 -55 -11t-45.5 -29.5t-31 -43.5t-11.5 -54v-972q0 -28 11.5 -53t31 -44t45.5 -30t55 -11h940q29 0 55 11t45.5 30t31 44t11.5 53v972zM1071 604v57h-160v95h284v-122q0 -57 -19 -104.5t-56 -82t-92 -53.5t-128 -19t-133 26t-103 73.5t-66.5 113.5t-23.5 146
t23.5 146.5t66.5 114t103 73.5t133 26q61 0 113 -16.5t91 -46.5t64 -72.5t32 -94.5h-130q-8 54 -55.5 89.5t-112.5 35.5q-90 0 -143 -69t-53 -186q0 -58 14 -105t39.5 -80t61.5 -51t81 -18q83 0 126 34.5t43 89.5z" />
    <glyph glyph-name="u1F137" unicode="H&#x20de;" 
d="M416 1464h968q54 0 101 -20t82 -54.5t55 -80.5t20 -99v-976q0 -52 -20 -98.5t-55 -81t-82 -54.5t-101 -20h-968q-53 0 -100 20t-82 54.5t-55.5 81t-20.5 98.5v976q0 53 20.5 99t55.5 80.5t82 54.5t100 20zM1513 1208q0 28 -11.5 53t-31 44t-45.5 30t-55 11h-940
q-29 0 -55 -11t-45.5 -29.5t-31 -43.5t-11.5 -54v-972q0 -28 11.5 -53t31 -44t45.5 -30t55 -11h940q29 0 55 11t45.5 30t31 44t11.5 53v972zM1191 388h-130v304h-321v-304h-130v693h130v-286h321v286h130v-693z" />
    <glyph glyph-name="u1F138" unicode="I&#x20de;" 
d="M416 1464h968q54 0 101 -20t82 -54.5t55 -80.5t20 -99v-976q0 -52 -20 -98.5t-55 -81t-82 -54.5t-101 -20h-968q-53 0 -100 20t-82 54.5t-55.5 81t-20.5 98.5v976q0 53 20.5 99t55.5 80.5t82 54.5t100 20zM1513 1208q0 28 -11.5 53t-31 44t-45.5 30t-55 11h-940
q-29 0 -55 -11t-45.5 -29.5t-31 -43.5t-11.5 -54v-972q0 -28 11.5 -53t31 -44t45.5 -30t55 -11h940q29 0 55 11t45.5 30t31 44t11.5 53v972zM966 388h-132v693h132v-693z" />
    <glyph glyph-name="u1F139" unicode="J&#x20de;" 
d="M416 1464h968q54 0 101 -20t82 -54.5t55 -80.5t20 -99v-976q0 -52 -20 -98.5t-55 -81t-82 -54.5t-101 -20h-968q-53 0 -100 20t-82 54.5t-55.5 81t-20.5 98.5v976q0 53 20.5 99t55.5 80.5t82 54.5t100 20zM1513 1208q0 28 -11.5 53t-31 44t-45.5 30t-55 11h-940
q-29 0 -55 -11t-45.5 -29.5t-31 -43.5t-11.5 -54v-972q0 -28 11.5 -53t31 -44t45.5 -30t55 -11h940q29 0 55 11t45.5 30t31 44t11.5 53v972zM636 576h126q1 -41 28 -66t72 -25q54 0 80.5 30t26.5 85v481h130v-477q0 -112 -62.5 -170.5t-173.5 -58.5q-55 0 -97.5 16t-71.5 43
t-43.5 63.5t-14.5 78.5z" />
    <glyph glyph-name="u1F13A" unicode="K&#x20de;" 
d="M416 1464h968q54 0 101 -20t82 -54.5t55 -80.5t20 -99v-976q0 -52 -20 -98.5t-55 -81t-82 -54.5t-101 -20h-968q-53 0 -100 20t-82 54.5t-55.5 81t-20.5 98.5v976q0 53 20.5 99t55.5 80.5t82 54.5t100 20zM1513 1208q0 28 -11.5 53t-31 44t-45.5 30t-55 11h-940
q-29 0 -55 -11t-45.5 -29.5t-31 -43.5t-11.5 -54v-972q0 -28 11.5 -53t31 -44t45.5 -30t55 -11h940q29 0 55 11t45.5 30t31 44t11.5 53v972zM1215 1081l-263 -297l274 -396h-158l-212 312l-78 -84v-228h-130v693h130v-317h5l287 317h145z" />
    <glyph glyph-name="u1F13B" unicode="L&#x20de;" 
d="M416 1464h968q54 0 101 -20t82 -54.5t55 -80.5t20 -99v-976q0 -52 -20 -98.5t-55 -81t-82 -54.5t-101 -20h-968q-53 0 -100 20t-82 54.5t-55.5 81t-20.5 98.5v976q0 53 20.5 99t55.5 80.5t82 54.5t100 20zM1513 1208q0 28 -11.5 53t-31 44t-45.5 30t-55 11h-940
q-29 0 -55 -11t-45.5 -29.5t-31 -43.5t-11.5 -54v-972q0 -28 11.5 -53t31 -44t45.5 -30t55 -11h940q29 0 55 11t45.5 30t31 44t11.5 53v972zM1178 495v-107h-446v693h131v-586h315z" />
    <glyph glyph-name="u1F13C" unicode="M&#x20de;" 
d="M416 1464h968q54 0 101 -20t82 -54.5t55 -80.5t20 -99v-976q0 -52 -20 -98.5t-55 -81t-82 -54.5t-101 -20h-968q-53 0 -100 20t-82 54.5t-55.5 81t-20.5 98.5v976q0 53 20.5 99t55.5 80.5t82 54.5t100 20zM1513 1208q0 28 -11.5 53t-31 44t-45.5 30t-55 11h-940
q-29 0 -55 -11t-45.5 -29.5t-31 -43.5t-11.5 -54v-972q0 -28 11.5 -53t31 -44t45.5 -30t55 -11h940q29 0 55 11t45.5 30t31 44t11.5 53v972zM668 388h-117v693h132l216 -533h4l216 533h130v-693h-117v473h-6l-180 -453h-91l-181 453h-6v-473z" />
    <glyph glyph-name="u1F13D" unicode="N&#x20de;" 
d="M416 1464h968q54 0 101 -20t82 -54.5t55 -80.5t20 -99v-976q0 -52 -20 -98.5t-55 -81t-82 -54.5t-101 -20h-968q-53 0 -100 20t-82 54.5t-55.5 81t-20.5 98.5v976q0 53 20.5 99t55.5 80.5t82 54.5t100 20zM1513 1208q0 28 -11.5 53t-31 44t-45.5 30t-55 11h-940
q-29 0 -55 -11t-45.5 -29.5t-31 -43.5t-11.5 -54v-972q0 -28 11.5 -53t31 -44t45.5 -30t55 -11h940q29 0 55 11t45.5 30t31 44t11.5 53v972zM738 388h-124v693h111l331 -482h6v482h124v-693h-111l-332 484h-5v-484z" />
    <glyph glyph-name="u1F13E" unicode="O&#x20de;" 
d="M416 1464h968q54 0 101 -20t82 -54.5t55 -80.5t20 -99v-976q0 -52 -20 -98.5t-55 -81t-82 -54.5t-101 -20h-968q-53 0 -100 20t-82 54.5t-55.5 81t-20.5 98.5v976q0 53 20.5 99t55.5 80.5t82 54.5t100 20zM1513 1208q0 28 -11.5 53t-31 44t-45.5 30t-55 11h-940
q-29 0 -55 -11t-45.5 -29.5t-31 -43.5t-11.5 -54v-972q0 -28 11.5 -53t31 -44t45.5 -30t55 -11h940q29 0 55 11t45.5 30t31 44t11.5 53v972zM900 375q-67 0 -126.5 24t-104 69.5t-70 112.5t-25.5 153t25.5 153t70 113t104 70t126.5 24q68 0 127 -24t103.5 -70t70 -113
t25.5 -153t-25.5 -153t-70 -112.5t-103.5 -69.5t-127 -24zM900 480q41 0 76 16.5t61.5 49t41.5 80t15 108.5q0 62 -15 109.5t-41.5 80t-61.5 49t-76 16.5q-40 0 -75.5 -16.5t-62 -49t-41.5 -80t-15 -109.5q0 -61 15 -108.5t41.5 -80t62 -49t75.5 -16.5z" />
    <glyph glyph-name="u1F13F" unicode="P&#x20de;" 
d="M416 1464h968q54 0 101 -20t82 -54.5t55 -80.5t20 -99v-976q0 -52 -20 -98.5t-55 -81t-82 -54.5t-101 -20h-968q-53 0 -100 20t-82 54.5t-55.5 81t-20.5 98.5v976q0 53 20.5 99t55.5 80.5t82 54.5t100 20zM1513 1208q0 28 -11.5 53t-31 44t-45.5 30t-55 11h-940
q-29 0 -55 -11t-45.5 -29.5t-31 -43.5t-11.5 -54v-972q0 -28 11.5 -53t31 -44t45.5 -30t55 -11h940q29 0 55 11t45.5 30t31 44t11.5 53v972zM962 1081q57 0 102 -17.5t76 -48t47.5 -72t16.5 -89.5q0 -49 -16.5 -90t-47.5 -71t-76.5 -47t-102.5 -17h-153v-241h-129v693h283z
M1071 854q0 60 -34 93t-97 33h-132v-251h132q63 0 97 32.5t34 92.5z" />
    <glyph glyph-name="u1F140" unicode="Q&#x20de;" 
d="M416 1464h968q54 0 101 -20t82 -54.5t55 -80.5t20 -99v-976q0 -52 -20 -98.5t-55 -81t-82 -54.5t-101 -20h-968q-53 0 -100 20t-82 54.5t-55.5 81t-20.5 98.5v976q0 53 20.5 99t55.5 80.5t82 54.5t100 20zM1513 1208q0 28 -11.5 53t-31 44t-45.5 30t-55 11h-940
q-29 0 -55 -11t-45.5 -29.5t-31 -43.5t-11.5 -54v-972q0 -28 11.5 -53t31 -44t45.5 -30t55 -11h940q29 0 55 11t45.5 30t31 44t11.5 53v972zM1200 319h-128l-56 76q-55 -20 -116 -20q-67 0 -126.5 24t-104 69.5t-70 112.5t-25.5 153t25.5 153t70 113t104 70t126.5 24
q68 0 127 -24t103.5 -70t70 -113t25.5 -153q0 -98 -32.5 -170t-87.5 -118zM900 480q28 0 49 7l-84 115h126l44 -60q27 32 43 80.5t16 111.5q0 62 -15 109.5t-41.5 80t-61.5 49t-76 16.5q-40 0 -75.5 -16.5t-62 -49t-41.5 -80t-15 -109.5q0 -61 15 -108.5t41.5 -80t62 -49
t75.5 -16.5z" />
    <glyph glyph-name="u1F141" unicode="R&#x20de;" 
d="M416 1464h968q54 0 101 -20t82 -54.5t55 -80.5t20 -99v-976q0 -52 -20 -98.5t-55 -81t-82 -54.5t-101 -20h-968q-53 0 -100 20t-82 54.5t-55.5 81t-20.5 98.5v976q0 53 20.5 99t55.5 80.5t82 54.5t100 20zM1513 1208q0 28 -11.5 53t-31 44t-45.5 30t-55 11h-940
q-29 0 -55 -11t-45.5 -29.5t-31 -43.5t-11.5 -54v-972q0 -28 11.5 -53t31 -44t45.5 -30t55 -11h940q29 0 55 11t45.5 30t31 44t11.5 53v972zM934 1081q118 0 183.5 -58.5t65.5 -157.5q0 -74 -40 -124t-93 -70l146 -283h-146l-128 263h-142v-263h-128v693h282zM780 747h132
q65 0 101 28.5t36 85.5q0 59 -36.5 89.5t-96.5 30.5h-136v-234z" />
    <glyph glyph-name="u1F142" unicode="S&#x20de;" 
d="M416 1464h968q54 0 101 -20t82 -54.5t55 -80.5t20 -99v-976q0 -52 -20 -98.5t-55 -81t-82 -54.5t-101 -20h-968q-53 0 -100 20t-82 54.5t-55.5 81t-20.5 98.5v976q0 53 20.5 99t55.5 80.5t82 54.5t100 20zM1513 1208q0 28 -11.5 53t-31 44t-45.5 30t-55 11h-940
q-29 0 -55 -11t-45.5 -29.5t-31 -43.5t-11.5 -54v-972q0 -28 11.5 -53t31 -44t45.5 -30t55 -11h940q29 0 55 11t45.5 30t31 44t11.5 53v972zM620 582h127q5 -48 47.5 -77.5t110.5 -29.5q67 0 106.5 27.5t39.5 75.5q0 36 -27 58.5t-88 37.5l-117 26q-88 20 -134 68t-46 121
q0 46 19.5 84t54.5 65t84 42t108 15q58 0 106.5 -14.5t83.5 -41.5t54.5 -64.5t20.5 -82.5h-124q-4 48 -42.5 76t-99.5 28q-60 0 -97 -27.5t-37 -72.5q0 -65 100 -87l117 -26q100 -23 146.5 -69.5t46.5 -124.5q0 -100 -76 -157t-207 -57q-62 0 -113 14.5t-87 41.5t-56 65
t-21 86z" />
    <glyph glyph-name="u1F143" unicode="T&#x20de;" 
d="M416 1464h968q54 0 101 -20t82 -54.5t55 -80.5t20 -99v-976q0 -52 -20 -98.5t-55 -81t-82 -54.5t-101 -20h-968q-53 0 -100 20t-82 54.5t-55.5 81t-20.5 98.5v976q0 53 20.5 99t55.5 80.5t82 54.5t100 20zM1513 1208q0 28 -11.5 53t-31 44t-45.5 30t-55 11h-940
q-29 0 -55 -11t-45.5 -29.5t-31 -43.5t-11.5 -54v-972q0 -28 11.5 -53t31 -44t45.5 -30t55 -11h940q29 0 55 11t45.5 30t31 44t11.5 53v972zM966 388h-132v588h-210v105h552v-105h-210v-588z" />
    <glyph glyph-name="u1F144" unicode="U&#x20de;" 
d="M416 1464h968q54 0 101 -20t82 -54.5t55 -80.5t20 -99v-976q0 -52 -20 -98.5t-55 -81t-82 -54.5t-101 -20h-968q-53 0 -100 20t-82 54.5t-55.5 81t-20.5 98.5v976q0 53 20.5 99t55.5 80.5t82 54.5t100 20zM1513 1208q0 28 -11.5 53t-31 44t-45.5 30t-55 11h-940
q-29 0 -55 -11t-45.5 -29.5t-31 -43.5t-11.5 -54v-972q0 -28 11.5 -53t31 -44t45.5 -30t55 -11h940q29 0 55 11t45.5 30t31 44t11.5 53v972zM900 482q72 0 115 40.5t43 115.5v443h130v-454q0 -57 -20.5 -103.5t-58 -79.5t-90.5 -51t-119 -18t-119 18t-90.5 51t-58 79.5
t-20.5 103.5v454h130v-443q0 -75 43 -115.5t115 -40.5z" />
    <glyph glyph-name="u1F145" unicode="V&#x20de;" 
d="M416 1464h968q54 0 101 -20t82 -54.5t55 -80.5t20 -99v-976q0 -52 -20 -98.5t-55 -81t-82 -54.5t-101 -20h-968q-53 0 -100 20t-82 54.5t-55.5 81t-20.5 98.5v976q0 53 20.5 99t55.5 80.5t82 54.5t100 20zM1513 1208q0 28 -11.5 53t-31 44t-45.5 30t-55 11h-940
q-29 0 -55 -11t-45.5 -29.5t-31 -43.5t-11.5 -54v-972q0 -28 11.5 -53t31 -44t45.5 -30t55 -11h940q29 0 55 11t45.5 30t31 44t11.5 53v972zM822 388l-250 693h151l174 -555h6l174 555h151l-250 -693h-156z" />
    <glyph glyph-name="u1F146" unicode="W&#x20de;" 
d="M416 1464h968q54 0 101 -20t82 -54.5t55 -80.5t20 -99v-976q0 -52 -20 -98.5t-55 -81t-82 -54.5t-101 -20h-968q-53 0 -100 20t-82 54.5t-55.5 81t-20.5 98.5v976q0 53 20.5 99t55.5 80.5t82 54.5t100 20zM1513 1208q0 28 -11.5 53t-31 44t-45.5 30t-55 11h-940
q-29 0 -55 -11t-45.5 -29.5t-31 -43.5t-11.5 -54v-972q0 -28 11.5 -53t31 -44t45.5 -30t55 -11h940q29 0 55 11t45.5 30t31 44t11.5 53v972zM898 889l-140 -501h-119l-195 693h143l117 -518h6l133 518h114l133 -518h6l117 518h143l-195 -693h-119l-140 501h-4z" />
    <glyph glyph-name="u1F147" unicode="X&#x20de;" 
d="M416 1464h968q54 0 101 -20t82 -54.5t55 -80.5t20 -99v-976q0 -52 -20 -98.5t-55 -81t-82 -54.5t-101 -20h-968q-53 0 -100 20t-82 54.5t-55.5 81t-20.5 98.5v976q0 53 20.5 99t55.5 80.5t82 54.5t100 20zM1513 1208q0 28 -11.5 53t-31 44t-45.5 30t-55 11h-940
q-29 0 -55 -11t-45.5 -29.5t-31 -43.5t-11.5 -54v-972q0 -28 11.5 -53t31 -44t45.5 -30t55 -11h940q29 0 55 11t45.5 30t31 44t11.5 53v972zM1214 1081l-233 -348l230 -345h-152l-161 253h-6l-163 -253h-143l229 349l-227 344h155l159 -256h6l158 256h148z" />
    <glyph glyph-name="u1F148" unicode="Y&#x20de;" 
d="M416 1464h968q54 0 101 -20t82 -54.5t55 -80.5t20 -99v-976q0 -52 -20 -98.5t-55 -81t-82 -54.5t-101 -20h-968q-53 0 -100 20t-82 54.5t-55.5 81t-20.5 98.5v976q0 53 20.5 99t55.5 80.5t82 54.5t100 20zM1513 1208q0 28 -11.5 53t-31 44t-45.5 30t-55 11h-940
q-29 0 -55 -11t-45.5 -29.5t-31 -43.5t-11.5 -54v-972q0 -28 11.5 -53t31 -44t45.5 -30t55 -11h940q29 0 55 11t45.5 30t31 44t11.5 53v972zM966 388h-131v273l-243 420h145l162 -297h5l162 297h142l-242 -418v-275z" />
    <glyph glyph-name="u1F149" unicode="Z&#x20de;" 
d="M416 1464h968q54 0 101 -20t82 -54.5t55 -80.5t20 -99v-976q0 -52 -20 -98.5t-55 -81t-82 -54.5t-101 -20h-968q-53 0 -100 20t-82 54.5t-55.5 81t-20.5 98.5v976q0 53 20.5 99t55.5 80.5t82 54.5t100 20zM1513 1208q0 28 -11.5 53t-31 44t-45.5 30t-55 11h-940
q-29 0 -55 -11t-45.5 -29.5t-31 -43.5t-11.5 -54v-972q0 -28 11.5 -53t31 -44t45.5 -30t55 -11h940q29 0 55 11t45.5 30t31 44t11.5 53v972zM635 388v83l361 499v7h-350v104h509v-83l-360 -499v-7h370v-104h-530z" />
    <glyph glyph-name="u1F150" unicode="A&#x20dd;&#x25cf;" 
d="M900 -50q-159 0 -299.5 61t-245 165.5t-165.5 245t-61 299.5t61 299.5t165.5 245t245 165.5t299.5 61t299.5 -61t245 -165.5t165.5 -245t61 -299.5t-61 -299.5t-165.5 -245t-245 -165.5t-299.5 -61zM698 374l67 202h270l67 -202h156l-273 766h-170l-273 -766h156z
M1001 690h-202l99 297h4z" />
    <glyph glyph-name="u1F151" unicode="B&#x20dd;&#x25cf;" 
d="M900 -50q-159 0 -299.5 61t-245 165.5t-165.5 245t-61 299.5t61 299.5t165.5 245t245 165.5t299.5 61t299.5 -61t245 -165.5t165.5 -245t61 -299.5t-61 -299.5t-165.5 -245t-245 -165.5t-299.5 -61zM629 354h323q65 0 117.5 15t89 43.5t56.5 69t20 90.5q0 76 -45 126.5
t-124 62.5q60 18 93 62t33 106q0 88 -63.5 139.5t-173.5 51.5h-326v-766zM780 694h155q69 0 106 -30t37 -87q0 -56 -43.5 -82t-137.5 -26h-117v225zM780 1005h145q54 0 85 -26.5t31 -72.5q0 -104 -158 -104h-103v203z" />
    <glyph glyph-name="u1F152" unicode="C&#x20dd;&#x25cf;" 
d="M900 -50q-159 0 -299.5 61t-245 165.5t-165.5 245t-61 299.5t61 299.5t165.5 245t245 165.5t299.5 61t299.5 -61t245 -165.5t165.5 -245t61 -299.5t-61 -299.5t-165.5 -245t-245 -165.5t-299.5 -61zM1075 593q-4 -25 -19.5 -47.5t-38.5 -39t-52.5 -26t-63.5 -9.5
q-45 0 -82.5 18.5t-64 53t-41 83t-14.5 108.5q0 59 14.5 108t41 83.5t64 53.5t82.5 19q35 0 65 -10.5t54 -28.5t39.5 -42t19.5 -51h155q-7 60 -34.5 108.5t-71 83.5t-101.5 54t-128 19q-80 0 -146 -29t-113 -81t-72.5 -125t-25.5 -162q0 -88 25.5 -161t72.5 -125.5t113 -81
t146 -28.5q68 0 125 18.5t100 52t71 80.5t37 104h-157z" />
    <glyph glyph-name="u1F153" unicode="D&#x20dd;&#x25cf;" 
d="M900 -50q-159 0 -299.5 61t-245 165.5t-165.5 245t-61 299.5t61 299.5t165.5 245t245 165.5t299.5 61t299.5 -61t245 -165.5t165.5 -245t61 -299.5t-61 -299.5t-165.5 -245t-245 -165.5t-299.5 -61zM621 1120v-766h285q176 0 266.5 97.5t90.5 286.5t-90 285.5t-267 96.5
h-285zM773 997h115q219 0 219 -261q0 -133 -53.5 -196t-165.5 -63h-115v520z" />
    <glyph glyph-name="u1F154" unicode="E&#x20dd;&#x25cf;" 
d="M900 -50q-159 0 -299.5 61t-245 165.5t-165.5 245t-61 299.5t61 299.5t165.5 245t245 165.5t299.5 61t299.5 -61t245 -165.5t165.5 -245t61 -299.5t-61 -299.5t-165.5 -245t-245 -165.5t-299.5 -61zM1159 477h-361v206h339v117h-339v197h361v123h-514v-766h514v123z" />
    <glyph glyph-name="u1F155" unicode="F&#x20dd;&#x25cf;" 
d="M900 -50q-159 0 -299.5 61t-245 165.5t-165.5 245t-61 299.5t61 299.5t165.5 245t245 165.5t299.5 61t299.5 -61t245 -165.5t165.5 -245t61 -299.5t-61 -299.5t-165.5 -245t-245 -165.5t-299.5 -61zM830 354v307h324v123h-324v212h353v124h-505v-766h152z" />
    <glyph glyph-name="u1F156" unicode="G&#x20dd;&#x25cf;" 
d="M900 -50q-159 0 -299.5 61t-245 165.5t-165.5 245t-61 299.5t61 299.5t165.5 245t245 165.5t299.5 61t299.5 -61t245 -165.5t165.5 -245t61 -299.5t-61 -299.5t-165.5 -245t-245 -165.5t-299.5 -61zM1077 620q0 -28 -11 -54t-33 -45.5t-54.5 -31t-75.5 -11.5
q-93 0 -148 67.5t-55 188.5t55 189t148 68q74 0 120.5 -30.5t52.5 -73.5h157q-8 54 -35.5 98.5t-71 76.5t-100.5 50t-124 18q-80 0 -146.5 -28.5t-114 -81t-74 -125t-26.5 -161.5q0 -88 26 -161t73.5 -125t113.5 -80.5t146 -28.5q76 0 136.5 23.5t102.5 64.5t64.5 95.5
t22.5 117.5v134h-312v-127h163v-27z" />
    <glyph glyph-name="u1F157" unicode="H&#x20dd;&#x25cf;" 
d="M900 -50q-159 0 -299.5 61t-245 165.5t-165.5 245t-61 299.5t61 299.5t165.5 245t245 165.5t299.5 61t299.5 -61t245 -165.5t165.5 -245t61 -299.5t-61 -299.5t-165.5 -245t-245 -165.5t-299.5 -61zM1222 354v766h-151v-312h-341v312h-152v-766h152v330h341v-330h151z
" />
    <glyph glyph-name="u1F158" unicode="I&#x20dd;&#x25cf;" 
d="M900 -50q-159 0 -299.5 61t-245 165.5t-165.5 245t-61 299.5t61 299.5t165.5 245t245 165.5t299.5 61t299.5 -61t245 -165.5t165.5 -245t61 -299.5t-61 -299.5t-165.5 -245t-245 -165.5t-299.5 -61zM976 354v766h-152v-766h152z" />
    <glyph glyph-name="u1F159" unicode="J&#x20dd;&#x25cf;" 
d="M900 -50q-159 0 -299.5 61t-245 165.5t-165.5 245t-61 299.5t61 299.5t165.5 245t245 165.5t299.5 61t299.5 -61t245 -165.5t165.5 -245t61 -299.5t-61 -299.5t-165.5 -245t-245 -165.5t-299.5 -61zM606 570q0 -52 18 -94.5t51.5 -72.5t80.5 -46.5t104 -16.5
q126 0 194.5 66.5t68.5 188.5v525h-153v-530q0 -119 -112 -119q-46 0 -74 27t-29 72h-149z" />
    <glyph glyph-name="u1F15A" unicode="K&#x20dd;&#x25cf;" 
d="M900 -50q-159 0 -299.5 61t-245 165.5t-165.5 245t-61 299.5t61 299.5t165.5 245t245 165.5t299.5 61t299.5 -61t245 -165.5t165.5 -245t61 -299.5t-61 -299.5t-165.5 -245t-245 -165.5t-299.5 -61zM1248 1120h-172l-311 -343v343h-152v-766h152v252l79 85l230 -337h185
l-304 436z" />
    <glyph glyph-name="u1F15B" unicode="L&#x20dd;&#x25cf;" 
d="M900 -50q-159 0 -299.5 61t-245 165.5t-165.5 245t-61 299.5t61 299.5t165.5 245t245 165.5t299.5 61t299.5 -61t245 -165.5t165.5 -245t61 -299.5t-61 -299.5t-165.5 -245t-245 -165.5t-299.5 -61zM1190 481h-344v639h-153v-766h497v127z" />
    <glyph glyph-name="u1F15C" unicode="M&#x20dd;&#x25cf;" 
d="M900 -50q-159 0 -299.5 61t-245 165.5t-165.5 245t-61 299.5t61 299.5t165.5 245t245 165.5t299.5 61t299.5 -61t245 -165.5t165.5 -245t61 -299.5t-61 -299.5t-165.5 -245t-245 -165.5t-299.5 -61zM651 354v521l196 -495h106l195 491v-517h139v766h-152l-236 -582
l-233 582h-153v-766h138z" />
    <glyph glyph-name="u1F15D" unicode="N&#x20dd;&#x25cf;" 
d="M900 -50q-159 0 -299.5 61t-245 165.5t-165.5 245t-61 299.5t61 299.5t165.5 245t245 165.5t299.5 61t299.5 -61t245 -165.5t165.5 -245t61 -299.5t-61 -299.5t-165.5 -245t-245 -165.5t-299.5 -61zM728 354v523l359 -523h131v766h-146v-524l-361 524h-129v-766h146z" />
    <glyph glyph-name="u1F15E" unicode="O&#x20dd;&#x25cf;" 
d="M900 -50q-159 0 -299.5 61t-245 165.5t-165.5 245t-61 299.5t61 299.5t165.5 245t245 165.5t299.5 61t299.5 -61t245 -165.5t165.5 -245t61 -299.5t-61 -299.5t-165.5 -245t-245 -165.5t-299.5 -61zM900 338q75 0 140.5 26.5t114 77t77 124t28.5 168.5t-28.5 169
t-77 124.5t-114 77t-140.5 26.5t-140.5 -26.5t-114 -77t-77 -124.5t-28.5 -169t28.5 -168.5t77 -124t114 -77t140.5 -26.5zM900 465q-43 0 -80.5 17.5t-65.5 51.5t-44 84.5t-16 115.5q0 66 16 116t44 84.5t65.5 52t80.5 17.5t80.5 -17.5t65.5 -52t44 -84.5t16 -116
q0 -65 -16 -115.5t-44 -84.5t-65.5 -51.5t-80.5 -17.5z" />
    <glyph glyph-name="u1F15F" unicode="P&#x20dd;&#x25cf;" 
d="M900 -50q-159 0 -299.5 61t-245 165.5t-165.5 245t-61 299.5t61 299.5t165.5 245t245 165.5t299.5 61t299.5 -61t245 -165.5t165.5 -245t61 -299.5t-61 -299.5t-165.5 -245t-245 -165.5t-299.5 -61zM960 1120h-314v-766h152v263h161q61 0 111 18t86 50.5t55.5 78.5
t19.5 103t-19.5 103.5t-55 79.5t-85.5 51.5t-111 18.5zM1075 867q0 -63 -36 -97.5t-102 -34.5h-139v264h139q66 0 102 -34.5t36 -97.5z" />
    <glyph glyph-name="u1F160" unicode="Q&#x20dd;&#x25cf;" 
d="M900 -50q-159 0 -299.5 61t-245 165.5t-165.5 245t-61 299.5t61 299.5t165.5 245t245 165.5t299.5 61t299.5 -61t245 -165.5t165.5 -245t61 -299.5t-61 -299.5t-165.5 -245t-245 -165.5t-299.5 -61zM1240 280l-106 142q58 51 92 129t34 183q0 95 -28.5 169t-77 124.5
t-114 77t-140.5 26.5t-140.5 -26.5t-114 -77t-77 -124.5t-28.5 -169t28.5 -168.5t77 -124t114 -77t140.5 -26.5q67 0 125 21l57 -79h158zM900 465q-43 0 -80.5 17.5t-65.5 51.5t-44 84.5t-16 115.5q0 66 16 116t44 84.5t65.5 52t80.5 17.5t80.5 -17.5t65.5 -52t44 -84.5
t16 -116q0 -64 -15.5 -113t-42.5 -83l-46 62h-152l94 -130q-23 -5 -44 -5z" />
    <glyph glyph-name="u1F161" unicode="R&#x20dd;&#x25cf;" 
d="M900 -50q-159 0 -299.5 61t-245 165.5t-165.5 245t-61 299.5t61 299.5t165.5 245t245 165.5t299.5 61t299.5 -61t245 -165.5t165.5 -245t61 -299.5t-61 -299.5t-165.5 -245t-245 -165.5t-299.5 -61zM931 1120h-313v-766h150v287h147l139 -287h173l-161 310q66 24 104 82
t38 133q0 112 -74 176.5t-203 64.5zM768 755v245h143q66 0 103.5 -33t37.5 -92q0 -57 -37.5 -88.5t-106.5 -31.5h-140z" />
    <glyph glyph-name="u1F162" unicode="S&#x20dd;&#x25cf;" 
d="M900 -50q-159 0 -299.5 61t-245 165.5t-165.5 245t-61 299.5t61 299.5t165.5 245t245 165.5t299.5 61t299.5 -61t245 -165.5t165.5 -245t61 -299.5t-61 -299.5t-165.5 -245t-245 -165.5t-299.5 -61zM589 576q2 -54 24 -98t62 -75t96.5 -47.5t125.5 -16.5q72 0 130.5 16.5
t99 47.5t62.5 75t22 99q0 88 -52 140t-164 78l-127 28q-105 23 -105 90q0 48 38.5 76t102.5 28t105 -31t46 -82h145q-1 52 -22.5 94.5t-60.5 73t-93 47.5t-119 17q-66 0 -120 -17t-93 -47.5t-60.5 -73t-21.5 -93.5q0 -81 51 -135t149 -76l127 -30q65 -14 93.5 -37t28.5 -61
q0 -50 -41 -78.5t-113 -28.5q-71 0 -116.5 31.5t-49.5 85.5h-150z" />
    <glyph glyph-name="u1F163" unicode="T&#x20dd;&#x25cf;" 
d="M900 -50q-159 0 -299.5 61t-245 165.5t-165.5 245t-61 299.5t61 299.5t165.5 245t245 165.5t299.5 61t299.5 -61t245 -165.5t165.5 -245t61 -299.5t-61 -299.5t-165.5 -245t-245 -165.5t-299.5 -61zM976 334v641h229v125h-610v-125h229v-641h152z" />
    <glyph glyph-name="u1F164" unicode="U&#x20dd;&#x25cf;" 
d="M900 -50q-159 0 -299.5 61t-245 165.5t-165.5 245t-61 299.5t61 299.5t165.5 245t245 165.5t299.5 61t299.5 -61t245 -165.5t165.5 -245t61 -299.5t-61 -299.5t-165.5 -245t-245 -165.5t-299.5 -61zM900 448q-79 0 -123 43t-44 121v488h-153v-500q0 -63 22.5 -115
t64.5 -88.5t101 -56.5t132 -20q72 0 131 20t101 57t65 88.5t23 114.5v500h-153v-488q0 -78 -44.5 -121t-122.5 -43z" />
    <glyph glyph-name="u1F165" unicode="V&#x20dd;&#x25cf;" 
d="M900 -50q-159 0 -299.5 61t-245 165.5t-165.5 245t-61 299.5t61 299.5t165.5 245t245 165.5t299.5 61t299.5 -61t245 -165.5t165.5 -245t61 -299.5t-61 -299.5t-165.5 -245t-245 -165.5t-299.5 -61zM986 334l277 766h-175l-186 -608h-4l-186 608h-175l277 -766h172z" />
    <glyph glyph-name="u1F166" unicode="W&#x20dd;&#x25cf;" 
d="M900 -50q-159 0 -299.5 61t-245 165.5t-165.5 245t-61 299.5t61 299.5t165.5 245t245 165.5t299.5 61t299.5 -61t245 -165.5t165.5 -245t61 -299.5t-61 -299.5t-165.5 -245t-245 -165.5t-299.5 -61zM898 875h4l151 -541h139l216 766h-168l-122 -566h-4l-145 566h-138
l-145 -566h-4l-122 566h-168l217 -766h138z" />
    <glyph glyph-name="u1F167" unicode="X&#x20dd;&#x25cf;" 
d="M900 -50q-159 0 -299.5 61t-245 165.5t-165.5 245t-61 299.5t61 299.5t165.5 245t245 165.5t299.5 61t299.5 -61t245 -165.5t165.5 -245t61 -299.5t-61 -299.5t-165.5 -245t-245 -165.5t-299.5 -61zM1252 1120h-174l-168 -279h-4l-173 279h-182l250 -380l-253 -386h170
l175 275h3l175 -275h177l-254 381z" />
    <glyph glyph-name="u1F168" unicode="Y&#x20dd;&#x25cf;" 
d="M900 -50q-159 0 -299.5 61t-245 165.5t-165.5 245t-61 299.5t61 299.5t165.5 245t245 165.5t299.5 61t299.5 -61t245 -165.5t165.5 -245t61 -299.5t-61 -299.5t-165.5 -245t-245 -165.5t-299.5 -61zM824 349h152v302l271 464h-169l-176 -324h-4l-176 324h-169l271 -464
v-302z" />
    <glyph glyph-name="u1F169" unicode="Z&#x20dd;&#x25cf;" 
d="M900 -50q-159 0 -299.5 61t-245 165.5t-165.5 245t-61 299.5t61 299.5t165.5 245t245 165.5t299.5 61t299.5 -61t245 -165.5t165.5 -245t61 -299.5t-61 -299.5t-165.5 -245t-245 -165.5t-299.5 -61zM605 354h590v124h-405l394 545v97h-567v-124h383v-1l-395 -544v-97z
" />
    <glyph glyph-name="u1F170" unicode="A&#x20de;&#x25a0;" 
d="M416 1464h968q54 0 101 -20t82 -54.5t55 -80.5t20 -99v-976q0 -52 -20 -98.5t-55 -81t-82 -54.5t-101 -20h-968q-53 0 -100 20t-82 54.5t-55.5 81t-20.5 98.5v976q0 53 20.5 99t55.5 80.5t82 54.5t100 20zM698 354l67 202h270l67 -202h156l-273 766h-170l-273 -766h156z
M1001 670h-202l99 297h4z" />
    <glyph glyph-name="u1F171" unicode="B&#x20de;&#x25a0;" 
d="M416 1464h968q54 0 101 -20t82 -54.5t55 -80.5t20 -99v-976q0 -52 -20 -98.5t-55 -81t-82 -54.5t-101 -20h-968q-53 0 -100 20t-82 54.5t-55.5 81t-20.5 98.5v976q0 53 20.5 99t55.5 80.5t82 54.5t100 20zM629 354h323q63 0 115 14.5t89.5 42.5t58 68.5t20.5 92.5
q0 82 -48.5 130t-120.5 59q56 17 91 59t35 109q0 90 -64.5 140.5t-172.5 50.5h-326v-766zM780 694h155q70 0 106.5 -31t36.5 -86q0 -54 -42 -81t-139 -27h-117v225zM780 1005h145q55 0 85.5 -27t30.5 -72q0 -52 -37.5 -78t-120.5 -26h-103v203z" />
    <glyph glyph-name="u1F172" unicode="C&#x20de;&#x25a0;" 
d="M416 1464h968q54 0 101 -20t82 -54.5t55 -80.5t20 -99v-976q0 -52 -20 -98.5t-55 -81t-82 -54.5t-101 -20h-968q-53 0 -100 20t-82 54.5t-55.5 81t-20.5 98.5v976q0 53 20.5 99t55.5 80.5t82 54.5t100 20zM1075 593q-4 -25 -19.5 -47.5t-38.5 -39t-52.5 -26t-63.5 -9.5
q-45 0 -82.5 18.5t-64 53t-41 83t-14.5 108.5q0 59 14.5 108t41 83.5t64 53.5t82.5 19q35 0 65 -10.5t54 -28.5t39.5 -42t19.5 -51h155q-7 60 -34.5 108.5t-71 83.5t-101.5 54t-128 19q-80 0 -146 -29t-113 -81t-72.5 -125t-25.5 -162q0 -88 25.5 -161t72.5 -125.5t113 -81
t146 -28.5q68 0 125 18.5t100 52t71 80.5t37 104h-157z" />
    <glyph glyph-name="u1F173" unicode="D&#x20de;&#x25a0;" 
d="M416 1464h968q54 0 101 -20t82 -54.5t55 -80.5t20 -99v-976q0 -52 -20 -98.5t-55 -81t-82 -54.5t-101 -20h-968q-53 0 -100 20t-82 54.5t-55.5 81t-20.5 98.5v976q0 53 20.5 99t55.5 80.5t82 54.5t100 20zM598 1120v-766h285q180 0 268.5 100.5t88.5 283.5
q0 184 -87.5 283t-269.5 99h-285zM750 997h115q113 0 166 -65t53 -196t-53 -195t-166 -64h-115v520z" />
    <glyph glyph-name="u1F174" unicode="E&#x20de;&#x25a0;" 
d="M416 1464h968q54 0 101 -20t82 -54.5t55 -80.5t20 -99v-976q0 -52 -20 -98.5t-55 -81t-82 -54.5t-101 -20h-968q-53 0 -100 20t-82 54.5t-55.5 81t-20.5 98.5v976q0 53 20.5 99t55.5 80.5t82 54.5t100 20zM1159 477h-361v206h339v117h-339v197h361v123h-514v-766h514v123
z" />
    <glyph glyph-name="u1F175" unicode="F&#x20de;&#x25a0;" 
d="M416 1464h968q54 0 101 -20t82 -54.5t55 -80.5t20 -99v-976q0 -52 -20 -98.5t-55 -81t-82 -54.5t-101 -20h-968q-53 0 -100 20t-82 54.5t-55.5 81t-20.5 98.5v976q0 53 20.5 99t55.5 80.5t82 54.5t100 20zM830 354v307h324v123h-324v212h353v124h-505v-766h152z" />
    <glyph glyph-name="u1F176" unicode="G&#x20de;&#x25a0;" 
d="M416 1464h968q54 0 101 -20t82 -54.5t55 -80.5t20 -99v-976q0 -52 -20 -98.5t-55 -81t-82 -54.5t-101 -20h-968q-53 0 -100 20t-82 54.5t-55.5 81t-20.5 98.5v976q0 53 20.5 99t55.5 80.5t82 54.5t100 20zM1077 620q0 -28 -11 -54t-33 -45.5t-54.5 -31t-75.5 -11.5
q-93 0 -148 67.5t-55 188.5t55 189t148 68q74 0 120.5 -30.5t52.5 -73.5h157q-8 54 -35.5 98.5t-71 76.5t-100.5 50t-124 18q-80 0 -146.5 -28.5t-114 -81t-74 -125t-26.5 -161.5q0 -88 26 -161t73.5 -125t113.5 -80.5t146 -28.5q76 0 136.5 23.5t102.5 64.5t64.5 95.5
t22.5 117.5v134h-312v-127h163v-27z" />
    <glyph glyph-name="u1F177" unicode="H&#x20de;&#x25a0;" 
d="M416 1464h968q54 0 101 -20t82 -54.5t55 -80.5t20 -99v-976q0 -52 -20 -98.5t-55 -81t-82 -54.5t-101 -20h-968q-53 0 -100 20t-82 54.5t-55.5 81t-20.5 98.5v976q0 53 20.5 99t55.5 80.5t82 54.5t100 20zM1222 354v766h-151v-312h-341v312h-152v-766h152v330h341v-330
h151z" />
    <glyph glyph-name="u1F178" unicode="I&#x20de;&#x25a0;" 
d="M416 1464h968q54 0 101 -20t82 -54.5t55 -80.5t20 -99v-976q0 -52 -20 -98.5t-55 -81t-82 -54.5t-101 -20h-968q-53 0 -100 20t-82 54.5t-55.5 81t-20.5 98.5v976q0 53 20.5 99t55.5 80.5t82 54.5t100 20zM976 354v766h-152v-766h152z" />
    <glyph glyph-name="u1F179" unicode="J&#x20de;&#x25a0;" 
d="M416 1464h968q54 0 101 -20t82 -54.5t55 -80.5t20 -99v-976q0 -52 -20 -98.5t-55 -81t-82 -54.5t-101 -20h-968q-53 0 -100 20t-82 54.5t-55.5 81t-20.5 98.5v976q0 53 20.5 99t55.5 80.5t82 54.5t100 20zM606 570q0 -48 16.5 -90t48.5 -73t79.5 -49t109.5 -18
q123 0 193 65t70 190v525h-153v-530q0 -58 -28 -88.5t-84 -30.5q-46 0 -74 27t-29 72h-149z" />
    <glyph glyph-name="u1F17A" unicode="K&#x20de;&#x25a0;" 
d="M416 1464h968q54 0 101 -20t82 -54.5t55 -80.5t20 -99v-976q0 -52 -20 -98.5t-55 -81t-82 -54.5t-101 -20h-968q-53 0 -100 20t-82 54.5t-55.5 81t-20.5 98.5v976q0 53 20.5 99t55.5 80.5t82 54.5t100 20zM1248 1120h-172l-311 -343v343h-152v-766h152v252l79 85
l230 -337h185q-74 108 -151.5 218t-152.5 218z" />
    <glyph glyph-name="u1F17B" unicode="L&#x20de;&#x25a0;" 
d="M416 1464h968q54 0 101 -20t82 -54.5t55 -80.5t20 -99v-976q0 -52 -20 -98.5t-55 -81t-82 -54.5t-101 -20h-968q-53 0 -100 20t-82 54.5t-55.5 81t-20.5 98.5v976q0 53 20.5 99t55.5 80.5t82 54.5t100 20zM1200 481h-344v639h-153v-766h497v127z" />
    <glyph glyph-name="u1F17C" unicode="M&#x20de;&#x25a0;" 
d="M416 1464h968q54 0 101 -20t82 -54.5t55 -80.5t20 -99v-976q0 -52 -20 -98.5t-55 -81t-82 -54.5t-101 -20h-968q-53 0 -100 20t-82 54.5t-55.5 81t-20.5 98.5v976q0 53 20.5 99t55.5 80.5t82 54.5t100 20zM651 354v521l196 -495h106l195 491v-517h139v766h-152l-236 -582
l-233 582h-153v-766h138z" />
    <glyph glyph-name="u1F17D" unicode="N&#x20de;&#x25a0;" 
d="M416 1464h968q54 0 101 -20t82 -54.5t55 -80.5t20 -99v-976q0 -52 -20 -98.5t-55 -81t-82 -54.5t-101 -20h-968q-53 0 -100 20t-82 54.5t-55.5 81t-20.5 98.5v976q0 53 20.5 99t55.5 80.5t82 54.5t100 20zM728 354v523l359 -523h131v766h-146v-524l-361 524h-129v-766
h146z" />
    <glyph glyph-name="u1F17E" unicode="O&#x20de;&#x25a0;" 
d="M416 1464h968q54 0 101 -20t82 -54.5t55 -80.5t20 -99v-976q0 -52 -20 -98.5t-55 -81t-82 -54.5t-101 -20h-968q-53 0 -100 20t-82 54.5t-55.5 81t-20.5 98.5v976q0 53 20.5 99t55.5 80.5t82 54.5t100 20zM900 338q75 0 140.5 26.5t114 77t77 124t28.5 168.5t-28.5 169
t-77 124.5t-114 77t-140.5 26.5t-140.5 -26.5t-114 -77t-77 -124.5t-28.5 -169t28.5 -168.5t77 -124t114 -77t140.5 -26.5zM900 465q-43 0 -80.5 17.5t-65.5 51.5t-44 84.5t-16 115.5q0 66 16 116t44 84.5t65.5 52t80.5 17.5t80.5 -17.5t65.5 -52t44 -84.5t16 -116
q0 -65 -16 -115.5t-44 -84.5t-65.5 -51.5t-80.5 -17.5z" />
    <glyph glyph-name="u1F17F" unicode="P&#x20de;&#x25a0;" 
d="M416 1464h968q54 0 101 -20t82 -54.5t55 -80.5t20 -99v-976q0 -52 -20 -98.5t-55 -81t-82 -54.5t-101 -20h-968q-53 0 -100 20t-82 54.5t-55.5 81t-20.5 98.5v976q0 53 20.5 99t55.5 80.5t82 54.5t100 20zM960 1120h-314v-766h152v263h161q64 0 114.5 19t85.5 52t53.5 79
t18.5 100t-18.5 100.5t-53.5 80t-85 53t-114 19.5zM1075 867q0 -63 -36 -97.5t-102 -34.5h-139v264h139q66 0 102 -34t36 -98z" />
    <glyph glyph-name="u1F180" unicode="Q&#x20de;&#x25a0;" 
d="M416 1464h968q54 0 101 -20t82 -54.5t55 -80.5t20 -99v-976q0 -52 -20 -98.5t-55 -81t-82 -54.5t-101 -20h-968q-53 0 -100 20t-82 54.5t-55.5 81t-20.5 98.5v976q0 53 20.5 99t55.5 80.5t82 54.5t100 20zM1240 280l-106 142q58 51 92 129t34 183q0 95 -28.5 169
t-77 124.5t-114 77t-140.5 26.5t-140.5 -26.5t-114 -77t-77 -124.5t-28.5 -169t28.5 -168.5t77 -124t114 -77t140.5 -26.5q67 0 125 21l57 -79h158zM900 465q-43 0 -80.5 17.5t-65.5 51.5t-44 84.5t-16 115.5q0 66 16 116t44 84.5t65.5 52t80.5 17.5t80.5 -17.5t65.5 -52
t44 -84.5t16 -116q0 -64 -15.5 -113t-42.5 -83l-46 62h-152l94 -130q-23 -5 -44 -5z" />
    <glyph glyph-name="u1F181" unicode="R&#x20de;&#x25a0;" 
d="M416 1464h968q54 0 101 -20t82 -54.5t55 -80.5t20 -99v-976q0 -52 -20 -98.5t-55 -81t-82 -54.5t-101 -20h-968q-53 0 -100 20t-82 54.5t-55.5 81t-20.5 98.5v976q0 53 20.5 99t55.5 80.5t82 54.5t100 20zM931 1120h-313v-766h150v287h147l139 -287h173l-161 310
q60 22 101 77t41 138q0 111 -73 176t-204 65zM768 755v245h143q64 0 102.5 -32t38.5 -93q0 -59 -38 -89.5t-106 -30.5h-140z" />
    <glyph glyph-name="u1F182" unicode="S&#x20de;&#x25a0;" 
d="M416 1464h968q54 0 101 -20t82 -54.5t55 -80.5t20 -99v-976q0 -52 -20 -98.5t-55 -81t-82 -54.5t-101 -20h-968q-53 0 -100 20t-82 54.5t-55.5 81t-20.5 98.5v976q0 53 20.5 99t55.5 80.5t82 54.5t100 20zM589 576q2 -54 24 -98t62 -75t96.5 -47.5t125.5 -16.5
q72 0 130.5 16.5t99 47.5t62.5 75t22 99q0 88 -52 140t-164 78l-127 28q-105 23 -105 90q0 48 38.5 76t102.5 28t105 -31t46 -82h145q-1 52 -22.5 94.5t-60.5 73t-93 47.5t-119 17q-66 0 -120 -17t-93 -47.5t-60.5 -73t-21.5 -93.5q0 -81 51 -135t149 -76l127 -30
q65 -14 93.5 -37t28.5 -61q0 -50 -41 -78.5t-113 -28.5q-71 0 -116.5 31.5t-49.5 85.5h-150z" />
    <glyph glyph-name="u1F183" unicode="T&#x20de;&#x25a0;" 
d="M416 1464h968q54 0 101 -20t82 -54.5t55 -80.5t20 -99v-976q0 -52 -20 -98.5t-55 -81t-82 -54.5t-101 -20h-968q-53 0 -100 20t-82 54.5t-55.5 81t-20.5 98.5v976q0 53 20.5 99t55.5 80.5t82 54.5t100 20zM976 354v641h229v125h-610v-125h229v-641h152z" />
    <glyph glyph-name="u1F184" unicode="U&#x20de;&#x25a0;" 
d="M416 1464h968q54 0 101 -20t82 -54.5t55 -80.5t20 -99v-976q0 -52 -20 -98.5t-55 -81t-82 -54.5t-101 -20h-968q-53 0 -100 20t-82 54.5t-55.5 81t-20.5 98.5v976q0 53 20.5 99t55.5 80.5t82 54.5t100 20zM900 468q-79 0 -123 43t-44 121v488h-153v-500q0 -63 22.5 -115
t64.5 -88.5t101 -56.5t132 -20q72 0 131 20t101 57t65 88.5t23 114.5v500h-153v-488q0 -78 -44.5 -121t-122.5 -43z" />
    <glyph glyph-name="u1F185" unicode="V&#x20de;&#x25a0;" 
d="M416 1464h968q54 0 101 -20t82 -54.5t55 -80.5t20 -99v-976q0 -52 -20 -98.5t-55 -81t-82 -54.5t-101 -20h-968q-53 0 -100 20t-82 54.5t-55.5 81t-20.5 98.5v976q0 53 20.5 99t55.5 80.5t82 54.5t100 20zM986 354l277 766h-175l-186 -608h-4l-186 608h-175l277 -766h172
z" />
    <glyph glyph-name="u1F186" unicode="W&#x20de;&#x25a0;" 
d="M416 1464h968q54 0 101 -20t82 -54.5t55 -80.5t20 -99v-976q0 -52 -20 -98.5t-55 -81t-82 -54.5t-101 -20h-968q-53 0 -100 20t-82 54.5t-55.5 81t-20.5 98.5v976q0 53 20.5 99t55.5 80.5t82 54.5t100 20zM898 895h4l151 -541h139l216 766h-168l-122 -566h-4l-145 566
h-138l-145 -566h-4l-122 566h-168l217 -766h138z" />
    <glyph glyph-name="u1F187" unicode="X&#x20de;&#x25a0;" 
d="M416 1464h968q54 0 101 -20t82 -54.5t55 -80.5t20 -99v-976q0 -52 -20 -98.5t-55 -81t-82 -54.5t-101 -20h-968q-53 0 -100 20t-82 54.5t-55.5 81t-20.5 98.5v976q0 53 20.5 99t55.5 80.5t82 54.5t100 20zM1252 1120h-174l-168 -279h-4l-173 279h-182l250 -380l-253 -386
h170l175 275h3l175 -275h177l-254 381z" />
    <glyph glyph-name="u1F188" unicode="Y&#x20de;&#x25a0;" 
d="M416 1464h968q54 0 101 -20t82 -54.5t55 -80.5t20 -99v-976q0 -52 -20 -98.5t-55 -81t-82 -54.5t-101 -20h-968q-53 0 -100 20t-82 54.5t-55.5 81t-20.5 98.5v976q0 53 20.5 99t55.5 80.5t82 54.5t100 20zM824 354h152v302l271 464h-169l-176 -324h-4l-176 324h-169
l271 -464v-302z" />
    <glyph glyph-name="u1F189" unicode="Z&#x20de;&#x25a0;" 
d="M416 1464h968q54 0 101 -20t82 -54.5t55 -80.5t20 -99v-976q0 -52 -20 -98.5t-55 -81t-82 -54.5t-101 -20h-968q-53 0 -100 20t-82 54.5t-55.5 81t-20.5 98.5v976q0 53 20.5 99t55.5 80.5t82 54.5t100 20zM605 354h590v124h-405l394 545v97h-567v-124h383v-1l-395 -544
v-97z" />
    <glyph glyph-name="divide.uc.blackcircle" unicode="&#xf7;&#x20dd;&#x25cf;" 
d="M900 -50q-159 0 -299.5 61t-245 165.5t-165.5 245t-61 299.5t61 299.5t165.5 245t245 165.5t299.5 61t299.5 -61t245 -165.5t165.5 -245t61 -299.5t-61 -299.5t-165.5 -245t-245 -165.5t-299.5 -61zM808 510q0 -37 26.5 -61t65.5 -24t66 24t27 61q0 39 -27 63.5t-66 24.5
t-65.5 -24.5t-26.5 -63.5zM1184 674v110h-568v-110h568zM808 953q0 -37 26.5 -61t64.5 -24q39 0 66.5 24t27.5 61q0 39 -27 63.5t-67 24.5q-38 0 -64.5 -24.5t-26.5 -63.5z" />
    <glyph glyph-name="divide.uc.blacksquare" unicode="&#xf7;&#x20de;&#x25a0;" 
d="M416 1464h968q54 0 101 -20t82 -54.5t55 -80.5t20 -99v-976q0 -52 -20 -98.5t-55 -81t-82 -54.5t-101 -20h-968q-53 0 -100 20t-82 54.5t-55.5 81t-20.5 98.5v976q0 53 20.5 99t55.5 80.5t82 54.5t100 20zM808 510q0 -37 26.5 -61t65.5 -24t66 24t27 61q0 39 -27 63.5
t-66 24.5t-65.5 -24.5t-26.5 -63.5zM1184 674v110h-568v-110h568zM808 953q0 -37 26.5 -61t64.5 -24q39 0 66.5 24t27.5 61q0 39 -27 63.5t-67 24.5q-38 0 -64.5 -24.5t-26.5 -63.5z" />
    <glyph glyph-name="divide.uc.whitecircle" unicode="&#xf7;&#x20dd;" 
d="M900 -50q-159 0 -299.5 61t-245 165.5t-165.5 245t-61 299.5t61 299.5t165.5 245t245 165.5t299.5 61t299.5 -61t245 -165.5t165.5 -245t61 -299.5t-61 -299.5t-165.5 -245t-245 -165.5t-299.5 -61zM900 78q134 0 250 50.5t201.5 137.5t134.5 204t49 250t-49 250
t-134.5 204t-201.5 137.5t-250 50.5t-250 -50.5t-201.5 -137.5t-134.5 -204t-49 -250t49 -250t134.5 -204t201.5 -137.5t250 -50.5zM1155 683h-510v91h510v-91zM821 527q0 34 22.5 55t56.5 21q35 0 58 -21t23 -55q0 -32 -23 -52.5t-58 -20.5q-34 0 -56.5 20.5t-22.5 52.5z
M821 934q0 34 22.5 55t55.5 21q35 0 58.5 -21t23.5 -55q0 -32 -23.5 -52.5t-58.5 -20.5q-33 0 -55.5 20.5t-22.5 52.5z" />
    <glyph glyph-name="divide.uc.whitesquare" unicode="&#xf7;&#x20de;" 
d="M416 1464h968q54 0 101 -20t82 -54.5t55 -80.5t20 -99v-976q0 -52 -20 -98.5t-55 -81t-82 -54.5t-101 -20h-968q-53 0 -100 20t-82 54.5t-55.5 81t-20.5 98.5v976q0 53 20.5 99t55.5 80.5t82 54.5t100 20zM1513 1208q0 28 -11.5 53t-31 44t-45.5 30t-55 11h-940
q-29 0 -55 -11t-45.5 -29.5t-31 -43.5t-11.5 -54v-972q0 -28 11.5 -53t31 -44t45.5 -30t55 -11h940q29 0 55 11t45.5 30t31 44t11.5 53v972zM1155 683h-510v91h510v-91zM821 527q0 34 22.5 55t56.5 21q35 0 58 -21t23 -55q0 -32 -23 -52.5t-58 -20.5q-34 0 -56.5 20.5
t-22.5 52.5zM821 934q0 34 22.5 55t55.5 21q35 0 58.5 -21t23.5 -55q0 -32 -23.5 -52.5t-58.5 -20.5q-33 0 -55.5 20.5t-22.5 52.5z" />
    <glyph glyph-name="eight.blacksquare" unicode="&#x38;&#x20de;&#x25a0;" 
d="M416 1464h968q54 0 101 -20t82 -54.5t55 -80.5t20 -99v-976q0 -52 -20 -98.5t-55 -81t-82 -54.5t-101 -20h-968q-53 0 -100 20t-82 54.5t-55.5 81t-20.5 98.5v976q0 53 20.5 99t55.5 80.5t82 54.5t100 20zM896 338q68 0 124 16.5t96 46t62 71.5t22 93q0 70 -44 121
t-119 68q63 21 97 66.5t34 107.5q0 45 -20 83t-56 65t-86 42t-110 15t-110 -15t-86 -42t-56 -65t-20 -83q0 -62 34 -107.5t97 -66.5q-75 -17 -119 -68t-44 -121q0 -51 22 -93t62 -71.5t96 -46t124 -16.5zM896 449q-67 0 -110.5 35t-43.5 89t43.5 89.5t110.5 35.5
t110.5 -35.5t43.5 -89.5t-43.5 -89t-110.5 -35zM896 805q-56 0 -90.5 30t-34.5 78t34.5 78t90.5 30t90.5 -30t34.5 -78t-34.5 -78t-90.5 -30z" />
    <glyph glyph-name="eight.whitesquare" unicode="&#x38;&#x20de;" 
d="M416 1464h968q54 0 101 -20t82 -54.5t55 -80.5t20 -99v-976q0 -52 -20 -98.5t-55 -81t-82 -54.5t-101 -20h-968q-53 0 -100 20t-82 54.5t-55.5 81t-20.5 98.5v976q0 53 20.5 99t55.5 80.5t82 54.5t100 20zM1513 1208q0 28 -11.5 53t-31 44t-45.5 30t-55 11h-940
q-29 0 -55 -11t-45.5 -29.5t-31 -43.5t-11.5 -54v-972q0 -28 11.5 -53t31 -44t45.5 -30t55 -11h940q29 0 55 11t45.5 30t31 44t11.5 53v972zM898 375q-61 0 -111.5 14.5t-86.5 41t-55.5 64t-19.5 83.5q0 65 41.5 112t109.5 61v5q-57 18 -89.5 58.5t-32.5 96.5q0 40 18 73.5
t51 58t78 38t99 13.5t99 -13.5t78 -38t51 -58t18 -73.5q0 -55 -32.5 -96.5t-89.5 -58.5v-5q68 -14 109.5 -61t41.5 -111q0 -46 -20 -83.5t-57 -64.5t-87.5 -41.5t-112.5 -14.5zM900 467q63 0 104 33.5t41 85.5q0 53 -40.5 86t-104.5 33t-105 -34t-41 -85q0 -52 41 -85.5
t105 -33.5zM900 793q54 0 87.5 29.5t33.5 75.5t-33.5 74.5t-87.5 28.5t-87.5 -28.5t-33.5 -74.5t33.5 -75.5t87.5 -29.5z" />
    <glyph glyph-name="equal.uc.blackcircle" unicode="&#x3d;&#x20dd;&#x25cf;" 
d="M900 -50q-159 0 -299.5 61t-245 165.5t-165.5 245t-61 299.5t61 299.5t165.5 245t245 165.5t299.5 61t299.5 -61t245 -165.5t165.5 -245t61 -299.5t-61 -299.5t-165.5 -245t-245 -165.5t-299.5 -61zM1167 548v115h-534v-115h534zM1167 796v116h-534v-116h534z" />
    <glyph glyph-name="equal.uc.blacksquare" unicode="&#x3d;&#x20de;&#x25a0;" 
d="M416 1464h968q54 0 101 -20t82 -54.5t55 -80.5t20 -99v-976q0 -52 -20 -98.5t-55 -81t-82 -54.5t-101 -20h-968q-53 0 -100 20t-82 54.5t-55.5 81t-20.5 98.5v976q0 53 20.5 99t55.5 80.5t82 54.5t100 20zM1167 548v115h-534v-115h534zM1167 796v116h-534v-116h534z" />
    <glyph glyph-name="equal.uc.whitecircle" unicode="&#x3d;&#x20dd;" 
d="M900 -50q-159 0 -299.5 61t-245 165.5t-165.5 245t-61 299.5t61 299.5t165.5 245t245 165.5t299.5 61t299.5 -61t245 -165.5t165.5 -245t61 -299.5t-61 -299.5t-165.5 -245t-245 -165.5t-299.5 -61zM900 78q134 0 250 50.5t201.5 137.5t134.5 204t49 250t-49 250
t-134.5 204t-201.5 137.5t-250 50.5t-250 -50.5t-201.5 -137.5t-134.5 -204t-49 -250t49 -250t134.5 -204t201.5 -137.5t250 -50.5zM1141 567h-482v95h482v-95zM1141 795h-482v96h482v-96z" />
    <glyph glyph-name="equal.uc.whitesquare" unicode="&#x3d;&#x20de;" 
d="M416 1464h968q54 0 101 -20t82 -54.5t55 -80.5t20 -99v-976q0 -52 -20 -98.5t-55 -81t-82 -54.5t-101 -20h-968q-53 0 -100 20t-82 54.5t-55.5 81t-20.5 98.5v976q0 53 20.5 99t55.5 80.5t82 54.5t100 20zM1513 1208q0 28 -11.5 53t-31 44t-45.5 30t-55 11h-940
q-29 0 -55 -11t-45.5 -29.5t-31 -43.5t-11.5 -54v-972q0 -28 11.5 -53t31 -44t45.5 -30t55 -11h940q29 0 55 11t45.5 30t31 44t11.5 53v972zM1141 567h-482v95h482v-95zM1141 795h-482v96h482v-96z" />
    <glyph glyph-name="exclam.blackcircle" unicode="&#x21;&#x20dd;&#x25cf;" 
d="M900 -50q-159 0 -299.5 61t-245 165.5t-165.5 245t-61 299.5t61 299.5t165.5 245t245 165.5t299.5 61t299.5 -61t245 -165.5t165.5 -245t61 -299.5t-61 -299.5t-165.5 -245t-245 -165.5t-299.5 -61zM798 430q0 -37 28.5 -62t73.5 -25t73.5 25t28.5 62q0 40 -28.5 64.5
t-73.5 24.5t-73.5 -24.5t-28.5 -64.5zM817 1118l17 -505h132l17 505h-166z" />
    <glyph glyph-name="exclam.blacksquare" unicode="&#x21;&#x20de;&#x25a0;" 
d="M416 1464h968q54 0 101 -20t82 -54.5t55 -80.5t20 -99v-976q0 -52 -20 -98.5t-55 -81t-82 -54.5t-101 -20h-968q-53 0 -100 20t-82 54.5t-55.5 81t-20.5 98.5v976q0 53 20.5 99t55.5 80.5t82 54.5t100 20zM798 430q0 -37 28.5 -62t73.5 -25t73.5 25t28.5 62
q0 40 -28.5 64.5t-73.5 24.5t-73.5 -24.5t-28.5 -64.5zM817 1118l17 -505h132l17 505h-166z" />
    <glyph glyph-name="exclam.whitecircle" unicode="&#x21;&#x20dd;" 
d="M900 -50q-159 0 -299.5 61t-245 165.5t-165.5 245t-61 299.5t61 299.5t165.5 245t245 165.5t299.5 61t299.5 -61t245 -165.5t165.5 -245t61 -299.5t-61 -299.5t-165.5 -245t-245 -165.5t-299.5 -61zM900 78q134 0 250 50.5t201.5 137.5t134.5 204t49 250t-49 250
t-134.5 204t-201.5 137.5t-250 50.5t-250 -50.5t-201.5 -137.5t-134.5 -204t-49 -250t49 -250t134.5 -204t201.5 -137.5t250 -50.5zM811 454q0 35 24.5 56.5t64.5 21.5t64.5 -21.5t24.5 -56.5q0 -32 -24.5 -53.5t-64.5 -21.5t-64.5 21.5t-24.5 53.5zM830 1081h141l-15 -454
h-111z" />
    <glyph glyph-name="exclam.whitesquare" unicode="&#x21;&#x20de;" 
d="M416 1464h968q54 0 101 -20t82 -54.5t55 -80.5t20 -99v-976q0 -52 -20 -98.5t-55 -81t-82 -54.5t-101 -20h-968q-53 0 -100 20t-82 54.5t-55.5 81t-20.5 98.5v976q0 53 20.5 99t55.5 80.5t82 54.5t100 20zM1513 1208q0 28 -11.5 53t-31 44t-45.5 30t-55 11h-940
q-29 0 -55 -11t-45.5 -29.5t-31 -43.5t-11.5 -54v-972q0 -28 11.5 -53t31 -44t45.5 -30t55 -11h940q29 0 55 11t45.5 30t31 44t11.5 53v972zM811 454q0 35 24.5 56.5t64.5 21.5t64.5 -21.5t24.5 -56.5q0 -32 -24.5 -53.5t-64.5 -21.5t-64.5 21.5t-24.5 53.5zM830 1081h141
l-15 -454h-111z" />
    <glyph glyph-name="five.blacksquare" unicode="&#x35;&#x20de;&#x25a0;" 
d="M416 1464h968q54 0 101 -20t82 -54.5t55 -80.5t20 -99v-976q0 -52 -20 -98.5t-55 -81t-82 -54.5t-101 -20h-968q-53 0 -100 20t-82 54.5t-55.5 81t-20.5 98.5v976q0 53 20.5 99t55.5 80.5t82 54.5t100 20zM619 552q2 -46 23 -85t57.5 -67.5t87 -44.5t111.5 -16
q66 0 121 19.5t94.5 55t61.5 86t22 111.5q0 59 -21 105.5t-56 78.5t-82 48.5t-100 16.5q-64 0 -104 -21.5t-56 -41.5q4 49 8 100t9 101h359v120h-483l-35 -448h131q14 25 47.5 49.5t87.5 24.5q30 0 56.5 -9.5t46.5 -27.5t31.5 -43.5t11.5 -57.5q0 -36 -12.5 -63.5t-32.5 -46
t-46 -28.5t-53 -10q-51 0 -92.5 23t-50.5 71h-142z" />
    <glyph glyph-name="five.whitesquare" unicode="&#x35;&#x20de;" 
d="M416 1464h968q54 0 101 -20t82 -54.5t55 -80.5t20 -99v-976q0 -52 -20 -98.5t-55 -81t-82 -54.5t-101 -20h-968q-53 0 -100 20t-82 54.5t-55.5 81t-20.5 98.5v976q0 53 20.5 99t55.5 80.5t82 54.5t100 20zM1513 1208q0 28 -11.5 53t-31 44t-45.5 30t-55 11h-940
q-29 0 -55 -11t-45.5 -29.5t-31 -43.5t-11.5 -54v-972q0 -28 11.5 -53t31 -44t45.5 -30t55 -11h940q29 0 55 11t45.5 30t31 44t11.5 53v972zM652 562h121q9 -45 48 -66t87 -21q26 0 51 9.5t44.5 27.5t31 44t11.5 60q0 30 -11 54t-30 41.5t-44.5 26.5t-53.5 9
q-51 0 -82.5 -22.5t-43.5 -45.5h-114l32 402h434v-102h-329l-17 -195h6q11 17 48 38.5t99 21.5q47 0 89.5 -15t74.5 -44t50.5 -70.5t18.5 -95.5q0 -55 -19.5 -100t-55 -77t-85.5 -49.5t-110 -17.5q-55 0 -100 14.5t-78 39.5t-52 59t-21 74z" />
    <glyph glyph-name="four.blacksquare" unicode="&#x34;&#x20de;&#x25a0;" 
d="M416 1464h968q54 0 101 -20t82 -54.5t55 -80.5t20 -99v-976q0 -52 -20 -98.5t-55 -81t-82 -54.5t-101 -20h-968q-53 0 -100 20t-82 54.5t-55.5 81t-20.5 98.5v976q0 53 20.5 99t55.5 80.5t82 54.5t100 20zM888 1118q-60 -94 -107 -166.5t-84 -131.5t-66.5 -108.5
t-56.5 -96.5v-117h383v-145h145v145h100v120h-100v500h-214zM716 619q55 96 117 191.5t124 188.5v-381h-241v1z" />
    <glyph glyph-name="four.whitesquare" unicode="&#x34;&#x20de;" 
d="M416 1464h968q54 0 101 -20t82 -54.5t55 -80.5t20 -99v-976q0 -52 -20 -98.5t-55 -81t-82 -54.5t-101 -20h-968q-53 0 -100 20t-82 54.5t-55.5 81t-20.5 98.5v976q0 53 20.5 99t55.5 80.5t82 54.5t100 20zM1513 1208q0 28 -11.5 53t-31 44t-45.5 30t-55 11h-940
q-29 0 -55 -11t-45.5 -29.5t-31 -43.5t-11.5 -54v-972q0 -28 11.5 -53t31 -44t45.5 -30t55 -11h940q29 0 55 11t45.5 30t31 44t11.5 53v972zM895 1081h189v-458h91v-102h-91v-133h-123v133h-352v103q66 115 139.5 228.5t146.5 228.5zM730 623h231v361h-6
q-58 -85 -116 -175.5t-109 -181.5v-4z" />
    <glyph glyph-name="greater.uc.blackcircle" unicode="&#x3e;&#x20dd;&#x25cf;" 
d="M900 -50q-159 0 -299.5 61t-245 165.5t-165.5 245t-61 299.5t61 299.5t165.5 245t245 165.5t299.5 61t299.5 -61t245 -165.5t165.5 -245t61 -299.5t-61 -299.5t-165.5 -245t-245 -165.5t-299.5 -61zM1188 770l-535 290v-145l369 -191l-369 -179v-145l535 274v96z" />
    <glyph glyph-name="greater.uc.blacksquare" unicode="&#x3e;&#x20de;&#x25a0;" 
d="M416 1464h968q54 0 101 -20t82 -54.5t55 -80.5t20 -99v-976q0 -52 -20 -98.5t-55 -81t-82 -54.5t-101 -20h-968q-53 0 -100 20t-82 54.5t-55.5 81t-20.5 98.5v976q0 53 20.5 99t55.5 80.5t82 54.5t100 20zM1188 770l-535 290v-145l369 -191l-369 -179v-145l535 274v96z
" />
    <glyph glyph-name="greater.uc.whitecircle" unicode="&#x3e;&#x20dd;" 
d="M900 -50q-159 0 -299.5 61t-245 165.5t-165.5 245t-61 299.5t61 299.5t165.5 245t245 165.5t299.5 61t299.5 -61t245 -165.5t165.5 -245t61 -299.5t-61 -299.5t-165.5 -245t-245 -165.5t-299.5 -61zM900 78q134 0 250 50.5t201.5 137.5t134.5 204t49 250t-49 250
t-134.5 204t-201.5 137.5t-250 50.5t-250 -50.5t-201.5 -137.5t-134.5 -204t-49 -250t49 -250t134.5 -204t201.5 -137.5t250 -50.5zM1166 764v-84l-482 -246v122l337 167v5l-337 173v124z" />
    <glyph glyph-name="greater.uc.whitesquare" unicode="&#x3e;&#x20de;" 
d="M416 1464h968q54 0 101 -20t82 -54.5t55 -80.5t20 -99v-976q0 -52 -20 -98.5t-55 -81t-82 -54.5t-101 -20h-968q-53 0 -100 20t-82 54.5t-55.5 81t-20.5 98.5v976q0 53 20.5 99t55.5 80.5t82 54.5t100 20zM1513 1208q0 28 -11.5 53t-31 44t-45.5 30t-55 11h-940
q-29 0 -55 -11t-45.5 -29.5t-31 -43.5t-11.5 -54v-972q0 -28 11.5 -53t31 -44t45.5 -30t55 -11h940q29 0 55 11t45.5 30t31 44t11.5 53v972zM1166 764v-84l-482 -246v122l337 167v5l-337 173v124z" />
    <glyph glyph-name="less.uc.blackcircle" unicode="&#x3c;&#x20dd;&#x25cf;" 
d="M900 -50q-159 0 -299.5 61t-245 165.5t-165.5 245t-61 299.5t61 299.5t165.5 245t245 165.5t299.5 61t299.5 -61t245 -165.5t165.5 -245t61 -299.5t-61 -299.5t-165.5 -245t-245 -165.5t-299.5 -61zM604 674l534 -274v145l-367 179v1l367 190v145l-534 -290v-96z" />
    <glyph glyph-name="less.uc.blacksquare" unicode="&#x3c;&#x20de;&#x25a0;" 
d="M416 1464h968q54 0 101 -20t82 -54.5t55 -80.5t20 -99v-976q0 -52 -20 -98.5t-55 -81t-82 -54.5t-101 -20h-968q-53 0 -100 20t-82 54.5t-55.5 81t-20.5 98.5v976q0 53 20.5 99t55.5 80.5t82 54.5t100 20zM604 674l534 -274v145q-91 45 -183.5 89.5t-183.5 89.5v1
l367 190v145l-534 -290v-96z" />
    <glyph glyph-name="less.uc.whitecircle" unicode="&#x3c;&#x20dd;" 
d="M900 -50q-159 0 -299.5 61t-245 165.5t-165.5 245t-61 299.5t61 299.5t165.5 245t245 165.5t299.5 61t299.5 -61t245 -165.5t165.5 -245t61 -299.5t-61 -299.5t-165.5 -245t-245 -165.5t-299.5 -61zM900 78q134 0 250 50.5t201.5 137.5t134.5 204t49 250t-49 250
t-134.5 204t-201.5 137.5t-250 50.5t-250 -50.5t-201.5 -137.5t-134.5 -204t-49 -250t49 -250t134.5 -204t201.5 -137.5t250 -50.5zM635 680v84l481 261v-124l-338 -173v-5l338 -167v-122z" />
    <glyph glyph-name="less.uc.whitesquare" unicode="&#x3c;&#x20de;" 
d="M416 1464h968q54 0 101 -20t82 -54.5t55 -80.5t20 -99v-976q0 -52 -20 -98.5t-55 -81t-82 -54.5t-101 -20h-968q-53 0 -100 20t-82 54.5t-55.5 81t-20.5 98.5v976q0 53 20.5 99t55.5 80.5t82 54.5t100 20zM1513 1208q0 28 -11.5 53t-31 44t-45.5 30t-55 11h-940
q-29 0 -55 -11t-45.5 -29.5t-31 -43.5t-11.5 -54v-972q0 -28 11.5 -53t31 -44t45.5 -30t55 -11h940q29 0 55 11t45.5 30t31 44t11.5 53v972zM635 680v84l481 261v-124l-338 -173v-5l338 -167v-122z" />
    <glyph glyph-name="minus.uc.blackcircle" unicode="&#x2212;&#x20dd;&#x25cf;" 
d="M900 -50q-159 0 -299.5 61t-245 165.5t-165.5 245t-61 299.5t61 299.5t165.5 245t245 165.5t299.5 61t299.5 -61t245 -165.5t165.5 -245t61 -299.5t-61 -299.5t-165.5 -245t-245 -165.5t-299.5 -61zM1184 668v124h-568v-124h568z" />
    <glyph glyph-name="minus.uc.blacksquare" unicode="&#x2212;&#x20de;&#x25a0;" 
d="M416 1464h968q54 0 101 -20t82 -54.5t55 -80.5t20 -99v-976q0 -52 -20 -98.5t-55 -81t-82 -54.5t-101 -20h-968q-53 0 -100 20t-82 54.5t-55.5 81t-20.5 98.5v976q0 53 20.5 99t55.5 80.5t82 54.5t100 20zM1184 668v124h-568v-124h568z" />
    <glyph glyph-name="minus.uc.whitecircle" unicode="&#x2212;&#x20dd;" 
d="M900 -50q-159 0 -299.5 61t-245 165.5t-165.5 245t-61 299.5t61 299.5t165.5 245t245 165.5t299.5 61t299.5 -61t245 -165.5t165.5 -245t61 -299.5t-61 -299.5t-165.5 -245t-245 -165.5t-299.5 -61zM900 78q134 0 250 50.5t201.5 137.5t134.5 204t49 250t-49 250
t-134.5 204t-201.5 137.5t-250 50.5t-250 -50.5t-201.5 -137.5t-134.5 -204t-49 -250t49 -250t134.5 -204t201.5 -137.5t250 -50.5zM1155 677h-510v104h510v-104z" />
    <glyph glyph-name="minus.uc.whitesquare" unicode="&#x2212;&#x20de;" 
d="M416 1464h968q54 0 101 -20t82 -54.5t55 -80.5t20 -99v-976q0 -52 -20 -98.5t-55 -81t-82 -54.5t-101 -20h-968q-53 0 -100 20t-82 54.5t-55.5 81t-20.5 98.5v976q0 53 20.5 99t55.5 80.5t82 54.5t100 20zM1513 1208q0 28 -11.5 53t-31 44t-45.5 30t-55 11h-940
q-29 0 -55 -11t-45.5 -29.5t-31 -43.5t-11.5 -54v-972q0 -28 11.5 -53t31 -44t45.5 -30t55 -11h940q29 0 55 11t45.5 30t31 44t11.5 53v972zM1155 677h-510v104h510v-104z" />
    <glyph glyph-name="multiply.uc.blackcircle" unicode="&#xd7;&#x20dd;&#x25cf;" 
d="M900 -50q-159 0 -299.5 61t-245 165.5t-165.5 245t-61 299.5t61 299.5t165.5 245t245 165.5t299.5 61t299.5 -61t245 -165.5t165.5 -245t61 -299.5t-61 -299.5t-165.5 -245t-245 -165.5t-299.5 -61zM900 817l-178 170l-91 -87l178 -171l-178 -169l91 -87l178 169
l178 -169l91 87l-178 169l178 171l-91 87z" />
    <glyph glyph-name="multiply.uc.blacksquare" unicode="&#xd7;&#x20de;&#x25a0;" 
d="M416 1464h968q54 0 101 -20t82 -54.5t55 -80.5t20 -99v-976q0 -52 -20 -98.5t-55 -81t-82 -54.5t-101 -20h-968q-53 0 -100 20t-82 54.5t-55.5 81t-20.5 98.5v976q0 53 20.5 99t55.5 80.5t82 54.5t100 20zM900 817l-178 170l-91 -87l178 -171l-178 -169l91 -87l178 169
l178 -169l91 87l-178 169l178 171l-91 87z" />
    <glyph glyph-name="multiply.uc.whitecircle" unicode="&#xd7;&#x20dd;" 
d="M900 -50q-159 0 -299.5 61t-245 165.5t-165.5 245t-61 299.5t61 299.5t165.5 245t245 165.5t299.5 61t299.5 -61t245 -165.5t165.5 -245t61 -299.5t-61 -299.5t-165.5 -245t-245 -165.5t-299.5 -61zM900 78q134 0 250 50.5t201.5 137.5t134.5 204t49 250t-49 250
t-134.5 204t-201.5 137.5t-250 50.5t-250 -50.5t-201.5 -137.5t-134.5 -204t-49 -250t49 -250t134.5 -204t201.5 -137.5t250 -50.5zM900 802l163 156l77 -73l-163 -156l163 -156l-77 -73l-163 156l-163 -156l-77 73l163 156l-163 156l77 73z" />
    <glyph glyph-name="multiply.uc.whitesquare" unicode="&#xd7;&#x20de;" 
d="M416 1464h968q54 0 101 -20t82 -54.5t55 -80.5t20 -99v-976q0 -52 -20 -98.5t-55 -81t-82 -54.5t-101 -20h-968q-53 0 -100 20t-82 54.5t-55.5 81t-20.5 98.5v976q0 53 20.5 99t55.5 80.5t82 54.5t100 20zM1513 1208q0 28 -11.5 53t-31 44t-45.5 30t-55 11h-940
q-29 0 -55 -11t-45.5 -29.5t-31 -43.5t-11.5 -54v-972q0 -28 11.5 -53t31 -44t45.5 -30t55 -11h940q29 0 55 11t45.5 30t31 44t11.5 53v972zM900 802l163 156l77 -73l-163 -156l163 -156l-77 -73l-163 156l-163 -156l-77 73l163 156l-163 156l77 73z" />
    <glyph glyph-name="nine.blacksquare" unicode="&#x39;&#x20de;&#x25a0;" 
d="M416 1464h968q54 0 101 -20t82 -54.5t55 -80.5t20 -99v-976q0 -52 -20 -98.5t-55 -81t-82 -54.5t-101 -20h-968q-53 0 -100 20t-82 54.5t-55.5 81t-20.5 98.5v976q0 53 20.5 99t55.5 80.5t82 54.5t100 20zM602 864q0 -53 17.5 -97.5t48.5 -77t73.5 -51t92.5 -18.5
q40 0 75 12.5t58 34.5l8 -2l-28 -42q-22 -31 -55 -74.5t-64.5 -84t-56.5 -72t-32 -40.5h164q6 7 30.5 40t53 71.5t52 71.5t27.5 39q56 79 82 146t26 136q0 62 -21 112.5t-59 86.5t-90.5 56t-116.5 20q-63 0 -115.5 -19.5t-90 -54.5t-58.5 -84.5t-21 -108.5zM1035 869
q0 -31 -11 -58.5t-30.5 -47t-46.5 -31t-59 -11.5t-59 11.5t-46.5 31t-30.5 47t-11 58.5q0 32 11 59t30.5 46.5t46.5 31t59 11.5t59 -11.5t46.5 -31t30.5 -46.5t11 -59z" />
    <glyph glyph-name="nine.whitesquare" unicode="&#x39;&#x20de;" 
d="M416 1464h968q54 0 101 -20t82 -54.5t55 -80.5t20 -99v-976q0 -52 -20 -98.5t-55 -81t-82 -54.5t-101 -20h-968q-53 0 -100 20t-82 54.5t-55.5 81t-20.5 98.5v976q0 53 20.5 99t55.5 80.5t82 54.5t100 20zM1513 1208q0 28 -11.5 53t-31 44t-45.5 30t-55 11h-940
q-29 0 -55 -11t-45.5 -29.5t-31 -43.5t-11.5 -54v-972q0 -28 11.5 -53t31 -44t45.5 -30t55 -11h940q29 0 55 11t45.5 30t31 44t11.5 53v972zM641 853q0 53 19 97.5t53 76.5t81.5 49.5t104.5 17.5q58 0 105.5 -18t82 -50.5t53.5 -78t19 -101.5q0 -63 -23.5 -123.5
t-74.5 -132.5q-3 -6 -24.5 -35.5t-47 -64.5t-48 -65t-28.5 -36h-149q4 4 18.5 22t34 43.5t42 55t42.5 55.5l35 45.5t19 25.5q14 19 24 37l-8 2q-20 -20 -52 -32t-67 -12q-46 0 -84.5 16.5t-66.5 46.5t-44 70.5t-16 88.5zM1034 857q0 57 -38 95.5t-96 38.5t-96 -38.5
t-38 -95.5t38 -95.5t96 -38.5t96 38.5t38 95.5z" />
    <glyph glyph-name="numbersign.blackcircle" unicode="&#x23;&#x20dd;&#x25cf;" 
d="M900 -50q-159 0 -299.5 61t-245 165.5t-165.5 245t-61 299.5t61 299.5t165.5 245t245 165.5t299.5 61t299.5 -61t245 -165.5t165.5 -245t61 -299.5t-61 -299.5t-165.5 -245t-245 -165.5t-299.5 -61zM1217 805l22 108h-122l42 200h-117l-41 -200h-132l42 200h-117
l-41 -200h-113l-22 -108h111l-30 -141h-116l-22 -110h114l-43 -206h117l44 206h132l-44 -206h117l43 206h117l23 110h-116l29 141h123zM840 809h147l-34 -157h-146z" />
    <glyph glyph-name="numbersign.blacksquare" unicode="&#x23;&#x20de;&#x25a0;" 
d="M416 1464h968q54 0 101 -20t82 -54.5t55 -80.5t20 -99v-976q0 -52 -20 -98.5t-55 -81t-82 -54.5t-101 -20h-968q-53 0 -100 20t-82 54.5t-55.5 81t-20.5 98.5v976q0 53 20.5 99t55.5 80.5t82 54.5t100 20zM1217 805l22 108h-122l42 200h-117l-41 -200h-132l42 200h-117
l-41 -200h-113l-22 -108h111l-30 -141h-116l-22 -110h114l-43 -206h117l44 206h132l-44 -206h117l43 206h117l23 110h-116l29 141h123zM840 809h147l-34 -157h-146z" />
    <glyph glyph-name="numbersign.whitecircle" unicode="&#x30;&#x20dd;" 
d="M900 -50q-159 0 -299.5 61t-245 165.5t-165.5 245t-61 299.5t61 299.5t165.5 245t245 165.5t299.5 61t299.5 -61t245 -165.5t165.5 -245t61 -299.5t-61 -299.5t-165.5 -245t-245 -165.5t-299.5 -61zM900 78q134 0 250 50.5t201.5 137.5t134.5 204t49 250t-49 250
t-134.5 204t-201.5 137.5t-250 50.5t-250 -50.5t-201.5 -137.5t-134.5 -204t-49 -250t49 -250t134.5 -204t201.5 -137.5t250 -50.5zM1187 802h-112l-30 -139h107l-19 -90h-107l-40 -190h-98l41 190h-131l-40 -190h-98l40 190h-105l18 90h106l30 139h-101l18 90h103l38 184
h97l-38 -184h130l39 184h97l-38 -184h111zM842 806l-33 -153h144l33 153h-144z" />
    <glyph glyph-name="numbersign.whitesquare" unicode="&#x23;&#x20de;" 
d="M416 1464h968q54 0 101 -20t82 -54.5t55 -80.5t20 -99v-976q0 -52 -20 -98.5t-55 -81t-82 -54.5t-101 -20h-968q-53 0 -100 20t-82 54.5t-55.5 81t-20.5 98.5v976q0 53 20.5 99t55.5 80.5t82 54.5t100 20zM1513 1208q0 28 -11.5 53t-31 44t-45.5 30t-55 11h-940
q-29 0 -55 -11t-45.5 -29.5t-31 -43.5t-11.5 -54v-972q0 -28 11.5 -53t31 -44t45.5 -30t55 -11h940q29 0 55 11t45.5 30t31 44t11.5 53v972zM1187 802h-112l-30 -139h107l-19 -90h-107l-40 -190h-98l41 190h-131l-40 -190h-98l40 190h-105l18 90h106l30 139h-101l18 90h103
l38 184h97l-38 -184h130l39 184h97l-38 -184h111zM842 806l-33 -153h144l33 153h-144z" />
    <glyph glyph-name="one.blacksquare" unicode="&#x31;&#x20de;&#x25a0;" 
d="M416 1464h968q54 0 101 -20t82 -54.5t55 -80.5t20 -99v-976q0 -52 -20 -98.5t-55 -81t-82 -54.5t-101 -20h-968q-53 0 -100 20t-82 54.5t-55.5 81t-20.5 98.5v976q0 53 20.5 99t55.5 80.5t82 54.5t100 20zM1023 353v765h-148l-191 -132v-140l187 128h1v-621h151z" />
    <glyph glyph-name="one.whitesquare" unicode="&#x31;&#x20de;" 
d="M416 1464h968q54 0 101 -20t82 -54.5t55 -80.5t20 -99v-976q0 -52 -20 -98.5t-55 -81t-82 -54.5t-101 -20h-968q-53 0 -100 20t-82 54.5t-55.5 81t-20.5 98.5v976q0 53 20.5 99t55.5 80.5t82 54.5t100 20zM1513 1208q0 28 -11.5 53t-31 44t-45.5 30t-55 11h-940
q-29 0 -55 -11t-45.5 -29.5t-31 -43.5t-11.5 -54v-972q0 -28 11.5 -53t31 -44t45.5 -30t55 -11h940q29 0 55 11t45.5 30t31 44t11.5 53v972zM1009 388h-130v571h-6l-166 -114v117l172 119h130v-693z" />
    <glyph glyph-name="plus.uc.blackcircle" unicode="&#x2b;&#x20dd;&#x25cf;" 
d="M900 -50q-159 0 -299.5 61t-245 165.5t-165.5 245t-61 299.5t61 299.5t165.5 245t245 165.5t299.5 61t299.5 -61t245 -165.5t165.5 -245t61 -299.5t-61 -299.5t-165.5 -245t-245 -165.5t-299.5 -61zM965 674h231v121h-231v228h-130v-228h-231v-121h231v-237h130v237z" />
    <glyph glyph-name="plus.uc.blacksquare" unicode="&#x2b;&#x20de;&#x25a0;" 
d="M416 1464h968q54 0 101 -20t82 -54.5t55 -80.5t20 -99v-976q0 -52 -20 -98.5t-55 -81t-82 -54.5t-101 -20h-968q-53 0 -100 20t-82 54.5t-55.5 81t-20.5 98.5v976q0 53 20.5 99t55.5 80.5t82 54.5t100 20zM965 674h231v121h-231v228h-130v-228h-231v-121h231v-237h130
v237z" />
    <glyph glyph-name="plus.uc.whitecircle" unicode="&#x2b;&#x20dd;" 
d="M900 -50q-159 0 -299.5 61t-245 165.5t-165.5 245t-61 299.5t61 299.5t165.5 245t245 165.5t299.5 61t299.5 -61t245 -165.5t165.5 -245t61 -299.5t-61 -299.5t-165.5 -245t-245 -165.5t-299.5 -61zM900 78q134 0 250 50.5t201.5 137.5t134.5 204t49 250t-49 250
t-134.5 204t-201.5 137.5t-250 50.5t-250 -50.5t-201.5 -137.5t-134.5 -204t-49 -250t49 -250t134.5 -204t201.5 -137.5t250 -50.5zM954 682v-217h-108v217h-212v102h212v209h108v-209h212v-102h-212z" />
    <glyph glyph-name="plus.uc.whitesquare" unicode="&#x2b;&#x20de;" 
d="M416 1464h968q54 0 101 -20t82 -54.5t55 -80.5t20 -99v-976q0 -52 -20 -98.5t-55 -81t-82 -54.5t-101 -20h-968q-53 0 -100 20t-82 54.5t-55.5 81t-20.5 98.5v976q0 53 20.5 99t55.5 80.5t82 54.5t100 20zM1513 1208q0 28 -11.5 53t-31 44t-45.5 30t-55 11h-940
q-29 0 -55 -11t-45.5 -29.5t-31 -43.5t-11.5 -54v-972q0 -28 11.5 -53t31 -44t45.5 -30t55 -11h940q29 0 55 11t45.5 30t31 44t11.5 53v972zM954 682v-217h-108v217h-212v102h212v209h108v-209h212v-102h-212z" />
    <glyph glyph-name="question.blackcircle" unicode="&#x3f;&#x20dd;&#x25cf;" 
d="M902 -50q-159 0 -299.5 61t-245 165.5t-165.5 245t-61 299.5t61 299.5t165.5 245t245 165.5t299.5 61t299.5 -61t245 -165.5t165.5 -245t61 -299.5t-61 -299.5t-165.5 -245t-245 -165.5t-299.5 -61zM779 429q0 -38 28.5 -62.5t73.5 -24.5q47 0 75 24.5t28 62.5
q0 41 -28 65.5t-75 24.5q-45 0 -73.5 -24.5t-28.5 -65.5zM808 590h137v34q0 23 5 38.5t15.5 28.5t28 26t42.5 31q21 15 42 32t37.5 38.5t27 49t10.5 63.5q0 51 -20.5 89t-56 63.5t-81.5 38t-97 12.5q-48 0 -94.5 -12t-83.5 -39t-60 -70t-23 -106v-5h140q0 48 29 81.5
t86 33.5q42 0 76 -22t34 -71q0 -39 -24.5 -62.5t-62.5 -49.5q-49 -34 -80 -76t-27 -105v-41z" />
    <glyph glyph-name="question.blacksquare" unicode="&#x3f;&#x20de;&#x25a0;" 
d="M416 1464h968q54 0 101 -20t82 -54.5t55 -80.5t20 -99v-976q0 -52 -20 -98.5t-55 -81t-82 -54.5t-101 -20h-968q-53 0 -100 20t-82 54.5t-55.5 81t-20.5 98.5v976q0 53 20.5 99t55.5 80.5t82 54.5t100 20zM779 429q0 -38 28.5 -62.5t73.5 -24.5q47 0 75 24.5t28 62.5
q0 41 -28 65.5t-75 24.5q-45 0 -73.5 -24.5t-28.5 -65.5zM898 1134q-48 0 -94.5 -12t-83.5 -39t-60 -70t-23 -106v-5h140q0 48 29 81.5t86 33.5q42 0 76 -22t34 -71q0 -39 -24.5 -62.5t-62.5 -49.5q-49 -34 -80 -76t-27 -105v-41h137v34q0 23 5 38.5t15.5 28.5t28 26
t42.5 31q21 15 42 32t37.5 38.5t27 49t10.5 63.5q0 51 -20.5 89t-56 63.5t-81.5 38t-97 12.5z" />
    <glyph glyph-name="question.whitecircle" unicode="&#x3f;&#x20dd;" 
d="M900 -50q-159 0 -299.5 61t-245 165.5t-165.5 245t-61 299.5t61 299.5t165.5 245t245 165.5t299.5 61t299.5 -61t245 -165.5t165.5 -245t61 -299.5t-61 -299.5t-165.5 -245t-245 -165.5t-299.5 -61zM900 78q134 0 250 50.5t201.5 137.5t134.5 204t49 250t-49 250
t-134.5 204t-201.5 137.5t-250 50.5t-250 -50.5t-201.5 -137.5t-134.5 -204t-49 -250t49 -250t134.5 -204t201.5 -137.5t250 -50.5zM798 454q0 35 25 56t63 21q41 0 65.5 -21t24.5 -56q0 -32 -24.5 -53.5t-65.5 -21.5q-38 0 -63 21.5t-25 53.5zM824 606v33q-3 57 24.5 94.5
t71.5 67.5q38 26 60 47.5t22 59.5q0 48 -32 69t-74 21q-54 0 -81.5 -30.5t-27.5 -75.5h-119q-1 56 19.5 95t54 63t75.5 34.5t85 10.5q45 0 86.5 -11t73 -33.5t50.5 -56.5t19 -80q0 -33 -9 -57.5t-24 -43.5t-34 -33.5t-38 -28.5q-23 -17 -39.5 -29.5t-27 -25t-15 -27.5
t-4.5 -36v-27h-116z" />
    <glyph glyph-name="question.whitesquare" unicode="&#x3f;&#x20de;" 
d="M416 1464h968q54 0 101 -20t82 -54.5t55 -80.5t20 -99v-976q0 -52 -20 -98.5t-55 -81t-82 -54.5t-101 -20h-968q-53 0 -100 20t-82 54.5t-55.5 81t-20.5 98.5v976q0 53 20.5 99t55.5 80.5t82 54.5t100 20zM1513 1208q0 28 -11.5 53t-31 44t-45.5 30t-55 11h-940
q-29 0 -55 -11t-45.5 -29.5t-31 -43.5t-11.5 -54v-972q0 -28 11.5 -53t31 -44t45.5 -30t55 -11h940q29 0 55 11t45.5 30t31 44t11.5 53v972zM798 454q0 35 25 56t63 21q41 0 65.5 -21t24.5 -56q0 -32 -24.5 -53.5t-65.5 -21.5q-38 0 -63 21.5t-25 53.5zM668 892
q-1 56 19.5 95t54 63t75.5 34.5t85 10.5q45 0 86.5 -11t73 -33.5t50.5 -56.5t19 -80q0 -33 -9 -57.5t-24 -43.5t-34 -33.5t-38 -28.5q-23 -17 -39.5 -29.5t-27 -25t-15 -27.5t-4.5 -36v-27h-116v33q-3 57 24.5 94.5t71.5 67.5q38 26 60 47.5t22 59.5q0 48 -32 69t-74 21
q-54 0 -81.5 -30.5t-27.5 -75.5h-119z" />
    <glyph glyph-name="seven.blacksquare" unicode="&#x37;&#x20de;&#x25a0;" 
d="M416 1464h968q54 0 101 -20t82 -54.5t55 -80.5t20 -99v-976q0 -52 -20 -98.5t-55 -81t-82 -54.5t-101 -20h-968q-53 0 -100 20t-82 54.5t-55.5 81t-20.5 98.5v976q0 53 20.5 99t55.5 80.5t82 54.5t100 20zM631 1118v-123h392v-1l-332 -641h159l325 645v120h-544z" />
    <glyph glyph-name="seven.whitesquare" unicode="&#x37;&#x20de;" 
d="M416 1464h968q54 0 101 -20t82 -54.5t55 -80.5t20 -99v-976q0 -52 -20 -98.5t-55 -81t-82 -54.5t-101 -20h-968q-53 0 -100 20t-82 54.5t-55.5 81t-20.5 98.5v976q0 53 20.5 99t55.5 80.5t82 54.5t100 20zM1513 1208q0 28 -11.5 53t-31 44t-45.5 30t-55 11h-940
q-29 0 -55 -11t-45.5 -29.5t-31 -43.5t-11.5 -54v-972q0 -28 11.5 -53t31 -44t45.5 -30t55 -11h940q29 0 55 11t45.5 30t31 44t11.5 53v972zM662 1081h491v-105l-296 -588h-137l301 584v6h-359v103z" />
    <glyph glyph-name="six.blacksquare" unicode="&#x36;&#x20de;&#x25a0;" 
d="M416 1464h968q54 0 101 -20t82 -54.5t55 -80.5t20 -99v-976q0 -52 -20 -98.5t-55 -81t-82 -54.5t-101 -20h-968q-53 0 -100 20t-82 54.5t-55.5 81t-20.5 98.5v976q0 53 20.5 99t55.5 80.5t82 54.5t100 20zM1193 606q0 53 -17.5 97.5t-48.5 77t-73.5 51t-92.5 18.5
q-40 0 -75 -12.5t-58 -34.5l-8 2q4 8 13.5 21.5t22.5 31.5q24 32 55.5 73.5t61.5 80.5t53 68.5t30 37.5h-164q-6 -7 -30.5 -40t-53 -71.5t-52 -71.5t-27.5 -39q-56 -79 -82 -146t-26 -136q0 -62 21 -112.5t59 -86.5t90.5 -56t116.5 -20q63 0 115.5 19.5t90 55t58.5 84.5
t21 108zM760 601q0 32 11 59t30.5 46.5t46.5 31t59 11.5t59 -11.5t46.5 -31t30.5 -46.5t11 -59q0 -31 -11 -58.5t-30.5 -47t-46.5 -31t-59 -11.5t-59 11.5t-46.5 31t-30.5 47t-11 58.5z" />
    <glyph glyph-name="six.whitesquare" unicode="&#x36;&#x20de;" 
d="M416 1464h968q54 0 101 -20t82 -54.5t55 -80.5t20 -99v-976q0 -52 -20 -98.5t-55 -81t-82 -54.5t-101 -20h-968q-53 0 -100 20t-82 54.5t-55.5 81t-20.5 98.5v976q0 53 20.5 99t55.5 80.5t82 54.5t100 20zM1513 1208q0 28 -11.5 53t-31 44t-45.5 30t-55 11h-940
q-29 0 -55 -11t-45.5 -29.5t-31 -43.5t-11.5 -54v-972q0 -28 11.5 -53t31 -44t45.5 -30t55 -11h940q29 0 55 11t45.5 30t31 44t11.5 53v972zM1158 616q0 -53 -19 -97.5t-53 -76.5t-81.5 -49.5t-104.5 -17.5q-58 0 -105.5 18t-82 50.5t-53.5 78.5t-19 101q0 63 23.5 123.5
t74.5 132.5q3 6 24.5 35.5t47 64.5t48 65t28.5 36h149q-4 -4 -18.5 -22t-34 -43.5t-42 -55t-42.5 -55.5l-35 -45.5t-19 -25.5q-14 -19 -24 -37l8 -2q20 20 52 32t67 12q46 0 84.5 -16.5t66.5 -46.5t44 -70.5t16 -88.5zM765 612q0 -57 38 -95.5t96 -38.5t96 38.5t38 95.5
t-38 95.5t-96 38.5t-96 -38.5t-38 -95.5z" />
    <glyph glyph-name="three.blacksquare" unicode="&#x33;&#x20de;&#x25a0;" 
d="M416 1464h968q54 0 101 -20t82 -54.5t55 -80.5t20 -99v-976q0 -52 -20 -98.5t-55 -81t-82 -54.5t-101 -20h-968q-53 0 -100 20t-82 54.5t-55.5 81t-20.5 98.5v976q0 53 20.5 99t55.5 80.5t82 54.5t100 20zM804 688h93q64 0 102 -32t39 -83q0 -51 -39.5 -84t-106.5 -33
q-60 1 -99.5 28.5t-44.5 69.5h-140q2 -44 21.5 -83.5t55.5 -69t88 -46.5t118 -17q62 0 117 16t96 45.5t64.5 72.5t22.5 97q-1 45 -17.5 78.5t-41.5 56t-54 35t-56 15.5q22 5 47.5 18.5t47 36t36 53.5t13.5 71q-1 43 -20.5 79.5t-55 63.5t-84.5 42t-110 15q-65 0 -115 -17
t-84.5 -46.5t-52.5 -68.5t-20 -83h144q2 38 35 67.5t89 29.5q54 0 88.5 -28.5t35.5 -74.5q0 -46 -35 -76t-89 -30h-88v-118z" />
    <glyph glyph-name="three.whitesquare" unicode="&#x33;&#x20de;" 
d="M416 1464h968q54 0 101 -20t82 -54.5t55 -80.5t20 -99v-976q0 -52 -20 -98.5t-55 -81t-82 -54.5t-101 -20h-968q-53 0 -100 20t-82 54.5t-55.5 81t-20.5 98.5v976q0 53 20.5 99t55.5 80.5t82 54.5t100 20zM1513 1208q0 28 -11.5 53t-31 44t-45.5 30t-55 11h-940
q-29 0 -55 -11t-45.5 -29.5t-31 -43.5t-11.5 -54v-972q0 -28 11.5 -53t31 -44t45.5 -30t55 -11h940q29 0 55 11t45.5 30t31 44t11.5 53v972zM820 696v98h77q51 0 84.5 29t33.5 74q-1 44 -34 71.5t-84 27.5q-53 0 -85 -27t-34 -62h-122q1 39 17.5 72.5t47.5 59t76 40.5
t103 15q55 0 99.5 -13.5t76.5 -37.5t49.5 -56.5t18.5 -71.5q1 -37 -12.5 -65.5t-34 -48.5t-44.5 -32t-44 -15v-6q24 -3 51.5 -13.5t50.5 -30.5t38.5 -50.5t16.5 -72.5q1 -48 -20 -86t-58 -65t-86.5 -41t-105.5 -14q-60 0 -106.5 15t-79 40.5t-50 59.5t-19.5 73h120
q4 -38 41.5 -63.5t94.5 -26.5q63 0 101.5 32t38.5 81q-2 48 -38.5 79t-97.5 31h-81z" />
    <glyph glyph-name="two.blacksquare" unicode="&#x32;&#x20de;&#x25a0;" 
d="M416 1464h968q54 0 101 -20t82 -54.5t55 -80.5t20 -99v-976q0 -52 -20 -98.5t-55 -81t-82 -54.5t-101 -20h-968q-53 0 -100 20t-82 54.5t-55.5 81t-20.5 98.5v976q0 53 20.5 99t55.5 80.5t82 54.5t100 20zM772 886v11q0 46 31 80.5t91 34.5q51 0 85 -30t34 -77
q0 -48 -28 -85.5t-60 -70.5l-293 -306v-91h546v122h-342l203 212q24 26 47 51.5t40 53t27.5 58.5t10.5 67q0 46 -19 85.5t-54 68t-84.5 45t-110.5 16.5q-68 0 -119 -20t-84.5 -53t-50 -75t-16.5 -86v-11h146z" />
    <glyph glyph-name="two.whitesquare" unicode="&#x32;&#x20de;" 
d="M416 1464h968q54 0 101 -20t82 -54.5t55 -80.5t20 -99v-976q0 -52 -20 -98.5t-55 -81t-82 -54.5t-101 -20h-968q-53 0 -100 20t-82 54.5t-55.5 81t-20.5 98.5v976q0 53 20.5 99t55.5 80.5t82 54.5t100 20zM1513 1208q0 28 -11.5 53t-31 44t-45.5 30t-55 11h-940
q-29 0 -55 -11t-45.5 -29.5t-31 -43.5t-11.5 -54v-972q0 -28 11.5 -53t31 -44t45.5 -30t55 -11h940q29 0 55 11t45.5 30t31 44t11.5 53v972zM782 878h-124v6q0 39 15 77t45 67.5t76 47.5t107 18q55 0 99.5 -14.5t76 -40.5t48.5 -61.5t17 -76.5q0 -34 -10.5 -63.5t-28 -55.5
t-40.5 -50.5t-47 -49.5l-174 -185v-6h313v-103h-492v77l268 280q30 31 56 65.5t26 79.5q0 46 -32.5 74.5t-81.5 28.5q-57 0 -87 -32.5t-30 -76.5v-6z" />
    <glyph glyph-name="uni25B2.blackcircle" unicode="&#x25b2;&#x20dd;&#x25cf;" 
d="M900 -50q-159 0 -299.5 61t-245 165.5t-165.5 245t-61 299.5t61 299.5t165.5 245t245 165.5t299.5 61t299.5 -61t245 -165.5t165.5 -245t61 -299.5t-61 -299.5t-165.5 -245t-245 -165.5t-299.5 -61zM1246 493l-346 598l-345 -598h691z" />
    <glyph glyph-name="uni25B2.blacksquare" unicode="&#x25b2;&#x20de;&#x25a0;" 
d="M416 1464h968q54 0 101 -20t82 -54.5t55 -80.5t20 -99v-976q0 -52 -20 -98.5t-55 -81t-82 -54.5t-101 -20h-968q-53 0 -100 20t-82 54.5t-55.5 81t-20.5 98.5v976q0 53 20.5 99t55.5 80.5t82 54.5t100 20zM1246 493l-346 598l-345 -598h691z" />
    <glyph glyph-name="uni25B2.whitecircle" unicode="&#x25b2;&#x20dd;" 
d="M900 -50q-159 0 -299.5 61t-245 165.5t-165.5 245t-61 299.5t61 299.5t165.5 245t245 165.5t299.5 61t299.5 -61t245 -165.5t165.5 -245t61 -299.5t-61 -299.5t-165.5 -245t-245 -165.5t-299.5 -61zM900 78q134 0 250 50.5t201.5 137.5t134.5 204t49 250t-49 250
t-134.5 204t-201.5 137.5t-250 50.5t-250 -50.5t-201.5 -137.5t-134.5 -204t-49 -250t49 -250t134.5 -204t201.5 -137.5t250 -50.5zM1214 513h-627l313 543z" />
    <glyph glyph-name="uni25B2.whitesquare" unicode="&#x25b2;&#x20de;" 
d="M416 1464h968q54 0 101 -20t82 -54.5t55 -80.5t20 -99v-976q0 -52 -20 -98.5t-55 -81t-82 -54.5t-101 -20h-968q-53 0 -100 20t-82 54.5t-55.5 81t-20.5 98.5v976q0 53 20.5 99t55.5 80.5t82 54.5t100 20zM1513 1208q0 28 -11.5 53t-31 44t-45.5 30t-55 11h-940
q-29 0 -55 -11t-45.5 -29.5t-31 -43.5t-11.5 -54v-972q0 -28 11.5 -53t31 -44t45.5 -30t55 -11h940q29 0 55 11t45.5 30t31 44t11.5 53v972zM1214 513h-627l313 543z" />
    <glyph glyph-name="uni25B6.blackcircle" unicode="&#x25b6;&#x20dd;&#x25cf;" 
d="M900 -50q-159 0 -299.5 61t-245 165.5t-165.5 245t-61 299.5t61 299.5t165.5 245t245 165.5t299.5 61t299.5 -61t245 -165.5t165.5 -245t61 -299.5t-61 -299.5t-165.5 -245t-245 -165.5t-299.5 -61zM656 392l599 345l-599 344v-689z" />
    <glyph glyph-name="uni25B6.blacksquare" unicode="&#x25b6;&#x20de;&#x25a0;" 
d="M416 1464h968q54 0 101 -20t82 -54.5t55 -80.5t20 -99v-976q0 -52 -20 -98.5t-55 -81t-82 -54.5t-101 -20h-968q-53 0 -100 20t-82 54.5t-55.5 81t-20.5 98.5v976q0 53 20.5 99t55.5 80.5t82 54.5t100 20zM656 392l599 345l-599 344v-689z" />
    <glyph glyph-name="uni25B6.whitecircle" unicode="&#x25b6;&#x20dd;" 
d="M900 -50q-159 0 -299.5 61t-245 165.5t-165.5 245t-61 299.5t61 299.5t165.5 245t245 165.5t299.5 61t299.5 -61t245 -165.5t165.5 -245t61 -299.5t-61 -299.5t-165.5 -245t-245 -165.5t-299.5 -61zM900 78q134 0 250 50.5t201.5 137.5t134.5 204t49 250t-49 250
t-134.5 204t-201.5 137.5t-250 50.5t-250 -50.5t-201.5 -137.5t-134.5 -204t-49 -250t49 -250t134.5 -204t201.5 -137.5t250 -50.5zM684 415v627l543 -313z" />
    <glyph glyph-name="uni25B6.whitesquare" unicode="&#x25b6;&#x20de;" 
d="M416 1464h968q54 0 101 -20t82 -54.5t55 -80.5t20 -99v-976q0 -52 -20 -98.5t-55 -81t-82 -54.5t-101 -20h-968q-53 0 -100 20t-82 54.5t-55.5 81t-20.5 98.5v976q0 53 20.5 99t55.5 80.5t82 54.5t100 20zM1513 1208q0 28 -11.5 53t-31 44t-45.5 30t-55 11h-940
q-29 0 -55 -11t-45.5 -29.5t-31 -43.5t-11.5 -54v-972q0 -28 11.5 -53t31 -44t45.5 -30t55 -11h940q29 0 55 11t45.5 30t31 44t11.5 53v972zM684 415v627l543 -313z" />
    <glyph glyph-name="uni25BC.blackcircle" unicode="&#x25bc;&#x20dd;&#x25cf;" 
d="M900 -50q-159 0 -299.5 61t-245 165.5t-165.5 245t-61 299.5t61 299.5t165.5 245t245 165.5t299.5 61t299.5 -61t245 -165.5t165.5 -245t61 -299.5t-61 -299.5t-165.5 -245t-245 -165.5t-299.5 -61zM1246 980h-691l345 -598z" />
    <glyph glyph-name="uni25BC.blacksquare" unicode="&#x25bc;&#x20de;&#x25a0;" 
d="M416 1464h968q54 0 101 -20t82 -54.5t55 -80.5t20 -99v-976q0 -52 -20 -98.5t-55 -81t-82 -54.5t-101 -20h-968q-53 0 -100 20t-82 54.5t-55.5 81t-20.5 98.5v976q0 53 20.5 99t55.5 80.5t82 54.5t100 20zM1246 975h-691l345 -599z" />
    <glyph glyph-name="uni25BC.whitecircle" unicode="&#x25bc;&#x20dd;" 
d="M900 -50q-159 0 -299.5 61t-245 165.5t-165.5 245t-61 299.5t61 299.5t165.5 245t245 165.5t299.5 61t299.5 -61t245 -165.5t165.5 -245t61 -299.5t-61 -299.5t-165.5 -245t-245 -165.5t-299.5 -61zM900 78q134 0 250 50.5t201.5 137.5t134.5 204t49 250t-49 250
t-134.5 204t-201.5 137.5t-250 50.5t-250 -50.5t-201.5 -137.5t-134.5 -204t-49 -250t49 -250t134.5 -204t201.5 -137.5t250 -50.5zM1214 945l-314 -543l-313 543h627z" />
    <glyph glyph-name="uni25BC.whitesquare" unicode="&#x25bc;&#x20de;" 
d="M416 1464h968q54 0 101 -20t82 -54.5t55 -80.5t20 -99v-976q0 -52 -20 -98.5t-55 -81t-82 -54.5t-101 -20h-968q-53 0 -100 20t-82 54.5t-55.5 81t-20.5 98.5v976q0 53 20.5 99t55.5 80.5t82 54.5t100 20zM1513 1208q0 28 -11.5 53t-31 44t-45.5 30t-55 11h-940
q-29 0 -55 -11t-45.5 -29.5t-31 -43.5t-11.5 -54v-972q0 -28 11.5 -53t31 -44t45.5 -30t55 -11h940q29 0 55 11t45.5 30t31 44t11.5 53v972zM1215 945l-314 -543l-314 543h628z" />
    <glyph glyph-name="uni25C0.blackcircle" unicode="&#x25c0;&#x20dd;&#x25cf;" 
d="M900 -50q-159 0 -299.5 61t-245 165.5t-165.5 245t-61 299.5t61 299.5t165.5 245t245 165.5t299.5 61t299.5 -61t245 -165.5t165.5 -245t61 -299.5t-61 -299.5t-165.5 -245t-245 -165.5t-299.5 -61zM1144 392v689l-599 -344z" />
    <glyph glyph-name="uni25C0.blacksquare" unicode="&#x25c0;&#x20de;&#x25a0;" 
d="M416 1464h968q54 0 101 -20t82 -54.5t55 -80.5t20 -99v-976q0 -52 -20 -98.5t-55 -81t-82 -54.5t-101 -20h-968q-53 0 -100 20t-82 54.5t-55.5 81t-20.5 98.5v976q0 53 20.5 99t55.5 80.5t82 54.5t100 20zM1144 392v689l-599 -344z" />
    <glyph glyph-name="uni25C0.whitecircle" unicode="&#x25c0;&#x20dd;" 
d="M900 -50q-159 0 -299.5 61t-245 165.5t-165.5 245t-61 299.5t61 299.5t165.5 245t245 165.5t299.5 61t299.5 -61t245 -165.5t165.5 -245t61 -299.5t-61 -299.5t-165.5 -245t-245 -165.5t-299.5 -61zM900 78q134 0 250 50.5t201.5 137.5t134.5 204t49 250t-49 250
t-134.5 204t-201.5 137.5t-250 50.5t-250 -50.5t-201.5 -137.5t-134.5 -204t-49 -250t49 -250t134.5 -204t201.5 -137.5t250 -50.5zM1116 415l-543 314l543 313v-627z" />
    <glyph glyph-name="uni25C0.whitesquare" unicode="&#x25c0;&#x20de;" 
d="M416 1464h968q54 0 101 -20t82 -54.5t55 -80.5t20 -99v-976q0 -52 -20 -98.5t-55 -81t-82 -54.5t-101 -20h-968q-53 0 -100 20t-82 54.5t-55.5 81t-20.5 98.5v976q0 53 20.5 99t55.5 80.5t82 54.5t100 20zM1513 1208q0 28 -11.5 53t-31 44t-45.5 30t-55 11h-940
q-29 0 -55 -11t-45.5 -29.5t-31 -43.5t-11.5 -54v-972q0 -28 11.5 -53t31 -44t45.5 -30t55 -11h940q29 0 55 11t45.5 30t31 44t11.5 53v972zM1116 415l-543 314l543 313v-627z" />
    <glyph glyph-name="uni2713.blackcircle" unicode="&#x2713;&#x20dd;&#x25cf;" 
d="M900 -50q-159 0 -299.5 61t-245 165.5t-165.5 245t-61 299.5t61 299.5t165.5 245t245 165.5t299.5 61t299.5 -61t245 -165.5t165.5 -245t61 -299.5t-61 -299.5t-165.5 -245t-245 -165.5t-299.5 -61zM764 377l600 599l-97 96l-504 -503l-218 217l-97 -96z" />
    <glyph glyph-name="uni2713.blacksquare" unicode="&#x2713;&#x20de;&#x25a0;" 
d="M416 1464h968q54 0 101 -20t82 -54.5t55 -80.5t20 -99v-976q0 -52 -20 -98.5t-55 -81t-82 -54.5t-101 -20h-968q-53 0 -100 20t-82 54.5t-55.5 81t-20.5 98.5v976q0 53 20.5 99t55.5 80.5t82 54.5t100 20zM764 377l600 599l-97 96l-504 -503l-218 217l-97 -96z" />
    <glyph glyph-name="uni2713.whitecircle" unicode="&#x2713;&#x20dd;" 
d="M900 -50q-159 0 -299.5 61t-245 165.5t-165.5 245t-61 299.5t61 299.5t165.5 245t245 165.5t299.5 61t299.5 -61t245 -165.5t165.5 -245t61 -299.5t-61 -299.5t-165.5 -245t-245 -165.5t-299.5 -61zM900 78q134 0 250 50.5t201.5 137.5t134.5 204t49 250t-49 250
t-134.5 204t-201.5 137.5t-250 50.5t-250 -50.5t-201.5 -137.5t-134.5 -204t-49 -250t49 -250t134.5 -204t201.5 -137.5t250 -50.5zM1323 950l-546 -544l-288 285l88 87l199 -198l459 458z" />
    <glyph glyph-name="uni2713.whitesquare" unicode="&#x2713;&#x20de;" 
d="M416 1464h968q54 0 101 -20t82 -54.5t55 -80.5t20 -99v-976q0 -52 -20 -98.5t-55 -81t-82 -54.5t-101 -20h-968q-53 0 -100 20t-82 54.5t-55.5 81t-20.5 98.5v976q0 53 20.5 99t55.5 80.5t82 54.5t100 20zM1513 1208q0 28 -11.5 53t-31 44t-45.5 30t-55 11h-940
q-29 0 -55 -11t-45.5 -29.5t-31 -43.5t-11.5 -54v-972q0 -28 11.5 -53t31 -44t45.5 -30t55 -11h940q29 0 55 11t45.5 30t31 44t11.5 53v972zM1323 950l-546 -544l-288 285l88 87l199 -198l459 458z" />
    <glyph glyph-name="uni2717.blackcircle" unicode="&#x2717;&#x20dd;&#x25cf;" 
d="M900 -50q-159 0 -299.5 61t-245 165.5t-165.5 245t-61 299.5t61 299.5t165.5 245t245 165.5t299.5 61t299.5 -61t245 -165.5t165.5 -245t61 -299.5t-61 -299.5t-165.5 -245t-245 -165.5t-299.5 -61zM904 816l-286 287l-91 -90l285 -287l-284 -284l92 -92l284 284
l285 -284l90 92l-284 284l284 284l-90 91z" />
    <glyph glyph-name="uni2717.blacksquare" unicode="&#x2717;&#x20de;&#x25a0;" 
d="M416 1464h968q54 0 101 -20t82 -54.5t55 -80.5t20 -99v-976q0 -52 -20 -98.5t-55 -81t-82 -54.5t-101 -20h-968q-53 0 -100 20t-82 54.5t-55.5 81t-20.5 98.5v976q0 53 20.5 99t55.5 80.5t82 54.5t100 20zM527 1013l285 -287l-284 -284l92 -92l284 284l285 -284l90 92
l-284 284l284 284l-90 91l-285 -285l-286 287z" />
    <glyph glyph-name="uni2717.whitecircle" unicode="&#x2717;&#x20dd;" 
d="M900 -50q-159 0 -299.5 61t-245 165.5t-165.5 245t-61 299.5t61 299.5t165.5 245t245 165.5t299.5 61t299.5 -61t245 -165.5t165.5 -245t61 -299.5t-61 -299.5t-165.5 -245t-245 -165.5t-299.5 -61zM900 78q134 0 250 50.5t201.5 137.5t134.5 204t49 250t-49 250
t-134.5 204t-201.5 137.5t-250 50.5t-250 -50.5t-201.5 -137.5t-134.5 -204t-49 -250t49 -250t134.5 -204t201.5 -137.5t250 -50.5zM904 806l259 258l82 -81l-258 -259l258 -259l-82 -83l-259 258l-259 -258l-83 83l258 259l-259 260l82 82z" />
    <glyph glyph-name="uni2717.whitesquare" unicode="&#x2717;&#x20de;" 
d="M416 1464h968q54 0 101 -20t82 -54.5t55 -80.5t20 -99v-976q0 -52 -20 -98.5t-55 -81t-82 -54.5t-101 -20h-968q-53 0 -100 20t-82 54.5t-55.5 81t-20.5 98.5v976q0 53 20.5 99t55.5 80.5t82 54.5t100 20zM1513 1208q0 28 -11.5 53t-31 44t-45.5 30t-55 11h-940
q-29 0 -55 -11t-45.5 -29.5t-31 -43.5t-11.5 -54v-972q0 -28 11.5 -53t31 -44t45.5 -30t55 -11h940q29 0 55 11t45.5 30t31 44t11.5 53v972zM904 806l259 258l82 -81l-258 -259l258 -259l-82 -83l-259 258l-259 -258l-83 83l258 259l-259 260l82 82z" />
    <glyph glyph-name="zero.blacksquare" unicode="&#x30;&#x20de;&#x25a0;" 
d="M416 1464h968q54 0 101 -20t82 -54.5t55 -80.5t20 -99v-976q0 -52 -20 -98.5t-55 -81t-82 -54.5t-101 -20h-968q-53 0 -100 20t-82 54.5t-55.5 81t-20.5 98.5v976q0 53 20.5 99t55.5 80.5t82 54.5t100 20zM896 338q69 0 124.5 27.5t95 78.5t61 124.5t21.5 166.5
t-21.5 166.5t-61 124.5t-95 78.5t-124.5 27.5t-124.5 -27.5t-95 -78.5t-61 -124.5t-21.5 -166.5t21.5 -166.5t61 -124.5t95 -78.5t124.5 -27.5zM896 461q-70 0 -109 70t-39 204t39 204t109 70t109 -70t39 -204t-39 -204t-109 -70z" />
    <glyph glyph-name="zero.whitesquare" unicode="&#x30;&#x20de;" 
d="M416 1464h968q54 0 101 -20t82 -54.5t55 -80.5t20 -99v-976q0 -52 -20 -98.5t-55 -81t-82 -54.5t-101 -20h-968q-53 0 -100 20t-82 54.5t-55.5 81t-20.5 98.5v976q0 53 20.5 99t55.5 80.5t82 54.5t100 20zM1513 1208q0 28 -11.5 53t-31 44t-45.5 30t-55 11h-940
q-29 0 -55 -11t-45.5 -29.5t-31 -43.5t-11.5 -54v-972q0 -28 11.5 -53t31 -44t45.5 -30t55 -11h940q29 0 55 11t45.5 30t31 44t11.5 53v972zM900 376q-58 0 -107.5 24t-85 69.5t-55.5 112.5t-20 153t20 153t55.5 112.5t85 69.5t107.5 24q59 0 108 -24t84.5 -69.5
t55.5 -112.5t20 -153t-20 -153t-55.5 -112.5t-84.5 -69.5t-108 -24zM900 486q66 0 105 64.5t39 184.5t-39 184.5t-105 64.5t-105 -64.5t-39 -184.5t39 -184.5t105 -64.5z" />
    <glyph glyph-name=".notdef" horiz-adv-x="2048" 
d="M100 -62h1848v284h-1848v-284zM100 370h1848v284h-1848v-284zM100 802h1848v284h-1848v-284zM100 1234h1848v284h-1848v-284zM100 1666h1848v284h-1848v-284zM100 -494h1848v284h-1848v-284z" />
    <glyph glyph-name=".null" horiz-adv-x="0" 
 />
    <glyph glyph-name="uni000D" unicode="&#xd;" horiz-adv-x="0" 
 />
    <glyph glyph-name="uni0020" unicode=" " horiz-adv-x="578" 
 />
    <glyph glyph-name="uni0021" unicode="!" horiz-adv-x="637" 
d="M319 -18q-61 0 -100 39t-39 100q0 62 39 101t100 39t99.5 -39t38.5 -101q0 -61 -38.5 -100t-99.5 -39zM218 1444h200l-17 -964h-166z" />
    <glyph glyph-name="uni0022" unicode="&#x22;" horiz-adv-x="895" 
d="M339 904v539h-160v-539h160zM716 904v539h-160v-539h160z" />
    <glyph glyph-name="uni0023" unicode="#" horiz-adv-x="1296" 
d="M663 0h143l82 403h262l28 144h-261l75 364h251l28 143h-249l80 389h-143l-81 -389h-326l78 389h-142l-81 -389h-247l-29 -143h247l-73 -364h-237l-28 -144h234l-81 -403h142l82 403h328zM445 544l75 369h330l-75 -369h-330z" />
    <glyph glyph-name="uni0024" unicode="$" horiz-adv-x="1328" 
d="M732 -137h-134v134q-102 8 -184.5 40t-141 84t-90.5 121.5t-32 152.5h171q8 -101 80.5 -164.5t196.5 -78.5v520l-80 22q-162 43 -247.5 138.5t-85.5 234.5q0 82 28.5 150t82 119t130 83t172.5 41v140h134v-139q93 -8 169.5 -39.5t131 -83t85.5 -120t34 -149.5h-170
q-1 47 -20 87.5t-51.5 71.5t-78 51t-100.5 27v-489l86 -21q186 -50 273 -143.5t87 -244.5q0 -89 -30 -161t-87 -124.5t-140 -84t-189 -40.5v-135zM1005 394q0 100 -65.5 160.5t-207.5 90.5v-496q131 7 202 70.5t71 174.5zM357 1077q0 -89 61 -147.5t180 -83.5v460
q-52 -3 -96.5 -21.5t-76.5 -49t-50 -71t-18 -87.5z" />
    <glyph glyph-name="uni0025" unicode="%" horiz-adv-x="1610" 
d="M1530 323q0 -76 -22.5 -140t-63.5 -110.5t-97 -72t-124 -25.5q-67 0 -124 25.5t-97.5 72t-63.5 110.5t-23 140t23 140t63.5 110t97.5 71.5t124 25.5q68 0 124 -25.5t97 -71.5t63.5 -109.5t22.5 -140.5zM1223 103q66 0 106.5 60t40.5 160q0 102 -39.5 160.5t-107.5 58.5
t-108 -59.5t-40 -159.5t40.5 -160t107.5 -60zM372 0h-184l1057 1443h182zM695 1121q0 -76 -22.5 -140t-63.5 -110.5t-97 -72t-124 -25.5q-67 0 -124 25.5t-97.5 72t-63.5 110.5t-23 140t23 140t63.5 110t97.5 71.5t124 25.5q68 0 124 -25.5t97 -71.5t63.5 -109.5
t22.5 -140.5zM388 901q66 0 106.5 60t40.5 160q0 102 -39.5 160.5t-107.5 58.5t-108 -59.5t-40 -159.5t40.5 -160t107.5 -60z" />
    <glyph glyph-name="uni0026" unicode="&#x26;" horiz-adv-x="1457" 
d="M1203 0l-133 144q-93 -81 -214 -126t-253 -45q-108 0 -197.5 30.5t-154 85t-100.5 130t-36 166.5q0 129 70 227.5t216 175.5l27 13.5l29 14.5q-50 53 -84.5 97.5t-56 85t-31 78.5t-9.5 77q0 69 28 128.5t77 102.5t116.5 67.5t146.5 24.5q80 0 147.5 -24t116.5 -67.5
t76.5 -103t27.5 -130.5q0 -55 -17.5 -104t-55 -94t-96.5 -88t-143 -87l361 -388q34 68 51 160t17 228v25h168v-26q0 -169 -29.5 -293t-89.5 -216l251 -269h-226zM505 682q-105 -54 -157.5 -127t-52.5 -158q0 -61 23.5 -111t66 -86t102.5 -55.5t132 -19.5q49 0 98 9.5t94 27
t84 42.5t69 56l-408 446q-8 -3 -24 -11t-27 -13zM603 881q66 34 112 65t74.5 62.5t41 65t12.5 72.5q0 42 -14.5 76.5t-40.5 59.5t-62.5 38.5t-80.5 13.5q-43 0 -79 -14t-62.5 -39t-41 -60t-14.5 -77q0 -30 8 -59t26.5 -60t48 -66.5t72.5 -77.5z" />
    <glyph glyph-name="uni0027" unicode="'" horiz-adv-x="518" 
d="M339 904v539h-160v-539h160z" />
    <glyph glyph-name="uni0028" unicode="(" horiz-adv-x="782" 
d="M242 600q0 270 70 493t214 413h146q-53 -68 -99.5 -170.5t-80.5 -224t-53.5 -253t-19.5 -258.5t19.5 -259.5t53.5 -253.5t80 -223.5t100 -170.5h-146q-144 190 -214 413t-70 494z" />
    <glyph glyph-name="uni0029" unicode=")" horiz-adv-x="782" 
d="M540 600q0 -271 -70 -494t-214 -413h-146q54 68 100 170.5t80 223.5t53.5 253.5t19.5 259.5t-19.5 258.5t-53.5 253t-80.5 224t-99.5 170.5h146q144 -190 214 -413t70 -493z" />
    <glyph glyph-name="uni002A" unicode="*" horiz-adv-x="1032" 
d="M812 815l67 116l-259 131l259 132l-67 118l-244 -163l16 294h-136l16 -294l-244 163l-67 -118l260 -132l-260 -131l67 -116l244 159l-16 -290h136l-16 289z" />
    <glyph glyph-name="uni002B" unicode="+" horiz-adv-x="1328" 
d="M738 506h435v148h-435v435h-148v-435h-435v-148h435v-435h148v435z" />
    <glyph glyph-name="uni002C" unicode="," horiz-adv-x="608" 
d="M271 -367l157 569h-191l-95 -569h129z" />
    <glyph glyph-name="uni002D" unicode="&#x2011;" horiz-adv-x="966" 
d="M811 499v163h-656v-163h656z" />
    <glyph glyph-name="uni002D" unicode="-" horiz-adv-x="966" 
d="M811 499v163h-656v-163h656z" />
    <glyph glyph-name="uni002E" unicode="." horiz-adv-x="608" 
d="M304 -10q-27 0 -50.5 10.5t-41 28t-28 41t-10.5 50.5t10.5 50.5t28 41.5t41 28t50.5 10t50.5 -10t41.5 -28t28 -41.5t10 -50.5t-10 -50.5t-28 -41t-41.5 -28t-50.5 -10.5z" />
    <glyph glyph-name="uni002F" unicode="/" horiz-adv-x="682" 
d="M152 -307l530 1813h-152l-530 -1813h152z" />
    <glyph glyph-name="uni0030" unicode="0" horiz-adv-x="1290" 
d="M646 -34q-122 0 -217 50.5t-160.5 147.5t-100 237.5t-34.5 320.5q0 179 34.5 319t100.5 237t161 148t216 51q120 0 215 -51t160.5 -148.5t100 -238.5t34.5 -320q0 -180 -34 -320t-99.5 -236t-160 -146.5t-216.5 -50.5zM646 123q161 0 245 153.5t84 445.5q0 287 -85.5 442
t-243.5 155q-79 0 -140.5 -39.5t-104 -116t-64.5 -187.5t-22 -254q0 -291 85 -445t246 -154z" />
    <glyph glyph-name="uni0031" unicode="1" horiz-adv-x="955" 
d="M506 0h180v1443h-179l-384 -276v-190l367 266h16v-1243z" />
    <glyph glyph-name="uni0032" unicode="2" horiz-adv-x="1237" 
d="M152 1037q0 96 34.5 177t96 139.5t146.5 91t185 32.5q97 0 180.5 -31t145 -85.5t96.5 -128.5t35 -160q0 -56 -14.5 -109t-49.5 -112.5t-93.5 -132t-147.5 -167.5l-347 -373v-16h676v-162h-934v124l499 545q70 76 114.5 131t70.5 99.5t36 83.5t10 82q0 54 -21.5 100.5
t-59.5 81t-89.5 54t-111.5 19.5q-63 0 -115.5 -20.5t-89.5 -57.5t-57.5 -89t-20.5 -116v-1h-174v1z" />
    <glyph glyph-name="uni0033" unicode="3" horiz-adv-x="1284" 
d="M456 665v154h175q62 0 113 19t88.5 53t58 81t20.5 103q0 55 -20 100t-56.5 77.5t-87.5 50t-113 17.5q-125 0 -202 -65t-88 -182h-175q7 94 43 168.5t97 127t145 80.5t187 28q95 0 177.5 -29.5t143.5 -80.5t96.5 -120t35.5 -148q0 -130 -67 -218.5t-186 -117.5v-16
q74 -9 132 -38.5t99 -76t62.5 -108t21.5 -135.5q0 -89 -39.5 -166.5t-108 -134.5t-161 -89.5t-199.5 -32.5q-110 0 -201 29.5t-158 83t-105.5 129t-43.5 168.5h174q6 -58 32.5 -104.5t70 -79.5t101.5 -51t128 -18q71 0 131 20t103 56t67 86t24 109q0 63 -23 113t-66 85
t-104.5 54t-138.5 19h-183z" />
    <glyph glyph-name="uni0034" unicode="4" horiz-adv-x="1318" 
d="M820 0v299h-703v164q48 86 114 195t145.5 235t170.5 265t188 285h261v-983h205v-161h-205v-299h-176zM301 471v-12h520v817h-12q-55 -81 -117.5 -175.5t-127.5 -198t-131.5 -212.5t-131.5 -219z" />
    <glyph glyph-name="uni0035" unicode="5" horiz-adv-x="1267" 
d="M637 -34q-102 0 -188.5 30.5t-150.5 85.5t-102 132t-44 170h177q6 -58 31.5 -106t66 -82.5t94.5 -53t118 -18.5q72 0 131.5 23.5t102 67t65.5 104.5t23 135t-23.5 135.5t-65.5 105.5t-100.5 68t-129.5 24q-99 0 -176 -42t-122 -120h-169l79 818h805v-161h-664l-41 -463
h16q105 123 305 123q103 0 188.5 -35.5t147 -99.5t96 -152.5t34.5 -195.5q0 -110 -36.5 -200.5t-103 -155.5t-159.5 -101t-205 -36z" />
    <glyph glyph-name="uni0036" unicode="6" horiz-adv-x="1305" 
d="M671 -33q-164 0 -284.5 84t-188.5 244q-70 164 -70 402q0 186 37 331t108 245t174.5 152t235.5 52q92 0 171 -26.5t140.5 -75t103 -118.5t58.5 -157h-185q-29 102 -106 159.5t-184 57.5q-177 0 -273.5 -151t-104.5 -441h16q54 106 154 164t230 58q103 0 190 -36
t150 -100.5t98.5 -153t35.5 -193.5q0 -109 -37.5 -200t-104.5 -157t-160 -103t-204 -37zM669 125q69 0 129 25.5t103.5 70t68.5 105.5t25 132q0 74 -24 135t-66.5 105t-102 68.5t-131.5 24.5t-132 -24t-103.5 -67.5t-68 -103.5t-24.5 -132t25 -134t68.5 -107.5t103.5 -71.5
t129 -26z" />
    <glyph glyph-name="uni0037" unicode="7" horiz-adv-x="1167" 
d="M221 0h189l642 1276v167h-955v-161h772v-14z" />
    <glyph glyph-name="uni0038" unicode="8" horiz-adv-x="1308" 
d="M654 -34q-115 0 -210.5 31t-164.5 86.5t-107 132.5t-38 170q0 71 21.5 132.5t60.5 109.5t94.5 80.5t123.5 45.5v16q-55 15 -99.5 45t-76 72t-48.5 94t-17 111q0 84 34 155t95 122t146 79.5t186 28.5t186 -28.5t146 -79.5t95 -122t34 -155q0 -119 -64.5 -205t-176.5 -117
v-16q68 -13 123.5 -45.5t94.5 -80.5t60.5 -109.5t21.5 -132.5q0 -93 -38 -170t-107 -132.5t-164.5 -86.5t-210.5 -31zM654 120q75 0 137 20.5t107 57t69.5 88t24.5 113.5t-24.5 113.5t-69.5 88t-107 57t-137 20.5t-137 -20.5t-107 -57t-69.5 -88t-24.5 -113.5t24.5 -113.5
t69.5 -88t107 -57t137 -20.5zM654 830q64 0 116 17.5t89.5 50t58 77.5t20.5 100q0 56 -20.5 101.5t-57.5 78t-89.5 50.5t-116.5 18t-116.5 -18t-89.5 -50.5t-57.5 -78t-20.5 -101.5q0 -55 20.5 -100t58 -77.5t89.5 -50t116 -17.5z" />
    <glyph glyph-name="uni0039" unicode="9" horiz-adv-x="1305" 
d="M622 -33q-92 0 -171 26.5t-140.5 75t-103 118.5t-58.5 157h185q29 -102 106 -159.5t184 -57.5q177 0 273.5 151t104.5 441h-16q-54 -106 -154 -164t-230 -58q-103 0 -190 36t-150 100.5t-98.5 153t-35.5 193.5q0 109 37.5 200t104.5 157t160 103t204 37q163 0 284 -83.5
t189 -244.5q70 -164 70 -402q0 -186 -37 -331t-108 -245t-174.5 -152t-235.5 -52zM634 653q72 0 132 24t103.5 67.5t68 103.5t24.5 132t-25 134t-68.5 107.5t-103.5 71.5t-129 26t-129 -25.5t-103.5 -70t-68.5 -105.5t-25 -132q0 -74 24 -135t66.5 -105t102 -68.5
t131.5 -24.5z" />
    <glyph glyph-name="uni003A" unicode=":" horiz-adv-x="608" 
d="M304 -10q-27 0 -50.5 10.5t-41 28t-28 41t-10.5 50.5t10.5 50.5t28 41.5t41 28t50.5 10t50.5 -10t41.5 -28t28 -41.5t10 -50.5t-10 -50.5t-28 -41t-41.5 -28t-50.5 -10.5zM304 759q-27 0 -50.5 10.5t-41 28t-28 41t-10.5 50.5t10.5 50.5t28 41.5t41 28t50.5 10t50.5 -10
t41.5 -28t28 -41.5t10 -50.5t-10 -50.5t-28 -41t-41.5 -28t-50.5 -10.5z" />
    <glyph glyph-name="uni003B" unicode=";" horiz-adv-x="608" 
d="M304 759q-27 0 -50.5 10.5t-41 28t-28 41t-10.5 50.5t10.5 50.5t28 41.5t41 28t50.5 10t50.5 -10t41.5 -28t28 -41.5t10 -50.5t-10 -50.5t-28 -41t-41.5 -28t-50.5 -10.5zM246 -367h-129l95 569h191z" />
    <glyph glyph-name="uni003C" unicode="&#x3c;" horiz-adv-x="1328" 
d="M1104 991v186l-880 -509v-142l880 -509v186l-708 386v16z" />
    <glyph glyph-name="uni003D" unicode="=" horiz-adv-x="1328" 
d="M1168 312v149h-1008v-149h1008zM1168 700v149h-1008v-149h1008z" />
    <glyph glyph-name="uni003E" unicode="&#x3e;" horiz-adv-x="1328" 
d="M224 991l708 -386v-16l-708 -386v-186l880 509v142l-880 509v-186z" />
    <glyph glyph-name="uni003F" unicode="?" horiz-adv-x="1050" 
d="M494 -18q-61 0 -100 39t-39 100q0 62 39 101t100 39t99.5 -39t38.5 -101q0 -61 -38.5 -100t-99.5 -39zM80 1066q4 81 33 152t83.5 123.5t134.5 82.5t185 30q95 0 173 -27.5t133.5 -76t86.5 -115t31 -143.5q0 -118 -56 -202.5t-153 -142.5q-48 -28 -79 -53.5t-50 -53
t-26.5 -59t-7.5 -70.5v-65h-175v92q-1 100 48 171t152 133q44 27 74.5 53t49.5 54.5t28 61t9 72.5q0 47 -17.5 86t-49.5 68t-77 45t-101 16q-114 0 -182 -62t-76 -170h-171z" />
    <glyph glyph-name="uni0040" unicode="@" horiz-adv-x="1880" 
d="M969 1435q177 0 324.5 -54t253.5 -151.5t165 -232.5t59 -298q0 -122 -26.5 -220.5t-75.5 -168t-118.5 -107t-155.5 -37.5q-44 0 -82 12.5t-67.5 35t-47.5 53t-23 67.5h-16q-32 -77 -97 -118t-153 -41q-78 0 -142 30.5t-110 86.5t-71 134.5t-25 173.5q0 91 25.5 167
t71.5 130.5t110 85t141 30.5q79 0 142 -37.5t92 -103.5h16v122h151v-587q0 -53 29.5 -82t83.5 -29q47 0 85.5 28.5t65.5 81.5t41.5 128t14.5 167q0 135 -49 247t-138 192.5t-213 124.5t-274 44q-147 0 -270 -53t-212.5 -148t-139.5 -226t-50 -287q0 -160 50 -290
t141.5 -221.5t222 -141t290.5 -49.5q51 0 101 3.5t94 9.5t80 15t60 20v-126q-68 -23 -155 -36t-182 -13q-193 0 -349 58.5t-266 167.5t-169 263t-59 346q0 186 60 339.5t169 263.5t261 170.5t336 60.5zM934 875q-101 0 -157 -73.5t-56 -205.5q0 -131 56 -205.5t155 -74.5
q51 0 93 19.5t71 56t45 88.5t16 116t-15.5 115.5t-45 88t-70.5 56t-92 19.5z" />
    <glyph glyph-name="uni0041" unicode="A" horiz-adv-x="1380" 
d="M1122 0h189l-532 1443h-178l-532 -1443h189l145 413h574zM682 1210h16l226 -644h-468z" />
    <glyph glyph-name="uni0042" unicode="B" horiz-adv-x="1346" 
d="M747 0h-563v1443h552q99 0 178.5 -25t134.5 -72t84.5 -113.5t29.5 -149.5q0 -56 -19.5 -108t-53 -94t-79 -71t-97.5 -38v-16q74 -9 133.5 -38.5t101.5 -75t64.5 -105.5t22.5 -132q0 -95 -33 -170.5t-96 -127.5t-154 -79.5t-206 -27.5zM364 159h356q164 0 247.5 64.5
t83.5 190.5q0 252 -348 252h-339v-507zM364 1284v-463h288q329 0 329 231q0 111 -74 171.5t-209 60.5h-334z" />
    <glyph glyph-name="uni0043" unicode="C" horiz-adv-x="1466" 
d="M765 -34q-147 0 -265 52.5t-200.5 150.5t-127 238t-44.5 314q0 175 44.5 315t127 238t200 150.5t264.5 52.5q114 0 213.5 -34t176.5 -96t127.5 -148.5t66.5 -190.5h-183q-18 70 -55 126t-89 95.5t-117 60.5t-140 21q-104 0 -187.5 -41.5t-142 -118t-90 -185.5t-31.5 -245
t31.5 -245t90 -185.5t142.5 -117.5t188 -41q75 0 140.5 18.5t117.5 53.5t88.5 85t53.5 113h183q-18 -99 -68 -179.5t-126 -137.5t-175 -88t-214 -31z" />
    <glyph glyph-name="uni0044" unicode="D" horiz-adv-x="1487" 
d="M184 1443h495q161 0 287 -49t214 -141.5t134 -226.5t46 -304q0 -171 -46 -305t-133.5 -226.5t-214 -141.5t-287.5 -49h-495v1443zM364 1281v-1119h303q121 0 215.5 37.5t160 109.5t99.5 175.5t34 235.5t-34.5 236.5t-100 176.5t-160 110t-214.5 38h-303z" />
    <glyph glyph-name="uni0045" unicode="E" horiz-adv-x="1220" 
d="M1078 162h-714v496h677v160h-677v463h714v162h-894v-1443h894v162z" />
    <glyph glyph-name="uni0046" unicode="F" horiz-adv-x="1172" 
d="M364 0v625h639v160h-639v496h696v162h-876v-1443h180z" />
    <glyph glyph-name="uni0047" unicode="G" horiz-adv-x="1529" 
d="M1395 558q0 -133 -44 -242.5t-124 -187t-193.5 -120t-251.5 -42.5q-150 0 -270.5 53t-206 151.5t-131.5 238.5t-46 313q0 171 46.5 310.5t132 238t206.5 152.5t269 54q120 0 222 -32.5t180.5 -92.5t130.5 -146t71 -193h-183q-47 147 -153.5 222.5t-267.5 75.5
q-107 0 -194 -41.5t-148 -118.5t-94 -185.5t-33 -243.5q0 -136 32.5 -245.5t93.5 -186t148 -117.5t196 -41q97 0 176.5 29.5t136.5 83.5t88.5 129.5t31.5 166.5v35h-406v158h585v-176z" />
    <glyph glyph-name="uni0048" unicode="H" horiz-adv-x="1520" 
d="M1336 0v1443h-180v-624h-792v624h-180v-1443h180v657h792v-657h180z" />
    <glyph glyph-name="uni0049" unicode="I" horiz-adv-x="548" 
d="M364 0v1443h-180v-1443h180z" />
    <glyph glyph-name="uni004A" unicode="J" horiz-adv-x="1102" 
d="M86 337h179q2 -45 19 -83t47.5 -65t72.5 -42t93 -15q116 0 178.5 68.5t62.5 202.5v1040h180v-1041q0 -103 -29 -184t-83 -137t-132 -85.5t-176 -29.5q-91 0 -166.5 27t-130 75.5t-85 117t-30.5 151.5z" />
    <glyph glyph-name="uni004B" unicode="K" horiz-adv-x="1349" 
d="M364 0v504l173 191l521 -695h233l-630 820l577 623h-226l-632 -701h-16v701h-180v-1443h180z" />
    <glyph glyph-name="uni004C" unicode="L" horiz-adv-x="1163" 
d="M1060 162h-696v1281h-180v-1443h876v162z" />
    <glyph glyph-name="uni004D" unicode="M" horiz-adv-x="1790" 
d="M1606 0v1443h-209l-494 -1194h-16l-494 1194h-209v-1443h168v1102h12l455 -1092h152l455 1092h12v-1102h168z" />
    <glyph glyph-name="uni004E" unicode="N" horiz-adv-x="1520" 
d="M362 0v1119h16l783 -1119h175v1443h-178v-1123h-16l-783 1123h-175v-1443h178z" />
    <glyph glyph-name="uni004F" unicode="O" horiz-adv-x="1579" 
d="M791 1477q154 0 276 -53t207.5 -151t131 -237.5t45.5 -313.5q0 -173 -45 -312.5t-130.5 -238t-207.5 -152t-277 -53.5t-278 53t-208.5 151.5t-131 238.5t-45.5 313q0 174 46 313.5t132.5 238t209 151t275.5 52.5zM791 1311q-110 0 -198.5 -41.5t-150.5 -118t-95.5 -185.5
t-33.5 -244q0 -134 32.5 -243t94 -186t150.5 -119t201 -42q111 0 199 42t149.5 119t94 186t32.5 243q0 135 -32.5 244t-94 185.5t-149.5 118t-199 41.5z" />
    <glyph glyph-name="uni0050" unicode="P" horiz-adv-x="1301" 
d="M184 1443h545q102 0 187 -34.5t146 -96t95 -147.5t34 -189q0 -101 -34.5 -186t-96 -146t-146.5 -95t-187 -34h-363v-515h-180v1443zM364 1283v-608h318q155 0 239.5 78.5t84.5 222.5q0 149 -83 228t-241 79h-318z" />
    <glyph glyph-name="uni0051" unicode="Q" horiz-adv-x="1579" 
d="M791 -34q-154 0 -277 52t-208.5 150t-131.5 238t-46 315t46 315t132.5 238t209 150.5t275.5 52.5q152 0 274.5 -52.5t208 -151t131.5 -238.5t46 -314q0 -217 -66 -379t-190 -251l183 -254h-202l-127 173q-117 -44 -258 -44zM792 132q81 0 154 22l-191 259h204l131 -174
q85 68 130.5 192t45.5 290q0 136 -33 245t-95 185.5t-149.5 118t-197.5 41.5t-198.5 -41t-150.5 -117.5t-95.5 -186t-33.5 -245.5t33 -245.5t95.5 -185.5t151 -117t199.5 -41z" />
    <glyph glyph-name="uni0052" unicode="R" horiz-adv-x="1338" 
d="M364 571v-571h-180v1443h551q104 0 189 -30.5t145 -87t93 -135.5t33 -177q0 -75 -20 -141.5t-57.5 -119.5t-91 -92.5t-121.5 -60.5l334 -599h-211l-309 571h-355zM364 1283v-552h355q140 0 215 71t75 205q0 131 -79 203.5t-219 72.5h-347z" />
    <glyph glyph-name="uni0053" unicode="S" horiz-adv-x="1305" 
d="M115 377h182q8 -57 38.5 -102.5t78.5 -77.5t112.5 -49.5t141.5 -17.5q73 0 134.5 18.5t106.5 51.5t70.5 78.5t25.5 99.5q0 93 -69.5 153t-219.5 98l-185 48q-196 50 -285 142.5t-89 246.5q0 92 37 167.5t104 129.5t161 84t208 30q105 0 194 -29.5t156 -82.5t106.5 -126.5
t45.5 -160.5h-181q-19 112 -105 174t-222 62q-72 0 -131 -17.5t-100.5 -49t-64.5 -76t-23 -99.5q0 -85 64.5 -138t213.5 -91l151 -40q112 -28 191.5 -64.5t130 -85.5t74 -111t23.5 -142q0 -99 -38 -179.5t-108 -137t-169.5 -87t-223.5 -30.5q-115 0 -210.5 29t-165.5 83
t-111.5 130t-48.5 169z" />
    <glyph glyph-name="uni0054" unicode="T" horiz-adv-x="1298" 
d="M739 0v1281h465v162h-1110v-162h465v-1281h180z" />
    <glyph glyph-name="uni0055" unicode="U" horiz-adv-x="1524" 
d="M369 1443v-935q0 -82 26.5 -151t76.5 -119t123 -78t167 -28t167 28t123.5 78t76.5 119t26 151v935h180v-947q0 -115 -39 -212.5t-113 -168t-180.5 -110t-240.5 -39.5t-240.5 39.5t-180.5 110t-113 168t-39 212.5v947h180z" />
    <glyph glyph-name="uni0056" unicode="V" horiz-adv-x="1380" 
d="M779 0l532 1443h-189l-424 -1210h-16l-424 1210h-189l532 -1443h178z" />
    <glyph glyph-name="uni0057" unicode="W" horiz-adv-x="1982" 
d="M985 1139h12l332 -1139h170l393 1443h-188l-287 -1173h-12l-323 1173h-182l-323 -1173h-12l-287 1173h-188l393 -1443h170z" />
    <glyph glyph-name="uni0058" unicode="X" horiz-adv-x="1390" 
d="M90 0h204l385 569h16l378 -569h216l-489 718v0l500 725h-205l-386 -574h-16l-380 574h-217l488 -717v0z" />
    <glyph glyph-name="uni0059" unicode="Y" horiz-adv-x="1344" 
d="M762 0v621l512 822h-205l-389 -641h-16l-389 641h-205l512 -822v-621h180z" />
    <glyph glyph-name="uni005A" unicode="Z" horiz-adv-x="1355" 
d="M144 0h1067v162h-830v16l813 1137v128h-1022v-162h789v-16l-817 -1137v-128z" />
    <glyph glyph-name="uni005B" unicode="[" horiz-adv-x="782" 
d="M268 1506v-1813h434v136h-266v1541h266v136h-434z" />
    <glyph glyph-name="uni005C" unicode="\" horiz-adv-x="682" 
d="M530 -307h152l-530 1813h-152z" />
    <glyph glyph-name="uni005D" unicode="]" horiz-adv-x="782" 
d="M514 1506h-434v-136h266v-1541h-266v-136h434v1813z" />
    <glyph glyph-name="uni005E" unicode="^" horiz-adv-x="984" 
d="M484 1280h16l220 -500h163l-296 639h-190l-296 -639h163z" />
    <glyph glyph-name="uni005F" unicode="_" horiz-adv-x="916" 
d="M926 -235v128h-936v-128h936z" />
    <glyph glyph-name="uni0060" unicode="`" horiz-adv-x="1093" 
d="M782 1263l-252 338h-220l278 -338h194z" />
    <glyph glyph-name="uni0061" unicode="a" horiz-adv-x="1130" 
d="M462 -19q-78 0 -145 22.5t-115.5 64t-76 101t-27.5 133.5q0 146 102 227t291 92l311 19v98q0 100 -61.5 153t-182.5 53q-97 0 -161 -35t-82 -99h-174q9 65 43.5 118t90 90.5t129.5 58t160 20.5q198 0 304 -95t106 -264v-738h-164v159h-16q-53 -87 -138 -132.5t-194 -45.5
zM494 132q66 0 122.5 20.5t98 56.5t64.5 85.5t23 107.5v99l-290 -19q-124 -8 -180 -51.5t-56 -124.5q0 -41 16.5 -73.5t45.5 -55t69 -34t87 -11.5z" />
    <glyph glyph-name="uni0062" unicode="b" horiz-adv-x="1258" 
d="M698 -19q-113 0 -204 50t-142 141h-16v-172h-164v1506h172v-598h16q22 44 57 78.5t79 59.5t95.5 38t106.5 13q103 0 186.5 -39.5t142.5 -112.5t91 -176t32 -230q0 -126 -32 -229t-91.5 -176t-143 -113t-185.5 -40zM658 942q-73 0 -132 -28t-100.5 -80t-63.5 -127
t-22 -168t22 -168t63.5 -127t100.5 -80t132 -28q74 0 132 27.5t98.5 79.5t62 127t21.5 169q0 95 -21.5 169.5t-62 126.5t-98.5 79.5t-132 27.5z" />
    <glyph glyph-name="uni0063" unicode="c" horiz-adv-x="1146" 
d="M1054 748h-174q-10 40 -33 75.5t-58 61.5t-82 41.5t-105 15.5q-73 0 -131.5 -28t-99.5 -80t-63 -125.5t-22 -165.5q0 -93 22.5 -168.5t63.5 -128.5t99.5 -81.5t130.5 -28.5q109 0 181.5 48.5t96.5 140.5h174q-12 -74 -47.5 -137t-92.5 -109t-135.5 -72t-175.5 -26
q-113 0 -204.5 39.5t-156 113t-99.5 177t-35 232.5q0 126 34.5 228.5t99 174.5t156 111.5t204.5 39.5q98 0 177 -27.5t136 -75t92.5 -111t46.5 -135.5z" />
    <glyph glyph-name="uni0064" unicode="d" horiz-adv-x="1258" 
d="M561 -19q-103 0 -187 39.5t-143 112.5t-91 176t-32 230t32.5 230t91.5 176t142.5 112.5t186.5 39.5q113 0 202.5 -50t135.5 -139h15v598h172v-1506h-164v172h-16q-51 -91 -142 -141t-203 -50zM601 942q-73 0 -131.5 -27.5t-99.5 -79.5t-62.5 -127t-21.5 -169t21.5 -169
t62 -127t99 -79.5t132.5 -27.5t132.5 28t99.5 80t63 127t22 168t-22 167.5t-63.5 127t-100 80.5t-131.5 28z" />
    <glyph glyph-name="uni0065" unicode="e" horiz-adv-x="1170" 
d="M876 279h172q-39 -140 -157.5 -219t-296.5 -79q-112 0 -202 39t-153 111.5t-97 175.5t-34 231q0 127 34.5 230.5t97.5 176.5t153 112.5t201 39.5q109 0 196 -37.5t147.5 -108t92.5 -170.5t32 -226v-66h-775v-8q3 -80 26.5 -144.5t64 -109.5t96 -69.5t124.5 -24.5
q105 0 174.5 37t103.5 109zM592 945q-64 0 -118 -22.5t-94 -64t-64 -100t-29 -130.5h594q-1 72 -22.5 130.5t-59.5 100t-90.5 64t-116.5 22.5z" />
    <glyph glyph-name="uni0066" unicode="f" horiz-adv-x="741" 
d="M234 0v934h-179v144h179v120q0 162 79 240t234 78q65 0 116 -10v-140q-16 3 -37 4t-44 1q-94 0 -135 -44.5t-41 -133.5v-115h247v-144h-247v-934h-172z" />
    <glyph glyph-name="uni0067" unicode="g" horiz-adv-x="1248" 
d="M606 -414q-97 0 -176.5 21t-137.5 59.5t-93 93t-45 121.5h182q14 -66 83.5 -105.5t186.5 -39.5q146 0 227 67t81 187v212h-16q-51 -90 -138.5 -138t-199.5 -48q-105 0 -188.5 39t-142 109.5t-90 170t-31.5 220.5t31.5 221t90.5 171t142.5 110.5t187.5 39.5
q114 0 206.5 -51t139.5 -139h16v171h164v-1097q0 -90 -33.5 -163t-96 -124.5t-151.5 -79.5t-199 -28zM598 168q75 0 134.5 27.5t100.5 78t63 122t22 159.5t-22 159.5t-63.5 122t-100.5 78t-134 27.5t-133 -27.5t-98 -78t-60.5 -122t-20.5 -159.5t20.5 -159.5t60.5 -122
t98 -78t133 -27.5z" />
    <glyph glyph-name="uni0068" unicode="h" horiz-adv-x="1216" 
d="M172 0v1506h172v-598h16q41 90 124 139.5t208 49.5q86 0 154.5 -27t117 -78t74.5 -125t26 -169v-698h-172v656q0 144 -63 215t-186 71q-72 0 -128 -22t-94 -62t-57.5 -96t-19.5 -124v-638h-172z" />
    <glyph glyph-name="uni0069" unicode="i" horiz-adv-x="504" 
d="M166 0v1078h172v-1078h-172zM252 1297q-25 0 -46.5 9.5t-38 26t-26 38t-9.5 46.5t9.5 46.5t26 38t38 26t46.5 9.5t46.5 -9.5t38 -26t26 -38t9.5 -46.5t-9.5 -46.5t-26 -38t-38 -26t-46.5 -9.5z" />
    <glyph glyph-name="uni006A" unicode="j" horiz-adv-x="504" 
d="M338 1078v-1131q0 -167 -80 -242t-250 -75h-30v147h26q92 0 127 39t35 128v1134h172zM252 1297q-25 0 -46.5 9.5t-38 26t-26 38t-9.5 46.5t9.5 46.5t26 38t38 26t46.5 9.5t46.5 -9.5t38 -26t26 -38t9.5 -46.5t-9.5 -46.5t-26 -38t-38 -26t-46.5 -9.5z" />
    <glyph glyph-name="uni006B" unicode="k" horiz-adv-x="1112" 
d="M360 607h-16v899h-172v-1506h172v409l103 96l404 -505h219l-495 616l464 462h-211z" />
    <glyph glyph-name="uni006C" unicode="l" horiz-adv-x="516" 
d="M172 0h172v1506h-172v-1506z" />
    <glyph glyph-name="uni006D" unicode="m" horiz-adv-x="1782" 
d="M162 0v1078h164v-170h16q37 91 114.5 140t186.5 49q110 0 185 -52t113 -137h16q44 86 131 137.5t199 51.5q166 0 254.5 -90.5t88.5 -261.5v-745h-172v705q0 237 -227 237q-56 0 -102 -19.5t-79 -53.5t-51 -79.5t-18 -96.5v-693h-172v732q0 97 -61 153.5t-164 56.5
q-53 0 -98.5 -21.5t-79.5 -58.5t-53 -87t-19 -107v-668h-172z" />
    <glyph glyph-name="uni006E" unicode="n" horiz-adv-x="1195" 
d="M162 0v1078h164v-170h16q41 90 120 139.5t204 49.5q183 0 280 -103t97 -296v-698h-172v656q0 146 -62 216t-192 70q-64 0 -116.5 -21t-89.5 -60t-57 -95.5t-20 -127.5v-638h-172z" />
    <glyph glyph-name="uni006F" unicode="o" horiz-adv-x="1210" 
d="M605 -19q-115 0 -207 38.5t-156.5 110.5t-99 175.5t-34.5 233.5t34.5 233.5t99 175.5t156.5 110.5t207 38.5t207 -38.5t156.5 -110.5t99 -175.5t34.5 -233.5t-34.5 -233.5t-99 -175.5t-156.5 -110.5t-207 -38.5zM605 136q154 0 236.5 105.5t82.5 297.5q0 193 -82.5 298
t-236.5 105t-236.5 -105t-82.5 -298q0 -192 82.5 -297.5t236.5 -105.5z" />
    <glyph glyph-name="uni0070" unicode="p" horiz-adv-x="1248" 
d="M687 1097q103 0 186.5 -39.5t143 -112.5t91.5 -176t32 -230q0 -126 -32 -229t-91.5 -176t-143 -113t-186.5 -40q-116 0 -204 47.5t-133 133.5h-16v-522h-172v1438h164v-180h16q52 94 143 146.5t202 52.5zM646 136q74 0 133 27.5t99.5 79.5t62 127t21.5 169
q0 95 -21.5 169.5t-62 126.5t-99 79.5t-132.5 27.5q-73 0 -132 -28t-100 -80.5t-63.5 -127t-22.5 -167.5t22.5 -167.5t63.5 -127t99.5 -80.5t131.5 -28z" />
    <glyph glyph-name="uni0071" unicode="q" horiz-adv-x="1248" 
d="M559 1097q55 0 107 -14t97 -40t81 -63t60 -82h16v180h166v-1438h-174v522h-16q-52 -89 -137 -135t-200 -46q-103 0 -186.5 39.5t-142 112t-90.5 176t-32 230.5t32 230t91 176t142.5 112.5t185.5 39.5zM598 136q74 0 133 28t100.5 80.5t63.5 127t22 167.5t-22.5 167.5
t-63.5 127t-100 80.5t-132 28t-131.5 -27.5t-98.5 -79.5t-61.5 -126.5t-21.5 -169.5t21 -170t61.5 -126.5t98.5 -79t131 -27.5z" />
    <glyph glyph-name="uni0072" unicode="r" horiz-adv-x="780" 
d="M162 0v1078h164v-160h16q12 39 40 72t68 57t88.5 37t102.5 13q21 0 45 -1.5t41 -3.5v-172q-5 2 -18 3.5t-29.5 3t-33 2.5t-29.5 1q-61 0 -113 -19.5t-90 -54.5t-59 -83t-21 -105v-668h-172z" />
    <glyph glyph-name="uni0073" unicode="s" horiz-adv-x="1072" 
d="M137 783q0 67 30.5 124.5t84.5 99.5t127.5 66t159.5 24q85 0 155.5 -20.5t123.5 -58t85.5 -91t41.5 -119.5h-170q-17 65 -78 104t-159 39q-48 0 -89.5 -11.5t-72.5 -33t-48.5 -51t-17.5 -65.5q0 -56 45.5 -92t141.5 -59l166 -40q153 -37 227 -106t74 -186q0 -72 -33 -132
t-91 -103t-137 -67t-171 -24q-90 0 -165 21t-130 59t-88.5 92.5t-40.5 121.5h177q22 -69 85.5 -109t167.5 -40q54 0 100 12.5t79 34.5t51.5 53t18.5 68q0 110 -171 152l-185 45q-152 37 -223 105.5t-71 186.5z" />
    <glyph glyph-name="uni0074" unicode="t" horiz-adv-x="744" 
d="M234 1357h172v-279h240v-144h-240v-610q0 -96 37.5 -138.5t122.5 -42.5q23 0 39.5 1t40.5 3v-145q-26 -5 -50.5 -7.5t-50.5 -2.5q-83 0 -142 16t-96.5 50.5t-55 89.5t-17.5 132v654h-174v144h174v279z" />
    <glyph glyph-name="uni0075" unicode="u" horiz-adv-x="1196" 
d="M1034 1078v-1078h-164v169h-16q-41 -91 -125 -139.5t-209 -48.5q-183 0 -275.5 103.5t-92.5 295.5v698h172v-656q0 -146 57 -215t187 -69q143 0 218.5 79.5t75.5 222.5v638h172z" />
    <glyph glyph-name="uni0076" unicode="v" horiz-adv-x="1110" 
d="M1042 1078h-184l-295 -888h-16l-295 888h-184l399 -1078h176z" />
    <glyph glyph-name="uni0077" unicode="w" horiz-adv-x="1586" 
d="M1518 1078h-173l-212 -862h-16l-241 862h-165l-241 -862h-16l-212 862h-174l302 -1078h174l240 834h16l241 -834h175z" />
    <glyph glyph-name="uni0078" unicode="x" horiz-adv-x="1076" 
d="M544 407l255 -407h204l-371 546l366 532h-195l-253 -401h-16l-256 401h-205l373 -539l-369 -539h195l256 407h16z" />
    <glyph glyph-name="uni0079" unicode="y" horiz-adv-x="1112" 
d="M254 -390q-17 0 -38 1.5t-39 4.5v147q16 -3 35 -4t37 -1q74 0 119 39.5t79 137.5l20 64l-399 1079h186l296 -887h16l295 887h183l-421 -1144q-34 -94 -69.5 -156t-78 -99.5t-96 -53t-125.5 -15.5z" />
    <glyph glyph-name="uni007A" unicode="z" horiz-adv-x="1104" 
d="M137 0h830v144h-622v16l619 789v129h-826v-144h621v-16l-622 -792v-126z" />
    <glyph glyph-name="uni007B" unicode="{" horiz-adv-x="782" 
d="M245 588q111 -11 165 -68t54 -166v-295q0 -121 46 -173t152 -52h40v-141h-55q-178 0 -262.5 84t-84.5 260v255q0 60 -11 101t-37 65.5t-68 35.5t-104 11v190q62 0 104 11t68 35.5t37 65.5t11 101v254q0 176 84.5 260t262.5 84h55v-141h-40q-106 0 -152 -52t-46 -173v-294
q0 -109 -54 -166t-165 -68v-24z" />
    <glyph glyph-name="uni007C" unicode="|" horiz-adv-x="682" 
d="M414 -307v1813h-146v-1813h146z" />
    <glyph glyph-name="uni007D" unicode="}" horiz-adv-x="782" 
d="M537 588v24q-111 11 -165 68t-54 166v294q0 121 -46 173t-152 52h-40v141h55q178 0 262.5 -84t84.5 -260v-254q0 -60 11 -101t37 -65.5t68 -35.5t104 -11v-190q-62 0 -104 -11t-68 -35.5t-37 -65.5t-11 -101v-255q0 -176 -84.5 -260t-262.5 -84h-55v141h40q106 0 152 52
t46 173v295q0 109 54 166t165 68z" />
    <glyph glyph-name="uni007E" unicode="~" horiz-adv-x="1202" 
d="M557 636q-55 57 -90 79t-70 22q-130 0 -141 -179h-160q-1 160 78 252t227 92q64 0 122 -29.5t124 -95.5q53 -55 88.5 -77.5t69.5 -22.5q131 0 142 179h159q1 -160 -77 -252t-222 -92q-68 0 -126 29t-124 95z" />
    <glyph glyph-name="uni00A0" unicode="&#xa0;" horiz-adv-x="578" 
 />
    <glyph glyph-name="uni00A1" unicode="&#xa1;" horiz-adv-x="637" 
d="M218 -342l17 964h166l17 -964h-200zM319 841q-61 0 -100 39t-39 101q0 61 39 100t100 39t99.5 -39t38.5 -100q0 -62 -38.5 -101t-99.5 -39z" />
    <glyph glyph-name="uni00A2" unicode="&#xa2;" horiz-adv-x="1328" 
d="M1167 508q-11 -70 -44.5 -128.5t-85.5 -102t-120.5 -71.5t-148.5 -37v-169h-172v171q-96 15 -175.5 60t-137.5 116t-90 167t-32 211q0 114 32 208t90 164.5t137.5 115.5t175.5 59v171h172v-169q78 -10 146 -39t120.5 -73.5t87 -103t45.5 -128.5h-174q-31 92 -111.5 143
t-196.5 51q-73 0 -136 -28t-109.5 -80t-73.5 -125.5t-27 -165.5q0 -93 27 -168t73.5 -128t110 -81.5t135.5 -28.5q128 0 206 49t102 140h174z" />
    <glyph glyph-name="uni00A3" unicode="&#xa3;" horiz-adv-x="1328" 
d="M404 154h786v-154h-1062v152q66 15 122.5 49t98 80.5t64.5 103t23 116.5q0 38 -6.5 76t-17.5 76h-284v144h234q-23 66 -42 131t-19 132q0 98 35.5 175.5t102 131t162.5 82t217 28.5q92 0 171 -15t129 -38v-160q-19 11 -50 20.5t-70 17t-83 12t-88 4.5q-161 0 -251.5 -67
t-90.5 -187q0 -69 18.5 -135t41.5 -132h471v-144h-424q9 -36 15 -72t6 -73q0 -62 -17 -114.5t-45.5 -95.5t-66.5 -75.5t-80 -54.5v-14z" />
    <glyph glyph-name="uni00A4" unicode="&#xa4;" horiz-adv-x="1328" 
d="M1157 1043l-168 -169q32 -47 49.5 -102t17.5 -116t-18 -116.5t-50 -102.5l169 -169l-106 -106l-169 169q-47 -32 -102 -49t-115 -17q-61 0 -116 17.5t-103 49.5l-169 -170l-106 106l170 170q-32 48 -49.5 103t-17.5 115t17.5 115t49.5 102l-170 170l106 106l169 -169
q48 32 103 49.5t116 17.5t116 -17.5t102 -49.5l168 169zM401 656q0 -54 21 -102t57 -84t84 -57t102 -21t102 21t84 57t57 84t21 102t-21 102t-57 84t-84 57t-102 21t-102 -21t-84 -57t-57 -84t-21 -102z" />
    <glyph glyph-name="uni00A5" unicode="&#xa5;" horiz-adv-x="1328" 
d="M1031 269v136h-277v166h277v136h-223l458 736h-205l-389 -641h-16l-389 641h-205l458 -736h-223v-136h277v-166h-277v-136h277v-269h180v269h277z" />
    <glyph glyph-name="uni00A6" unicode="&#xa6;" horiz-adv-x="682" 
d="M414 -307v725h-146v-725h146zM414 781v725h-146v-725h146z" />
    <glyph glyph-name="uni00A7" unicode="&#xa7;" horiz-adv-x="1032" 
d="M521 -257q-86 0 -158.5 22t-126.5 61.5t-86.5 94.5t-37.5 121h176q5 -34 25 -62.5t52 -48.5t74 -31t91 -11q51 0 93 11.5t72.5 32.5t47 50t16.5 64q0 57 -47 94.5t-151 65.5l-141 38q-165 45 -241 113.5t-76 174.5q0 96 58.5 164.5t164.5 97.5v16q-219 86 -219 273
q0 70 29 127.5t82 99t126.5 64t163.5 22.5q83 0 152.5 -20t121 -57.5t83.5 -91t41 -120.5h-173q-11 66 -72.5 104.5t-156.5 38.5q-101 0 -162.5 -43t-61.5 -114q0 -57 46 -95t149 -66l141 -38q163 -44 238 -111t75 -169q0 -51 -18.5 -97.5t-52 -84t-80.5 -64t-103 -37.5v-16
q254 -57 254 -257q0 -69 -30 -127t-84 -100t-129 -65.5t-165 -23.5zM451 400l83 -18q46 0 86 14.5t69 40.5t46 61t17 75q0 63 -43.5 106t-126.5 61l-83 18q-45 0 -85 -15t-70 -41t-47 -61t-17 -74q0 -62 44.5 -105.5t126.5 -61.5z" />
    <glyph glyph-name="uni00A8" unicode="&#xa8;" horiz-adv-x="1092" 
d="M344 1263q-51 0 -86 35t-35 86t35 86t86 35t86 -35t35 -86t-35 -86t-86 -35zM748 1263q-51 0 -86 35t-35 86t35 86t86 35t86 -35t35 -86t-35 -86t-86 -35z" />
    <glyph glyph-name="uni00A9" unicode="&#xa9;" horiz-adv-x="1742" 
d="M871 -168q-168 0 -313 61t-251.5 167.5t-167.5 252t-61 313.5q0 169 61 314t167.5 251.5t251.5 167.5t313 61q169 0 314 -60.5t251.5 -167t167 -252t60.5 -314.5t-61 -314t-167.5 -251.5t-251.5 -167.5t-313 -61zM871 -28q139 0 258 50t206.5 138t137.5 207.5t50 258.5
q0 140 -49.5 259.5t-137 207t-207 137.5t-258.5 50t-258 -50t-206.5 -138t-137.5 -207.5t-50 -258.5t50 -258.5t137.5 -207.5t207 -138t257.5 -50zM1249 768h-139q-18 72 -78 114t-144 42q-58 0 -105 -20.5t-80 -59t-50.5 -93.5t-17.5 -123q0 -69 17.5 -124.5t50.5 -94.5
t80 -60t105 -21q88 0 146 39.5t76 111.5h139q-9 -63 -39 -114t-77 -86.5t-109 -55t-135 -19.5q-91 0 -164 30t-124.5 85t-79.5 133.5t-28 175.5q0 96 28 173.5t79.5 132.5t124.5 84.5t163 29.5q72 0 133.5 -20t109 -57t78 -88.5t40.5 -114.5z" />
    <glyph glyph-name="uni00AA" unicode="&#xaa;" horiz-adv-x="942" 
d="M390 515q-67 0 -122 20t-94.5 57t-61 88t-21.5 114q0 124 87 194.5t252 80.5l245 15v80q0 75 -52 116t-147 41q-75 0 -124.5 -29.5t-60.5 -80.5h-165q6 57 34 103.5t74.5 79.5t109.5 51t138 18q168 0 261.5 -80.5t93.5 -224.5v-618h-155v119h-16q-41 -69 -112.5 -106.5
t-163.5 -37.5zM438 652q51 0 95 16.5t76.5 46t50.5 69t18 85.5v96l-227 -17q-94 -6 -142.5 -43.5t-48.5 -104.5q0 -68 48.5 -108t129.5 -40z" />
    <glyph glyph-name="uni00AB" unicode="&#xab;" horiz-adv-x="1391" 
d="M382 573l351 412h-204l-350 -416v-8l350 -416h204l-351 412v16zM861 573l351 412h-204l-351 -416v-8l350 -416h205l-351 412v16z" />
    <glyph glyph-name="uni00AC" unicode="&#xac;" horiz-adv-x="1328" 
d="M1138 654h-948v-148h800v-380h148v528z" />
    <glyph glyph-name="uni00AE" unicode="&#xae;" horiz-adv-x="1260" 
d="M630 449q-109 0 -204.5 40.5t-166 111t-111 166t-40.5 204.5q0 110 40.5 205t111 165.5t166 111t204.5 40.5q110 0 205 -40.5t165.5 -111t111 -165.5t40.5 -205q0 -109 -40.5 -204.5t-111 -166t-165.5 -111t-205 -40.5zM630 553q88 0 164 32.5t132.5 89t89 133
t32.5 163.5q0 88 -32.5 164t-89 132.5t-132.5 89t-164 32.5q-87 0 -163.5 -32.5t-133 -89t-89 -132.5t-32.5 -164q0 -87 32.5 -163.5t89 -133t133 -89t163.5 -32.5zM527 733h-98v499h249q38 0 69.5 -11.5t55 -32t36.5 -48.5t13 -61q0 -60 -29.5 -98t-86.5 -52l138 -196h-120
l-129 183h-98v-183zM527 1143v-143h124q92 0 92 74q0 69 -89 69h-127z" />
    <glyph glyph-name="uni00AF" unicode="&#xaf;" horiz-adv-x="1048" 
d="M861 1422h-674v-136h674v136z" />
    <glyph glyph-name="uni00B0" unicode="&#xb0;" horiz-adv-x="901" 
d="M450 813q-70 0 -129.5 25.5t-103 69.5t-67.5 103.5t-24 126.5q0 68 24 127t67.5 103t103 69.5t129.5 25.5q71 0 130.5 -25.5t102.5 -69.5t67.5 -103t24.5 -127q0 -67 -24.5 -126.5t-67.5 -103.5t-102.5 -69.5t-130.5 -25.5zM450 941q45 0 82 15.5t63 42.5t40 63t14 76
q0 41 -14 77t-40.5 62.5t-63 42t-81.5 15.5t-81.5 -15.5t-62 -42t-39.5 -62.5t-14 -77q0 -40 14 -76t39.5 -63t62 -42.5t81.5 -15.5z" />
    <glyph glyph-name="uni00B1" unicode="&#xb1;" horiz-adv-x="1328" 
d="M1173 112v148h-1018v-148h1018zM738 662h435v136h-435v291h-148v-291h-435v-136h435v-291h148v291z" />
    <glyph glyph-name="uni00B2" unicode="&#xb2;" horiz-adv-x="825" 
d="M95 1539q0 63 23 115.5t64.5 90.5t99.5 59t127 21q68 0 124.5 -19t97 -53.5t63.5 -82.5t23 -105q0 -34 -9 -67t-32 -71t-62.5 -84t-99.5 -106l-185 -186v-16h401v-135h-627v110l301 310q45 46 75 79.5t47 60t24 49.5t7 47q0 60 -43 99.5t-110 39.5q-70 0 -113.5 -43
t-43.5 -113v-2h-152v2z" />
    <glyph glyph-name="uni00B3" unicode="&#xb3;" horiz-adv-x="853" 
d="M311 1300v122h109q69 0 112 38t43 100q0 61 -41.5 97t-113.5 36q-69 0 -112.5 -37t-48.5 -102h-151q3 62 26 111.5t64.5 84.5t99 54t127.5 19q66 0 122 -18t97.5 -50.5t64.5 -76.5t23 -96q0 -78 -45.5 -134t-120.5 -72v-16q93 -8 147.5 -66t54.5 -149q0 -58 -25.5 -107.5
t-71.5 -85.5t-108.5 -56.5t-136.5 -20.5q-73 0 -133.5 19.5t-105 55t-69.5 86t-28 111.5h156q5 -63 54 -100.5t127 -37.5t126.5 40.5t48.5 104.5q0 69 -47.5 107.5t-131.5 38.5h-112z" />
    <glyph glyph-name="uni00B4" unicode="&#xb4;" horiz-adv-x="1093" 
d="M480 1263l278 338h-220l-252 -338h194z" />
    <glyph glyph-name="uni00B5" unicode="&#x3bc;" horiz-adv-x="1258" 
d="M162 -360v1438h172v-654q0 -146 61 -216t183 -70q65 0 117.5 21t89.5 60t57 95t20 126v638h172v-809q0 -75 22.5 -101.5t77.5 -26.5q25 0 49 4v-145q-20 -5 -37.5 -7.5t-44.5 -2.5q-55 0 -95 9t-67 28.5t-43 52t-24 78.5l-2 12h-16q-42 -94 -108.5 -141.5t-175.5 -47.5
q-78 0 -134 32t-86 97h-16v-470h-172z" />
    <glyph glyph-name="uni00B5" unicode="&#xb5;" horiz-adv-x="1258" 
d="M162 -360v1438h172v-654q0 -146 61 -216t183 -70q65 0 117.5 21t89.5 60t57 95t20 126v638h172v-809q0 -75 22.5 -101.5t77.5 -26.5q25 0 49 4v-145q-20 -5 -37.5 -7.5t-44.5 -2.5q-55 0 -95 9t-67 28.5t-43 52t-24 78.5l-2 12h-16q-42 -94 -108.5 -141.5t-175.5 -47.5
q-78 0 -134 32t-86 97h-16v-470h-172z" />
    <glyph glyph-name="uni00B6" unicode="&#xb6;" horiz-adv-x="1321" 
d="M834 -220h-180v795h-20q-100 0 -187 32t-150.5 89t-100 135t-36.5 171q0 96 36.5 177t100.5 139.5t151 91.5t187 33h199v-1663zM981 -220v1663h180v-1663h-180z" />
    <glyph glyph-name="uni00B7" unicode="&#xb7;" horiz-adv-x="630" 
d="M315 605q-27 0 -51 10.5t-42.5 29t-29 42.5t-10.5 51t10.5 51.5t29 42.5t42.5 28.5t51 10.5t51.5 -10.5t42.5 -28.5t28.5 -42.5t10.5 -51.5t-10.5 -51t-28.5 -42.5t-42.5 -29t-51.5 -10.5z" />
    <glyph glyph-name="uni00B8" unicode="&#xb8;" horiz-adv-x="1093" 
d="M394 -234v84l70 172h123v-22l-51 -132q103 0 159 -42.5t56 -120.5q0 -84 -64.5 -136.5t-179.5 -52.5q-45 0 -80 4.5t-66 13.5v108q9 -3 24 -5.5t32.5 -4.5t35 -3t30.5 -1q58 0 88.5 19t30.5 54t-34.5 50t-114.5 15h-59z" />
    <glyph glyph-name="uni00B9" unicode="&#xb9;" horiz-adv-x="664" 
d="M321 900v742h-16q-5 -3 -23 -16t-42 -30t-51 -36.5t-50 -36t-38 -27.5t-16 -12v152q18 14 45.5 33.5t59.5 42.5t66 46.5t65 44.5h156v-903h-156z" />
    <glyph glyph-name="uni00BA" unicode="&#xba;" horiz-adv-x="1024" 
d="M512 515q-99 0 -177.5 32.5t-133 94t-84 149.5t-29.5 198t29.5 197.5t84.5 149t133.5 94.5t176.5 33q99 0 177.5 -32.5t133 -94t84 -149.5t29.5 -198t-29.5 -198t-84 -149.5t-133 -94t-177.5 -32.5zM512 659q120 0 185.5 86t65.5 244q0 159 -65 244.5t-186 85.5
q-120 0 -185 -86t-65 -244t65 -244t185 -86z" />
    <glyph glyph-name="uni00BB" unicode="&#xbb;" horiz-adv-x="1391" 
d="M530 573v-16l-351 -412h205l350 416v8l-351 416h-204zM1009 573v-16l-351 -412h204l350 416v8l-350 416h-204z" />
    <glyph glyph-name="uni00BC" unicode="&#xbc;" horiz-adv-x="1944" 
d="M1587 0v170h-452v141q23 42 51.5 90t71.5 114.5t104.5 160t150.5 227.5h230v-600h121v-133h-121v-170h-156zM1285 307v-8h304v477h-6q-52 -77 -95.5 -142t-79.5 -122t-66.5 -107.5t-56.5 -97.5zM671 0h-167l637 1443h167zM321 540v742h-16q-5 -3 -23 -16t-42 -30
t-51 -36.5t-50 -36t-38 -27.5t-16 -12v152q18 14 45.5 33.5t59.5 42.5t66 46.5t65 44.5h156v-903h-156z" />
    <glyph glyph-name="uni00BD" unicode="&#xbd;" horiz-adv-x="1949" 
d="M1219 639q0 63 23 115.5t64.5 90.5t99.5 59t127 21q68 0 124.5 -19t97 -53.5t63.5 -82.5t23 -105q0 -34 -9 -67t-32 -71t-62.5 -84t-99.5 -106l-185 -186v-16h401v-135h-627v110l301 310q45 46 75 79.5t47 60t24 49.5t7 47q0 60 -43 99.5t-110 39.5q-70 0 -113.5 -43
t-43.5 -113v-2h-152v2zM671 0h-167l637 1443h167zM321 540v742h-16q-5 -3 -23 -16t-42 -30t-51 -36.5t-50 -36t-38 -27.5t-16 -12v152q18 14 45.5 33.5t59.5 42.5t66 46.5t65 44.5h156v-903h-156z" />
    <glyph glyph-name="uni00BE" unicode="&#xbe;" horiz-adv-x="2134" 
d="M1777 0v170h-452v141q23 42 51.5 90t71.5 114.5t104.5 160t150.5 227.5h230v-600h121v-133h-121v-170h-156zM1475 307v-8h304v477h-6q-52 -77 -95.5 -142t-79.5 -122t-66.5 -107.5t-56.5 -97.5zM861 0h-167l637 1443h167zM311 940v122h109q69 0 112 38t43 100
q0 61 -41.5 97t-113.5 36q-69 0 -112.5 -37t-48.5 -102h-151q3 62 26 111.5t64.5 84.5t99 54t127.5 19q66 0 122 -18t97.5 -50.5t64.5 -76.5t23 -96q0 -78 -45.5 -134t-120.5 -72v-16q93 -8 147.5 -66t54.5 -149q0 -58 -25.5 -107.5t-71.5 -85.5t-108.5 -56.5t-136.5 -20.5
q-73 0 -133.5 19.5t-105 55t-69.5 86t-28 111.5h156q5 -63 54 -100.5t127 -37.5t126.5 40.5t48.5 104.5q0 69 -47.5 107.5t-131.5 38.5h-112z" />
    <glyph glyph-name="uni00BF" unicode="&#xbf;" horiz-adv-x="1050" 
d="M970 35q-4 -81 -33 -152t-83.5 -123.5t-134 -83t-184.5 -30.5q-95 0 -173 27.5t-134 76.5t-87 115.5t-31 144.5q0 117 56.5 201t152.5 142q48 29 79 54.5t49.5 52.5t26 58.5t7.5 70.5v65h175v-92q2 -100 -46.5 -170.5t-152.5 -133.5q-86 -53 -123.5 -106.5t-37.5 -132.5
q0 -47 17.5 -87t49.5 -69t77.5 -45t101.5 -16q113 0 181 62t76 171h171zM557 840q-61 0 -100 39t-39 100q0 60 39 100t100 40t99.5 -40t38.5 -100q0 -61 -38.5 -100t-99.5 -39z" />
    <glyph glyph-name="uni00C0" unicode="&#xc0;" horiz-adv-x="1380" 
d="M1122 0h189l-532 1443h-178l-532 -1443h189l145 413h574zM584 1575h204l-310 298h-226zM682 1210h16l226 -644h-468z" />
    <glyph glyph-name="uni00C1" unicode="&#xc1;" horiz-adv-x="1380" 
d="M1122 0h189l-532 1443h-178l-532 -1443h189l145 413h574zM788 1575l332 298h-226l-310 -298h204zM682 1210h16l226 -644h-468z" />
    <glyph glyph-name="uni00C2" unicode="&#xc2;" horiz-adv-x="1380" 
d="M1122 0h189l-532 1443h-178l-532 -1443h189l145 413h574zM608 1873l-300 -298h202l172 177h16l172 -177h202l-300 298h-164zM682 1210h16l226 -644h-468z" />
    <glyph glyph-name="uni00C3" unicode="&#xc3;" horiz-adv-x="1380" 
d="M1122 0l-145 413h-574l-145 -413h-189l532 1443h178l532 -1443h-189zM682 1210l-226 -644h468l-226 644h-16zM835 1580q-60 0 -100.5 24.5t-71.5 54t-56.5 54t-55.5 24.5q-53 0 -75.5 -36t-22.5 -121h-142q0 137 61.5 214t170.5 77q60 0 100.5 -24.5t71.5 -54t56.5 -54
t55.5 -24.5q53 0 75.5 36t22.5 121h142q0 -137 -61.5 -214t-170.5 -77z" />
    <glyph glyph-name="uni00C4" unicode="&#xc4;" horiz-adv-x="1380" 
d="M1122 0l-145 413h-574l-145 -413h-189l532 1443h178l532 -1443h-189zM682 1210l-226 -644h468l-226 644h-16zM488 1575q-51 0 -86 35t-35 86t35 86t86 35t86 -35t35 -86t-35 -86t-86 -35zM892 1575q-51 0 -86 35t-35 86t35 86t86 35t86 -35t35 -86t-35 -86t-86 -35z" />
    <glyph glyph-name="uni00C5" unicode="&#xc5;" horiz-adv-x="1380" 
d="M1122 0l-145 413h-574l-145 -413h-189l532 1443h178l532 -1443h-189zM682 1210l-226 -644h468l-226 644h-16zM690 1551q-41 0 -77.5 15t-63.5 41.5t-42.5 62.5t-15.5 78t15.5 78t42.5 62.5t63.5 41.5t77.5 15t77.5 -15t63.5 -41.5t42.5 -62.5t15.5 -78t-15.5 -78
t-42.5 -62.5t-63.5 -41.5t-77.5 -15zM690 1643q46 0 75.5 30t29.5 75q0 46 -29.5 75.5t-75.5 29.5t-75.5 -29.5t-29.5 -75.5q0 -45 29.5 -75t75.5 -30z" />
    <glyph glyph-name="uni00C6" unicode="&#xc6;" horiz-adv-x="1966" 
d="M986 0h838v162h-658v486h621v160h-621v473h658v162h-1104l-651 -1443h181l209 459h527v-459zM839 1292h147v-680h-457z" />
    <glyph glyph-name="uni00C7" unicode="&#xc7;" horiz-adv-x="1466" 
d="M1348 1008h-183q-18 70 -55 126t-89 95.5t-117 60.5t-140 21q-104 0 -187.5 -41.5t-142 -118t-90 -185.5t-31.5 -245t31.5 -245t90 -185.5t142.5 -117.5t188 -41q75 0 140.5 18.5t117.5 53.5t88.5 85t53.5 113h183q-17 -93 -62 -169t-112.5 -132.5t-155.5 -90.5t-191 -42
l-39 -100q103 0 159 -42.5t56 -120.5q0 -84 -64.5 -136.5t-179.5 -52.5q-45 0 -80 4.5t-66 13.5v108q9 -3 24 -5.5t32.5 -4.5t35 -3t30.5 -1q58 0 88.5 19t30.5 54t-34.5 50t-114.5 15h-59v84l49 119q-132 12 -237 70t-178.5 155t-112.5 230.5t-39 296.5q0 175 44.5 315
t127 238t200 150.5t264.5 52.5q114 0 213.5 -34t176.5 -96t127.5 -148.5t66.5 -190.5z" />
    <glyph glyph-name="uni00C8" unicode="&#xc8;" horiz-adv-x="1220" 
d="M1078 162h-714v496h677v160h-677v463h714v162h-894v-1443h894v162zM525 1575h204l-310 298h-226z" />
    <glyph glyph-name="uni00C9" unicode="&#xc9;" horiz-adv-x="1220" 
d="M1078 162h-714v496h677v160h-677v463h714v162h-894v-1443h894v162zM729 1575l332 298h-226l-310 -298h204z" />
    <glyph glyph-name="uni00CA" unicode="&#xca;" horiz-adv-x="1220" 
d="M1078 162h-714v496h677v160h-677v463h714v162h-894v-1443h894v162zM549 1873l-300 -298h202l172 177h16l172 -177h202l-300 298h-164z" />
    <glyph glyph-name="uni00CB" unicode="&#xcb;" horiz-adv-x="1220" 
d="M1078 162v-162h-894v1443h894v-162h-714v-463h677v-160h-677v-496h714zM429 1575q-51 0 -86 35t-35 86t35 86t86 35t86 -35t35 -86t-35 -86t-86 -35zM833 1575q-51 0 -86 35t-35 86t35 86t86 35t86 -35t35 -86t-35 -86t-86 -35z" />
    <glyph glyph-name="uni00CC" unicode="&#xcc;" horiz-adv-x="548" 
d="M364 0v1443h-180v-1443h180zM168 1575h204l-310 298h-226z" />
    <glyph glyph-name="uni00CD" unicode="&#xcd;" horiz-adv-x="548" 
d="M364 0v1443h-180v-1443h180zM372 1575l332 298h-226l-310 -298h204z" />
    <glyph glyph-name="uni00CE" unicode="&#xce;" horiz-adv-x="548" 
d="M364 0v1443h-180v-1443h180zM192 1873l-300 -298h202l172 177h16l172 -177h202l-300 298h-164z" />
    <glyph glyph-name="uni00CF" unicode="&#xcf;" horiz-adv-x="548" 
d="M364 0h-180v1443h180v-1443zM72 1575q-51 0 -86 35t-35 86t35 86t86 35t86 -35t35 -86t-35 -86t-86 -35zM476 1575q-51 0 -86 35t-35 86t35 86t86 35t86 -35t35 -86t-35 -86t-86 -35z" />
    <glyph glyph-name="uni00D0" unicode="&#xd0;" horiz-adv-x="1487" 
d="M184 1443h495q161 0 287 -49t214 -141.5t134 -226.5t46 -304q0 -171 -46 -305t-133.5 -226.5t-214 -141.5t-287.5 -49h-495v663h-158v163h158v617zM364 162h303q121 0 215.5 37.5t160 109.5t99.5 175.5t34 235.5t-34.5 236.5t-100 176.5t-160 110t-214.5 38h-303v-455
h248v-163h-248v-501z" />
    <glyph glyph-name="uni00D1" unicode="&#xd1;" horiz-adv-x="1520" 
d="M362 0h-178v1443h175l783 -1123h16v1123h178v-1443h-175l-783 1119h-16v-1119zM905 1580q-60 0 -100.5 24.5t-71.5 54t-56.5 54t-55.5 24.5q-53 0 -75.5 -36t-22.5 -121h-142q0 137 61.5 214t170.5 77q60 0 100.5 -24.5t71.5 -54t56.5 -54t55.5 -24.5q53 0 75.5 36
t22.5 121h142q0 -137 -61.5 -214t-170.5 -77z" />
    <glyph glyph-name="uni00D2" unicode="&#xd2;" horiz-adv-x="1579" 
d="M791 1477q154 0 276 -53t207.5 -151t131 -237.5t45.5 -313.5q0 -173 -45 -312.5t-130.5 -238t-207.5 -152t-277 -53.5t-278 53t-208.5 151.5t-131 238.5t-45.5 313q0 174 46 313.5t132.5 238t209 151t275.5 52.5zM791 1311q-110 0 -198.5 -41.5t-150.5 -118t-95.5 -185.5
t-33.5 -244q0 -134 32.5 -243t94 -186t150.5 -119t201 -42q111 0 199 42t149.5 119t94 186t32.5 243q0 135 -32.5 244t-94 185.5t-149.5 118t-199 41.5zM685 1575l-332 298h226l310 -298h-204z" />
    <glyph glyph-name="uni00D3" unicode="&#xd3;" horiz-adv-x="1579" 
d="M791 1477q154 0 276 -53t207.5 -151t131 -237.5t45.5 -313.5q0 -173 -45 -312.5t-130.5 -238t-207.5 -152t-277 -53.5t-278 53t-208.5 151.5t-131 238.5t-45.5 313q0 174 46 313.5t132.5 238t209 151t275.5 52.5zM791 1311q-110 0 -198.5 -41.5t-150.5 -118t-95.5 -185.5
t-33.5 -244q0 -134 32.5 -243t94 -186t150.5 -119t201 -42q111 0 199 42t149.5 119t94 186t32.5 243q0 135 -32.5 244t-94 185.5t-149.5 118t-199 41.5zM889 1575h-204l310 298h226z" />
    <glyph glyph-name="uni00D4" unicode="&#xd4;" horiz-adv-x="1579" 
d="M791 1477q154 0 276 -53t207.5 -151t131 -237.5t45.5 -313.5q0 -173 -45 -312.5t-130.5 -238t-207.5 -152t-277 -53.5t-278 53t-208.5 151.5t-131 238.5t-45.5 313q0 174 46 313.5t132.5 238t209 151t275.5 52.5zM791 1311q-110 0 -198.5 -41.5t-150.5 -118t-95.5 -185.5
t-33.5 -244q0 -134 32.5 -243t94 -186t150.5 -119t201 -42q111 0 199 42t149.5 119t94 186t32.5 243q0 135 -32.5 244t-94 185.5t-149.5 118t-199 41.5zM709 1873h164l300 -298h-202l-172 177h-16l-172 -177h-202z" />
    <glyph glyph-name="uni00D5" unicode="&#xd5;" horiz-adv-x="1579" 
d="M791 1477q154 0 276 -53t207.5 -151t131 -237.5t45.5 -313.5q0 -173 -45 -312.5t-130.5 -238t-207.5 -152t-277 -53.5t-278 53t-208.5 151.5t-131 238.5t-45.5 313q0 174 46 313.5t132.5 238t209 151t275.5 52.5zM791 1311q-110 0 -198.5 -41.5t-150.5 -118t-95.5 -185.5
t-33.5 -244q0 -134 32.5 -243t94 -186t150.5 -119t201 -42q111 0 199 42t149.5 119t94 186t32.5 243q0 135 -32.5 244t-94 185.5t-149.5 118t-199 41.5zM936 1580q-60 0 -100.5 24.5t-71.5 54t-56.5 54t-55.5 24.5q-53 0 -75.5 -36t-22.5 -121h-142q0 137 61.5 214t170.5 77
q60 0 100.5 -24.5t71.5 -54t56.5 -54t55.5 -24.5q53 0 75.5 36t22.5 121h142q0 -137 -61.5 -214t-170.5 -77z" />
    <glyph glyph-name="uni00D6" unicode="&#xd6;" horiz-adv-x="1579" 
d="M791 1477q154 0 276 -53t207.5 -151t131 -237.5t45.5 -313.5q0 -173 -45 -312.5t-130.5 -238t-207.5 -152t-277 -53.5t-278 53t-208.5 151.5t-131 238.5t-45.5 313q0 174 46 313.5t132.5 238t209 151t275.5 52.5zM791 1311q-110 0 -198.5 -41.5t-150.5 -118t-95.5 -185.5
t-33.5 -244q0 -134 32.5 -243t94 -186t150.5 -119t201 -42q111 0 199 42t149.5 119t94 186t32.5 243q0 135 -32.5 244t-94 185.5t-149.5 118t-199 41.5zM589 1575q-51 0 -86 35t-35 86t35 86t86 35t86 -35t35 -86t-35 -86t-86 -35zM993 1575q-51 0 -86 35t-35 86t35 86
t86 35t86 -35t35 -86t-35 -86t-86 -35z" />
    <glyph glyph-name="uni00D7" unicode="&#xd7;" horiz-adv-x="1328" 
d="M664 475l308 -307l104 104l-307 308l307 308l-104 104l-308 -307l-308 307l-104 -104l307 -308l-307 -308l104 -104z" />
    <glyph glyph-name="uni00D8" unicode="&#xd8;" horiz-adv-x="1551" 
d="M1382 1419l-110 -143q88 -99 133.5 -238.5t45.5 -315.5q0 -173 -45 -312.5t-130.5 -238t-207.5 -152t-277 -53.5q-127 0 -231.5 35.5t-186.5 101.5l-115 -150l-100 76l127 165q-77 98 -117 230.5t-40 297.5q0 174 46 313.5t132.5 238t209 151t275.5 52.5
q117 0 215.5 -30.5t176.5 -88.5l101 130zM403 346l672 871q-57 46 -128 70t-156 24q-110 0 -198.5 -41.5t-150.5 -118t-95.5 -185.5t-33.5 -244q0 -227 90 -376zM1158 1127l-675 -881q59 -55 136.5 -84.5t171.5 -29.5q111 0 199 42t149.5 119t94 186t32.5 243
q0 125 -27.5 227t-80.5 178z" />
    <glyph glyph-name="uni00D9" unicode="&#xd9;" horiz-adv-x="1524" 
d="M369 1443v-935q0 -82 26.5 -151t76.5 -119t123 -78t167 -28t167 28t123.5 78t76.5 119t26 151v935h180v-947q0 -115 -39 -212.5t-113 -168t-180.5 -110t-240.5 -39.5t-240.5 39.5t-180.5 110t-113 168t-39 212.5v947h180zM656 1575l-332 298h226l310 -298h-204z" />
    <glyph glyph-name="uni00DA" unicode="&#xda;" horiz-adv-x="1524" 
d="M369 1443v-935q0 -82 26.5 -151t76.5 -119t123 -78t167 -28t167 28t123.5 78t76.5 119t26 151v935h180v-947q0 -115 -39 -212.5t-113 -168t-180.5 -110t-240.5 -39.5t-240.5 39.5t-180.5 110t-113 168t-39 212.5v947h180zM860 1575h-204l310 298h226z" />
    <glyph glyph-name="uni00DB" unicode="&#xdb;" horiz-adv-x="1524" 
d="M369 1443v-935q0 -82 26.5 -151t76.5 -119t123 -78t167 -28t167 28t123.5 78t76.5 119t26 151v935h180v-947q0 -115 -39 -212.5t-113 -168t-180.5 -110t-240.5 -39.5t-240.5 39.5t-180.5 110t-113 168t-39 212.5v947h180zM680 1873h164l300 -298h-202l-172 177h-16
l-172 -177h-202z" />
    <glyph glyph-name="uni00DC" unicode="&#xdc;" horiz-adv-x="1524" 
d="M369 1443v-935q0 -82 26.5 -151t76.5 -119t123 -78t167 -28t167 28t123.5 78t76.5 119t26 151v935h180v-947q0 -115 -39 -212.5t-113 -168t-180.5 -110t-240.5 -39.5t-240.5 39.5t-180.5 110t-113 168t-39 212.5v947h180zM560 1575q-51 0 -86 35t-35 86t35 86t86 35
t86 -35t35 -86t-35 -86t-86 -35zM964 1575q-51 0 -86 35t-35 86t35 86t86 35t86 -35t35 -86t-35 -86t-86 -35z" />
    <glyph glyph-name="uni00DD" unicode="&#xdd;" horiz-adv-x="1344" 
d="M762 0v621l512 822h-205l-389 -641h-16l-389 641h-205l512 -822v-621h180zM770 1575l332 298h-226l-310 -298h204z" />
    <glyph glyph-name="uni00DE" unicode="&#xde;" horiz-adv-x="1280" 
d="M184 1443h180v-266h373q83 0 159 -27.5t134.5 -81t93.5 -130.5t35 -176t-35.5 -176.5t-94 -131t-135 -81.5t-159.5 -28h-371v-345h-180v1443zM364 1017v-512h322q62 0 115 16t91.5 48t60 80.5t21.5 112.5q0 65 -21.5 112.5t-60 79.5t-91.5 47.5t-115 15.5h-322z" />
    <glyph glyph-name="uni00DF" unicode="&#xdf;" horiz-adv-x="1274" 
d="M396 0h-171v1101q0 92 30.5 165t86 124t132.5 78.5t170 27.5q92 0 168 -27.5t131 -77.5t85.5 -118.5t30.5 -151.5q0 -62 -17.5 -116t-48.5 -97.5t-73 -74.5t-90 -46v-18q76 -7 138 -34t106 -72.5t68 -109.5t24 -146q0 -89 -32.5 -166t-92 -133.5t-143.5 -89t-187 -32.5
q-83 0 -144 13v153q26 -6 61.5 -10t70.5 -4q71 0 126.5 20t93 56t57 86t19.5 109q0 125 -88 197t-252 72h-61v170h51q112 0 178.5 67t66.5 197q0 48 -16.5 90.5t-48 74t-76.5 49.5t-102 18q-118 0 -184.5 -68t-66.5 -192v-1084z" />
    <glyph glyph-name="uni00E0" unicode="&#xe0;" horiz-adv-x="1130" 
d="M462 -19q-78 0 -145 22.5t-115.5 64t-76 101t-27.5 133.5q0 146 102 227t291 92l311 19v98q0 100 -61.5 153t-182.5 53q-97 0 -161 -35t-82 -99h-174q9 65 43.5 118t90 90.5t129.5 58t160 20.5q198 0 304 -95t106 -264v-738h-164v159h-16q-53 -87 -138 -132.5t-194 -45.5
zM494 132q66 0 122.5 20.5t98 56.5t64.5 85.5t23 107.5v99l-290 -19q-124 -8 -180 -51.5t-56 -124.5q0 -41 16.5 -73.5t45.5 -55t69 -34t87 -11.5zM686 1263h-194l-278 338h220z" />
    <glyph glyph-name="uni00E1" unicode="&#xe1;" horiz-adv-x="1130" 
d="M462 -19q-78 0 -145 22.5t-115.5 64t-76 101t-27.5 133.5q0 146 102 227t291 92l311 19v98q0 100 -61.5 153t-182.5 53q-97 0 -161 -35t-82 -99h-174q9 65 43.5 118t90 90.5t129.5 58t160 20.5q198 0 304 -95t106 -264v-738h-164v159h-16q-53 -87 -138 -132.5t-194 -45.5
zM494 132q66 0 122.5 20.5t98 56.5t64.5 85.5t23 107.5v99l-290 -19q-124 -8 -180 -51.5t-56 -124.5q0 -41 16.5 -73.5t45.5 -55t69 -34t87 -11.5zM644 1263h-194l252 338h220z" />
    <glyph glyph-name="uni00E2" unicode="&#xe2;" horiz-adv-x="1130" 
d="M462 -19q-78 0 -145 22.5t-115.5 64t-76 101t-27.5 133.5q0 146 102 227t291 92l311 19v98q0 100 -61.5 153t-182.5 53q-97 0 -161 -35t-82 -99h-174q9 65 43.5 118t90 90.5t129.5 58t160 20.5q198 0 304 -95t106 -264v-738h-164v159h-16q-53 -87 -138 -132.5t-194 -45.5
zM494 132q66 0 122.5 20.5t98 56.5t64.5 85.5t23 107.5v99l-290 -19q-124 -8 -180 -51.5t-56 -124.5q0 -41 16.5 -73.5t45.5 -55t69 -34t87 -11.5zM665 1568l282 -340h-198l-177 227h-16l-177 -227h-198l282 340h202z" />
    <glyph glyph-name="uni00E3" unicode="&#xe3;" horiz-adv-x="1130" 
d="M462 -19q-78 0 -145 22.5t-115.5 64t-76 101t-27.5 133.5q0 146 102 227t291 92l311 19v98q0 100 -61.5 153t-182.5 53q-97 0 -161 -35t-82 -99h-174q9 65 43.5 118t90 90.5t129.5 58t160 20.5q198 0 304 -95t106 -264v-738h-164v159h-16q-53 -87 -138 -132.5t-194 -45.5
zM494 132q66 0 122.5 20.5t98 56.5t64.5 85.5t23 107.5v99l-290 -19q-124 -8 -180 -51.5t-56 -124.5q0 -41 16.5 -73.5t45.5 -55t69 -34t87 -11.5zM710 1231q-60 0 -100.5 24.5t-71.5 54t-56.5 54t-55.5 24.5q-53 0 -75.5 -36t-22.5 -121h-142q0 137 61.5 214t170.5 77
q60 0 100.5 -24.5t71.5 -54t56.5 -54t55.5 -24.5q53 0 75.5 36t22.5 121h142q0 -137 -61.5 -214t-170.5 -77z" />
    <glyph glyph-name="uni00E4" unicode="&#xe4;" horiz-adv-x="1130" 
d="M462 -19q-78 0 -145 22.5t-115.5 64t-76 101t-27.5 133.5q0 146 102 227t291 92l311 19v98q0 100 -61.5 153t-182.5 53q-97 0 -161 -35t-82 -99h-174q9 65 43.5 118t90 90.5t129.5 58t160 20.5q198 0 304 -95t106 -264v-738h-164v159h-16q-53 -87 -138 -132.5t-194 -45.5
zM494 132q66 0 122.5 20.5t98 56.5t64.5 85.5t23 107.5v99l-290 -19q-124 -8 -180 -51.5t-56 -124.5q0 -41 16.5 -73.5t45.5 -55t69 -34t87 -11.5zM362 1228q-51 0 -86 35t-35 86t35 86t86 35t86 -35t35 -86t-35 -86t-86 -35zM766 1228q-51 0 -86 35t-35 86t35 86t86 35
t86 -35t35 -86t-35 -86t-86 -35z" />
    <glyph glyph-name="uni00E5" unicode="&#xe5;" horiz-adv-x="1130" 
d="M462 -19q-78 0 -145 22.5t-115.5 64t-76 101t-27.5 133.5q0 146 102 227t291 92l311 19v98q0 100 -61.5 153t-182.5 53q-97 0 -161 -35t-82 -99h-174q9 65 43.5 118t90 90.5t129.5 58t160 20.5q198 0 304 -95t106 -264v-738h-164v159h-16q-53 -87 -138 -132.5t-194 -45.5
zM494 132q66 0 122.5 20.5t98 56.5t64.5 85.5t23 107.5v99l-290 -19q-124 -8 -180 -51.5t-56 -124.5q0 -41 16.5 -73.5t45.5 -55t69 -34t87 -11.5zM564 1228q-48 0 -90 17.5t-73.5 48.5t-50 73t-18.5 90t18.5 90t50 73t73.5 48.5t90 17.5t90.5 -17.5t74 -48.5t49.5 -73
t18 -90t-18 -90t-49.5 -73t-74 -48.5t-90.5 -17.5zM564 1334q53 0 87.5 35t34.5 88t-34.5 88t-87.5 35t-87.5 -35t-34.5 -88t34.5 -88t87.5 -35z" />
    <glyph glyph-name="uni00E6" unicode="&#xe6;" horiz-adv-x="1849" 
d="M1287 -19q-65 0 -125.5 17.5t-111 48t-89.5 73t-60 92.5h-16q-53 -109 -157 -170t-249 -61q-85 0 -155 22.5t-120 64t-78 101t-28 133.5q0 146 102 227t291 92l311 19v98q0 100 -61.5 153t-182.5 53q-97 0 -161 -35t-82 -99h-174q9 65 43.5 118t90 90.5t129 58
t160.5 20.5q129 0 217.5 -52t130.5 -133h16q24 40 61 74t83.5 58.5t100.5 38.5t112 14q107 0 191.5 -36t143.5 -104.5t90 -166.5t31 -222v-68h-768v-18q3 -79 27.5 -143.5t65.5 -110t98.5 -70t126.5 -24.5q101 0 165 35t99 110h172q-41 -143 -155 -220.5t-285 -77.5z
M504 132q65 0 119.5 22t94 59.5t62 88t22.5 108.5v91l-290 -19q-124 -8 -180 -51.5t-56 -124.5q0 -82 63.5 -128t164.5 -46zM1276 946q-65 0 -119 -21.5t-93 -61t-62.5 -96.5t-28.5 -128h587q-1 68 -23 124t-59.5 97t-89 63.5t-112.5 22.5z" />
    <glyph glyph-name="uni00E7" unicode="&#xe7;" horiz-adv-x="1146" 
d="M1054 748h-174q-10 40 -33 75.5t-58 61.5t-82 41.5t-105 15.5q-73 0 -131.5 -28t-99.5 -80t-63 -125.5t-22 -165.5q0 -93 22.5 -168.5t63.5 -128.5t99.5 -81.5t130.5 -28.5q109 0 181.5 48.5t96.5 140.5h174q-10 -67 -40.5 -125.5t-79 -103.5t-114.5 -73.5t-148 -37.5
l-45 -117q103 0 159 -42.5t56 -120.5q0 -84 -64.5 -136.5t-179.5 -52.5q-45 0 -80 4.5t-66 13.5v108q9 -3 24 -5.5t32.5 -4.5t35 -3t30.5 -1q58 0 88.5 19t30.5 54t-34.5 50t-114.5 15h-59v84l55 134q-100 11 -180 55t-136 116t-86 170.5t-30 217.5q0 126 34.5 228.5
t99 174.5t156 111.5t204.5 39.5q98 0 177 -27.5t136 -75t92.5 -111t46.5 -135.5z" />
    <glyph glyph-name="uni00E8" unicode="&#xe8;" horiz-adv-x="1170" 
d="M876 279h172q-39 -140 -157.5 -219t-296.5 -79q-112 0 -202 39t-153 111.5t-97 175.5t-34 231q0 127 34.5 230.5t97.5 176.5t153 112.5t201 39.5q109 0 196 -37.5t147.5 -108t92.5 -170.5t32 -226v-66h-775v-8q3 -80 26.5 -144.5t64 -109.5t96 -69.5t124.5 -24.5
q105 0 174.5 37t103.5 109zM592 945q-64 0 -118 -22.5t-94 -64t-64 -100t-29 -130.5h594q-1 72 -22.5 130.5t-59.5 100t-90.5 64t-116.5 22.5zM716 1263h-194l-278 338h220z" />
    <glyph glyph-name="uni00E9" unicode="&#xe9;" horiz-adv-x="1170" 
d="M876 279h172q-39 -140 -157.5 -219t-296.5 -79q-112 0 -202 39t-153 111.5t-97 175.5t-34 231q0 127 34.5 230.5t97.5 176.5t153 112.5t201 39.5q109 0 196 -37.5t147.5 -108t92.5 -170.5t32 -226v-66h-775v-8q3 -80 26.5 -144.5t64 -109.5t96 -69.5t124.5 -24.5
q105 0 174.5 37t103.5 109zM592 945q-64 0 -118 -22.5t-94 -64t-64 -100t-29 -130.5h594q-1 72 -22.5 130.5t-59.5 100t-90.5 64t-116.5 22.5zM674 1263h-194l252 338h220z" />
    <glyph glyph-name="uni00EA" unicode="&#xea;" horiz-adv-x="1170" 
d="M876 279h172q-39 -140 -157.5 -219t-296.5 -79q-112 0 -202 39t-153 111.5t-97 175.5t-34 231q0 127 34.5 230.5t97.5 176.5t153 112.5t201 39.5q109 0 196 -37.5t147.5 -108t92.5 -170.5t32 -226v-66h-775v-8q3 -80 26.5 -144.5t64 -109.5t96 -69.5t124.5 -24.5
q105 0 174.5 37t103.5 109zM592 945q-64 0 -118 -22.5t-94 -64t-64 -100t-29 -130.5h594q-1 72 -22.5 130.5t-59.5 100t-90.5 64t-116.5 22.5zM695 1568l282 -340h-198l-177 227h-16l-177 -227h-198l282 340h202z" />
    <glyph glyph-name="uni00EB" unicode="&#xeb;" horiz-adv-x="1170" 
d="M876 279h172q-39 -140 -157.5 -219t-296.5 -79q-112 0 -202 39t-153 111.5t-97 175.5t-34 231q0 127 34.5 230.5t97.5 176.5t153 112.5t201 39.5q109 0 196 -37.5t147.5 -108t92.5 -170.5t32 -226v-66h-775v-8q3 -80 26.5 -144.5t64 -109.5t96 -69.5t124.5 -24.5
q105 0 174.5 37t103.5 109zM592 945q-64 0 -118 -22.5t-94 -64t-64 -100t-29 -130.5h594q-1 72 -22.5 130.5t-59.5 100t-90.5 64t-116.5 22.5zM392 1228q-51 0 -86 35t-35 86t35 86t86 35t86 -35t35 -86t-35 -86t-86 -35zM796 1228q-51 0 -86 35t-35 86t35 86t86 35t86 -35
t35 -86t-35 -86t-86 -35z" />
    <glyph glyph-name="uni00EC" unicode="&#xec;" horiz-adv-x="504" 
d="M166 0h172v1078h-172v-1078zM374 1263l-252 338h-220l278 -338h194z" />
    <glyph glyph-name="uni00ED" unicode="&#xed;" horiz-adv-x="504" 
d="M166 0h172v1078h-172v-1078zM332 1263l278 338h-220l-252 -338h194z" />
    <glyph glyph-name="uni00EE" unicode="&#xee;" horiz-adv-x="504" 
d="M166 0h172v1078h-172v-1078zM353 1568h-202l-282 -340h198l177 227h16l177 -227h198z" />
    <glyph glyph-name="uni00EF" unicode="&#xef;" horiz-adv-x="504" 
d="M166 0v1078h172v-1078h-172zM50 1228q-51 0 -86 35t-35 86t35 86t86 35t86 -35t35 -86t-35 -86t-86 -35zM454 1228q-51 0 -86 35t-35 86t35 86t86 35t86 -35t35 -86t-35 -86t-86 -35z" />
    <glyph glyph-name="uni00F0" unicode="&#xf0;" horiz-adv-x="1188" 
d="M601 -19q-114 0 -205.5 37t-155.5 107t-98 169.5t-34 224.5q0 121 32.5 220t92 169.5t143 109.5t185.5 39q51 0 100 -13t92 -35.5t75.5 -53.5t50.5 -67h15q-22 89 -68.5 179t-113.5 172l-278 -90l-35 112l231 75q-35 42 -82 86t-118 104h206q37 -31 73.5 -66t71.5 -75
l250 81l35 -112l-209 -68q111 -150 169 -333t58 -382q0 -136 -33.5 -245.5t-96 -186t-152 -117.5t-201.5 -41zM601 902q-72 0 -130 -27t-99.5 -77t-63.5 -121t-22 -158t22 -158t63.5 -121t99.5 -77t130 -27t131 27t100 77t63.5 121t22.5 158t-22.5 157.5t-64 120.5
t-100 77.5t-130.5 27.5z" />
    <glyph glyph-name="uni00F1" unicode="&#xf1;" horiz-adv-x="1195" 
d="M162 0v1078h164v-170h16q41 90 120 139.5t204 49.5q183 0 280 -103t97 -296v-698h-172v656q0 146 -62 216t-192 70q-64 0 -116.5 -21t-89.5 -60t-57 -95.5t-20 -127.5v-638h-172zM749 1231q-60 0 -100.5 24.5t-71.5 54t-56.5 54t-55.5 24.5q-53 0 -75.5 -36t-22.5 -121
h-142q0 137 61.5 214t170.5 77q60 0 100.5 -24.5t71.5 -54t56.5 -54t55.5 -24.5q53 0 75.5 36t22.5 121h142q0 -137 -61.5 -214t-170.5 -77z" />
    <glyph glyph-name="uni00F2" unicode="&#xf2;" horiz-adv-x="1210" 
d="M605 -19q-115 0 -207 38.5t-156.5 110.5t-99 175.5t-34.5 233.5t34.5 233.5t99 175.5t156.5 110.5t207 38.5t207 -38.5t156.5 -110.5t99 -175.5t34.5 -233.5t-34.5 -233.5t-99 -175.5t-156.5 -110.5t-207 -38.5zM605 136q154 0 236.5 105.5t82.5 297.5q0 193 -82.5 298
t-236.5 105t-236.5 -105t-82.5 -298q0 -192 82.5 -297.5t236.5 -105.5zM727 1263h-194l-278 338h220z" />
    <glyph glyph-name="uni00F3" unicode="&#xf3;" horiz-adv-x="1210" 
d="M605 -19q-115 0 -207 38.5t-156.5 110.5t-99 175.5t-34.5 233.5t34.5 233.5t99 175.5t156.5 110.5t207 38.5t207 -38.5t156.5 -110.5t99 -175.5t34.5 -233.5t-34.5 -233.5t-99 -175.5t-156.5 -110.5t-207 -38.5zM605 136q154 0 236.5 105.5t82.5 297.5q0 193 -82.5 298
t-236.5 105t-236.5 -105t-82.5 -298q0 -192 82.5 -297.5t236.5 -105.5zM685 1263h-194l252 338h220z" />
    <glyph glyph-name="uni00F4" unicode="&#xf4;" horiz-adv-x="1210" 
d="M605 -19q-115 0 -207 38.5t-156.5 110.5t-99 175.5t-34.5 233.5t34.5 233.5t99 175.5t156.5 110.5t207 38.5t207 -38.5t156.5 -110.5t99 -175.5t34.5 -233.5t-34.5 -233.5t-99 -175.5t-156.5 -110.5t-207 -38.5zM605 136q154 0 236.5 105.5t82.5 297.5q0 193 -82.5 298
t-236.5 105t-236.5 -105t-82.5 -298q0 -192 82.5 -297.5t236.5 -105.5zM706 1568l282 -340h-198l-177 227h-16l-177 -227h-198l282 340h202z" />
    <glyph glyph-name="uni00F5" unicode="&#xf5;" horiz-adv-x="1210" 
d="M605 -19q-115 0 -207 38.5t-156.5 110.5t-99 175.5t-34.5 233.5t34.5 233.5t99 175.5t156.5 110.5t207 38.5t207 -38.5t156.5 -110.5t99 -175.5t34.5 -233.5t-34.5 -233.5t-99 -175.5t-156.5 -110.5t-207 -38.5zM605 136q154 0 236.5 105.5t82.5 297.5q0 193 -82.5 298
t-236.5 105t-236.5 -105t-82.5 -298q0 -192 82.5 -297.5t236.5 -105.5zM751 1231q-60 0 -100.5 24.5t-71.5 54t-56.5 54t-55.5 24.5q-53 0 -75.5 -36t-22.5 -121h-142q0 137 61.5 214t170.5 77q60 0 100.5 -24.5t71.5 -54t56.5 -54t55.5 -24.5q53 0 75.5 36t22.5 121h142
q0 -137 -61.5 -214t-170.5 -77z" />
    <glyph glyph-name="uni00F6" unicode="&#xf6;" horiz-adv-x="1210" 
d="M605 -19q-115 0 -207 38.5t-156.5 110.5t-99 175.5t-34.5 233.5t34.5 233.5t99 175.5t156.5 110.5t207 38.5t207 -38.5t156.5 -110.5t99 -175.5t34.5 -233.5t-34.5 -233.5t-99 -175.5t-156.5 -110.5t-207 -38.5zM605 136q154 0 236.5 105.5t82.5 297.5q0 193 -82.5 298
t-236.5 105t-236.5 -105t-82.5 -298q0 -192 82.5 -297.5t236.5 -105.5zM403 1228q-51 0 -86 35t-35 86t35 86t86 35t86 -35t35 -86t-35 -86t-86 -35zM807 1228q-51 0 -86 35t-35 86t35 86t86 35t86 -35t35 -86t-35 -86t-86 -35z" />
    <glyph glyph-name="uni00F7" unicode="&#xf7;" horiz-adv-x="1328" 
d="M665 98q-54 0 -90 35t-36 90q0 54 36 89.5t90 35.5t89 -35.5t35 -89.5q0 -55 -35 -90t-89 -35zM1173 506h-1018v148h1018v-148zM665 812q-54 0 -90 35t-36 90q0 54 36 89.5t90 35.5t89 -35.5t35 -89.5q0 -55 -35 -90t-89 -35z" />
    <glyph glyph-name="uni00F8" unicode="&#xf8;" horiz-adv-x="1210" 
d="M1018 1054l-62 -92q71 -72 108.5 -179t37.5 -244q0 -130 -34.5 -233.5t-99 -175.5t-156.5 -110.5t-207 -38.5q-155 0 -268 69l-59 -87l-104 69l67 98q-65 73 -99 175.5t-34 233.5q0 130 34.5 233.5t99 175.5t156.5 110.5t207 38.5q74 0 138 -16t118 -46l57 83zM344 280
l425 620q-69 42 -164 42q-154 0 -236.5 -105t-82.5 -298q0 -158 58 -259zM856 815l-427 -629q73 -50 176 -50q154 0 236.5 105.5t82.5 297.5q0 175 -68 276z" />
    <glyph glyph-name="uni00F9" unicode="&#xf9;" horiz-adv-x="1196" 
d="M1034 1078v-1078h-164v169h-16q-41 -91 -125 -139.5t-209 -48.5q-183 0 -275.5 103.5t-92.5 295.5v698h172v-656q0 -146 57 -215t187 -69q143 0 218.5 79.5t75.5 222.5v638h172zM715 1263h-194l-278 338h220z" />
    <glyph glyph-name="uni00FA" unicode="&#xfa;" horiz-adv-x="1196" 
d="M1034 1078v-1078h-164v169h-16q-41 -91 -125 -139.5t-209 -48.5q-183 0 -275.5 103.5t-92.5 295.5v698h172v-656q0 -146 57 -215t187 -69q143 0 218.5 79.5t75.5 222.5v638h172zM673 1263h-194l252 338h220z" />
    <glyph glyph-name="uni00FB" unicode="&#xfb;" horiz-adv-x="1196" 
d="M1034 1078v-1078h-164v169h-16q-41 -91 -125 -139.5t-209 -48.5q-183 0 -275.5 103.5t-92.5 295.5v698h172v-656q0 -146 57 -215t187 -69q143 0 218.5 79.5t75.5 222.5v638h172zM694 1568l282 -340h-198l-177 227h-16l-177 -227h-198l282 340h202z" />
    <glyph glyph-name="uni00FC" unicode="&#xfc;" horiz-adv-x="1196" 
d="M1034 1078v-1078h-164v169h-16q-41 -91 -125 -139.5t-209 -48.5q-183 0 -275.5 103.5t-92.5 295.5v698h172v-656q0 -146 57 -215t187 -69q143 0 218.5 79.5t75.5 222.5v638h172zM391 1228q-51 0 -86 35t-35 86t35 86t86 35t86 -35t35 -86t-35 -86t-86 -35zM795 1228
q-51 0 -86 35t-35 86t35 86t86 35t86 -35t35 -86t-35 -86t-86 -35z" />
    <glyph glyph-name="uni00FD" unicode="&#xfd;" horiz-adv-x="1112" 
d="M254 -390q-17 0 -38 1.5t-39 4.5v147q16 -3 35 -4t37 -1q74 0 119 39.5t79 137.5l20 64l-399 1079h186l296 -887h16l295 887h183l-421 -1144q-34 -94 -69.5 -156t-78 -99.5t-96 -53t-125.5 -15.5zM631 1263h-194l252 338h220z" />
    <glyph glyph-name="uni00FE" unicode="&#xfe;" horiz-adv-x="1258" 
d="M697 1097q103 0 186.5 -39.5t143 -112.5t91.5 -176t32 -230q0 -126 -32 -229t-91.5 -176t-143 -113t-186.5 -40q-116 0 -204 47.5t-133 133.5h-16v-522h-172v1866h164v-608h16q52 94 143 146.5t202 52.5zM656 136q74 0 133 27.5t99.5 79.5t62 127t21.5 169
q0 95 -21.5 169.5t-62 126.5t-99 79.5t-132.5 27.5q-73 0 -132 -28t-100 -80.5t-63.5 -127t-22.5 -167.5t22.5 -167.5t63.5 -127t99.5 -80.5t131.5 -28z" />
    <glyph glyph-name="uni00FF" unicode="&#xff;" horiz-adv-x="1112" 
d="M254 -390q-17 0 -38 1.5t-39 4.5v147q16 -3 35 -4t37 -1q74 0 119 39.5t79 137.5l20 64l-399 1079h186l296 -887h16l295 887h183l-421 -1144q-34 -94 -69.5 -156t-78 -99.5t-96 -53t-125.5 -15.5zM349 1228q-51 0 -86 35t-35 86t35 86t86 35t86 -35t35 -86t-35 -86
t-86 -35zM753 1228q-51 0 -86 35t-35 86t35 86t86 35t86 -35t35 -86t-35 -86t-86 -35z" />
    <glyph glyph-name="uni0100" unicode="&#x100;" horiz-adv-x="1380" 
d="M1122 0h189l-532 1443h-178l-532 -1443h189l145 413h574zM1027 1756h-674v-136h674v136zM682 1210h16l226 -644h-468z" />
    <glyph glyph-name="uni0101" unicode="&#x101;" horiz-adv-x="1130" 
d="M462 -19q-78 0 -145 22.5t-115.5 64t-76 101t-27.5 133.5q0 146 102 227t291 92l311 19v98q0 100 -61.5 153t-182.5 53q-97 0 -161 -35t-82 -99h-174q9 65 43.5 118t90 90.5t129.5 58t160 20.5q198 0 304 -95t106 -264v-738h-164v159h-16q-53 -87 -138 -132.5t-194 -45.5
zM494 132q66 0 122.5 20.5t98 56.5t64.5 85.5t23 107.5v99l-290 -19q-124 -8 -180 -51.5t-56 -124.5q0 -41 16.5 -73.5t45.5 -55t69 -34t87 -11.5zM901 1422v-136h-674v136h674z" />
    <glyph glyph-name="uni0102" unicode="&#x102;" horiz-adv-x="1380" 
d="M1122 0l-145 413h-574l-145 -413h-189l532 1443h178l532 -1443h-189zM682 1210l-226 -644h468l-226 644h-16zM326 1873h154q0 -79 56 -126t154 -47t154 47t56 126h154q0 -67 -25 -122t-72 -94t-114.5 -60.5t-152.5 -21.5t-152.5 21.5t-114.5 60.5t-72 94t-25 122z" />
    <glyph glyph-name="uni0103" unicode="&#x103;" horiz-adv-x="1130" 
d="M462 -19q-78 0 -145 22.5t-115.5 64t-76 101t-27.5 133.5q0 146 102 227t291 92l311 19v98q0 100 -61.5 153t-182.5 53q-97 0 -161 -35t-82 -99h-174q9 65 43.5 118t90 90.5t129.5 58t160 20.5q198 0 304 -95t106 -264v-738h-164v159h-16q-53 -87 -138 -132.5t-194 -45.5
zM494 132q66 0 122.5 20.5t98 56.5t64.5 85.5t23 107.5v99l-290 -19q-124 -8 -180 -51.5t-56 -124.5q0 -41 16.5 -73.5t45.5 -55t69 -34t87 -11.5zM198 1556h154q0 -43 13.5 -79.5t40.5 -63.5t66 -42t90 -15t90 15t66 42t40.5 63.5t13.5 79.5h154q0 -71 -25 -131t-71.5 -104
t-114 -68.5t-153.5 -24.5q-85 0 -153 24.5t-114.5 68.5t-71.5 104t-25 131z" />
    <glyph glyph-name="uni0104" unicode="&#x104;" horiz-adv-x="1380" 
d="M1294 -416q-17 -6 -42.5 -11t-61.5 -5q-55 0 -100 16t-77 43.5t-49 64.5t-17 80q0 36 13 70.5t36.5 65t55 56t68.5 44.5l-143 405h-574l-145 -413h-189l532 1443h178l532 -1443l-11 -5q-34 -16 -67.5 -34.5t-59 -41t-41.5 -49.5t-16 -60q0 -49 34.5 -73.5t77.5 -24.5
q24 0 40.5 2t25.5 4v-134zM682 1210l-226 -644h468l-226 644h-16z" />
    <glyph glyph-name="uni0105" unicode="&#x105;" horiz-adv-x="1130" 
d="M966 -416q-45 -16 -104 -16q-53 0 -97.5 15t-77 42t-50.5 64.5t-18 82.5q0 42 15 79.5t41 68.5t61 54.5t74 37.5v147h-16q-53 -87 -138 -132.5t-194 -45.5q-81 0 -148 23.5t-115 65.5t-74.5 101t-26.5 131q0 144 100.5 226t292.5 93l311 19v98q0 101 -62 153.5t-182 52.5
q-98 0 -161.5 -35t-81.5 -99h-174q9 65 43.5 117.5t90 90.5t129 58.5t160.5 20.5q195 0 302.5 -94t107.5 -265v-738l-12 -5q-81 -33 -127.5 -81.5t-46.5 -103.5q0 -43 31 -70.5t81 -27.5q44 0 66 6v-134zM494 132q66 0 122.5 20.5t97.5 56.5t64.5 85.5t23.5 107.5v99
l-290 -19q-122 -8 -179 -50.5t-57 -125.5q0 -79 59.5 -126.5t158.5 -47.5z" />
    <glyph glyph-name="uni0106" unicode="&#x106;" horiz-adv-x="1466" 
d="M765 -34q-147 0 -265 52.5t-200.5 150.5t-127 238t-44.5 314q0 175 44.5 315t127 238t200 150.5t264.5 52.5q114 0 213.5 -34t176.5 -96t127.5 -148.5t66.5 -190.5h-183q-18 70 -55 126t-89 95.5t-117 60.5t-140 21q-104 0 -187.5 -41.5t-142 -118t-90 -185.5t-31.5 -245
t31.5 -245t90 -185.5t142.5 -117.5t188 -41q75 0 140.5 18.5t117.5 53.5t88.5 85t53.5 113h183q-18 -99 -68 -179.5t-126 -137.5t-175 -88t-214 -31zM862 1577h-204l310 298h226z" />
    <glyph glyph-name="uni0107" unicode="&#x107;" horiz-adv-x="1146" 
d="M1054 748h-174q-10 40 -33 75.5t-58 61.5t-82 41.5t-105 15.5q-73 0 -131.5 -28t-99.5 -80t-63 -125.5t-22 -165.5q0 -93 22.5 -168.5t63.5 -128.5t99.5 -81.5t130.5 -28.5q109 0 181.5 48.5t96.5 140.5h174q-12 -74 -47.5 -137t-92.5 -109t-135.5 -72t-175.5 -26
q-113 0 -204.5 39.5t-156 113t-99.5 177t-35 232.5q0 126 34.5 228.5t99 174.5t156 111.5t204.5 39.5q98 0 177 -27.5t136 -75t92.5 -111t46.5 -135.5zM680 1263h-194l252 338h220z" />
    <glyph glyph-name="uni0108" unicode="&#x108;" horiz-adv-x="1466" 
d="M765 -34q-147 0 -265 52.5t-200.5 150.5t-127 238t-44.5 314q0 175 44.5 315t127 238t200 150.5t264.5 52.5q114 0 213.5 -34t176.5 -96t127.5 -148.5t66.5 -190.5h-183q-18 70 -55 126t-89 95.5t-117 60.5t-140 21q-104 0 -187.5 -41.5t-142 -118t-90 -185.5t-31.5 -245
t31.5 -245t90 -185.5t142.5 -117.5t188 -41q75 0 140.5 18.5t117.5 53.5t88.5 85t53.5 113h183q-18 -99 -68 -179.5t-126 -137.5t-175 -88t-214 -31zM682 1875h164l300 -298h-202l-172 177h-16l-172 -177h-202z" />
    <glyph glyph-name="uni0109" unicode="&#x109;" horiz-adv-x="1146" 
d="M1054 748h-174q-10 40 -33 75.5t-58 61.5t-82 41.5t-105 15.5q-73 0 -131.5 -28t-99.5 -80t-63 -125.5t-22 -165.5q0 -93 22.5 -168.5t63.5 -128.5t99.5 -81.5t130.5 -28.5q109 0 181.5 48.5t96.5 140.5h174q-12 -74 -47.5 -137t-92.5 -109t-135.5 -72t-175.5 -26
q-113 0 -204.5 39.5t-156 113t-99.5 177t-35 232.5q0 126 34.5 228.5t99 174.5t156 111.5t204.5 39.5q98 0 177 -27.5t136 -75t92.5 -111t46.5 -135.5zM701 1568l282 -340h-198l-177 227h-16l-177 -227h-198l282 340h202z" />
    <glyph glyph-name="uni010A" unicode="&#x10a;" horiz-adv-x="1466" 
d="M765 -34q-147 0 -265 52.5t-200.5 150.5t-127 238t-44.5 314q0 175 44.5 315t127 238t200 150.5t264.5 52.5q114 0 213.5 -34t176.5 -96t127.5 -148.5t66.5 -190.5h-183q-18 70 -55 126t-89 95.5t-117 60.5t-140 21q-104 0 -187.5 -41.5t-142 -118t-90 -185.5t-31.5 -245
t31.5 -245t90 -185.5t142.5 -117.5t188 -41q75 0 140.5 18.5t117.5 53.5t88.5 85t53.5 113h183q-18 -99 -68 -179.5t-126 -137.5t-175 -88t-214 -31zM764 1577q-51 0 -86 35t-35 86t35 86t86 35t86 -35t35 -86t-35 -86t-86 -35z" />
    <glyph glyph-name="uni010B" unicode="&#x10b;" horiz-adv-x="1146" 
d="M1054 748h-174q-10 40 -33 75.5t-58 61.5t-82 41.5t-105 15.5q-73 0 -131.5 -28t-99.5 -80t-63 -125.5t-22 -165.5q0 -93 22.5 -168.5t63.5 -128.5t99.5 -81.5t130.5 -28.5q109 0 181.5 48.5t96.5 140.5h174q-12 -74 -47.5 -137t-92.5 -109t-135.5 -72t-175.5 -26
q-113 0 -204.5 39.5t-156 113t-99.5 177t-35 232.5q0 126 34.5 228.5t99 174.5t156 111.5t204.5 39.5q98 0 177 -27.5t136 -75t92.5 -111t46.5 -135.5zM600 1287q-26 0 -49.5 10t-41 27.5t-27.5 41t-10 49.5t10 49.5t27.5 40.5t41 27t49.5 10t49.5 -10t41 -27t27.5 -40.5
t10 -49.5t-10 -49.5t-27.5 -41t-41 -27.5t-49.5 -10z" />
    <glyph glyph-name="uni010C" unicode="&#x10c;" horiz-adv-x="1466" 
d="M765 -34q-147 0 -265 52.5t-200.5 150.5t-127 238t-44.5 314q0 175 44.5 315t127 238t200 150.5t264.5 52.5q114 0 213.5 -34t176.5 -96t127.5 -148.5t66.5 -190.5h-183q-18 70 -55 126t-89 95.5t-117 60.5t-140 21q-104 0 -187.5 -41.5t-142 -118t-90 -185.5t-31.5 -245
t31.5 -245t90 -185.5t142.5 -117.5t188 -41q75 0 140.5 18.5t117.5 53.5t88.5 85t53.5 113h183q-18 -99 -68 -179.5t-126 -137.5t-175 -88t-214 -31zM682 1577l-300 298h202l172 -177h16l172 177h202l-300 -298h-164z" />
    <glyph glyph-name="uni010D" unicode="&#x10d;" horiz-adv-x="1146" 
d="M1054 748h-174q-10 40 -33 75.5t-58 61.5t-82 41.5t-105 15.5q-73 0 -131.5 -28t-99.5 -80t-63 -125.5t-22 -165.5q0 -93 22.5 -168.5t63.5 -128.5t99.5 -81.5t130.5 -28.5q109 0 181.5 48.5t96.5 140.5h174q-12 -74 -47.5 -137t-92.5 -109t-135.5 -72t-175.5 -26
q-113 0 -204.5 39.5t-156 113t-99.5 177t-35 232.5q0 126 34.5 228.5t99 174.5t156 111.5t204.5 39.5q98 0 177 -27.5t136 -75t92.5 -111t46.5 -135.5zM701 1228h-202l-282 340h198l177 -227h16l177 227h198z" />
    <glyph glyph-name="uni010E" unicode="&#x10e;" horiz-adv-x="1487" 
d="M184 1443h495q161 0 287 -49t214 -141.5t134 -226.5t46 -304q0 -171 -46 -305t-133.5 -226.5t-214 -141.5t-287.5 -49h-495v1443zM364 1281v-1119h303q121 0 215.5 37.5t160 109.5t99.5 175.5t34 235.5t-34.5 236.5t-100 176.5t-160 110t-214.5 38h-303zM512 1575
l-300 298h202l172 -177h16l172 177h202l-300 -298h-164z" />
    <glyph glyph-name="uni010F" unicode="&#x10f;" horiz-adv-x="1387" 
d="M561 -19q-103 0 -187 39.5t-143 112.5t-91 176t-32 230t32.5 230t91.5 176t142.5 112.5t186.5 39.5q113 0 202.5 -50t135.5 -139h15v598h172v-1506h-164v172h-16q-51 -91 -142 -141t-203 -50zM601 942q-73 0 -131.5 -27.5t-99.5 -79.5t-62.5 -127t-21.5 -169t21.5 -169
t62 -127t99 -79.5t132.5 -27.5t132.5 28t99.5 80t63 127t22 168t-22 167.5t-63.5 127t-100 80.5t-131.5 28zM1237 1506h170l-50 -488h-120v488z" />
    <glyph glyph-name="uni0110" unicode="&#x110;" horiz-adv-x="1492" 
d="M189 1443h495q161 0 287 -49t214 -141.5t134 -226.5t46 -304q0 -171 -46 -305t-133.5 -226.5t-214 -141.5t-287.5 -49h-495v663h-163v163h163v617zM369 162h303q121 0 215.5 37.5t160 109.5t99.5 175.5t34 235.5t-34.5 236.5t-100 176.5t-160 110t-214.5 38h-303v-455
h243v-163h-243v-501z" />
    <glyph glyph-name="uni0111" unicode="&#x111;" horiz-adv-x="1258" 
d="M1230 1401v-124h-144v-1277h-164v172h-16q-51 -91 -142 -141t-203 -50q-103 0 -187 39.5t-143 112.5t-91 176t-32 230t32.5 230t91.5 176t142.5 112.5t186.5 39.5q113 0 202.5 -50t135.5 -139h15v369h-260v124h260v105h172v-105h144zM601 136q74 0 132.5 28t99.5 80
t63 127t22 168t-22 167.5t-63.5 127t-100 80.5t-131.5 28t-131.5 -27.5t-99.5 -79.5t-62.5 -127t-21.5 -169t21.5 -169t62 -127t99 -79.5t132.5 -27.5z" />
    <glyph glyph-name="uni0112" unicode="&#x112;" horiz-adv-x="1220" 
d="M1078 162h-714v496h677v160h-677v463h714v162h-894v-1443h894v162zM968 1756h-674v-136h674v136z" />
    <glyph glyph-name="uni0113" unicode="&#x113;" horiz-adv-x="1170" 
d="M876 279h172q-39 -140 -157.5 -219t-296.5 -79q-112 0 -202 39t-153 111.5t-97 175.5t-34 231q0 127 34.5 230.5t97.5 176.5t153 112.5t201 39.5q109 0 196 -37.5t147.5 -108t92.5 -170.5t32 -226v-66h-775v-8q3 -80 26.5 -144.5t64 -109.5t96 -69.5t124.5 -24.5
q105 0 174.5 37t103.5 109zM592 945q-64 0 -118 -22.5t-94 -64t-64 -100t-29 -130.5h594q-1 72 -22.5 130.5t-59.5 100t-90.5 64t-116.5 22.5zM931 1422v-136h-674v136h674z" />
    <glyph glyph-name="uni0114" unicode="&#x114;" horiz-adv-x="1220" 
d="M1078 162v-162h-894v1443h894v-162h-714v-463h677v-160h-677v-496h714zM267 1873h154q0 -79 56 -126t154 -47t154 47t56 126h154q0 -67 -25 -122t-72 -94t-114.5 -60.5t-152.5 -21.5t-152.5 21.5t-114.5 60.5t-72 94t-25 122z" />
    <glyph glyph-name="uni0115" unicode="&#x115;" horiz-adv-x="1170" 
d="M876 279h172q-39 -140 -157.5 -219t-296.5 -79q-112 0 -202 39t-153 111.5t-97 175.5t-34 231q0 127 34.5 230.5t97.5 176.5t153 112.5t201 39.5q109 0 196 -37.5t147.5 -108t92.5 -170.5t32 -226v-66h-775v-8q3 -80 26.5 -144.5t64 -109.5t96 -69.5t124.5 -24.5
q105 0 174.5 37t103.5 109zM592 945q-64 0 -118 -22.5t-94 -64t-64 -100t-29 -130.5h594q-1 72 -22.5 130.5t-59.5 100t-90.5 64t-116.5 22.5zM228 1556h154q0 -43 13.5 -79.5t40.5 -63.5t66 -42t90 -15t90 15t66 42t40.5 63.5t13.5 79.5h154q0 -71 -25 -131t-71.5 -104
t-114 -68.5t-153.5 -24.5q-85 0 -153 24.5t-114.5 68.5t-71.5 104t-25 131z" />
    <glyph glyph-name="uni0116" unicode="&#x116;" horiz-adv-x="1220" 
d="M1078 162v-162h-894v1443h894v-162h-714v-463h677v-160h-677v-496h714zM631 1575q-51 0 -86 35t-35 86t35 86t86 35t86 -35t35 -86t-35 -86t-86 -35z" />
    <glyph glyph-name="uni0117" unicode="&#x117;" horiz-adv-x="1170" 
d="M876 279h172q-39 -140 -157.5 -219t-296.5 -79q-112 0 -202 39t-153 111.5t-97 175.5t-34 231q0 127 34.5 230.5t97.5 176.5t153 112.5t201 39.5q109 0 196 -37.5t147.5 -108t92.5 -170.5t32 -226v-66h-775v-8q3 -80 26.5 -144.5t64 -109.5t96 -69.5t124.5 -24.5
q105 0 174.5 37t103.5 109zM592 945q-64 0 -118 -22.5t-94 -64t-64 -100t-29 -130.5h594q-1 72 -22.5 130.5t-59.5 100t-90.5 64t-116.5 22.5zM594 1287q-26 0 -49.5 10t-41 27.5t-27.5 41t-10 49.5t10 49.5t27.5 40.5t41 27t49.5 10t49.5 -10t41 -27t27.5 -40.5t10 -49.5
t-10 -49.5t-27.5 -41t-41 -27.5t-49.5 -10z" />
    <glyph glyph-name="uni0118" unicode="&#x118;" horiz-adv-x="1220" 
d="M184 0v1443h894v-162h-714v-463h677v-160h-677v-496h714v-150l-42 -16q-35 -14 -68.5 -32.5t-59 -41.5t-41 -51t-15.5 -61q0 -49 34.5 -73.5t77.5 -24.5q24 0 40.5 2t25.5 4v-134q-17 -6 -42.5 -11t-61.5 -5q-55 0 -100 16t-77 43.5t-49 64.5t-17 80q0 69 39 124t102 88
v16h-640z" />
    <glyph glyph-name="uni0119" unicode="&#x119;" horiz-adv-x="1170" 
d="M788 -432q-55 0 -100 16t-77 43.5t-49 64.5t-17 80q0 60 33 113t98 95v16q-12 -6 -37.5 -10.5t-44.5 -4.5q-112 0 -202 39t-153 111.5t-97 175.5t-34 231q0 127 34.5 230.5t97.5 176.5t153 112.5t201 39.5q109 0 196 -37.5t147.5 -108t92.5 -170.5t32 -226v-66h-775v-8
q3 -80 26.5 -144.5t64 -109.5t96 -69.5t124.5 -24.5q105 0 174.5 37t103.5 109h172q-6 -24 -20.5 -54t-36 -61.5t-49.5 -62.5t-60 -57q-78 -64 -123 -119t-45 -115q0 -49 34.5 -73.5t77.5 -24.5q24 0 40.5 2t25.5 4v-134q-17 -6 -42.5 -11t-61.5 -5zM592 945
q-64 0 -118 -22.5t-94 -64t-64 -100t-29 -130.5h594q-1 72 -22.5 130.5t-59.5 100t-90.5 64t-116.5 22.5z" />
    <glyph glyph-name="uni011A" unicode="&#x11a;" horiz-adv-x="1220" 
d="M1078 162h-714v496h677v160h-677v463h714v162h-894v-1443h894v162zM549 1575h164l300 298h-202l-172 -177h-16l-172 177h-202z" />
    <glyph glyph-name="uni011B" unicode="&#x11b;" horiz-adv-x="1170" 
d="M876 279h172q-39 -140 -157.5 -219t-296.5 -79q-112 0 -202 39t-153 111.5t-97 175.5t-34 231q0 127 34.5 230.5t97.5 176.5t153 112.5t201 39.5q109 0 196 -37.5t147.5 -108t92.5 -170.5t32 -226v-66h-775v-8q3 -80 26.5 -144.5t64 -109.5t96 -69.5t124.5 -24.5
q105 0 174.5 37t103.5 109zM592 945q-64 0 -118 -22.5t-94 -64t-64 -100t-29 -130.5h594q-1 72 -22.5 130.5t-59.5 100t-90.5 64t-116.5 22.5zM695 1228h-202l-282 340h198l177 -227h16l177 227h198z" />
    <glyph glyph-name="uni011C" unicode="&#x11c;" horiz-adv-x="1529" 
d="M1395 558q0 -133 -44 -242.5t-124 -187t-193.5 -120t-251.5 -42.5q-150 0 -270.5 53t-206 151.5t-131.5 238.5t-46 313q0 171 46.5 310.5t132 238t206.5 152.5t269 54q120 0 222 -32.5t180.5 -92.5t130.5 -146t71 -193h-183q-47 147 -153.5 222.5t-267.5 75.5
q-107 0 -194 -41.5t-148 -118.5t-94 -185.5t-33 -243.5q0 -136 32.5 -245.5t93.5 -186t148 -117.5t196 -41q97 0 176.5 29.5t136.5 83.5t88.5 129.5t31.5 166.5v35h-406v158h585v-176zM700 1873h164l300 -298h-202l-172 177h-16l-172 -177h-202z" />
    <glyph glyph-name="uni011D" unicode="&#x11d;" horiz-adv-x="1248" 
d="M606 -414q-97 0 -176.5 21t-137.5 59.5t-93 93t-45 121.5h182q14 -66 83.5 -105.5t186.5 -39.5q146 0 227 67t81 187v212h-16q-51 -90 -138.5 -138t-199.5 -48q-105 0 -188.5 39t-142 109.5t-90 170t-31.5 220.5t31.5 221t90.5 171t142.5 110.5t187.5 39.5
q114 0 206.5 -51t139.5 -139h16v171h164v-1097q0 -90 -33.5 -163t-96 -124.5t-151.5 -79.5t-199 -28zM598 168q75 0 134.5 27.5t100.5 78t63 122t22 159.5t-22 159.5t-63.5 122t-100.5 78t-134 27.5t-133 -27.5t-98 -78t-60.5 -122t-20.5 -159.5t20.5 -159.5t60.5 -122
t98 -78t133 -27.5zM695 1568l282 -340h-198l-177 227h-16l-177 -227h-198l282 340h202z" />
    <glyph glyph-name="uni011E" unicode="&#x11e;" horiz-adv-x="1529" 
d="M1395 558q0 -133 -44 -242.5t-124 -187t-193.5 -120t-251.5 -42.5q-150 0 -270.5 53t-206 151.5t-131.5 238.5t-46 313q0 171 46.5 310.5t132 238t206.5 152.5t269 54q120 0 222 -32.5t180.5 -92.5t130.5 -146t71 -193h-183q-47 147 -153.5 222.5t-267.5 75.5
q-107 0 -194 -41.5t-148 -118.5t-94 -185.5t-33 -243.5q0 -136 32.5 -245.5t93.5 -186t148 -117.5t196 -41q97 0 176.5 29.5t136.5 83.5t88.5 129.5t31.5 166.5v35h-406v158h585v-176zM418 1873h154q0 -79 56 -126t154 -47t154 47t56 126h154q0 -67 -25 -122t-72 -94
t-114.5 -60.5t-152.5 -21.5t-152.5 21.5t-114.5 60.5t-72 94t-25 122z" />
    <glyph glyph-name="uni011F" unicode="&#x11f;" horiz-adv-x="1248" 
d="M606 -414q-97 0 -176.5 21t-137.5 59.5t-93 93t-45 121.5h182q14 -66 83.5 -105.5t186.5 -39.5q146 0 227 67t81 187v212h-16q-51 -90 -138.5 -138t-199.5 -48q-105 0 -188.5 39t-142 109.5t-90 170t-31.5 220.5t31.5 221t90.5 171t142.5 110.5t187.5 39.5
q114 0 206.5 -51t139.5 -139h16v171h164v-1097q0 -90 -33.5 -163t-96 -124.5t-151.5 -79.5t-199 -28zM598 168q75 0 134.5 27.5t100.5 78t63 122t22 159.5t-22 159.5t-63.5 122t-100.5 78t-134 27.5t-133 -27.5t-98 -78t-60.5 -122t-20.5 -159.5t20.5 -159.5t60.5 -122
t98 -78t133 -27.5zM228 1556h154q0 -43 13.5 -79.5t40.5 -63.5t66 -42t90 -15t90 15t66 42t40.5 63.5t13.5 79.5h154q0 -71 -25 -131t-71.5 -104t-114 -68.5t-153.5 -24.5q-85 0 -153 24.5t-114.5 68.5t-71.5 104t-25 131z" />
    <glyph glyph-name="uni0120" unicode="&#x120;" horiz-adv-x="1529" 
d="M1395 558q0 -133 -44 -242.5t-124 -187t-193.5 -120t-251.5 -42.5q-150 0 -270.5 53t-206 151.5t-131.5 238.5t-46 313q0 171 46.5 310.5t132 238t206.5 152.5t269 54q120 0 222 -32.5t180.5 -92.5t130.5 -146t71 -193h-183q-47 147 -153.5 222.5t-267.5 75.5
q-107 0 -194 -41.5t-148 -118.5t-94 -185.5t-33 -243.5q0 -136 32.5 -245.5t93.5 -186t148 -117.5t196 -41q97 0 176.5 29.5t136.5 83.5t88.5 129.5t31.5 166.5v35h-406v158h585v-176zM782 1575q-51 0 -86 35t-35 86t35 86t86 35t86 -35t35 -86t-35 -86t-86 -35z" />
    <glyph glyph-name="uni0121" unicode="&#x121;" horiz-adv-x="1248" 
d="M606 -414q-97 0 -176.5 21t-137.5 59.5t-93 93t-45 121.5h182q14 -66 83.5 -105.5t186.5 -39.5q146 0 227 67t81 187v212h-16q-51 -90 -138.5 -138t-199.5 -48q-105 0 -188.5 39t-142 109.5t-90 170t-31.5 220.5t31.5 221t90.5 171t142.5 110.5t187.5 39.5
q114 0 206.5 -51t139.5 -139h16v171h164v-1097q0 -90 -33.5 -163t-96 -124.5t-151.5 -79.5t-199 -28zM598 168q75 0 134.5 27.5t100.5 78t63 122t22 159.5t-22 159.5t-63.5 122t-100.5 78t-134 27.5t-133 -27.5t-98 -78t-60.5 -122t-20.5 -159.5t20.5 -159.5t60.5 -122
t98 -78t133 -27.5zM594 1287q-26 0 -49.5 10t-41 27.5t-27.5 41t-10 49.5t10 49.5t27.5 40.5t41 27t49.5 10t49.5 -10t41 -27t27.5 -40.5t10 -49.5t-10 -49.5t-27.5 -41t-41 -27.5t-49.5 -10z" />
    <glyph glyph-name="uni0122" unicode="&#x122;" horiz-adv-x="1529" 
d="M1395 558q0 -133 -44 -242.5t-124 -187t-193.5 -120t-251.5 -42.5q-150 0 -270.5 53t-206 151.5t-131.5 238.5t-46 313q0 171 46.5 310.5t132 238t206.5 152.5t269 54q120 0 222 -32.5t180.5 -92.5t130.5 -146t71 -193h-183q-47 147 -153.5 222.5t-267.5 75.5
q-107 0 -194 -41.5t-148 -118.5t-94 -185.5t-33 -243.5q0 -136 32.5 -245.5t93.5 -186t148 -117.5t196 -41q97 0 176.5 29.5t136.5 83.5t88.5 129.5t31.5 166.5v35h-406v158h585v-176zM785 -518h-167l102 377h182z" />
    <glyph glyph-name="uni0123" unicode="&#x123;" horiz-adv-x="1248" 
d="M606 -414q-97 0 -176.5 21t-137.5 59.5t-93 93t-45 121.5h182q14 -66 83.5 -105.5t186.5 -39.5q146 0 227 67t81 187v212h-16q-51 -90 -138.5 -138t-199.5 -48q-105 0 -188.5 39t-142 109.5t-90 170t-31.5 220.5t31.5 221t90.5 171t142.5 110.5t187.5 39.5
q114 0 206.5 -51t139.5 -139h16v171h164v-1097q0 -90 -33.5 -163t-96 -124.5t-151.5 -79.5t-199 -28zM598 168q75 0 134.5 27.5t100.5 78t63 122t22 159.5t-22 159.5t-63.5 122t-100.5 78t-134 27.5t-133 -27.5t-98 -78t-60.5 -122t-20.5 -159.5t20.5 -159.5t60.5 -122
t98 -78t133 -27.5zM604 1663h167l-102 -377h-182z" />
    <glyph glyph-name="uni0124" unicode="&#x124;" horiz-adv-x="1520" 
d="M1336 0v1443h-180v-624h-792v624h-180v-1443h180v657h792v-657h180zM678 1873l-300 -298h202l172 177h16l172 -177h202l-300 298h-164z" />
    <glyph glyph-name="uni0125" unicode="&#x125;" horiz-adv-x="1216" 
d="M172 0v1506h172v-598h16q41 90 124 139.5t208 49.5q86 0 154.5 -27t117 -78t74.5 -125t26 -169v-698h-172v656q0 144 -63 215t-186 71q-72 0 -128 -22t-94 -62t-57.5 -96t-19.5 -124v-638h-172zM176 1936h164l300 -298h-202l-172 177h-16l-172 -177h-202z" />
    <glyph glyph-name="uni0126" unicode="&#x126;" horiz-adv-x="1520" 
d="M1472 1218h-136v225h-180v-225h-792v225h-180v-225h-136v-143h136v-1075h180v657h792v-657h180v1075h136v143zM1156 819h-792v256h792v-256z" />
    <glyph glyph-name="uni0127" unicode="&#x127;" horiz-adv-x="1216" 
d="M344 908h16q41 90 124 139.5t208 49.5q86 0 154.5 -27t117 -78t74.5 -125t26 -169v-698h-172v656q0 144 -63 215t-186 71q-72 0 -128 -22t-94 -62t-57.5 -96t-19.5 -124v-638h-172v1277h-144v124h144v105h172v-105h260v-124h-260v-369z" />
    <glyph glyph-name="uni0128" unicode="&#x128;" horiz-adv-x="548" 
d="M364 0h-180v1443h180v-1443zM419 1580q-60 0 -100.5 24.5t-71.5 54t-56.5 54t-55.5 24.5q-53 0 -75.5 -36t-22.5 -121h-142q0 137 61.5 214t170.5 77q60 0 100.5 -24.5t71.5 -54t56.5 -54t55.5 -24.5q53 0 75.5 36t22.5 121h142q0 -137 -61.5 -214t-170.5 -77z" />
    <glyph glyph-name="uni0129" unicode="&#x129;" horiz-adv-x="504" 
d="M166 0v1078h172v-1078h-172zM398 1231q-60 0 -100.5 24.5t-71.5 54t-56.5 54t-55.5 24.5q-53 0 -75.5 -36t-22.5 -121h-142q0 137 61.5 214t170.5 77q60 0 100.5 -24.5t71.5 -54t56.5 -54t55.5 -24.5q53 0 75.5 36t22.5 121h142q0 -137 -61.5 -214t-170.5 -77z" />
    <glyph glyph-name="uni012A" unicode="&#x12a;" horiz-adv-x="548" 
d="M364 0v1443h-180v-1443h180zM611 1756h-674v-136h674v136z" />
    <glyph glyph-name="uni012B" unicode="&#x12b;" horiz-adv-x="504" 
d="M166 0h172v1078h-172v-1078zM538 1422h-572v-136h572v136z" />
    <glyph glyph-name="uni012C" unicode="&#x12c;" horiz-adv-x="548" 
d="M364 0h-180v1443h180v-1443zM-90 1873h154q0 -79 56 -126t154 -47t154 47t56 126h154q0 -67 -25 -122t-72 -94t-114.5 -60.5t-152.5 -21.5t-152.5 21.5t-114.5 60.5t-72 94t-25 122z" />
    <glyph glyph-name="uni012D" unicode="&#x12d;" horiz-adv-x="504" 
d="M166 0v1078h172v-1078h-172zM-114 1556h154q0 -43 13.5 -79.5t40.5 -63.5t66 -42t90 -15t90 15t66 42t40.5 63.5t13.5 79.5h154q0 -71 -25 -131t-71.5 -104t-114 -68.5t-153.5 -24.5q-85 0 -153 24.5t-114.5 68.5t-71.5 104t-25 131z" />
    <glyph glyph-name="uni012E" unicode="&#x12e;" horiz-adv-x="548" 
d="M184 0v1443h180v-1443l-5 -3q-147 -88 -147 -187q0 -43 31 -70.5t81 -27.5q44 0 66 6v-134q-45 -16 -104 -16q-53 0 -97.5 15t-77 42t-50.5 64.5t-18 82.5q0 69 36 127.5t105 100.5z" />
    <glyph glyph-name="uni012F" unicode="&#x12f;" horiz-adv-x="504" 
d="M166 4v1074h172v-1078l-5 -3q-147 -88 -147 -187q0 -49 34.5 -73.5t77.5 -24.5q24 0 40.5 2t25.5 4v-134q-17 -6 -42.5 -11t-61.5 -5q-55 0 -100 16t-77 43.5t-49 64.5t-17 80q0 70 38 129.5t111 102.5zM252 1297q-25 0 -46.5 9.5t-38 26t-26 38t-9.5 46.5t9.5 46.5
t26 38t38 26t46.5 9.5t46.5 -9.5t38 -26t26 -38t9.5 -46.5t-9.5 -46.5t-26 -38t-38 -26t-46.5 -9.5z" />
    <glyph glyph-name="uni0130" unicode="&#x130;" horiz-adv-x="548" 
d="M364 0h-180v1443h180v-1443zM274 1575q-51 0 -86 35t-35 86t35 86t86 35t86 -35t35 -86t-35 -86t-86 -35z" />
    <glyph glyph-name="uni0131" unicode="&#x131;" horiz-adv-x="504" 
d="M166 0h172v1078h-172v-1078z" />
    <glyph glyph-name="uni0132" unicode="&#x132;" horiz-adv-x="1650" 
d="M364 0h-180v1443h180v-1443zM634 337h179q2 -45 19 -83t47.5 -65t72.5 -42t93 -15q116 0 178.5 68.5t62.5 202.5v1040h180v-1041q0 -103 -29 -184t-83 -137t-132 -85.5t-176 -29.5q-91 0 -166.5 27t-130 75.5t-85 117t-30.5 151.5z" />
    <glyph glyph-name="uni0133" unicode="&#x133;" horiz-adv-x="1032" 
d="M166 0v1078h172v-1078h-172zM854 1078v-1131q0 -167 -80 -242t-250 -75h-30v147h26q92 0 127 39t35 128v1134h172zM252 1297q-25 0 -46.5 9.5t-38 26t-26 38t-9.5 46.5t9.5 46.5t26 38t38 26t46.5 9.5t46.5 -9.5t38 -26t26 -38t9.5 -46.5t-9.5 -46.5t-26 -38t-38 -26
t-46.5 -9.5zM768 1297q-25 0 -46.5 9.5t-38 26t-26 38t-9.5 46.5t9.5 46.5t26 38t38 26t46.5 9.5t46.5 -9.5t38 -26t26 -38t9.5 -46.5t-9.5 -46.5t-26 -38t-38 -26t-46.5 -9.5z" />
    <glyph glyph-name="uni0134" unicode="&#x134;" horiz-adv-x="1102" 
d="M86 337h179q2 -45 19 -83t47.5 -65t72.5 -42t93 -15q116 0 178.5 68.5t62.5 202.5v1040h180v-1041q0 -103 -29 -184t-83 -137t-132 -85.5t-176 -29.5q-91 0 -166.5 27t-130 75.5t-85 117t-30.5 151.5zM746 1873h164l300 -298h-202l-172 177h-16l-172 -177h-202z" />
    <glyph glyph-name="uni0135" unicode="&#x135;" horiz-adv-x="504" 
d="M332 1078v-1131q0 -167 -80 -242t-250 -75h-30v147h26q92 0 127 39t35 128v1134h172zM355 1568l282 -340h-198l-177 227h-16l-177 -227h-198l282 340h202z" />
    <glyph glyph-name="uni0136" unicode="&#x136;" horiz-adv-x="1349" 
d="M364 0v504l173 191l521 -695h233l-630 820l577 623h-226l-632 -701h-16v701h-180v-1443h180zM656 -518l117 377h-182l-102 -377h167z" />
    <glyph glyph-name="uni0137" unicode="&#x137;" horiz-adv-x="1112" 
d="M360 607h-16v899h-172v-1506h172v409l103 96l404 -505h219l-495 616l464 462h-211zM606 -518l117 377h-182l-102 -377h167z" />
    <glyph glyph-name="uni0139" unicode="&#x139;" horiz-adv-x="1163" 
d="M1060 162h-696v1281h-180v-1443h876v162zM372 1575l332 298h-226l-310 -298h204z" />
    <glyph glyph-name="uni013A" unicode="&#x13a;" horiz-adv-x="516" 
d="M172 0h172v1506h-172v-1506zM356 1638l332 298h-226l-310 -298h204z" />
    <glyph glyph-name="uni013B" unicode="&#x13b;" horiz-adv-x="1163" 
d="M1060 162h-696v1281h-180v-1443h876v162zM625 -518l117 377h-182l-102 -377h167z" />
    <glyph glyph-name="uni013C" unicode="&#x13c;" horiz-adv-x="516" 
d="M172 0h172v1506h-172v-1506zM261 -518l117 377h-182l-102 -377h167z" />
    <glyph glyph-name="uni013D" unicode="&#x13d;" horiz-adv-x="1163" 
d="M1060 162h-696v1281h-180v-1443h876v162zM589 1443v-488h120l50 488h-170z" />
    <glyph glyph-name="uni013E" unicode="&#x13e;" horiz-adv-x="645" 
d="M172 0h172v1506h-172v-1506zM495 1506v-488h120l50 488h-170z" />
    <glyph glyph-name="uni0141" unicode="&#x141;" horiz-adv-x="1163" 
d="M364 162v639l292 133v143l-292 -133v499h-180v-581l-166 -76v-143l166 76v-719h876v162h-696z" />
    <glyph glyph-name="uni0142" unicode="&#x142;" horiz-adv-x="516" 
d="M472 994l-128 -61v573h-172v-656l-128 -61v-143l128 61v-707h172v790l128 61v143z" />
    <glyph glyph-name="uni0143" unicode="&#x143;" horiz-adv-x="1520" 
d="M362 0v1119h16l783 -1119h175v1443h-178v-1123h-16l-783 1123h-175v-1443h178zM858 1575l332 298h-226l-310 -298h204z" />
    <glyph glyph-name="uni0144" unicode="&#x144;" horiz-adv-x="1195" 
d="M162 0v1078h164v-170h16q41 90 120 139.5t204 49.5q183 0 280 -103t97 -296v-698h-172v656q0 146 -62 216t-192 70q-64 0 -116.5 -21t-89.5 -60t-57 -95.5t-20 -127.5v-638h-172zM683 1263h-194l252 338h220z" />
    <glyph glyph-name="uni0145" unicode="&#x145;" horiz-adv-x="1520" 
d="M362 0v1119h16l783 -1119h175v1443h-178v-1123h-16l-783 1123h-175v-1443h178zM763 -518l117 377h-182l-102 -377h167z" />
    <glyph glyph-name="uni0146" unicode="&#x146;" horiz-adv-x="1195" 
d="M162 0v1078h164v-170h16q41 90 120 139.5t204 49.5q183 0 280 -103t97 -296v-698h-172v656q0 146 -62 216t-192 70q-64 0 -116.5 -21t-89.5 -60t-57 -95.5t-20 -127.5v-638h-172zM606 -518h-167l102 377h182z" />
    <glyph glyph-name="uni0147" unicode="&#x147;" horiz-adv-x="1520" 
d="M362 0v1119h16l783 -1119h175v1443h-178v-1123h-16l-783 1123h-175v-1443h178zM678 1575h164l300 298h-202l-172 -177h-16l-172 177h-202z" />
    <glyph glyph-name="uni0148" unicode="&#x148;" horiz-adv-x="1195" 
d="M162 0v1078h164v-170h16q41 90 120 139.5t204 49.5q183 0 280 -103t97 -296v-698h-172v656q0 146 -62 216t-192 70q-64 0 -116.5 -21t-89.5 -60t-57 -95.5t-20 -127.5v-638h-172zM704 1228h-202l-282 340h198l177 -227h16l177 227h198z" />
    <glyph glyph-name="uni014C" unicode="&#x14c;" horiz-adv-x="1579" 
d="M791 1477q154 0 276 -53t207.5 -151t131 -237.5t45.5 -313.5q0 -173 -45 -312.5t-130.5 -238t-207.5 -152t-277 -53.5t-278 53t-208.5 151.5t-131 238.5t-45.5 313q0 174 46 313.5t132.5 238t209 151t275.5 52.5zM791 1311q-110 0 -198.5 -41.5t-150.5 -118t-95.5 -185.5
t-33.5 -244q0 -134 32.5 -243t94 -186t150.5 -119t201 -42q111 0 199 42t149.5 119t94 186t32.5 243q0 135 -32.5 244t-94 185.5t-149.5 118t-199 41.5zM1128 1756v-136h-674v136h674z" />
    <glyph glyph-name="uni014D" unicode="&#x14d;" horiz-adv-x="1210" 
d="M605 -19q-115 0 -207 38.5t-156.5 110.5t-99 175.5t-34.5 233.5t34.5 233.5t99 175.5t156.5 110.5t207 38.5t207 -38.5t156.5 -110.5t99 -175.5t34.5 -233.5t-34.5 -233.5t-99 -175.5t-156.5 -110.5t-207 -38.5zM605 136q154 0 236.5 105.5t82.5 297.5q0 193 -82.5 298
t-236.5 105t-236.5 -105t-82.5 -298q0 -192 82.5 -297.5t236.5 -105.5zM942 1422v-136h-674v136h674z" />
    <glyph glyph-name="uni014E" unicode="&#x14e;" horiz-adv-x="1579" 
d="M791 1477q154 0 276 -53t207.5 -151t131 -237.5t45.5 -313.5q0 -173 -45 -312.5t-130.5 -238t-207.5 -152t-277 -53.5t-278 53t-208.5 151.5t-131 238.5t-45.5 313q0 174 46 313.5t132.5 238t209 151t275.5 52.5zM791 1311q-110 0 -198.5 -41.5t-150.5 -118t-95.5 -185.5
t-33.5 -244q0 -134 32.5 -243t94 -186t150.5 -119t201 -42q111 0 199 42t149.5 119t94 186t32.5 243q0 135 -32.5 244t-94 185.5t-149.5 118t-199 41.5zM427 1873h154q0 -79 56 -126t154 -47t154 47t56 126h154q0 -67 -25 -122t-72 -94t-114.5 -60.5t-152.5 -21.5
t-152.5 21.5t-114.5 60.5t-72 94t-25 122z" />
    <glyph glyph-name="uni014F" unicode="&#x14f;" horiz-adv-x="1210" 
d="M605 -19q-115 0 -207 38.5t-156.5 110.5t-99 175.5t-34.5 233.5t34.5 233.5t99 175.5t156.5 110.5t207 38.5t207 -38.5t156.5 -110.5t99 -175.5t34.5 -233.5t-34.5 -233.5t-99 -175.5t-156.5 -110.5t-207 -38.5zM605 136q154 0 236.5 105.5t82.5 297.5q0 193 -82.5 298
t-236.5 105t-236.5 -105t-82.5 -298q0 -192 82.5 -297.5t236.5 -105.5zM239 1556h154q0 -43 13.5 -79.5t40.5 -63.5t66 -42t90 -15t90 15t66 42t40.5 63.5t13.5 79.5h154q0 -71 -25 -131t-71.5 -104t-114 -68.5t-153.5 -24.5q-85 0 -153 24.5t-114.5 68.5t-71.5 104t-25 131
z" />
    </font>
</defs>
</svg>
